<svg xmlns="http://www.w3.org/2000/svg" xmlns:xlink="http://www.w3.org/1999/xlink" width="533" height="455" viewBox="0 0 533 455"><defs><style>.a{fill:url(#a);}.b{clip-path:url(#b);}.c{opacity:0.92;}.d{fill:rgba(162,24,34,0.53);opacity:0.405;}.e{fill:url(#c);}.f{fill:none;}.g{opacity:0.1;}.h,.n{fill:#fff;}.i{fill:rgba(127,132,149,0.8);}.i,.n{font-size:10px;}.i,.k,.m,.n{font-family:SourceCodePro-Regular, Source Code Pro;}.j{fill:rgba(231,105,107,0.8);font-family:SourceCodePro-Bold, Source Code Pro;font-weight:700;}.k,.l{fill:rgba(255,255,255,0.8);}.k,.m{font-weight:400;}.m{fill:rgba(20,115,230,0.8);}.n{opacity:0.5;}.o{fill:#1473e6;}</style><linearGradient id="a" x1="0.446" y1="0.649" x2="0.182" y2="1.258" gradientUnits="objectBoundingBox"><stop offset="0" stop-color="red" stop-opacity="0.788"/><stop offset="0.488" stop-opacity="0.098"/><stop offset="1" stop-color="red" stop-opacity="0.502"/></linearGradient><clipPath id="b"><rect class="a" width="533" height="455"/></clipPath><linearGradient id="c" x1="0.5" x2="0.5" y2="0.852" gradientUnits="objectBoundingBox"><stop offset="0" stop-color="#151f34"/><stop offset="0.374" stop-color="#151f34"/><stop offset="1" stop-color="#151f34" stop-opacity="0.537"/></linearGradient></defs><g class="b"><g transform="translate(29.262 1.046)"><g class="c" transform="translate(7 289.74)"><rect class="d" width="397.137" height="261.494" rx="25" transform="translate(40.759 95.184)"/><g transform="translate(0 0)"><rect class="e" width="316.49" height="280.644" rx="14" transform="translate(5 16)"/><rect class="f" width="428.49" height="268.816"/><g class="g" transform="translate(20.902 30.92)"><ellipse class="h" cx="5.225" cy="5.23" rx="5.225" ry="5.23" transform="translate(0 0)"/><ellipse class="h" cx="5.225" cy="5.23" rx="5.225" ry="5.23" transform="translate(16.722 0)"/><ellipse class="h" cx="5.225" cy="5.23" rx="5.225" ry="5.23" transform="translate(32.398 0)"/></g><text class="i" transform="translate(21.947 48.299)"><tspan x="0" y="10">// Create an ExecutionContext using credentials</tspan><tspan class="j"><tspan x="0" y="26">const</tspan><tspan class="k" y="26" xml:space="preserve"> executionContext = PDFToolsSdk.Execution.</tspan></tspan><tspan class="l"><tspan x="0" y="42">createPdfOperation = PDFToolsSdk.CreatePDF.Oper</tspan><tspan x="0" y="58" xml:space="preserve">  </tspan></tspan><tspan x="0" y="74">// Set operation input from a source file</tspan><tspan class="j"><tspan x="0" y="90">const</tspan><tspan class="k" y="90"> </tspan><tspan class="k" y="90">input = PDFToolsSdk.FileRef.</tspan><tspan class="m" y="90">createFrom.ex</tspan></tspan></text><text class="n" transform="translate(21.947 144.598)"><tspan x="0" y="10">createPdfOperation.</tspan><tspan class="o" y="10">setInput</tspan><tspan y="10">(input);</tspan></text></g></g></g></g></svg>