<svg xmlns="http://www.w3.org/2000/svg" xmlns:xlink="http://www.w3.org/1999/xlink" width="533" height="454.618" viewBox="0 0 533 454.618"><defs><style>.a,.d,.o{fill:#fff;}.a,.i{opacity:0.5;}.b{clip-path:url(#a);}.c{fill:rgba(162,24,34,0.53);opacity:0.405;}.e{font-size:22px;letter-spacing:-0.02em;}.e,.g,.h,.i,.k,.l{font-family:Inter-Bold, Inter;}.e,.g,.h,.i,.k,.l,.o{font-weight:700;}.f,.l{font-size:5px;}.f,.m{font-family:Inter-Regular, Inter;}.f,.g,.k,.l,.m{opacity:0.7;}.g,.i{font-size:8px;}.h{font-size:15px;}.j{fill:#e6e6e6;}.k,.m{font-size:4px;}.n{fill:#b30b00;}.o{font-size:12px;font-family:AdobeClean-Bold, Adobe Clean;}</style><clipPath id="a"><rect class="a" width="533" height="454.618"/></clipPath></defs><g class="b"><g transform="translate(19.488)"><g transform="translate(89.878)"><rect class="c" width="354.288" height="464.024" rx="25" transform="translate(0 42.849)"/><rect class="d" width="367.875" height="479.7" rx="14" transform="translate(27.173 0)"/><g transform="translate(1437.626 -9514)"><rect class="d" width="337.344" height="497.911" transform="translate(-1395.189 9520)"/><text class="e" transform="translate(-1368 9602)"><tspan x="0" y="0">Invoice</tspan></text><g transform="translate(-1367.61 9647.18)"><text class="f" transform="translate(104.611 8.82)"><tspan x="0" y="0">Kessler, Mraz and Mraz</tspan></text><text class="f" transform="translate(104.611 45.82)"><tspan x="0" y="0">Turcotte - Hane</tspan></text><text class="f" transform="translate(184.611 8.82)"><tspan x="0" y="0">IBAN</tspan></text><text class="f" transform="translate(104.611 16.82)"><tspan x="0" y="0">Austria Port Chelseybury</tspan></text><text class="f" transform="translate(104.611 53.82)"><tspan x="0" y="0">Argentina Maxieborough</tspan></text><text class="f" transform="translate(184.611 16.82)"><tspan x="0" y="0">AL67090007167U0578Z270O79V04</tspan></text><text class="f" transform="translate(104.611 25.82)"><tspan x="0" y="0">01909 Coby Harbors</tspan></text><text class="f" transform="translate(104.611 62.82)"><tspan x="0" y="0">16621 Ella Parkway</tspan></text><text class="f" transform="translate(184.611 25.82)"><tspan x="0" y="0">VHKISOX1748</tspan></text><text class="g" transform="translate(-0.389 11.82)"><tspan x="0" y="0">Customer</tspan></text><text class="g" transform="translate(-0.389 48.82)"><tspan x="0" y="0">Supplier</tspan></text></g><g transform="translate(-1166.075 9909.684)"><text class="h" transform="translate(0.075 25.316)"><tspan x="0" y="0">$2,300.00</tspan></text><text class="i" transform="translate(63.075 8.316)"><tspan x="0" y="0">DUE</tspan></text></g><rect class="j" width="280.656" height="0.847" transform="translate(-1367.61 9629.397)"/><rect class="j" width="280.656" height="0.847" transform="translate(-1367.61 9963.878)"/><g transform="translate(-1368.087 9755.568)"><rect class="j" width="280.149" height="0.847" transform="translate(0.985 44.033)"/><rect class="j" width="280.149" height="0.847" transform="translate(0.985 12.702)"/><rect class="j" width="280.149" height="0.847" transform="translate(0.985 76.211)"/><text class="k" transform="translate(0 4)"><tspan x="0" y="0">ITEMS</tspan></text><text class="f" transform="translate(0 30.404)"><tspan x="0" y="0">Web design</tspan></text><text class="f" transform="translate(0 62.582)"><tspan x="0" y="0">Web developmnet</tspan></text><text class="l" transform="translate(105.088 5.432)"><tspan x="0" y="0">QUANTITY</tspan></text><text class="f" transform="translate(105.088 30.432)"><tspan x="0" y="0">1</tspan></text><text class="f" transform="translate(105.088 62.432)"><tspan x="0" y="0">1</tspan></text><text class="l" transform="translate(230.088 5.432)"><tspan x="-14.746" y="0">PRICE</tspan></text><text class="f" transform="translate(231.088 30.432)"><tspan x="-19.134" y="0">$100.00</tspan></text><text class="f" transform="translate(231.088 62.432)"><tspan x="-19.134" y="0">$100.00</tspan></text><text class="l" transform="translate(280.423 5)"><tspan x="-22.887" y="0">AMOUNT</tspan></text><text class="f" transform="translate(280.811 30.404)"><tspan x="-19.929" y="0">$900.00</tspan></text><text class="f" transform="translate(280.811 62.582)"><tspan x="-19.929" y="0">$900.00</tspan></text></g><g transform="translate(-1203.811 9847.021)"><text class="l" transform="translate(66.811 4.979)"><tspan x="-28.821" y="0">SUB-TOTAL</tspan></text><text class="l" transform="translate(65.123 17.702)"><tspan x="-24.343" y="0">TAX RATE</tspan></text><text class="l" transform="translate(65.591 41.412)"><tspan x="-16.399" y="0">TOTAL</tspan></text><rect class="j" width="118.55" height="0.847" transform="translate(0 26.25)"/><text class="f" transform="translate(116.147 5)"><tspan x="-23.288" y="0">$1,800.00</tspan></text><text class="f" transform="translate(116.534 17.702)"><tspan x="-19.851" y="0">$500.00</tspan></text><text class="f" transform="translate(115.453 41.412)"><tspan x="-24.283" y="0">$2,300.00</tspan></text></g><text class="m" transform="translate(-1368.087 9552.952)"><tspan x="0" y="0">6/1/2021</tspan></text><text class="f" transform="translate(-1368.087 9977.346)"><tspan x="0" y="0">Turcotte - Hane</tspan></text></g></g><g transform="translate(382.506 0)"><path class="n" d="M0,0H52.255a0,0,0,0,1,0,0V51.48a6,6,0,0,1-6,6H6a6,6,0,0,1-6-6V0A0,0,0,0,1,0,0Z" transform="translate(0 0)"/><path class="d" d="M36.515-28.081c-1.952-2.027-7.284-1.2-8.56-1.051a22.7,22.7,0,0,1-3.6-4.731,21.835,21.835,0,0,0,1.2-6.232c0-1.877-.751-3.9-2.853-3.9a2.182,2.182,0,0,0-1.8,1.051c-.9,1.577-.526,4.731.9,7.959a54.234,54.234,0,0,1-3.679,8.56c-2.178.9-6.758,3-7.133,5.256a2.007,2.007,0,0,0,.6,1.877,2.884,2.884,0,0,0,1.877.676c2.778,0,5.481-3.829,7.359-7.058a49.858,49.858,0,0,1,6.533-1.727,10.386,10.386,0,0,0,6.833,2.928c1.8,0,2.478-.751,2.7-1.427A1.953,1.953,0,0,0,36.515-28.081ZM34.638-26.8c-.075.526-.751,1.051-1.952.751a10.3,10.3,0,0,1-3.829-1.952,16.164,16.164,0,0,1,4.731-.075C34.187-27.931,34.788-27.556,34.638-26.8ZM22.1-42.273a.766.766,0,0,1,.6-.375c.676,0,.826.826.826,1.5a16.5,16.5,0,0,1-.9,4.655C21.5-39.495,21.722-41.6,22.1-42.273Zm-.15,14.567a41.93,41.93,0,0,0,1.727-4.2,19.142,19.142,0,0,0,2.4,3.079C26.077-28.757,23.75-28.307,21.948-27.706Zm-4.43,3c-1.727,2.853-3.529,4.655-4.505,4.655a1.067,1.067,0,0,1-.451-.15.57.57,0,0,1-.225-.676C12.562-21.924,14.514-23.351,17.517-24.7Z" transform="translate(2.697 50.999)"/><text class="o" transform="translate(15.676 47.533)"><tspan x="0" y="0">PDF</tspan></text></g></g></g></svg>