<svg xmlns="http://www.w3.org/2000/svg" width="17" height="21" viewBox="0 0 17 21"><defs><style>.a,.b{fill:#da7b11;fill-rule:evenodd;}.b{opacity:0.1;}</style></defs><g transform="translate(-4 -1)"><path class="a" d="M21,22V20a4,4,0,0,0-1.4-2.8l-3.2-2.9A3.09,3.09,0,0,0,14,13H6a2.006,2.006,0,0,0-2,2v7H6V15h7v4a2.006,2.006,0,0,0,2,2h4v1Zm-6-6.6L18.6,19H15V15.4ZM4,1V5A2.006,2.006,0,0,0,6,7H19a2.006,2.006,0,0,0,2-2V1H19V5H6V1H4M4,11H6V9H4v2Zm6,0h2V9H10v2Zm3,0h2V9H13v2Zm3,0h2V9H16v2Zm3,0h2V9H19v2ZM7,11H9V9H7v2Z"/><path class="b" d="M6,22V15h7v4a2.006,2.006,0,0,0,2,2h4v1Zm9-6.6L18.6,19H15V15.4Z"/><path class="b" d="M19,1V5H6V1"/></g></svg>