<svg xmlns="http://www.w3.org/2000/svg" xmlns:xlink="http://www.w3.org/1999/xlink" width="598.499" height="264.496" viewBox="0 0 598.499 264.496"><defs><style>.a{fill:#c7c7c7;}.b,.g{fill:#61bdc9;}.b,.c,.d,.f,.g,.j,.k,.l{opacity:0.75;}.c{fill:#80c1a3;}.d,.v{fill:#1473e6;}.e,.n{fill:#fff;}.f{fill:#4f96ec;}.g{stroke:rgba(0,0,0,0);stroke-miterlimit:10;}.h{fill:#e1e1e1;}.i,.j,.k,.l{fill:none;}.i{stroke:#e1e1e1;stroke-width:2px;}.j{stroke:#81c6cf;}.j,.k,.l{stroke-linecap:round;stroke-width:4px;}.k{stroke:#99c9b3;}.l{stroke:#488fe5;}.m{fill:#747474;}.n,.r{opacity:0.5;}.o,.q,.r{fill:#b3b3b3;}.o,.p{opacity:0.504;}.s{fill:rgba(128,193,163,0.2);stroke:#80c1a3;}.s,.t,.u{stroke-width:3px;mix-blend-mode:multiply;isolation:isolate;}.t{fill:rgba(97,189,201,0.2);stroke:#61bdc9;}.u{fill:rgba(20,115,230,0.2);stroke:#1473e6;}.w{fill:#44b782;}.x{fill:#17b3c7;}.y{filter:url(#g);}.z{filter:url(#e);}.aa{filter:url(#c);}.ab{filter:url(#a);}</style><filter id="a" x="463.499" y="146.43" width="135" height="102" filterUnits="userSpaceOnUse"><feOffset dy="3" input="SourceAlpha"/><feGaussianBlur stdDeviation="5" result="b"/><feFlood flood-opacity="0.161"/><feComposite operator="in" in2="b"/><feComposite in="SourceGraphic"/></filter><filter id="c" x="468.689" y="0" width="125.431" height="125.43" filterUnits="userSpaceOnUse"><feOffset dy="3" input="SourceAlpha"/><feGaussianBlur stdDeviation="5" result="d"/><feFlood flood-opacity="0.161"/><feComposite operator="in" in2="d"/><feComposite in="SourceGraphic"/></filter><filter id="e" x="3.725" y="35.225" width="183.254" height="229.271" filterUnits="userSpaceOnUse"><feOffset dy="3" input="SourceAlpha"/><feGaussianBlur stdDeviation="5" result="f"/><feFlood flood-opacity="0.161"/><feComposite operator="in" in2="f"/><feComposite in="SourceGraphic"/></filter><filter id="g" x="21.498" y="19.43" width="183" height="228" filterUnits="userSpaceOnUse"><feOffset dy="3" input="SourceAlpha"/><feGaussianBlur stdDeviation="5" result="h"/><feFlood flood-opacity="0.161"/><feComposite operator="in" in2="h"/><feComposite in="SourceGraphic"/></filter></defs><g transform="translate(-1704.514 -1443.314)"><g transform="translate(-963.568 15804.752)"><path class="a" d="M1881.239,1288.142a11.389,11.389,0,0,1-10.9-11.807c.01-.316.036-.629.076-.946l.006-8.812a8.172,8.172,0,0,0-4.068-7.593.536.536,0,0,1-.3-.3.455.455,0,0,1,.018-.354.467.467,0,0,1,.218-.216,8.216,8.216,0,0,0,4.118-7.7c0-1.973,0-2.055-.065-8.5a11.285,11.285,0,0,1,9.8-12.678l.242-.028c.308-.03.569-.045.832-.053l2.026-.314a.742.742,0,0,1,.708.72v5.624a.73.73,0,0,1-.735.663l-3.933.309-.08,0a2.585,2.585,0,0,0-2.571,2.4l0,11.558a14.037,14.037,0,0,1-4.208,7.766l-.742.694.732.706a14.427,14.427,0,0,1,4.205,7.772v11.512a2.619,2.619,0,0,0,2.609,2.469l4.093,0a.75.75,0,0,1,.776.722v5.676a.737.737,0,0,1-.736.708Z" transform="translate(1083.336 -15480.695)"/><path class="a" d="M1952.475,1287.876a.741.741,0,0,1-.736-.72v-5.693a.739.739,0,0,1,.738-.707h4.206a2.619,2.619,0,0,0,2.7-2.383l0-11.663a14.473,14.473,0,0,1,4.205-7.776l.733-.7-.743-.695a14.029,14.029,0,0,1-4.195-7.681v-11.49a2.6,2.6,0,0,0-2.577-2.471l-4.168,0a.75.75,0,0,1-.777-.717v-5.629a.74.74,0,0,1,.738-.707h2.224a11.223,11.223,0,0,1,10.836,11.552c-.013.375-.042.751-.093,1.127-.009,4.24-.037,5.755-.057,6.844-.011.62-.02,1.1-.02,1.843a8.24,8.24,0,0,0,4.145,7.6.466.466,0,0,1,.059.864l-1.525.733.269.179a8.286,8.286,0,0,0-2.936,6.786v8.643a11.374,11.374,0,0,1-9.787,12.787c-.324.04-.655.067-.985.081Z" transform="translate(1087.585 -15480.695)"/><rect class="b" width="49.68" height="8.795" rx="2" transform="translate(2978.269 -14213.796)"/><rect class="c" width="49.68" height="8.795" rx="2" transform="translate(2978.268 -14227.537)"/><rect class="d" width="49.68" height="8.795" rx="2" transform="translate(2978.268 -14241.279)"/></g><g transform="translate(2189.906 1608.766)"><g class="ab" transform="matrix(1, 0, 0, 1, -485.39, -165.45)"><rect class="e" width="105" height="72" rx="10" transform="translate(478.5 158.43)"/></g><rect class="c" width="29.813" height="4.062" rx="2.031" transform="translate(45.036 42.789)"/><rect class="c" width="45.793" height="4.062" rx="2.031" transform="translate(45.036 34.072)"/><rect class="f" width="45.793" height="4.062" rx="2.031" transform="translate(45.036 25.355)"/><path class="g" d="M2549.559,13834.751a1.452,1.452,0,0,1-1.451-1.455v-34.863a1.452,1.452,0,0,1,1.451-1.455h34.866a1.452,1.452,0,0,1,1.455,1.455v34.863a1.452,1.452,0,0,1-1.455,1.455Zm31.36-2.906-13.925-13.925-13.925,13.925Zm2.055-2.056v-27.85l-13.926,13.926Zm-31.96,0,13.925-13.925-13.925-13.925Zm15.979-15.979,13.926-13.926h-27.853Z" transform="translate(-2546.654 -13778.886)"/><ellipse class="h" cx="2.031" cy="2.031" rx="2.031" ry="2.031" transform="translate(75.544 -1)"/><ellipse class="h" cx="2.031" cy="2.031" rx="2.031" ry="2.031" transform="translate(81.355 -1)"/><ellipse class="h" cx="2.031" cy="2.031" rx="2.031" ry="2.031" transform="translate(87.166 -1)"/><rect class="h" width="58.868" height="4.062" rx="2.031" transform="translate(0 -1)"/><path class="i" d="M-735-14157.406l105.038,0" transform="translate(728.16 14166.729)"/></g><g transform="translate(1516.203 868.633)"><g class="aa" transform="matrix(1, 0, 0, 1, 188.31, 574.68)"><path class="e" d="M0,80.52V54.5c5.333,8.438,33,11.929,47.715,11.929S88.129,63.713,95.43,54.485V80.52c0,8.23-21.365,14.91-47.715,14.91S0,88.75,0,80.52Zm0-33.3V22.192c5.333,8.446,33,11.929,47.715,11.929S88.129,31.406,95.43,22.179V47.219c0,8.23-21.365,14.909-47.715,14.909S0,55.449,0,47.219ZM0,14.912C0,6.677,21.362,0,47.714,0S95.43,6.677,95.43,14.912,74.066,29.823,47.714,29.823,0,23.147,0,14.912Z" transform="translate(483.69 12)"/></g><circle class="h" cx="2.03" cy="2.03" r="2.03" transform="translate(754.49 627.229)"/><circle class="h" cx="2.03" cy="2.03" r="2.03" transform="translate(754.49 659.532)"/><path class="j" d="M0,8.979S2.558,5.967,3,0" transform="translate(687.221 633.546) rotate(90)"/><path class="j" d="M0,8.979S2.558,5.967,3,0" transform="translate(687.221 666.546) rotate(90)"/><path class="k" d="M0,8.979S2.558,5.967,3,0" transform="translate(687.221 626.546) rotate(90)"/><path class="k" d="M0,8.979S2.558,5.967,3,0" transform="translate(687.221 659.546) rotate(90)"/><path class="l" d="M0,8.979S2.558,5.967,3,0" transform="translate(687.221 619.546) rotate(90)"/><path class="l" d="M0,8.979S2.558,5.967,3,0" transform="translate(687.221 652.546) rotate(90)"/></g><path class="m" d="M1.332-.162c0,.108.054.162.126.162C2.034.036,3.69.036,4.824.036c3.042,0,6.39-1.764,6.39-6.156,0-3.348-2.124-5.742-6.354-5.742-1.656,0-2.88.036-3.4.054-.108.018-.126.054-.126.144ZM3.51-9.936c.432-.018.828-.036,1.332-.036,2.43,0,4.14,1.3,4.14,3.906A3.9,3.9,0,0,1,4.734-1.854c-.468,0-.864,0-1.224-.018Zm14.058,8.19a3.291,3.291,0,0,1-1.278.216c-1.3,0-1.764-.576-1.764-1.242,0-.774.63-1.242,2.052-1.242a7.405,7.405,0,0,1,.99.054ZM19.674-5.49a3.267,3.267,0,0,0-3.582-3.564,6.688,6.688,0,0,0-2.736.54.171.171,0,0,0-.108.18v1.566a.105.105,0,0,0,.144.108,5.354,5.354,0,0,1,2.358-.5c1.584,0,1.818.936,1.818,1.35V-5.6c-.162-.018-.576-.036-1.116-.036-2.34,0-4.05.954-4.05,2.862C12.4-.738,13.968.18,15.93.18a8.755,8.755,0,0,0,3.744-.81c.036-.018.036-.036.036-.072-.036-.378-.036-.738-.036-1.134Zm6.372,3.906c0-.108-.054-.126-.108-.108a3.051,3.051,0,0,1-.684.072c-.774,0-1.026-.378-1.026-1.17V-7.056h1.764c.09,0,.126-.036.126-.126V-8.748c0-.09-.036-.126-.126-.126H24.246c0-.882.036-1.944.09-2.538,0-.09-.036-.108-.126-.09l-1.818.252a.173.173,0,0,0-.144.162,19,19,0,0,0-.18,2.214H20.934c-.108,0-.144.036-.144.144v1.512c0,.108.036.144.126.162H22.05v4.734c0,1.782.882,2.5,2.358,2.5a4.138,4.138,0,0,0,1.53-.252c.09-.036.108-.108.108-.216ZM32.2-1.746a3.291,3.291,0,0,1-1.278.216c-1.3,0-1.764-.576-1.764-1.242,0-.774.63-1.242,2.052-1.242a7.405,7.405,0,0,1,.99.054ZM34.308-5.49a3.267,3.267,0,0,0-3.582-3.564,6.688,6.688,0,0,0-2.736.54.171.171,0,0,0-.108.18v1.566a.105.105,0,0,0,.144.108,5.354,5.354,0,0,1,2.358-.5c1.584,0,1.818.936,1.818,1.35V-5.6c-.162-.018-.576-.036-1.116-.036-2.34,0-4.05.954-4.05,2.862C27.036-.738,28.6.18,30.564.18a8.755,8.755,0,0,0,3.744-.81c.036-.018.036-.036.036-.072-.036-.378-.036-.738-.036-1.134ZM36.7-12.816a.114.114,0,0,0-.126.126V-.378a.192.192,0,0,0,.126.162,8.994,8.994,0,0,0,2.7.4c2.664,0,5.256-1.656,5.256-4.986A4.063,4.063,0,0,0,40.41-9.054a5.212,5.212,0,0,0-1.638.252l-.018-3.87c0-.126-.036-.144-.162-.144ZM42.444-4.59A2.722,2.722,0,0,1,39.6-1.656a3,3,0,0,1-.828-.09V-7a3.3,3.3,0,0,1,1.26-.2A2.318,2.318,0,0,1,42.444-4.59ZM51.03-1.746a3.291,3.291,0,0,1-1.278.216c-1.3,0-1.764-.576-1.764-1.242,0-.774.63-1.242,2.052-1.242a7.405,7.405,0,0,1,.99.054ZM53.136-5.49a3.267,3.267,0,0,0-3.582-3.564,6.687,6.687,0,0,0-2.736.54.171.171,0,0,0-.108.18v1.566a.105.105,0,0,0,.144.108,5.354,5.354,0,0,1,2.358-.5c1.584,0,1.818.936,1.818,1.35V-5.6c-.162-.018-.576-.036-1.116-.036-2.34,0-4.05.954-4.05,2.862C45.864-.738,47.43.18,49.392.18a8.755,8.755,0,0,0,3.744-.81c.036-.018.036-.036.036-.072-.036-.378-.036-.738-.036-1.134Zm7.29-1.3c.108.036.162-.018.162-.108V-8.478a.219.219,0,0,0-.108-.216,5.548,5.548,0,0,0-2.268-.36c-2.25,0-3.366,1.278-3.366,2.646,0,1.3.7,2.106,2.664,2.826,1.116.45,1.458.738,1.458,1.188,0,.468-.45.792-1.386.792a4.9,4.9,0,0,1-2.574-.72.093.093,0,0,0-.144.09v1.71c0,.108.036.144.126.2a5.537,5.537,0,0,0,2.538.5c2.214,0,3.546-1.062,3.546-2.754,0-1.278-.7-2.088-2.754-2.844-1.152-.45-1.422-.72-1.422-1.116,0-.378.324-.774,1.278-.774A5.12,5.12,0,0,1,60.426-6.786Zm7.65,2.844a13.71,13.71,0,0,0,1.854-.072.155.155,0,0,0,.144-.126,5.448,5.448,0,0,0,.072-1.116,3.578,3.578,0,0,0-3.69-3.8c-2.718,0-4.23,2.214-4.23,4.716C62.226-2.124,63.4.18,66.672.18a5.977,5.977,0,0,0,2.7-.522.191.191,0,0,0,.108-.2V-2.034c0-.09-.054-.108-.108-.072a5.672,5.672,0,0,1-2.232.432c-1.836,0-2.664-1.008-2.718-2.268ZM64.422-5.49a1.966,1.966,0,0,1,1.944-1.836,1.665,1.665,0,0,1,1.728,1.674v.144a8.822,8.822,0,0,1-.99.018Z" transform="translate(2198.013 1574.744)"/><path class="m" d="M2.358-3.2c0,1.71-.684,2.16-1.8,2.16A3.412,3.412,0,0,1,0-1.08c-.126-.018-.162.018-.162.108V.684c0,.108.018.162.126.2a3.559,3.559,0,0,0,.81.072,3.316,3.316,0,0,0,3.618-2.7A7.948,7.948,0,0,0,4.536-3.42V-11.7c0-.108-.036-.126-.126-.126H2.5c-.108,0-.144.054-.144.126ZM9.882.18c2.718,0,4.374-1.368,4.374-3.474,0-1.422-.666-2.556-3.006-3.528l-.684-.288C9.144-7.7,8.73-8.154,8.73-8.8c0-.63.486-1.278,2.034-1.278a5.623,5.623,0,0,1,2.718.594c.108.072.162,0,.162-.072V-11.3c0-.126-.018-.18-.108-.234a6.6,6.6,0,0,0-2.754-.468c-2.718,0-4.176,1.476-4.176,3.4,0,1.35.576,2.466,2.79,3.4l.864.36c1.368.576,1.8,1.08,1.8,1.746,0,.774-.63,1.35-2.106,1.35a6.057,6.057,0,0,1-3.2-.936c-.072-.036-.144,0-.144.072V-.738a.267.267,0,0,0,.126.27A6.851,6.851,0,0,0,9.882.18ZM21.114-12.006c-3.312,0-5.58,2.628-5.58,6.084,0,3.51,2.088,6.1,5.58,6.1,3.276,0,5.58-2.43,5.562-6.156C26.658-9.306,24.642-12.006,21.114-12.006Zm-3.33,6.084c0-2.664,1.386-4.158,3.294-4.158,2.106,0,3.348,1.638,3.348,4.158.018,2.5-1.206,4.176-3.24,4.176C18.972-1.746,17.784-3.6,17.784-5.922ZM30.582,0c.108,0,.144-.054.144-.162V-6.174c0-1.638-.018-2.43-.09-3.348h.018c.7,1.746,4,7.56,4.932,9.4A.228.228,0,0,0,35.82,0h2.286c.126,0,.18-.036.18-.162v-11.5c0-.108-.036-.162-.162-.162H36.4c-.108,0-.162.054-.162.144v5.994c0,1.692.036,2.286.054,2.79H36.27c-.63-1.35-3.384-6.426-4.716-8.8a.191.191,0,0,0-.216-.126H28.8c-.09,0-.126.036-.126.126V-.162c0,.144.054.162.162.162Z" transform="translate(2020.013 1633.744)"/><path class="m" d="M10.566,0c.108,0,.144-.036.144-.144V-11.7c0-.09-.036-.126-.126-.126H8.658a.114.114,0,0,0-.126.126v4.572H3.51v-4.554c0-.108-.036-.144-.144-.144H1.494c-.108,0-.144.036-.144.162v11.5c0,.108.036.162.162.162H3.366c.108,0,.144-.054.144-.162v-5H8.532V-.144c0,.108.036.144.144.144Zm5.256-.162c0,.126.036.18.162.162h1.854c.09,0,.144-.054.144-.162v-9.7h3.636c.09,0,.144-.054.126-.162l-.162-1.638c-.018-.126-.072-.162-.18-.162H12.456c-.108,0-.144.036-.162.144l-.234,1.674c-.018.09.018.144.108.144h3.654Zm7.452-11.556L22.59-.144c-.018.126.018.144.126.144h1.8c.108,0,.144-.018.144-.126.18-3.78.324-8.352.342-10.17h.036c.5,2.2,1.944,7.434,2.718,10.17.018.108.054.126.18.126h1.8A.143.143,0,0,0,29.9-.144c.72-2.394,2.574-8.406,2.988-10.134H32.9c-.018,1.134.018,6.318.108,10.152,0,.108.054.126.144.126h2c.09,0,.144-.036.126-.144l-.486-11.574c-.018-.09-.054-.108-.144-.108H31.842c-.108,0-.126.054-.162.126-.558,1.854-2.34,7.308-2.718,8.838h-.018c-.36-1.674-1.926-7.02-2.466-8.838a.161.161,0,0,0-.18-.126h-2.88C23.328-11.826,23.292-11.826,23.274-11.718ZM44.874,0c.09,0,.144-.018.162-.144l.306-1.692c.018-.072-.018-.126-.126-.126H39.924V-11.7c0-.072-.036-.126-.108-.126H37.89c-.108,0-.144.072-.144.162V-.18c0,.126.036.18.18.18Z" transform="translate(2212.013 1697.744)"/><g transform="translate(85.745 7.867)"><g class="z" transform="matrix(1, 0, 0, 1, 1618.77, 1435.45)"><path class="n" d="M10.972,0h94.949c3.284,0,9.082-.434,12.9,3.547S142.808,28.52,147.6,33.516s5.653,8.035,5.653,10.953v143.28a11.25,11.25,0,0,1-10.972,11.51H10.972A11.25,11.25,0,0,1,0,187.749V11.511A11.25,11.25,0,0,1,10.972,0Z" transform="translate(18.72 47.24)"/></g><g class="y" transform="matrix(1, 0, 0, 1, 1618.77, 1435.45)"><rect class="e" width="153" height="198" rx="10" transform="translate(36.5 31.43)"/></g><rect class="o" width="13.517" height="5.407" rx="2.201" transform="translate(1766.717 1624.965)"/><rect class="o" width="13.517" height="5.407" rx="2.201" transform="translate(1766.717 1615.503)"/><rect class="o" width="13.517" height="5.407" rx="2.201" transform="translate(1766.717 1606.041)"/><rect class="o" width="13.517" height="5.407" rx="2.201" transform="translate(1743.739 1624.965)"/><rect class="o" width="13.517" height="5.407" rx="2.201" transform="translate(1743.739 1615.503)"/><rect class="o" width="13.517" height="5.407" rx="2.201" transform="translate(1743.739 1606.041)"/><rect class="o" width="35.144" height="5.407" rx="2.201" transform="translate(1696.43 1624.965)"/><rect class="o" width="35.144" height="5.407" rx="2.201" transform="translate(1696.43 1615.503)"/><rect class="o" width="35.144" height="5.407" rx="2.201" transform="translate(1696.43 1606.041)"/><g class="p" transform="translate(1677.693 1584.6)"><path class="q" d="M1690.852,1612.488h-9.573a3.577,3.577,0,0,1-3.572-3.575v-46.067h13.145Zm-9.461-3.684h5.777v-42.273h-5.777Z" transform="translate(-1677.707 -1553.386)"/><path class="q" d="M1739.107,1612.488h-53.7v-49.641h53.7ZM1689.1,1608.8h46.328v-42.273H1689.1Z" transform="translate(-1675.95 -1553.386)"/><path class="q" d="M1767.935,1612.488h-23.087v-49.641h26.662v46.067A3.579,3.579,0,0,1,1767.935,1612.488Zm-19.4-3.684h19.294v-42.273h-19.294Z" transform="translate(-1662.396 -1553.386)"/><path class="q" d="M1752.8,1612.488h-26.664v-49.641H1752.8Zm-22.979-3.684h19.3v-42.273h-19.3Z" transform="translate(-1666.662 -1553.386)"/><path class="q" d="M1786.822,1568.288H1677.707v-9.573a3.575,3.575,0,0,1,3.572-3.572h101.968a3.577,3.577,0,0,1,3.575,3.572Zm-105.431-3.684h101.746v-5.777H1681.391Z" transform="translate(-1677.707 -1555.143)"/></g><g transform="translate(1680.211 1524.941)"><rect class="h" width="52.715" height="5.407" rx="2.201" transform="translate(0 40.444)"/><rect class="h" width="105.431" height="5.407" rx="2.201" transform="translate(0 28.279)"/><rect class="h" width="105.431" height="5.407" rx="2.201" transform="translate(0 17.466)"/><rect class="r" width="56.77" height="5.407" rx="2.201" transform="translate(24.33 2)"/></g><path class="r" d="M1682.335,1481.179h74.043a2.675,2.675,0,0,1,2.644,2.7h0a2.674,2.674,0,0,1-2.644,2.7h-74.043a2.674,2.674,0,0,1-2.645-2.7h0A2.675,2.675,0,0,1,1682.335,1481.179Z" transform="translate(0.438 13.59)"/><rect class="s" width="71.093" height="13.919" rx="6.959" transform="translate(1697.768 1522.566)"/><rect class="t" width="120.022" height="69.276" rx="10" transform="translate(1671.768 1579.513)"/><rect class="u" width="87.981" height="13.379" rx="6.69" transform="translate(1675.768 1490.866)"/></g><path class="v" d="M-30.222-.144c-.018.09.036.144.144.144h2.088c.108,0,.144-.036.162-.126l1.656-9.486H-22.7c.09,0,.126-.018.126-.126l.018-1.944c0-.054,0-.108-.108-.108h-8.514c-.09,0-.144.018-.162.108l-.63,1.944c-.018.072,0,.126.09.126h3.312Zm6.876,0c0,.09.036.144.126.144h2.052c.108,0,.144-.018.18-.126l1.548-8.658c.018-.108,0-.162-.108-.162h-2.088c-.09,0-.126.018-.144.126Zm3.024-9.846a1.37,1.37,0,0,0,1.44-1.3,1.055,1.055,0,0,0-1.134-1.3,1.419,1.419,0,0,0-1.494,1.3A1.106,1.106,0,0,0-20.322-9.99Zm6.3,8.1c0-.126-.09-.09-.144-.072a2.717,2.717,0,0,1-.918.144c-.648,0-.738-.378-.63-1.026l.738-4.086h1.566c.108-.018.144-.036.144-.162l.306-1.71c.018-.108-.018-.144-.144-.144h-1.512c.2-.864.36-1.692.522-2.466,0-.072-.036-.144-.108-.108a6.437,6.437,0,0,1-2.214.4c-.108.018-.126.054-.144.126-.108.612-.27,1.386-.4,2.052h-1.08c-.108,0-.126.036-.144.126l-.36,1.728c-.018.108.018.144.108.162h1.116l-.774,4.3c-.378,2.016.5,2.808,1.944,2.808a3.785,3.785,0,0,0,1.62-.288.283.283,0,0,0,.18-.216Zm4.77.144c.018-.072,0-.144-.09-.126a1.993,1.993,0,0,1-.54.09c-.306,0-.522-.09-.432-.612l1.836-10.314c0-.108-.036-.144-.126-.144-.144,0-1.494.09-2.124.144a.155.155,0,0,0-.144.126L-12.69-2.214C-13.014-.4-12.276.18-10.98.18A3.45,3.45,0,0,0-9.72-.036c.108-.054.144-.072.162-.2Zm7.938-.666c0-.072-.036-.108-.108-.09a4.409,4.409,0,0,1-2.322.612c-1.6,0-1.944-.936-1.962-1.44a.351.351,0,0,1,.018-.144C-1.836-3.456-.216-4.662-.234-6.66-.252-7.9-.936-9.126-3.1-9.126c-2.9,0-4.9,2.646-4.9,5.454C-7.992-1.026-6.426.18-4.284.18a4.682,4.682,0,0,0,2.52-.54c.09-.054.144-.09.162-.2ZM-5.508-5.256a2.592,2.592,0,0,1,2.232-2c.774,0,.918.414.918.72C-2.358-6.012-2.862-5.22-5.508-5.256Z" transform="translate(1745.013 1510.744)"/><path class="w" d="M-44.478,0c.126,0,.126-.036.144-.144l2.034-11.5c.018-.108-.054-.144-.126-.144h-2.16a.126.126,0,0,0-.144.108l-.792,4.572h-4.41l.792-4.536c0-.126-.036-.144-.126-.144h-2.16c-.072,0-.108.036-.126.126L-53.568-.144c-.036.126.054.144.126.144H-51.3c.09,0,.108-.036.126-.126l.846-4.806h4.41l-.828,4.788c-.018.108,0,.144.126.144Zm9.2-2.412c0-.072-.036-.108-.108-.09a4.409,4.409,0,0,1-2.322.612c-1.6,0-1.944-.936-1.962-1.44a.351.351,0,0,1,.018-.144c3.852.018,5.472-1.188,5.454-3.186-.018-1.242-.7-2.466-2.862-2.466-2.9,0-4.9,2.646-4.9,5.454,0,2.646,1.566,3.852,3.708,3.852a4.682,4.682,0,0,0,2.52-.54c.09-.054.144-.09.162-.2Zm-4.194-2.844a2.592,2.592,0,0,1,2.232-2c.774,0,.918.414.918.72C-36.324-6.012-36.828-5.22-39.474-5.256Zm14.58-3.438c0-.072-.018-.09-.036-.108a8.469,8.469,0,0,0-2.43-.324c-3.852,0-6.084,2.754-6.084,5.544A3.493,3.493,0,0,0-29.682.18,7.49,7.49,0,0,0-26.442-.5a.17.17,0,0,0,.126-.144Zm-3.528,6.768a1.876,1.876,0,0,1-.738.108,1.723,1.723,0,0,1-1.872-1.854,3.236,3.236,0,0,1,3.168-3.456c.18,0,.27.018.342.018Zm13.662-10.8c0-.108-.036-.126-.108-.126-.108,0-1.584.09-2.124.144-.09.018-.108.054-.126.126l-.63,3.528a3.661,3.661,0,0,0-.81-.072,5.425,5.425,0,0,0-5.544,5.4A3.611,3.611,0,0,0-20.214.18a7.408,7.408,0,0,0,3.222-.7.276.276,0,0,0,.126-.18ZM-18.99-2a2.124,2.124,0,0,1-.792.126A1.8,1.8,0,0,1-21.69-3.8a3.106,3.106,0,0,1,2.844-3.348,2.3,2.3,0,0,1,.738.09Zm11.178-.414c0-.072-.036-.108-.108-.09a4.409,4.409,0,0,1-2.322.612c-1.6,0-1.944-.936-1.962-1.44a.351.351,0,0,1,.018-.144c3.852.018,5.472-1.188,5.454-3.186-.018-1.242-.7-2.466-2.862-2.466-2.9,0-4.9,2.646-4.9,5.454,0,2.646,1.566,3.852,3.708,3.852a4.682,4.682,0,0,0,2.52-.54c.09-.054.144-.09.162-.2Zm-4.194-2.844a2.592,2.592,0,0,1,2.232-2c.774,0,.918.414.918.72C-8.856-6.012-9.36-5.22-12.006-5.256Zm7.326-3.69c-.09,0-.162,0-.162.108a21.128,21.128,0,0,1-.27,2.106L-6.282-.126C-6.3-.054-6.264,0-6.174,0h2.088c.108,0,.126-.036.144-.108l.828-4.68A.981.981,0,0,1-2.97-5.13,3.615,3.615,0,0,1-.162-6.552q.081,0,.108-.108L.414-8.946C.432-9.072.4-9.108.288-9.108a4.064,4.064,0,0,0-3.15,1.764A6.145,6.145,0,0,0-2.79-8.838c0-.09-.036-.108-.162-.108Z" transform="translate(1770.013 1541.744)"/><path class="x" d="M-37.746-.144c-.018.09.036.144.144.144h2.088c.108,0,.144-.036.162-.126L-33.7-9.612h3.474c.09,0,.126-.018.126-.126l.018-1.944c0-.054,0-.108-.108-.108H-38.7c-.09,0-.144.018-.162.108l-.63,1.944c-.018.072,0,.126.09.126h3.312Zm14.508-8.55c0-.072-.018-.09-.036-.108a8.469,8.469,0,0,0-2.43-.324c-3.852,0-6.084,2.754-6.084,5.544A3.493,3.493,0,0,0-28.026.18,7.49,7.49,0,0,0-24.786-.5a.17.17,0,0,0,.126-.144Zm-3.528,6.768a1.876,1.876,0,0,1-.738.108,1.723,1.723,0,0,1-1.872-1.854,3.236,3.236,0,0,1,3.168-3.456c.18,0,.27.018.342.018Zm4.3,1.26a.175.175,0,0,0,.072.2A5.322,5.322,0,0,0-19.6.18,5.606,5.606,0,0,0-13.878-5.6c0-2.088-1.062-3.528-2.934-3.528a3.8,3.8,0,0,0-1.908.468l.7-4.05c.018-.126-.036-.144-.108-.144-.09,0-1.44.072-2.088.126-.108,0-.144.054-.162.144Zm3.4-6.012a2.4,2.4,0,0,1,1.368-.414c1.1,0,1.4.792,1.4,1.692,0,2.088-1.4,3.582-2.97,3.582a1.932,1.932,0,0,1-.63-.108Zm9.81,4.932c.018-.072,0-.144-.09-.126a1.993,1.993,0,0,1-.54.09c-.306,0-.522-.09-.432-.612l1.836-10.314c0-.108-.036-.144-.126-.144-.144,0-1.494.09-2.124.144a.155.155,0,0,0-.144.126L-12.69-2.214C-13.014-.4-12.276.18-10.98.18A3.45,3.45,0,0,0-9.72-.036c.108-.054.144-.072.162-.2Zm7.938-.666c0-.072-.036-.108-.108-.09a4.409,4.409,0,0,1-2.322.612c-1.6,0-1.944-.936-1.962-1.44a.351.351,0,0,1,.018-.144C-1.836-3.456-.216-4.662-.234-6.66-.252-7.9-.936-9.126-3.1-9.126c-2.9,0-4.9,2.646-4.9,5.454C-7.992-1.026-6.426.18-4.284.18a4.682,4.682,0,0,0,2.52-.54c.09-.054.144-.09.162-.2ZM-5.508-5.256a2.592,2.592,0,0,1,2.232-2c.774,0,.918.414.918.72C-2.358-6.012-2.862-5.22-5.508-5.256Z" transform="translate(1744.013 1627.744)"/><path class="a" d="M2014.267,1533.3h-24.159a1.42,1.42,0,0,0-1.421,1.421h0v14.211a1.42,1.42,0,0,0,1.421,1.421h24.159v9.937a.709.709,0,0,0,1.213.5l18.969-18.969-18.968-18.966a.71.71,0,0,0-1,0,.7.7,0,0,0-.21.506Z" transform="translate(126.908 40.595)"/><path class="a" d="M1841.267,1533.3h-24.158a1.421,1.421,0,0,0-1.421,1.421h0v14.211a1.42,1.42,0,0,0,1.421,1.421h24.158v9.937a.709.709,0,0,0,1.213.5l18.969-18.969-18.968-18.966a.71.71,0,0,0-1.214.5Z" transform="translate(102.298 40.595)"/></g></svg>