<svg xmlns="http://www.w3.org/2000/svg" width="21.578" height="23.697" viewBox="0 0 21.578 23.697"><defs><style>.a,.b{fill:#e0b600;}.a{opacity:0.15;}</style></defs><g transform="translate(-709.04 -341.092)"><path class="a" d="M717,354.819a2,2,0,0,1,2-2h5.04v-6.427l-3.4-3.3h-9.6v16H717Z"/><path class="b" d="M717,359.092h-5.96v-16h9.6l3.4,3.3v6.427h2v-6.727a1.854,1.854,0,0,0-.5-1.2l-3.6-3.3a1.852,1.852,0,0,0-1.2-.5h-9.7a2.007,2.007,0,0,0-2,2v16a2.005,2.005,0,0,0,2,2H717Z"/><path class="b" d="M730.123,354.319H719a.5.5,0,0,0-.5.5v6.941a.5.5,0,0,0,.5.5h1.937v2.029a.5.5,0,0,0,.32.467.49.49,0,0,0,.18.033.5.5,0,0,0,.371-.164l3.041-2.365h5.269a.5.5,0,0,0,.5-.5v-6.946A.5.5,0,0,0,730.123,354.319Zm-.505,6.941h-4.992a.5.5,0,0,0-.371.165l-2.318,1.566V361.76a.5.5,0,0,0-.5-.5H719.5v-5.941h10.118Z"/><rect class="b" width="7" height="1" rx="0.27" transform="translate(721 356.29)"/><rect class="b" width="4.9" height="1" rx="0.27" transform="translate(721 358.29)"/><path class="b" d="M718,351.863c.2-.05.4-.094.6-.125a4.242,4.242,0,0,0,1.4.835,3.048,3.048,0,0,0,.978.18,1.136,1.136,0,0,0,.575-.125.531.531,0,0,0,.22-.261.364.364,0,0,0,.027-.094.739.739,0,0,0,0-.093.653.653,0,0,0-.04-.224.469.469,0,0,0-.108-.172l0-.011a1.277,1.277,0,0,0-.606-.309,4.1,4.1,0,0,0-.974-.1,6.362,6.362,0,0,0-.651.033c-.234.022-.467.048-.723.088-.143-.13-.287-.278-.426-.431s-.274-.326-.409-.506c-.094-.126-.184-.256-.269-.392s-.171-.264-.247-.4a10.758,10.758,0,0,0,.328-1.185,4.692,4.692,0,0,0,.112-.916,1.646,1.646,0,0,0-.171-.786.685.685,0,0,0-.633-.363.658.658,0,0,0-.291.081.576.576,0,0,0-.224.2,1.749,1.749,0,0,0-.108,1.1,5.666,5.666,0,0,0,.48,1.518c-.09.264-.193.511-.3.763s-.229.506-.346.785c-.1.238-.2.458-.3.673s-.215.426-.341.651a7.716,7.716,0,0,0-1.742.907,1.734,1.734,0,0,0-.745.875.478.478,0,0,0,.018.265.552.552,0,0,0,.153.224.678.678,0,0,0,.171.108.9.9,0,0,0,.373.077,1.979,1.979,0,0,0,1.342-.84,9.969,9.969,0,0,0,1.019-1.513c.193-.063.4-.126.619-.188s.427-.117.624-.166C717.588,351.967,717.794,351.913,718,351.863Zm1.986-.306a5.075,5.075,0,0,1,.826.05,1.014,1.014,0,0,1,.471.193.354.354,0,0,1,.153.333v0a.319.319,0,0,1-.067.144.357.357,0,0,1-.139.117.753.753,0,0,1-.314.09,1.648,1.648,0,0,1-.427-.014,2.565,2.565,0,0,1-.812-.3,5.286,5.286,0,0,1-.79-.525A6.977,6.977,0,0,1,719.982,351.557Zm-5.591,2.4a1.5,1.5,0,0,1-.835.494.371.371,0,0,1-.1-.013.325.325,0,0,1-.085-.049.372.372,0,0,1-.085-.136.294.294,0,0,1,0-.156,1.566,1.566,0,0,1,.651-.719,7.593,7.593,0,0,1,1.454-.794A5.473,5.473,0,0,1,714.391,353.959Zm2.254-5.771a3.609,3.609,0,0,1-.085-.732l0,0a1.651,1.651,0,0,1,.032-.35.908.908,0,0,1,.09-.251.322.322,0,0,1,.108-.112.286.286,0,0,1,.148-.045.362.362,0,0,1,.31.2.7.7,0,0,1,.1.344,3.012,3.012,0,0,1-.125.839c-.076.306-.188.637-.3.992A5.785,5.785,0,0,1,716.645,348.188Zm.152,3.714c-.177.046-.346.09-.5.14.086-.158.162-.333.238-.5s.143-.338.206-.486c.072-.175.148-.363.22-.548s.144-.373.206-.543c.068.108.153.242.238.374s.171.255.242.354c.117.157.238.31.359.449a5.1,5.1,0,0,0,.377.4c-.175.032-.35.068-.534.108s-.364.085-.552.13v0C717.144,351.816,716.974,351.857,716.8,351.9Z"/></g></svg>