<svg xmlns="http://www.w3.org/2000/svg" xmlns:xlink="http://www.w3.org/1999/xlink" width="62.271" height="64" viewBox="0 0 62.271 64">
  <defs>
    <clipPath id="clip-path">
      <circle id="Ellipse_24870" data-name="Ellipse 24870" cx="12.972" cy="12.972" r="12.972" fill="#fff" stroke="#707070" stroke-width="1"/>
    </clipPath>
    <clipPath id="clip-path-2">
      <path id="Path_578174" data-name="Path 578174" d="M-100.488-13310.377l6.585,10.3H-81.98v-17.1h-18.508Z" transform="translate(100.488 13317.176)" fill="none" stroke="#707070" stroke-width="1"/>
    </clipPath>
  </defs>
  <g id="Group_292593" data-name="Group 292593" transform="translate(-306 -962.999)">
    <path id="Path_578169" data-name="Path 578169" d="M251.836,250.6l-10.2-10.2a6.228,6.228,0,0,0-3.6-1.4h-30.8a5.9,5.9,0,0,0-6,5.778c0,.072,0,.144,0,.215v1.5c.662-.409,1.079-.6,2-1.16v-.343a4.01,4.01,0,0,1,4-4h30.8a4.2,4.2,0,0,1,2.2.8l10.2,10.2a4.185,4.185,0,0,1,.8,2.2v42.8a4.01,4.01,0,0,1-4,4h-40a4.01,4.01,0,0,1-4-4V285.13c-.693-.489-1.327-.754-2-1.16V297a5.9,5.9,0,0,0,5.778,6H247.23a5.9,5.9,0,0,0,6-5.778V254.2A5.75,5.75,0,0,0,251.836,250.6Z" transform="translate(115.04 724)" fill="#b3b3b3"/>
    <path id="Path_578170" data-name="Path 578170" d="M0,0,13.27,13.27" transform="translate(335.724 1001.157)" fill="none" stroke="#f00c00" stroke-linecap="round" stroke-width="2"/>
    <path id="Path_578171" data-name="Path 578171" d="M16.8,0A16.8,16.8,0,1,1,0,16.8,16.8,16.8,0,0,1,16.8,0Z" transform="translate(307 972.434)" fill="none" stroke="#f00c00" stroke-linecap="square" stroke-width="2"/>
    <g id="Group_292591" data-name="Group 292591" transform="translate(310.538 975.972)" clip-path="url(#clip-path)">
      <path id="Path_578172" data-name="Path 578172" d="M219.255,270.693c-1.939,3.122-3.846,5.094-4.953,5.094a.7.7,0,0,1-.5-.178.728.728,0,0,1-.255-.708c.211-1.118,2.42-2.73,5.712-4.2Zm9.316-4.465c-.825.175-1.693.376-2.565.608-.627.166-1.263.347-1.9.54.337-.689.647-1.377.917-2.027.354-.86.689-1.721,1-2.563.276.423.551.835.837,1.232a24.366,24.366,0,0,0,1.778,2.192Zm-4.3-14.859a.8.8,0,0,1,.669-.434c.735,0,.893.886.893,1.626a20.293,20.293,0,0,1-.963,5.14c-1.231-3.263-1.061-5.55-.6-6.333Zm13.8,17.055c-.107.551-.689.915-1.467.915a2.688,2.688,0,0,1-.664-.083,10.8,10.8,0,0,1-4.2-2.135,20.918,20.918,0,0,1,3.111-.236,11.2,11.2,0,0,1,2.073.16c.624.13,1.327.472,1.153,1.377Zm2.09-1.472c-.92-.986-2.676-1.487-5.222-1.487a27.721,27.721,0,0,0-4.217.366,20.822,20.822,0,0,1-2.432-2.84,26.078,26.078,0,0,1-1.514-2.359,24.007,24.007,0,0,0,1.353-6.815c0-2.085-.825-4.317-3.145-4.317a2.33,2.33,0,0,0-1.941,1.147c-.989,1.7-.59,5.2.986,8.755-.551,1.634-1.149,3.227-1.887,4.99A44.527,44.527,0,0,1,220,268.814c-2.364.954-7.393,3.263-7.873,5.817a2.165,2.165,0,0,0,.689,2.033,3,3,0,0,0,2.048.732c3.03,0,6.048-4.2,8.083-7.806,1.156-.394,2.341-.75,3.508-1.061,1.287-.341,2.53-.621,3.705-.826a11.5,11.5,0,0,0,7.486,3.223c1.964,0,2.7-.851,2.964-1.567a2.4,2.4,0,0,0-.456-2.4Z" transform="translate(-209.37 -248.974)" fill="#f00c00" fill-rule="evenodd"/>
    </g>
    <rect id="Rectangle_215461" data-name="Rectangle 215461" width="12.972" height="1.179" rx="0.5" transform="translate(343.558 994.841)" fill="#b3b3b3"/>
    <rect id="Rectangle_215462" data-name="Rectangle 215462" width="14.151" height="1.179" rx="0.5" transform="translate(344.737 1000.737)" fill="#b3b3b3"/>
    <rect id="Rectangle_215463" data-name="Rectangle 215463" width="7.076" height="1.179" rx="0.5" transform="translate(350.633 1006.633)" fill="#b3b3b3"/>
    <rect id="Rectangle_215464" data-name="Rectangle 215464" width="11.793" height="1.179" rx="0.5" transform="translate(327.048 1012.53)" fill="#b3b3b3"/>
    <g id="Group_292592" data-name="Group 292592" transform="translate(338.265 966.331)" clip-path="url(#clip-path-2)">
      <path id="Path_578173" data-name="Path 578173" d="M216.194,261.647c-1.111,1.789-2.2,2.92-2.84,2.92a.4.4,0,0,1-.285-.1.417.417,0,0,1-.146-.409c.118-.64,1.387-1.565,3.274-2.408Zm5.34-2.558c-.472.1-.971.216-1.469.354-.354.1-.724.2-1.089.31.193-.4.371-.789.526-1.162.2-.493.4-.986.572-1.468.158.243.316.479.48.708a13.954,13.954,0,0,0,1.019,1.256Zm-2.466-8.513a.459.459,0,0,1,.383-.249c.421,0,.512.507.512.932a11.629,11.629,0,0,1-.552,2.948,5.011,5.011,0,0,1-.344-3.629Zm7.9,9.773c-.061.316-.4.525-.841.525a1.54,1.54,0,0,1-.38-.047,6.185,6.185,0,0,1-2.408-1.223,11.994,11.994,0,0,1,1.783-.138,6.416,6.416,0,0,1,1.189.092c.354.074.761.271.66.789Zm1.2-.843a4.068,4.068,0,0,0-2.993-.853,15.88,15.88,0,0,0-2.416.21,11.934,11.934,0,0,1-1.393-1.627,14.934,14.934,0,0,1-.868-1.354,13.757,13.757,0,0,0,.775-3.906c0-1.195-.472-2.476-1.8-2.476a1.336,1.336,0,0,0-1.112.658c-.566.973-.341,2.978.565,5.017-.316.936-.658,1.849-1.08,2.86a25.516,25.516,0,0,1-1.223,2.534c-1.355.546-4.236,1.87-4.511,3.334a1.241,1.241,0,0,0,.4,1.165,1.719,1.719,0,0,0,1.179.42c1.736,0,3.466-2.4,4.631-4.473.662-.225,1.342-.43,2-.607.737-.2,1.449-.354,2.123-.472a6.588,6.588,0,0,0,4.289,1.847c1.125,0,1.545-.488,1.7-.9a1.376,1.376,0,0,0-.262-1.376Z" transform="translate(-213.869 -246.408)" fill="#b3b3b3" fill-rule="evenodd"/>
    </g>
  </g>
</svg>
