<svg xmlns="http://www.w3.org/2000/svg" width="69.055" height="70.809" viewBox="0 0 69.055 70.809">
  <g id="_3_Icon_Scalable" data-name="3_Icon_Scalable" transform="translate(23.339 -717.905)">
    <g id="Icon-276x80h-logo-Icon-container" transform="translate(-108 646.501)">
      <g id="Group_183808" data-name="Group 183808" transform="translate(-773.02 -684.16)">
        <path id="Path_357433" data-name="Path 357433" d="M33.93,49.548V64.329a5.286,5.286,0,0,1-5.4,5.162H6.084a5.383,5.383,0,0,1-5.4-5.162V5.844A5.383,5.383,0,0,1,6.084.682H28.391a5.417,5.417,0,0,1,5.54,5.162V20.624" transform="translate(858 755.883)" fill="none" stroke="#b3b3b3" stroke-linecap="round" stroke-linejoin="round" stroke-width="2"/>
        <path id="Path_357434" data-name="Path 357434" d="M11.412,4.258V4.5a.85.85,0,0,0,.737.948c.032,0,.065.006.1.006h5.365a.877.877,0,0,0,.952-.793V4.653a.844.844,0,0,0,0-.159v-.24" transform="translate(860.554 755.883)" fill="none" stroke="#b3b3b3" stroke-linecap="round" stroke-linejoin="round" stroke-width="1.363"/>
        <path id="Path_357435" data-name="Path 357435" d="M16.18,56.72H13.8a1.127,1.127,0,0,0-1.2,1.049v0a1.014,1.014,0,0,0,0,.135,1.128,1.128,0,0,0,1.054,1.2h2.523a1.125,1.125,0,0,0,1.2-1.051v-.138a1.129,1.129,0,0,0-1.057-1.192A.985.985,0,0,0,16.18,56.72Z" transform="translate(860.56 762.691)" fill="none" stroke="#b3b3b3" stroke-linecap="round" stroke-linejoin="round" stroke-width="1.363"/>
        <path id="Rectangle_187847" data-name="Rectangle 187847" d="M2.579,0H46.614a2.58,2.58,0,0,1,2.58,2.58V20.666a2.579,2.579,0,0,1-2.579,2.579H2.579A2.579,2.579,0,0,1,0,20.666V2.579A2.579,2.579,0,0,1,2.579,0Z" transform="translate(876.542 779.34)" fill="none" stroke="#b3b3b3" stroke-linecap="round" stroke-linejoin="round" stroke-width="2"/>
        <path id="Path_357436" data-name="Path 357436" d="M30.226,40.782a21.3,21.3,0,0,1,2.291-8.024c1.908-3.488,7.257-8.4,9.04-7.637s-2.673,14.639-2.673,14.639,9.422-8.021,11.2-7.64-2.037,9.423.124,8.915,3.946-3.691,7.257-4.455c5.265-1.219,11.594,1.272,11.594,1.272" transform="translate(851.493 757.915)" fill="none" stroke="#fa0f00" stroke-linecap="round" stroke-linejoin="round" stroke-width="1.5"/>
      </g>
    </g>
  </g>
</svg>
