<svg xmlns="http://www.w3.org/2000/svg" width="40" height="40" viewBox="0 0 40 40"><defs><style>.a{fill:rgba(255,255,255,0);}.b{fill:rgba(177,48,189,0.1);}.b,.c{stroke:#b130bd;stroke-linecap:round;stroke-linejoin:round;stroke-miterlimit:10;stroke-width:2px;}.c{fill:none;}</style></defs><rect class="a" width="40" height="40"/><g transform="translate(8 8)"><path class="b" d="M23,1H11V11l5-4h7Z"/><path class="c" d="M10,21.836a1.976,1.976,0,0,0-.738-1.554A5.975,5.975,0,0,0,5.5,19a5.975,5.975,0,0,0-3.762,1.282A1.976,1.976,0,0,0,1,21.836V23h9Z"/><circle class="c" cx="2.5" cy="2.5" r="2.5" transform="translate(3 11)"/><path class="c" d="M23,21.836a1.976,1.976,0,0,0-.738-1.554,6.161,6.161,0,0,0-7.524,0A1.976,1.976,0,0,0,14,21.836V23h9Z"/><circle class="c" cx="2.5" cy="2.5" r="2.5" transform="translate(16 11)"/></g></svg>