<svg xmlns="http://www.w3.org/2000/svg" width="40" height="40" viewBox="0 0 40 40"><defs><style>.a{fill:rgba(255,255,255,0);}.b{fill:#fff;}</style></defs><g transform="translate(-1220 -3274)"><rect class="a" width="40" height="40" transform="translate(1220 3274)"/><g transform="translate(-11.113 17.1)"><g transform="translate(-137.289 -14)"><path class="b" d="M694.165,295.021a.4.4,0,0,1-.288-.113l-.521-.518a.409.409,0,0,1-.007-.573l4.03-4.211-4.144-4.1a.41.41,0,0,1-.006-.573l.5-.527a.406.406,0,0,1,.289-.126.4.4,0,0,1,.287.114l4.752,4.7a.705.705,0,0,1,.012.984l-4.616,4.82A.407.407,0,0,1,694.165,295.021Z" transform="translate(701.72 3006.078)"/><path class="b" d="M676.778,294.974a.408.408,0,0,1-.287-.117l-4.685-4.763a.7.7,0,0,1-.031-.95l4.714-4.789a.409.409,0,0,1,.577,0l.514.525a.409.409,0,0,1,0,.573l-4.088,4.155,4.087,4.155a.41.41,0,0,1,0,.573l-.51.521A.4.4,0,0,1,676.778,294.974Z" transform="translate(709.211 3006.094)"/><path class="b" d="M683.659,295a.409.409,0,0,1-.408-.409.429.429,0,0,1,.013-.1l3.537-13.173a.409.409,0,0,1,.395-.3h.631a.411.411,0,0,1,.395.514L684.7,294.7a.409.409,0,0,1-.394.3Z" transform="translate(705.155 3007.217)"/></g><path class="b" d="M676.372,250.37l-.548-.124,0-.558a10,10,0,0,0-19.355-3.441l-.171.454-.488,0a8.662,8.662,0,0,0-8.66,8.294l-.02.486-.465.152a5.608,5.608,0,0,0,1.772,10.939h7.818l-.741-.748a1.989,1.989,0,0,1-.216-.267h-6.861a4.6,4.6,0,0,1-.378-9.178l.108-.009v-1.032a7.661,7.661,0,0,1,7.674-7.623,7.817,7.817,0,0,1,1.124.083l.108.016.025-.105A8.966,8.966,0,0,1,674.7,251.05l-.019.129.131.006a7.19,7.19,0,0,1-.284,14.376h-2.5a1.869,1.869,0,0,1-.171.22l-.766.8h3.451a8.2,8.2,0,0,0,1.833-16.206Z" transform="translate(588.324 3024.117)"/></g></g></svg>