<svg xmlns="http://www.w3.org/2000/svg" width="40" height="40" viewBox="0 0 40 40"><defs><style>.a,.d{fill:rgba(255,255,255,0);}.b,.e{fill:#fff;}.c{fill:none;}.d{stroke:#fff;stroke-linecap:round;stroke-linejoin:round;}.e{opacity:0.1;}</style></defs><g transform="translate(-302 -243)"><rect class="a" width="40" height="40" transform="translate(302 243)"/><g transform="translate(305 244)"><path class="b" d="M13216,2455h-18a3.006,3.006,0,0,1-3-3v-6.5h1v6.5a2,2,0,0,0,2,2h18a2,2,0,0,0,2-2v-19.4a1.492,1.492,0,0,0-.437-1.062l-5.123-5.1a1.483,1.483,0,0,0-1.058-.441H13198a2,2,0,0,0-2,2v6.5h-1V2428a3,3,0,0,1,3-3h13.393a2.459,2.459,0,0,1,1.748.73l5.119,5.1a2.522,2.522,0,0,1,.74,1.772V2452A3.006,3.006,0,0,1,13216,2455Z" transform="translate(-13187 -2424)"/><path class="b" d="M13212,2457h-17a3,3,0,0,1-3-3v-23a3,3,0,0,1,3-3h2.5v1h-2.5a2,2,0,0,0-2,2v23a2,2,0,0,0,2,2h17a2,2,0,0,0,2-2v-.5h1v.5A3.006,3.006,0,0,1,13212,2457Z" transform="translate(-13191 -2421)"/><g transform="translate(17 9)"><rect class="c" width="16" height="16"/></g><g transform="translate(14 10)"><rect class="c" width="12" height="12"/><circle class="d" cx="1.5" cy="1.5" r="1.5" transform="translate(4.5 4.5)"/><path class="d" d="M10,6a3.932,3.932,0,0,0-.142-1l1.28-1.1-.75-1.3-1.579.556a3.989,3.989,0,0,0-1.748-1L6.75.5H5.25L4.939,2.16a3.989,3.989,0,0,0-1.748,1L1.612,2.6.862,3.9,2.142,5A3.932,3.932,0,0,0,2,6a3.932,3.932,0,0,0,.142,1L.862,8.1l.75,1.3,1.579-.555a3.989,3.989,0,0,0,1.748,1L5.25,11.5h1.5l.311-1.66a3.989,3.989,0,0,0,1.748-1l1.579.555.75-1.3L9.858,7A3.932,3.932,0,0,0,10,6Z"/></g><path class="b" d="M4.163,3.082C1.457,3.082,0,5.059,0,8.285.781,7.036,1.405,6.2,4.163,6.2V8.285L8.326,4.643,4.163,1Z" transform="translate(4.174 11)"/><path class="e" d="M26,16V7.6a1.5,1.5,0,0,0-.44-1.06l-5.12-5.1A1.5,1.5,0,0,0,19.38,1H6A2,2,0,0,0,4,3V27a2,2,0,0,0,2,2H26Z" transform="translate(5 1)"/></g></g></svg>