<?xml version="1.0" encoding="UTF-8"?>
<svg xmlns="http://www.w3.org/2000/svg" xmlns:xlink="http://www.w3.org/1999/xlink" width="22px" height="22px" viewBox="0 0 22 22" version="1.1">
<g id="surface1">
<path style=" stroke:none;fill-rule:nonzero;fill:rgb(84.313725%,21.568627%,24.705882%);fill-opacity:1;" d="M 19.359375 15.949219 L 10.433594 15.949219 C 10.121094 14.542969 8.675781 13.75 7.292969 13.996094 C 6.347656 14.238281 5.40625 14.910156 5.152344 15.949219 L 2.578125 15.949219 C 2.453125 15.949219 2.324219 16.070312 2.324219 16.195312 L 2.324219 16.867188 C 2.324219 16.988281 2.453125 17.109375 2.578125 17.109375 L 5.21875 17.109375 C 5.53125 18.515625 6.976562 19.3125 8.359375 19.066406 C 9.304688 18.820312 10.246094 18.148438 10.496094 17.109375 L 19.421875 17.109375 C 19.546875 17.109375 19.675781 16.988281 19.675781 16.867188 L 19.675781 16.195312 C 19.613281 16.132812 19.484375 15.949219 19.359375 15.949219 Z M 7.855469 18.027344 C 7.101562 18.027344 6.347656 17.355469 6.347656 16.5625 C 6.347656 15.828125 7.039062 15.09375 7.855469 15.09375 C 8.675781 15.09375 9.367188 15.828125 9.367188 16.5625 C 9.367188 17.292969 8.675781 18.027344 7.855469 18.027344 Z M 7.855469 18.027344 "/>
<path style=" stroke:none;fill-rule:nonzero;fill:rgb(84.313725%,21.568627%,24.705882%);fill-opacity:1;" d="M 19.359375 4.460938 L 10.433594 4.460938 C 10.121094 3.054688 8.675781 2.261719 7.292969 2.503906 C 6.347656 2.75 5.46875 3.421875 5.152344 4.460938 L 2.578125 4.460938 C 2.453125 4.460938 2.324219 4.582031 2.324219 4.707031 L 2.324219 5.378906 C 2.324219 5.5 2.453125 5.621094 2.578125 5.621094 L 5.21875 5.621094 C 5.53125 7.027344 6.976562 7.820312 8.359375 7.578125 C 9.304688 7.332031 10.246094 6.660156 10.496094 5.621094 L 19.421875 5.621094 C 19.546875 5.621094 19.675781 5.5 19.675781 5.378906 L 19.675781 4.707031 C 19.613281 4.582031 19.484375 4.460938 19.359375 4.460938 Z M 7.855469 6.539062 C 7.101562 6.539062 6.347656 5.867188 6.347656 5.070312 C 6.347656 4.339844 7.039062 3.605469 7.855469 3.605469 C 8.675781 3.605469 9.367188 4.339844 9.367188 5.070312 C 9.367188 5.804688 8.675781 6.539062 7.855469 6.539062 Z M 7.855469 6.539062 "/>
<path style=" stroke:none;fill-rule:nonzero;fill:rgb(84.313725%,21.568627%,24.705882%);fill-opacity:1;" d="M 2.578125 11.367188 L 11.503906 11.367188 C 11.816406 12.773438 13.261719 13.566406 14.644531 13.320312 C 15.589844 13.078125 16.53125 12.40625 16.78125 11.367188 L 19.421875 11.367188 C 19.546875 11.367188 19.675781 11.246094 19.675781 11.121094 L 19.675781 10.449219 C 19.675781 10.328125 19.546875 10.207031 19.421875 10.207031 L 16.78125 10.207031 C 16.46875 8.800781 15.023438 8.003906 13.640625 8.25 C 12.695312 8.496094 11.753906 9.167969 11.503906 10.207031 L 2.578125 10.207031 C 2.453125 10.207031 2.324219 10.328125 2.324219 10.449219 L 2.324219 11.121094 C 2.324219 11.246094 2.453125 11.367188 2.578125 11.367188 Z M 14.144531 9.351562 C 14.898438 9.351562 15.652344 10.023438 15.652344 10.816406 C 15.652344 11.550781 14.960938 12.285156 14.144531 12.285156 C 13.324219 12.285156 12.632812 11.550781 12.632812 10.816406 C 12.632812 10.082031 13.261719 9.351562 14.144531 9.351562 Z M 14.144531 9.351562 "/>
</g>
</svg>
