<svg xmlns="http://www.w3.org/2000/svg" width="68.061" height="72.211" viewBox="0 0 68.061 72.211"><defs><style>.a,.b,.d{fill:#b3b3b3;}.a{fill-rule:evenodd;}.c{fill:#f00c00;}.d{stroke:#b3b3b3;stroke-width:0.2px;}</style></defs><g transform="translate(-177.27 -239)"><path class="a" d="M217.552,265.659c-1.478,2.38-2.932,3.885-3.779,3.885a.534.534,0,0,1-.379-.136.555.555,0,0,1-.194-.544c.161-.852,1.845-2.082,4.356-3.205Zm7.1-3.4c-.63.133-1.291.287-1.956.464-.478.127-.963.264-1.448.412.257-.525.494-1.05.7-1.546.272-.656.525-1.312.761-1.954.21.323.42.637.638.94a18.577,18.577,0,0,0,1.356,1.672Zm-3.282-11.329a.611.611,0,0,1,.51-.331c.56,0,.681.675.681,1.24a15.477,15.477,0,0,1-.735,3.92c-.939-2.488-.808-4.232-.458-4.829Zm10.518,13c-.082.42-.525.7-1.119.7a2.051,2.051,0,0,1-.506-.063,8.23,8.23,0,0,1-3.2-1.628,15.963,15.963,0,0,1,2.372-.183,8.543,8.543,0,0,1,1.581.122c.476.1,1.012.361.879,1.05Zm1.593-1.122c-.7-.752-2.04-1.134-3.982-1.134a21.123,21.123,0,0,0-3.216.279,15.875,15.875,0,0,1-1.854-2.165,19.88,19.88,0,0,1-1.155-1.8,18.307,18.307,0,0,0,1.031-5.2c0-1.59-.63-3.292-2.4-3.292a1.777,1.777,0,0,0-1.48.875c-.754,1.3-.453,3.962.752,6.676-.42,1.246-.876,2.46-1.437,3.8a33.952,33.952,0,0,1-1.628,3.372c-1.8.727-5.637,2.488-6,4.436a1.651,1.651,0,0,0,.525,1.55,2.288,2.288,0,0,0,1.562.558c2.31,0,4.612-3.2,6.163-5.952.881-.3,1.785-.572,2.675-.808.981-.26,1.929-.474,2.825-.63a8.768,8.768,0,0,0,5.708,2.458c1.5,0,2.056-.649,2.26-1.2a1.832,1.832,0,0,0-.348-1.832Z"/><path class="b" d="M244.144,248.837l-8.649-8.649A5.281,5.281,0,0,0,232.442,239H206.325a5,5,0,0,0-5.087,4.9c0,.061,0,.122,0,.182v7.275a3.034,3.034,0,0,1,1.5.818l.2.2v-8.291a3.4,3.4,0,0,1,3.392-3.392h26.117a3.559,3.559,0,0,1,1.866.679l8.648,8.649a3.549,3.549,0,0,1,.678,1.866v36.291a3.4,3.4,0,0,1-3.392,3.392H206.325a3.4,3.4,0,0,1-3.392-3.392V266.117l-.2.2a3.023,3.023,0,0,1-1.5.818v21.048a5,5,0,0,0,4.9,5.088h34.1a5,5,0,0,0,5.088-4.9q0-.092,0-.183V251.89A4.876,4.876,0,0,0,244.144,248.837Z"/><path class="c" d="M206.23,258.5l-4.909-4.909a1.052,1.052,0,0,0-1.488,1.487l3.215,3.215c-7.048,0-11.543,2.7-11.543,8.18a1.052,1.052,0,1,0,2.1,0c0-3.477,3.391-6.013,9.175-6.013l-2.951,2.95a1.052,1.052,0,0,0,1.488,1.488l4.909-4.91A1.052,1.052,0,0,0,206.23,258.5Z"/><path class="b" d="M229.953,287.417a1.2,1.2,0,0,1-1.2-1.135l0-6.122A1.255,1.255,0,0,1,229.9,278.9l.726,0v-.768a3.4,3.4,0,0,1,3.083-3.43l.244-.009a3.412,3.412,0,0,1,3.41,3.285v.625a.7.7,0,0,1-.069.3h.693a1.266,1.266,0,0,1,1.248,1.083l.012.1,0,6.1a1.26,1.26,0,0,1-1.2,1.228l-8.081,0-.021-.25Zm7.927-1.368-.01-5.77h-7.746l0,5.764Zm-1.827-7.149a.7.7,0,0,1-.064-.214l-.005-.587a2.042,2.042,0,0,0-2.03-2.025,1.984,1.984,0,0,0-1.945,1.958v.868Z"/><path class="b" d="M244.144,248.837l-8.649-8.649A5.281,5.281,0,0,0,232.442,239H206.325a5,5,0,0,0-5.087,4.9c0,.061,0,.122,0,.182v7.275a3.034,3.034,0,0,1,1.5.818l.2.2v-8.291a3.4,3.4,0,0,1,3.392-3.392h26.117a3.559,3.559,0,0,1,1.866.679l8.648,8.649a3.549,3.549,0,0,1,.678,1.866v36.291a3.4,3.4,0,0,1-3.392,3.392H206.325a3.4,3.4,0,0,1-3.392-3.392V266.117l-.2.2a3.023,3.023,0,0,1-1.5.818v21.048a5,5,0,0,0,4.9,5.088h34.1a5,5,0,0,0,5.088-4.9q0-.092,0-.183V251.89A4.876,4.876,0,0,0,244.144,248.837Z"/><path class="d" d="M208.669,295.269v12.085a2.51,2.51,0,0,1-2.5,2.5H181.127a2.512,2.512,0,0,1-2.5-2.5V274.8a2.512,2.512,0,0,1,2.5-2.5h18.111v-1.251H181.127a3.69,3.69,0,0,0-3.756,3.621v32.685a3.69,3.69,0,0,0,3.622,3.756h25.173a3.689,3.689,0,0,0,3.756-3.621q0-.068,0-.135V295.269Z"/><path class="b" d="M203.98,298.431H183.313a.517.517,0,0,0-.04,1.033.265.265,0,0,0,.04,0H203.98a.517.517,0,0,0,0-1.033Zm0,4.65H183.313a.517.517,0,0,0,0,1.033H203.98a.517.517,0,0,0,0-1.033Z"/><path class="b" d="M200.706,282.608l-2.776,10.5h-2.622l-1.743-6.738a5.641,5.641,0,0,1-.169-1.179h-.029a7.191,7.191,0,0,1-.19,1.179l-1.787,6.738h-2.732l-2.762-10.5h2.586l1.479,6.995a8.356,8.356,0,0,1,.14,1.2h.044a5.775,5.775,0,0,1,.212-1.23l1.9-6.966h2.534l1.722,7.054a8.721,8.721,0,0,1,.168,1.128h.029a7.609,7.609,0,0,1,.154-1.172l1.45-7.01Z"/></g></svg>