<svg xmlns="http://www.w3.org/2000/svg" width="105.117" height="62.971" viewBox="0 0 105.117 62.971">
  <g id="_3_Icon_Easy" data-name="3_Icon_Easy" transform="translate(0.123 -726.397)">
    <g id="Icon-276x80h-logo-Icon-container" transform="translate(0 646.501)">
      <g id="Group_183815" data-name="Group 183815" transform="translate(-154 -813.822)">
        <rect id="Rectangle_187845" data-name="Rectangle 187845" width="70.818" height="62.69" transform="translate(155.001 894)" fill="none"/>
        <g id="Group_183809" data-name="Group 183809" transform="translate(-629.143 169.205)">
          <path id="Path_357437" data-name="Path 357437" d="M5.027.7H67.045a4.328,4.328,0,0,1,4.326,4.327V29.4a4.328,4.328,0,0,1-4.326,4.327H5.027A4.328,4.328,0,0,1,.7,29.4V5.027A4.328,4.328,0,0,1,5.027.7" transform="translate(783.444 739.985)" fill="none"/>
          <rect id="Rectangle_187848" data-name="Rectangle 187848" width="102.867" height="48.072" rx="2.648" transform="translate(784.145 725.639)" fill="none" stroke="#b3b3b3" stroke-linecap="round" stroke-linejoin="round" stroke-width="2.25"/>
          <path id="Path_357438" data-name="Path 357438" d="M6.86,39.675a50.148,50.148,0,0,1,4.942-18.2C15.918,13.564,27.46,2.415,31.308,4.153s-5.77,33.2-5.77,33.2S45.867,19.16,49.715,20.025,45.32,41.4,49.98,40.246s8.514-8.37,15.658-10.105C77,27.379,90.654,33.026,90.654,33.026" transform="translate(787.352 727.015)" fill="none" stroke="#b3b3b3" stroke-linecap="round" stroke-linejoin="round" stroke-width="2"/>
          <text id="API" transform="translate(852.413 743.749)" fill="#fa0f00" font-size="17" font-family="AdobeClean-Medium, Adobe Clean" font-weight="500"><tspan x="0" y="0" letter-spacing="0.049em">A</tspan><tspan y="0" letter-spacing="0.043em">P</tspan><tspan y="0">I</tspan></text>
        </g>
      </g>
    </g>
  </g>
</svg>
