<svg xmlns="http://www.w3.org/2000/svg" xmlns:xlink="http://www.w3.org/1999/xlink" width="244" height="138" viewBox="0 0 244 138"><defs><style>.a{fill:#fff;}.b{fill:#6e6e6e;stroke:#6e6e6e;opacity:0;}.c{fill:#fa0f00;}.d{fill:none;}.e{fill:#1473e6;font-size:22px;font-family:FabricExternalMDL2Assets, Fabric External MDL2 Assets;}.f{fill:#242424;font-size:5px;font-family:AdobeClean-Regular, Adobe Clean;}.g{stroke:none;}.h{filter:url(#c);}.i{filter:url(#a);}</style><filter id="a" x="0" y="0" width="244" height="138" filterUnits="userSpaceOnUse"><feOffset dy="3" input="SourceAlpha"/><feGaussianBlur stdDeviation="13" result="b"/><feFlood flood-opacity="0.161"/><feComposite operator="in" in2="b"/><feComposite in="SourceGraphic"/></filter><filter id="c" x="58.294" y="10.477" width="121.843" height="116.688" filterUnits="userSpaceOnUse"><feOffset dy="3" input="SourceAlpha"/><feGaussianBlur stdDeviation="15" result="d"/><feFlood flood-opacity="0.161"/><feComposite operator="in" in2="d"/><feComposite in="SourceGraphic"/></filter></defs><g transform="translate(-337 -449)"><g class="i" transform="matrix(1, 0, 0, 1, 337, 449)"><rect class="a" width="166" height="60" rx="3" transform="translate(39 36)"/></g><g transform="translate(438.316 532.62) rotate(-90)"><g transform="translate(35.601) rotate(90)"><g class="b"><rect class="g" width="35.601" height="35.601"/><rect class="d" x="0.5" y="0.5" width="34.601" height="34.601"/></g><g class="h" transform="matrix(1, 0, 0, 1, -101.32, -48.02)"><path class="c" d="M17.8,7.41H.989A.989.989,0,0,0,0,8.4v9.889a.989.989,0,0,0,.989.989H17.8v6.915a.494.494,0,0,0,.845.35l13.2-13.2L18.645.145A.494.494,0,0,0,17.8.494Z" transform="translate(103.29 52.48)"/></g></g></g><g transform="translate(388 490)"><g transform="translate(11.302 9.102)"><rect class="d" width="21" height="29" transform="translate(2.698 -0.101)"/><text class="e" transform="translate(2.698 3.898)"><tspan x="0" y="22"></tspan></text></g></g><g transform="translate(-535 170)"><path class="c" d="M36.552-35.156a1.271,1.271,0,0,1,.9.371l4.332,4.3a1.264,1.264,0,0,1,.372.894v18.056a1.69,1.69,0,0,1-1.692,1.687H23.538a1.69,1.69,0,0,1-1.692-1.687V-33.469a1.69,1.69,0,0,1,1.692-1.687Zm0-.844H23.538A2.535,2.535,0,0,0,21-33.469v21.937A2.535,2.535,0,0,0,23.538-9H40.462A2.535,2.535,0,0,0,43-11.531V-29.587a2.123,2.123,0,0,0-.626-1.493l-4.332-4.3A2.093,2.093,0,0,0,36.552-36Z" transform="translate(1003 367)"/><path class="a" d="M36.552-35.156a1.271,1.271,0,0,1,.9.371l4.332,4.3a1.264,1.264,0,0,1,.372.894v18.056a1.69,1.69,0,0,1-1.692,1.687H23.538a1.69,1.69,0,0,1-1.692-1.687V-33.469a1.69,1.69,0,0,1,1.692-1.687Z" transform="translate(1003 367)"/><path class="c" d="M22.561-36.766c-.887-.921-3.31-.546-3.89-.478a10.315,10.315,0,0,1-1.638-2.15,9.922,9.922,0,0,0,.546-2.832c0-.853-.341-1.774-1.3-1.774a.991.991,0,0,0-.819.478c-.409.717-.239,2.15.409,3.617a24.646,24.646,0,0,1-1.672,3.89c-.99.409-3.071,1.365-3.242,2.389a.912.912,0,0,0,.273.853,1.31,1.31,0,0,0,.853.307c1.263,0,2.491-1.74,3.344-3.207a22.656,22.656,0,0,1,2.969-.785A4.72,4.72,0,0,0,21.5-35.128c.819,0,1.126-.341,1.228-.648A.887.887,0,0,0,22.561-36.766Zm-.853.58c-.034.239-.341.478-.887.341a4.68,4.68,0,0,1-1.74-.887,7.345,7.345,0,0,1,2.15-.034C21.5-36.7,21.777-36.527,21.708-36.186Zm-5.7-7.029a.348.348,0,0,1,.273-.171c.307,0,.375.375.375.682a7.5,7.5,0,0,1-.409,2.116A3.707,3.707,0,0,1,16.01-43.215Zm-.068,6.62a19.052,19.052,0,0,0,.785-1.911,8.7,8.7,0,0,0,1.092,1.4C17.818-37.073,16.761-36.869,15.942-36.6Zm-2.013,1.365c-.785,1.3-1.6,2.116-2.047,2.116a.485.485,0,0,1-.2-.068.259.259,0,0,1-.1-.307C11.676-33.968,12.564-34.616,13.929-35.231Z" transform="translate(1018.354 379.251)"/><text class="f" transform="translate(1031 353)"><tspan x="0" y="0">PDF</tspan></text></g></g></svg>