<svg xmlns="http://www.w3.org/2000/svg" xmlns:xlink="http://www.w3.org/1999/xlink" width="226" height="138" viewBox="0 0 226 138"><defs><style>.a{fill:#fff;}.b{fill:#fa0f00;}.c{fill:#242424;font-size:5px;font-family:AdobeClean-Regular, Adobe Clean;}.d{fill:#505050;}.e{fill:#747474;}.f{fill:none;stroke:#505050;stroke-width:0.75px;}.g{filter:url(#a);}</style><filter id="a" x="0" y="0" width="226" height="138" filterUnits="userSpaceOnUse"><feOffset dy="3" input="SourceAlpha"/><feGaussianBlur stdDeviation="13" result="b"/><feFlood flood-opacity="0.161"/><feComposite operator="in" in2="b"/><feComposite in="SourceGraphic"/></filter></defs><g transform="translate(-337 -449)"><g class="g" transform="matrix(1, 0, 0, 1, 337, 449)"><rect class="a" width="148" height="60" rx="3" transform="translate(39 36)"/></g><path class="b" d="M26.719,8.334a.7.7,0,0,0-.5-.21.714.714,0,0,0-.714.714h0v3.368H17.329V3.021A1.021,1.021,0,0,0,16.309,2H2.021A1.021,1.021,0,0,0,1,3.021V7.1A1.021,1.021,0,0,0,2.021,8.124h9.185V22.412H2.021A1.021,1.021,0,0,0,1,23.432v4.082a1.021,1.021,0,0,0,1.021,1.021H16.309a1.021,1.021,0,0,0,1.021-1.021V18.329h8.165V21.7a.714.714,0,0,0,.714.714.7.7,0,0,0,.5-.21l5.8-6.6a.51.51,0,0,0,0-.663Z" transform="translate(437.504 498.282)"/><g transform="translate(-540 170)"><path class="b" d="M36.552-35.156a1.271,1.271,0,0,1,.9.371l4.332,4.3a1.264,1.264,0,0,1,.372.894v18.056a1.69,1.69,0,0,1-1.692,1.687H23.538a1.69,1.69,0,0,1-1.692-1.687V-33.469a1.69,1.69,0,0,1,1.692-1.687Zm0-.844H23.538A2.535,2.535,0,0,0,21-33.469v21.937A2.535,2.535,0,0,0,23.538-9H40.462A2.535,2.535,0,0,0,43-11.531V-29.587a2.123,2.123,0,0,0-.626-1.493l-4.332-4.3A2.093,2.093,0,0,0,36.552-36Z" transform="translate(1003 367)"/><path class="a" d="M36.552-35.156a1.271,1.271,0,0,1,.9.371l4.332,4.3a1.264,1.264,0,0,1,.372.894v18.056a1.69,1.69,0,0,1-1.692,1.687H23.538a1.69,1.69,0,0,1-1.692-1.687V-33.469a1.69,1.69,0,0,1,1.692-1.687Z" transform="translate(1003 367)"/><path class="b" d="M22.561-36.766c-.887-.921-3.31-.546-3.89-.478a10.315,10.315,0,0,1-1.638-2.15,9.922,9.922,0,0,0,.546-2.832c0-.853-.341-1.774-1.3-1.774a.991.991,0,0,0-.819.478c-.409.717-.239,2.15.409,3.617a24.646,24.646,0,0,1-1.672,3.89c-.99.409-3.071,1.365-3.242,2.389a.912.912,0,0,0,.273.853,1.31,1.31,0,0,0,.853.307c1.263,0,2.491-1.74,3.344-3.207a22.656,22.656,0,0,1,2.969-.785A4.72,4.72,0,0,0,21.5-35.128c.819,0,1.126-.341,1.228-.648A.887.887,0,0,0,22.561-36.766Zm-.853.58c-.034.239-.341.478-.887.341a4.68,4.68,0,0,1-1.74-.887,7.345,7.345,0,0,1,2.15-.034C21.5-36.7,21.777-36.527,21.708-36.186Zm-5.7-7.029a.348.348,0,0,1,.273-.171c.307,0,.375.375.375.682a7.5,7.5,0,0,1-.409,2.116A3.707,3.707,0,0,1,16.01-43.215Zm-.068,6.62a19.052,19.052,0,0,0,.785-1.911,8.7,8.7,0,0,0,1.092,1.4C17.818-37.073,16.761-36.869,15.942-36.6Zm-2.013,1.365c-.785,1.3-1.6,2.116-2.047,2.116a.485.485,0,0,1-.2-.068.259.259,0,0,1-.1-.307C11.676-33.968,12.564-34.616,13.929-35.231Z" transform="translate(1018.354 379.251)"/><text class="c" transform="translate(1031 353)"><tspan x="0" y="0">PDF</tspan></text></g><g transform="translate(-627.325 169.282)"><path class="d" d="M32.771-35.361a.962.962,0,0,1,.679.281l3.279,3.257a.957.957,0,0,1,.282.677V-17.48A1.279,1.279,0,0,1,35.73-16.2H22.921A1.279,1.279,0,0,1,21.64-17.48v-16.6a1.279,1.279,0,0,1,1.281-1.277Zm0-.639h-9.85A1.919,1.919,0,0,0,21-34.084v16.6a1.919,1.919,0,0,0,1.921,1.916H35.73a1.919,1.919,0,0,0,1.921-1.916V-31.147a1.607,1.607,0,0,0-.474-1.13L33.9-35.534A1.584,1.584,0,0,0,32.771-36Z" transform="translate(1003 367)"/><rect class="e" width="9.415" height="1.25" transform="translate(1027.618 338.718)"/><rect class="e" width="9.415" height="1.25" transform="translate(1027.618 341.718)"/><rect class="e" width="6" height="1.25" transform="translate(1027.618 344.718)"/><path class="f" d="M1035.777,331.3v4.415h4.576"/></g><g transform="translate(-620.325 177.282)"><path class="d" d="M32.771-35.361a.962.962,0,0,1,.679.281l3.279,3.257a.957.957,0,0,1,.282.677V-17.48A1.279,1.279,0,0,1,35.73-16.2H22.921A1.279,1.279,0,0,1,21.64-17.48v-16.6a1.279,1.279,0,0,1,1.281-1.277Zm0-.639h-9.85A1.919,1.919,0,0,0,21-34.084v16.6a1.919,1.919,0,0,0,1.921,1.916H35.73a1.919,1.919,0,0,0,1.921-1.916V-31.147a1.607,1.607,0,0,0-.474-1.13L33.9-35.534A1.584,1.584,0,0,0,32.771-36Z" transform="translate(1003 367)"/><path class="a" d="M32.771-35.361a.962.962,0,0,1,.679.281l3.279,3.257a.957.957,0,0,1,.282.677V-17.48A1.279,1.279,0,0,1,35.73-16.2H22.921A1.279,1.279,0,0,1,21.64-17.48v-16.6a1.279,1.279,0,0,1,1.281-1.277Z" transform="translate(1003 367)"/><rect class="e" width="9.415" height="1.25" transform="translate(1027.618 338.718)"/><rect class="e" width="9.415" height="1.25" transform="translate(1027.618 341.718)"/><rect class="e" width="6" height="1.25" transform="translate(1027.618 344.718)"/><path class="f" d="M1035.777,331.3v4.415h4.576"/></g></g></svg>