<svg xmlns="http://www.w3.org/2000/svg" xmlns:xlink="http://www.w3.org/1999/xlink" width="533" height="454.618" viewBox="0 0 533 454.618"><defs><style>.a,.c,.h{fill:#fff;}.a{opacity:0.5;}.b{clip-path:url(#a);}.d{fill:#2a5699;}.e{fill:#ff13dc;opacity:0;}.f{fill:#fa0f00;}.g{fill:#0e6ddf;}.h{font-size:9px;font-family:AdobeClean-Bold, Adobe Clean;font-weight:700;}.i,.m{fill:none;}.i,.j,.k{stroke:#fff;stroke-width:4px;}.i{stroke-linecap:round;}.j{fill:#b4b6b7;}.k{fill:#3a3f43;}.l{stroke:none;}.n{filter:url(#l);}.o{filter:url(#j);}.p{filter:url(#h);}.q{filter:url(#f);}.r{filter:url(#d);}.s{filter:url(#b);}</style><clipPath id="a"><rect class="a" width="533" height="454.618"/></clipPath><filter id="b" x="-16.008" y="172.856" width="162.473" height="162.473" filterUnits="userSpaceOnUse"><feOffset dy="3" input="SourceAlpha"/><feGaussianBlur stdDeviation="13" result="c"/><feFlood flood-opacity="0.161"/><feComposite operator="in" in2="c"/><feComposite in="SourceGraphic"/></filter><filter id="d" x="386.064" y="94.818" width="162.473" height="162.473" filterUnits="userSpaceOnUse"><feOffset dy="3" input="SourceAlpha"/><feGaussianBlur stdDeviation="13" result="e"/><feFlood flood-opacity="0.161"/><feComposite operator="in" in2="e"/><feComposite in="SourceGraphic"/></filter><filter id="f" x="226.441" y="223.185" width="162.473" height="162.473" filterUnits="userSpaceOnUse"><feOffset dy="3" input="SourceAlpha"/><feGaussianBlur stdDeviation="13" result="g"/><feFlood flood-opacity="0.282"/><feComposite operator="in" in2="g"/><feComposite in="SourceGraphic"/></filter><filter id="h" x="329.845" y="208.005" width="156.41" height="121.614" filterUnits="userSpaceOnUse"><feOffset dy="4" input="SourceAlpha"/><feGaussianBlur stdDeviation="6" result="i"/><feFlood flood-opacity="0.718"/><feComposite operator="in" in2="i"/><feComposite in="SourceGraphic"/></filter><filter id="j" x="87.256" y="235.35" width="192.687" height="90.577" filterUnits="userSpaceOnUse"><feOffset dy="4" input="SourceAlpha"/><feGaussianBlur stdDeviation="6" result="k"/><feFlood flood-opacity="0.718"/><feComposite operator="in" in2="k"/><feComposite in="SourceGraphic"/></filter><filter id="l" x="238.688" y="284.538" width="35.767" height="39.947" filterUnits="userSpaceOnUse"><feOffset dy="3" input="SourceAlpha"/><feGaussianBlur stdDeviation="3" result="m"/><feFlood flood-opacity="0.161"/><feComposite operator="in" in2="m"/><feComposite in="SourceGraphic"/></filter></defs><g class="b"><g transform="translate(22.992 0.001)"><g transform="translate(0 208.855)"><g class="s" transform="matrix(1, 0, 0, 1, -22.99, -208.86)"><rect class="c" width="84.473" height="84.473" rx="13" transform="translate(22.99 208.86)"/></g><g transform="translate(22.982 24.297)"><path class="d" d="M40.494,0h2.532V3.387c4.53.025,9.056-.047,13.583.025A1.458,1.458,0,0,1,58.242,5.03c.072,8.341-.017,16.686.042,25.027a4.935,4.935,0,0,1-.411,2.562,3.86,3.86,0,0,1-2.138.419c-4.238-.021-8.472-.013-12.71-.013v3.387H40.379c-6.444-1.177-12.905-2.257-19.362-3.387q-.006-14.817,0-29.629C27.508,2.261,34,1.156,40.494,0Z" transform="translate(-21.016)"/><path class="c" d="M73,11H86.972V38.1H73V34.71H84.008V33.017H73V30.9H84.008V29.206H73V27.089H84.008V25.4H73V23.279H84.008V21.585H73V19.468H84.008V17.774H73V15.657H84.008V13.964H73Z" transform="translate(-50.99 -6.343)"/><path class="c" d="M34.478,28c.8-.047,1.609-.08,2.413-.123.563,2.858,1.139,5.712,1.749,8.557.478-2.938,1.008-5.868,1.52-8.8.847-.03,1.694-.076,2.536-.127-.957,4.1-1.8,8.239-2.841,12.317-.707.368-1.766-.017-2.6.042-.563-2.8-1.219-5.589-1.723-8.4-.5,2.735-1.139,5.445-1.706,8.163q-1.219-.064-2.447-.148c-.7-3.726-1.528-7.426-2.185-11.161.724-.034,1.452-.064,2.176-.089.436,2.7.931,5.381,1.313,8.083.6-2.769,1.207-5.538,1.8-8.307Z" transform="translate(-25.729 -15.857)"/></g></g><g transform="translate(402.072 130.817)"><g class="r" transform="matrix(1, 0, 0, 1, -425.06, -130.82)"><rect class="c" width="84.473" height="84.473" rx="13" transform="translate(425.06 130.82)"/></g><g transform="translate(21.371 22.776)"><rect class="e" width="40.325" height="40.325" transform="translate(0 0)"/><path class="f" d="M36.252.556,1.121,11.038a.56.56,0,0,0-.09,1.036L9.895,16.5Z" transform="translate(0.911 0.707)"/><path class="f" d="M11.233,13.1,5.04,9.625v8.549a.8.8,0,0,0,1.314.609l4.211-3.547a13.661,13.661,0,0,1,.668-2.136Z" transform="translate(6.259 11.937)"/><path class="f" d="M22.113,14.989a13.765,13.765,0,0,1,3.164.379l6.5-14.187L6.544,17.6l4.9,2.462A13.736,13.736,0,0,1,22.113,14.989Z" transform="translate(8.122 1.481)"/><path class="g" d="M19.011,9.05a9.961,9.961,0,1,0,9.961,9.961A9.961,9.961,0,0,0,19.011,9.05ZM16.394,25.068l-4.62-4.619a.56.56,0,0,1,0-.791L12.934,18.5a.56.56,0,0,1,.791,0l3.056,3.056,6.834-6.834a.56.56,0,0,1,.791,0l1.167,1.167a.56.56,0,0,1,0,.791L17.18,25.073a.56.56,0,0,1-.786-.006Z" transform="translate(11.225 11.225)"/></g></g><g transform="translate(242.448 259.184)"><g class="q" transform="matrix(1, 0, 0, 1, -265.44, -259.19)"><rect class="c" width="84.473" height="84.473" rx="13" transform="translate(265.44 259.19)"/></g><g transform="translate(22.048 19.601)"><rect class="f" width="40.377" height="45.271" rx="6"/><path class="c" d="M30.824-31.623c-1.518-1.576-5.663-.934-6.655-.817a17.649,17.649,0,0,1-2.8-3.678,16.977,16.977,0,0,0,.934-4.846c0-1.46-.584-3.036-2.218-3.036a1.7,1.7,0,0,0-1.4.817c-.7,1.226-.409,3.678.7,6.188a42.168,42.168,0,0,1-2.861,6.655c-1.693.7-5.254,2.335-5.546,4.087a1.56,1.56,0,0,0,.467,1.46,2.242,2.242,0,0,0,1.46.525c2.16,0,4.262-2.977,5.721-5.488A38.766,38.766,0,0,1,23.7-31.1a8.075,8.075,0,0,0,5.313,2.277c1.4,0,1.927-.584,2.1-1.109A1.518,1.518,0,0,0,30.824-31.623Zm-1.46.992c-.058.409-.584.817-1.518.584a8.007,8.007,0,0,1-2.977-1.518,12.568,12.568,0,0,1,3.678-.058C29.014-31.506,29.482-31.215,29.365-30.631Zm-9.75-12.027a.6.6,0,0,1,.467-.292c.525,0,.642.642.642,1.168a12.83,12.83,0,0,1-.7,3.62C19.148-40.5,19.323-42.132,19.615-42.657ZM19.5-31.331A32.6,32.6,0,0,0,20.841-34.6a14.884,14.884,0,0,0,1.868,2.394C22.709-32.149,20.9-31.8,19.5-31.331ZM16.054-29c-1.343,2.218-2.744,3.62-3.5,3.62a.83.83,0,0,1-.35-.117.443.443,0,0,1-.175-.525C12.2-26.836,13.719-27.945,16.054-29Z" transform="translate(-0.438 49.806)"/><text class="h" transform="translate(12.057 35.918)"><tspan x="0" y="0">PDF</tspan></text></g></g><g transform="translate(317.71 215.29)"><g class="p" transform="matrix(1, 0, 0, 1, -340.7, -215.29)"><path class="i" d="M93.027,10585.376c4.472,62.733-49.171,88.976-115.869,79.458" transform="translate(372.95 -10361.23)"/></g><g class="j" transform="translate(0 79.427)"><circle class="l" cx="8.883" cy="8.883" r="8.883"/><circle class="m" cx="8.883" cy="8.883" r="6.883"/></g><path class="c" d="M10.974,0,21.947,18.812H0Z" transform="translate(114.961)"/></g><g transform="translate(75.247 242.463)"><g class="o" transform="matrix(1, 0, 0, 1, -98.24, -242.46)"><path class="i" d="M-79,10538.6c79.645-.983,77.046,51.986,152.625,50.537" transform="translate(186.28 -10287.24)"/></g><g class="k" transform="translate(0 0)"><circle class="l" cx="8.883" cy="8.883" r="8.883"/><circle class="m" cx="8.883" cy="8.883" r="6.883"/></g><g class="n" transform="matrix(1, 0, 0, 1, -98.24, -242.46)"><path class="c" d="M10.974,0,21.947,17.767H0Z" transform="translate(265.46 290.54) rotate(90)"/></g></g></g></g></svg>