<svg xmlns="http://www.w3.org/2000/svg" xmlns:xlink="http://www.w3.org/1999/xlink" width="533" height="454.618" viewBox="0 0 533 454.618"><defs><style>.a{fill:#fff;}.a,.k,.m{opacity:0.5;}.b{clip-path:url(#a);}.c{fill:rgba(162,24,34,0.53);opacity:0.3;}.d,.m,.n{fill:#ffec67;}.d{opacity:0.8;}.e{fill:rgba(255,255,255,0.18);stroke:#fff;stroke-width:3px;}.f{font-size:22px;letter-spacing:-0.02em;}.f,.g,.i,.j,.k,.o,.r{font-family:Inter-Bold, Inter;font-weight:700;}.g,.p,.r{font-size:5px;}.g,.i,.o,.p{opacity:0.7;}.h{font-size:7px;font-family:Inter-Medium, Inter;font-weight:500;}.i,.k{font-size:8px;}.j{font-size:15px;}.l{fill:#e6e6e6;}.n{opacity:0.2;}.o{font-size:4px;}.p{font-family:Inter-Regular, Inter;}.q{fill:url(#b);}.r{fill:#509d00;}.s{stroke:none;}.t{fill:none;}</style><clipPath id="a"><rect class="a" width="533" height="454.618"/></clipPath><linearGradient id="b" x1="0.5" x2="0.5" y2="1" gradientUnits="objectBoundingBox"><stop offset="0" stop-color="#60cc45"/><stop offset="1" stop-color="#acdb0e"/></linearGradient></defs><g class="b"><g transform="translate(19.488)"><rect class="c" width="319.8" height="402.363" rx="25" transform="translate(0 88.833)"/><g transform="translate(1418.396 -9468.5)"><rect class="d" width="178.198" height="28.037" transform="translate(-1265.198 9685.702)"/><rect class="d" width="178.198" height="28.037" transform="translate(-1265.198 9648.702)"/><rect class="d" width="24.698" height="10.037" transform="translate(-1370.412 9545.702)"/><g class="e" transform="translate(-1405.189 9510)"><rect class="s" width="357.344" height="497.911" rx="14"/><rect class="t" x="1.5" y="1.5" width="354.344" height="494.911" rx="12.5"/></g><text class="f" transform="translate(-1368 9602)"><tspan x="0" y="0">Invoice</tspan></text><g transform="translate(-1368.087 9868.715)"><text class="g" transform="translate(1 7)"><tspan x="0" y="0">Sign</tspan></text></g><g transform="translate(-1367.61 9647.18)"><text class="h" transform="translate(106.611 11.82)"><tspan x="0" y="0">[Company name]</tspan></text><text class="h" transform="translate(106.611 48.82)"><tspan x="0" y="0">[Company name]</tspan></text><text class="h" transform="translate(106.611 23.82)"><tspan x="0" y="0">[Address first line]</tspan></text><text class="h" transform="translate(106.611 60.82)"><tspan x="0" y="0">[Address first line]</tspan></text><text class="i" transform="translate(-0.389 7.82)"><tspan x="0" y="0">Customer</tspan></text><text class="i" transform="translate(-0.389 44.82)"><tspan x="0" y="0">Supplier</tspan></text></g><g transform="translate(-1166.075 9909.684)"><text class="j" transform="translate(0.075 25.316)"><tspan x="0" y="0">$2,300.00</tspan></text><text class="k" transform="translate(63.075 8.316)"><tspan x="0" y="0">DUE</tspan></text></g><rect class="a" width="280.656" height="0.847" transform="translate(-1367.61 9629.397)"/><rect class="l" width="280.656" height="0.847" transform="translate(-1367.61 9963.878)"/><g transform="translate(-1368.087 9755.568)"><rect class="a" width="280.149" height="0.847" transform="translate(0.985 66.033)"/><rect class="a" width="280.149" height="0.847" transform="translate(0.985 12.702)"/><rect class="d" width="280.133" height="23.037" transform="translate(1 17.134)"/><rect class="d" width="279.423" height="34.037" transform="translate(1 77.134)"/><rect class="d" width="279.423" height="4.037" transform="translate(1 44.134)"/><rect class="m" width="279.423" height="4.037" transform="translate(1 51.134)"/><rect class="n" width="279.423" height="4.037" transform="translate(1 58.134)"/><text class="o" transform="translate(0 4)"><tspan x="0" y="0">ITEMS</tspan></text><text class="h" transform="translate(5 31.404)"><tspan x="0" y="0">[Item-01]</tspan></text><text class="g" transform="translate(105.088 5.432)"><tspan x="0" y="0">QUANTITY</tspan></text><text class="h" transform="translate(105.088 31.432)"><tspan x="0" y="0">[qty-01]</tspan></text><text class="g" transform="translate(230.088 5.432)"><tspan x="-14.746" y="0">PRICE</tspan></text><text class="p" transform="translate(231.088 30.432)"><tspan x="-19.134" y="0">$100.00</tspan></text><text class="p" transform="translate(231.088 62.432)"><tspan x="-19.134" y="0">$100.00</tspan></text><text class="g" transform="translate(280.423 5)"><tspan x="-22.887" y="0">AMOUNT</tspan></text><text class="p" transform="translate(280.811 30.404)"><tspan x="-19.929" y="0">$900.00</tspan></text><text class="p" transform="translate(280.811 62.582)"><tspan x="-19.929" y="0">$900.00</tspan></text></g><g transform="translate(-1203.811 9847.021)"><text class="g" transform="translate(66.811 4.979)"><tspan x="-28.821" y="0">SUB-TOTAL</tspan></text><text class="g" transform="translate(65.123 17.702)"><tspan x="-24.343" y="0">TAX RATE</tspan></text><text class="g" transform="translate(65.591 41.412)"><tspan x="-16.399" y="0">TOTAL</tspan></text><rect class="l" width="118.55" height="0.847" transform="translate(0 26.25)"/><text class="p" transform="translate(116.147 5)"><tspan x="-23.288" y="0">$1,800.00</tspan></text><text class="p" transform="translate(116.534 17.702)"><tspan x="-19.851" y="0">$500.00</tspan></text><text class="p" transform="translate(115.453 41.412)"><tspan x="-24.283" y="0">$2,300.00</tspan></text></g><text class="h" transform="translate(-1368.087 9552.952)"><tspan x="0" y="0">[date]</tspan></text><text class="p" transform="translate(-1368.087 9977.346)"><tspan x="0" y="0">Turcotte - Hane</tspan></text><g transform="translate(-1144.058 9564.194)"><circle class="q" cx="20.5" cy="20.5" r="20.5" transform="translate(8.059 -0.194)"/><path d="M14.166-25.629a10.384,10.384,0,0,0-.365-2.65q-.365-1.383-.826-2.747t-.826-2.631a8.4,8.4,0,0,1-.365-2.3,4.156,4.156,0,0,1,.864-2.689,2.6,2.6,0,0,1,2.093-1.076,2.638,2.638,0,0,1,2.132,1.076,4.156,4.156,0,0,1,.864,2.689,8.017,8.017,0,0,1-.384,2.3q-.384,1.268-.826,2.631T15.7-28.28a9.9,9.9,0,0,0-.384,2.65,10.428,10.428,0,0,0,2.113-1.633q1.037-1.018,1.978-2.093t1.844-2.036a8.733,8.733,0,0,1,1.786-1.5,4.951,4.951,0,0,1,2.266-.615,3.133,3.133,0,0,1,1.421.327,2.464,2.464,0,0,1,1.037.98,2.68,2.68,0,0,1,.25.615,2.443,2.443,0,0,1,.1.653,3.386,3.386,0,0,1-.557,1.786,4.245,4.245,0,0,1-1.594,1.479,7.747,7.747,0,0,1-2.113.807q-1.268.307-2.65.6t-2.785.672a10.649,10.649,0,0,0-2.478,1,8.835,8.835,0,0,0,2.458,1q1.383.346,2.8.634t2.689.576a7.95,7.95,0,0,1,2.151.787,4.883,4.883,0,0,1,1.537,1.537,3.374,3.374,0,0,1,.538,1.767,3.223,3.223,0,0,1-.307,1.306,2.165,2.165,0,0,1-1.018.922,3.423,3.423,0,0,1-1.44.307,4.9,4.9,0,0,1-1.114-.134,5.435,5.435,0,0,1-1.191-.442,7.726,7.726,0,0,1-1.786-1.46q-.9-.96-1.844-2.036t-1.94-2.093a9.744,9.744,0,0,0-2.151-1.671,10.107,10.107,0,0,0,.384,2.67q.384,1.4.826,2.785t.826,2.67a8.013,8.013,0,0,1,.384,2.247,4.71,4.71,0,0,1-.23,1.5,4.025,4.025,0,0,1-.634,1.21,2.891,2.891,0,0,1-.96.807,2.516,2.516,0,0,1-1.172.288,2.589,2.589,0,0,1-2.093-1.095,4.235,4.235,0,0,1-.864-2.708,8.4,8.4,0,0,1,.365-2.3q.365-1.268.787-2.65t.807-2.766a11.172,11.172,0,0,0,.423-2.65,11.892,11.892,0,0,0-2.132,1.709q-1.018,1.018-1.978,2.093T8.174-17.774a8.3,8.3,0,0,1-1.805,1.44,4.125,4.125,0,0,1-2.266.691,2.639,2.639,0,0,1-2.458-1.306,2.108,2.108,0,0,1-.307-1.191A3.5,3.5,0,0,1,1.894-20a4.324,4.324,0,0,1,1.556-1.479,7.146,7.146,0,0,1,2.093-.807q1.287-.307,2.708-.6t2.823-.672a10.368,10.368,0,0,0,2.516-1.037,10.91,10.91,0,0,0-2.5-.98q-1.383-.365-2.8-.653t-2.708-.6a6.987,6.987,0,0,1-2.132-.845A5.549,5.549,0,0,1,1.855-29.2a3.094,3.094,0,0,1-.6-1.729A2.237,2.237,0,0,1,1.644-32.2a2.438,2.438,0,0,1,1.056-.98,3.254,3.254,0,0,1,1.44-.327,4.9,4.9,0,0,1,1.114.134,5.435,5.435,0,0,1,1.191.442A8.1,8.1,0,0,1,8.212-31.41q.883.98,1.825,2.055T12-27.262A9.192,9.192,0,0,0,14.166-25.629Z" transform="translate(13.764 44.971)"/><text class="r" transform="translate(0.059 48.805)"><tspan x="0" y="0">Kessler, Mraz and Mraz</tspan></text></g></g></g></g></svg>