<svg xmlns="http://www.w3.org/2000/svg" width="86.86" height="68.184" viewBox="0 0 86.86 68.184"><defs><style>.a,.c,.d{fill:#b3b3b3;}.b{fill:#f00c00;}.c{stroke:#b3b3b3;stroke-width:0.2px;}.d{fill-rule:evenodd;}</style></defs><g transform="translate(-1156.75 -246.25)"><g transform="translate(1161.99 257.861)"><path class="a" d="M1184.62,280.321h-1.161V278h2.321v1.16A1.16,1.16,0,0,1,1184.62,280.321Z" transform="translate(-1157.705 -252.768)"/><path class="a" d="M1181.651,280.32h-.023a.063.063,0,0,1-.059-.058v-2.2c0-.07.139-.07.139,0v2.2A.061.061,0,0,1,1181.651,280.32Z" transform="translate(-1158.009 -252.767)"/><path class="a" d="M1184.572,280.321h-2.124a.055.055,0,0,1-.058-.058v-2.2a.055.055,0,0,1,.058-.058h2.124a.055.055,0,0,1,.058.058v2.2A.055.055,0,0,1,1184.572,280.321Zm-4.247,0h-2.135a.056.056,0,0,1-.059-.058v-2.2a.056.056,0,0,1,.059-.058h2.124a.066.066,0,0,1,.07.058v2.2A.055.055,0,0,1,1180.325,280.321Zm-4.259,0h-2.148a.062.062,0,0,1-.057-.058v-2.2a.062.062,0,0,1,.057-.058h2.136a.065.065,0,0,1,.069.058v2.2A.055.055,0,0,1,1176.066,280.321Zm-4.259,0h-2.147a.055.055,0,0,1-.058-.058v-2.2a.055.055,0,0,1,.058-.058h2.134a.065.065,0,0,1,.071.058v2.2A.055.055,0,0,1,1171.807,280.321Zm-4.259,0H1165.4a.054.054,0,0,1-.058-.058v-2.2a.054.054,0,0,1,.058-.058h2.134c.024,0,.071.023.071.058v2.2A.062.062,0,0,1,1167.548,280.321Zm-4.27,0h0a.055.055,0,0,1-.058-.058v-2.2a.058.058,0,0,1,.115,0v2.2A.054.054,0,0,1,1163.278,280.321Z" transform="translate(-1160.953 -252.768)"/><path class="a" d="M1163.587,280.321h-1.161a1.16,1.16,0,0,1-1.16-1.16V278h2.321Z" transform="translate(-1161.266 -252.768)"/><path class="a" d="M1163.521,275.888h-2.2a.053.053,0,0,1-.047-.058c0-.035.023-.07.047-.07h2.2a.055.055,0,0,1,.058.058C1163.579,275.841,1163.556,275.888,1163.521,275.888Z" transform="translate(-1161.265 -253.127)"/><path class="a" d="M1163.521,278.692h-2.2c-.023,0-.047-.035-.047-.058v-2.553a.053.053,0,0,1,.047-.058h2.2a.055.055,0,0,1,.058.058v2.553A.062.062,0,0,1,1163.521,278.692Zm0-5.083h-2.2a.053.053,0,0,1-.047-.058v-2.565c0-.023.023-.058.047-.058h2.2a.062.062,0,0,1,.058.058v2.553A.065.065,0,0,1,1163.521,273.609Zm0-5.094h-2.2a.053.053,0,0,1-.047-.058V265.9a.053.053,0,0,1,.047-.058h2.2a.055.055,0,0,1,.058.058v2.553A.055.055,0,0,1,1163.521,268.515Zm0-5.094h-2.2a.053.053,0,0,1-.047-.058v-2.553a.053.053,0,0,1,.047-.058h2.2a.055.055,0,0,1,.058.058v2.541A.065.065,0,0,1,1163.521,263.42Zm0-5.083h-2.2c-.023,0-.047-.035-.047-.058s.023-.07.047-.07h2.2a.055.055,0,0,1,.058.058C1163.579,258.291,1163.556,258.338,1163.521,258.338Z" transform="translate(-1161.265 -255.943)"/><path class="a" d="M1163.587,258.577h-2.321v-1.16a1.16,1.16,0,0,1,1.16-1.16h1.161Z" transform="translate(-1161.266 -256.256)"/><path class="a" d="M1165.11,258.58h-.012a.073.073,0,0,1-.058-.058v-2.2c0-.07.126-.07.126,0v2.2A.061.061,0,0,1,1165.11,258.58Z" transform="translate(-1160.661 -256.255)"/><path class="a" d="M1186.413,258.569h0c-.035,0-.071-.023-.071-.046v-2.2c0-.07.129-.07.129,0v2.2A.053.053,0,0,1,1186.413,258.569Zm-2.135,0h-2.124c-.035,0-.071-.023-.071-.046v-2.2a.056.056,0,0,1,.059-.058h2.135a.055.055,0,0,1,.058.058v2.2A.054.054,0,0,1,1184.278,258.569Zm-4.259,0H1177.9c-.035,0-.07-.023-.07-.046v-2.2a.054.054,0,0,1,.057-.058h2.136a.055.055,0,0,1,.058.058v2.2A.054.054,0,0,1,1180.02,258.569Zm-4.259,0h-2.136c-.022,0-.057-.023-.057-.046v-2.2a.054.054,0,0,1,.057-.058h2.136a.055.055,0,0,1,.058.058v2.2A.053.053,0,0,1,1175.761,258.569Zm-4.26,0h-2.134c-.035,0-.07-.023-.07-.046v-2.2a.062.062,0,0,1,.058-.058h2.146a.055.055,0,0,1,.059.058v2.2A.054.054,0,0,1,1171.5,258.569Zm-4.259,0h-2.134a.052.052,0,0,1-.058-.046v-2.2a.054.054,0,0,1,.058-.058h2.134a.062.062,0,0,1,.059.058v2.2C1167.3,258.546,1167.266,258.569,1167.242,258.569Z" transform="translate(-1160.659 -256.255)"/><path class="a" d="M1185.781,258.577h-2.321v-2.321h1.161a1.16,1.16,0,0,1,1.16,1.16Z" transform="translate(-1157.705 -256.256)"/><path class="a" d="M1185.723,260.518h-2.2a.054.054,0,0,1-.058-.058.064.064,0,0,1,.058-.07h2.2a.055.055,0,0,1,.058.058A.066.066,0,0,1,1185.723,260.518Z" transform="translate(-1157.705 -255.593)"/><path class="a" d="M1185.723,280.882h-2.2a.054.054,0,0,1-.058-.058.064.064,0,0,1,.058-.07h2.2a.055.055,0,0,1,.058.058h0v.012a.055.055,0,0,1-.058.058Zm0-2.541h-2.2a.061.061,0,0,1-.058-.058v-2.553a.064.064,0,0,1,.058-.07h2.2a.055.055,0,0,1,.058.058v2.565A.063.063,0,0,1,1185.723,278.34Zm0-5.094h-2.2a.054.054,0,0,1-.058-.058v-2.541c0-.035.022-.081.058-.081h2.2a.063.063,0,0,1,.058.058v2.565A.055.055,0,0,1,1185.723,273.246Zm0-5.094h-2.2a.054.054,0,0,1-.058-.058v-2.541a.064.064,0,0,1,.058-.07h2.2a.055.055,0,0,1,.058.058v2.553A.055.055,0,0,1,1185.723,268.152Zm0-5.094h-2.2a.054.054,0,0,1-.058-.058v-2.541a.054.054,0,0,1,.058-.058h2.2a.055.055,0,0,1,.058.058V263A.055.055,0,0,1,1185.723,263.057Z" transform="translate(-1157.705 -255.591)"/></g><g transform="translate(1194.645 257.861)"><path class="b" d="M1195.757,290.321h-2.18a.055.055,0,0,1-.058-.058v-2.2a.055.055,0,0,1,.058-.058h2.17a.065.065,0,0,1,.07.058v2.2A.055.055,0,0,1,1195.757,290.321Zm-4.327,0h-.012a.056.056,0,0,1-.059-.058v-2.2c0-.07.129-.07.129,0v2.2A.063.063,0,0,1,1191.43,290.321Z" transform="translate(-1189.093 -251.163)"/><path class="b" d="M1191.727,290.321h-1.16a1.161,1.161,0,0,1-1.16-1.16V288h2.321Z" transform="translate(-1189.406 -251.163)"/><path class="b" d="M1191.672,286.1h-2.2a.055.055,0,0,1-.058-.058.065.065,0,0,1,.058-.07h2.2a.062.062,0,0,1,.059.058C1191.731,286.051,1191.7,286.1,1191.672,286.1Z" transform="translate(-1189.405 -251.489)"/><path class="b" d="M1191.672,290.54h-2.2a.062.062,0,0,1-.058-.058v-2.309a.062.062,0,0,1,.058-.058h2.2a.075.075,0,0,1,.059.058v2.309A.074.074,0,0,1,1191.672,290.54Zm0-4.6h-2.2a.055.055,0,0,1-.058-.058v-2.309a.055.055,0,0,1,.058-.058h2.2a.062.062,0,0,1,.059.058v2.3A.075.075,0,0,1,1191.672,285.944Zm0-4.607h-2.2a.055.055,0,0,1-.058-.058V278.97a.055.055,0,0,1,.058-.058h2.2a.062.062,0,0,1,.059.058v2.309A.075.075,0,0,1,1191.672,281.337Zm0-4.6h-2.2a.055.055,0,0,1-.058-.058v-2.309a.055.055,0,0,1,.058-.058h2.2a.062.062,0,0,1,.059.058v2.3A.075.075,0,0,1,1191.672,276.742Zm0-4.607h-2.2a.055.055,0,0,1-.058-.058v-2.309a.055.055,0,0,1,.058-.058h2.2a.062.062,0,0,1,.059.058v2.3A.075.075,0,0,1,1191.672,272.135Zm0-4.6h-2.2a.062.062,0,0,1-.058-.058v-2.309a.055.055,0,0,1,.058-.058h2.2a.062.062,0,0,1,.059.058v2.3A.075.075,0,0,1,1191.672,267.54Zm0-4.607h-2.2a.055.055,0,0,1-.058-.058v-2.309a.055.055,0,0,1,.058-.058h2.2a.062.062,0,0,1,.059.058v2.3A.075.075,0,0,1,1191.672,262.933Zm0-4.6h-2.2a.062.062,0,0,1-.058-.058.065.065,0,0,1,.058-.07h2.2c.024,0,.059.023.059.046S1191.7,258.338,1191.672,258.338Z" transform="translate(-1189.405 -255.943)"/><path class="b" d="M1191.727,258.577h-2.321v-1.16a1.161,1.161,0,0,1,1.16-1.16h1.16Z" transform="translate(-1189.406 -256.256)"/><path class="b" d="M1193.28,258.58h-.012a.075.075,0,0,1-.058-.058v-2.2c0-.07.126-.07.126,0v2.2A.061.061,0,0,1,1193.28,258.58Z" transform="translate(-1188.796 -256.255)"/><path class="b" d="M1214.942,258.581h0a.075.075,0,0,1-.068-.058v-2.2c0-.07.128-.07.128,0v2.2A.062.062,0,0,1,1214.942,258.581Zm-2.17,0h-2.157a.077.077,0,0,1-.071-.058v-2.2a.056.056,0,0,1,.059-.058h2.169a.055.055,0,0,1,.059.058v2.2A.062.062,0,0,1,1212.772,258.581Zm-4.327,0h-2.17a.074.074,0,0,1-.058-.058v-2.2a.054.054,0,0,1,.058-.058h2.17a.055.055,0,0,1,.058.058v2.2A.062.062,0,0,1,1208.445,258.581Zm-4.329,0h-2.169a.075.075,0,0,1-.069-.058v-2.2a.054.054,0,0,1,.057-.058h2.182a.055.055,0,0,1,.059.058v2.2A.062.062,0,0,1,1204.115,258.581Zm-4.339,0h-2.158a.074.074,0,0,1-.07-.058v-2.2a.055.055,0,0,1,.058-.058h2.17a.055.055,0,0,1,.058.058v2.2A.063.063,0,0,1,1199.776,258.581Zm-4.328,0h-2.17a.075.075,0,0,1-.058-.058v-2.2a.062.062,0,0,1,.058-.058h2.17a.054.054,0,0,1,.057.058v2.2A.061.061,0,0,1,1195.448,258.581Z" transform="translate(-1188.794 -256.255)"/><path class="b" d="M1214.264,258.577h-2.321v-2.321h1.16a1.16,1.16,0,0,1,1.16,1.16Z" transform="translate(-1185.79 -256.256)"/><path class="b" d="M1214.2,260.308H1212a.063.063,0,0,1-.059-.058.076.076,0,0,1,.059-.07h2.2a.054.054,0,0,1,.057.058A.064.064,0,0,1,1214.2,260.308Z" transform="translate(-1185.791 -255.626)"/><path class="b" d="M1214.2,262.6H1212a.063.063,0,0,1-.059-.058v-2.3a.063.063,0,0,1,.059-.058h2.2a.054.054,0,0,1,.057.058v2.3A.054.054,0,0,1,1214.2,262.6Z" transform="translate(-1185.791 -255.625)"/></g><g transform="translate(1162.111 289.569)"><path class="a" d="M1184.513,294.4h-1.161v-2.321h2.321v1.16A1.161,1.161,0,0,1,1184.513,294.4Z" transform="translate(-1157.843 -282.217)"/><path class="a" d="M1181.56,294.4h-.012a.062.062,0,0,1-.058-.058v-2.2c0-.07.128-.07.128,0v2.2A.076.076,0,0,1,1181.56,294.4Z" transform="translate(-1158.142 -282.216)"/><path class="a" d="M1184.463,294.4h-2.112a.061.061,0,0,1-.058-.058v-2.2a.054.054,0,0,1,.058-.058h2.112a.062.062,0,0,1,.058.058v2.2A.075.075,0,0,1,1184.463,294.4Zm-4.212,0h-2.112a.062.062,0,0,1-.058-.058v-2.2a.055.055,0,0,1,.058-.058h2.1a.065.065,0,0,1,.071.058v2.2A.063.063,0,0,1,1180.251,294.4Zm-4.212,0h-2.124a.076.076,0,0,1-.059-.058v-2.2a.063.063,0,0,1,.059-.058h2.112a.065.065,0,0,1,.07.058v2.2A.062.062,0,0,1,1176.039,294.4Zm-4.214,0H1169.7a.062.062,0,0,1-.057-.058v-2.2a.054.054,0,0,1,.057-.058h2.113a.065.065,0,0,1,.07.058v2.2A.062.062,0,0,1,1171.825,294.4Zm-4.211,0h-2.125a.062.062,0,0,1-.057-.058v-2.2a.055.055,0,0,1,.057-.058h2.113a.062.062,0,0,1,.058.058v2.2C1167.66,294.366,1167.637,294.4,1167.614,294.4Zm-4.224,0h-.012a.076.076,0,0,1-.059-.058v-2.2c0-.07.129-.07.129,0v2.2A.062.062,0,0,1,1163.39,294.4Z" transform="translate(-1161.057 -282.216)"/><path class="a" d="M1163.695,294.4h-1.16a1.16,1.16,0,0,1-1.16-1.16v-1.16h2.321Z" transform="translate(-1161.369 -282.217)"/><path class="a" d="M1163.632,289.988h-2.2a.061.061,0,0,1-.058-.058.074.074,0,0,1,.058-.07h2.2a.055.055,0,0,1,.059.058A.065.065,0,0,1,1163.632,289.988Z" transform="translate(-1161.37 -282.572)"/><path class="a" d="M1163.632,290.671h-2.2a.061.061,0,0,1-.058-.058v-2.507a.061.061,0,0,1,.058-.058h2.2a.055.055,0,0,1,.059.058v2.507A.055.055,0,0,1,1163.632,290.671Zm0-5.013h-2.2a.061.061,0,0,1-.058-.058.074.074,0,0,1,.058-.07h2.2a.055.055,0,0,1,.059.058A.065.065,0,0,1,1163.632,285.658Z" transform="translate(-1161.37 -283.267)"/><path class="a" d="M1163.695,285.9h-2.321v-1.16a1.159,1.159,0,0,1,1.16-1.16h1.16Z" transform="translate(-1161.369 -283.58)"/><path class="a" d="M1165.2,285.9h-.01a.054.054,0,0,1-.058-.058v-2.2c0-.07.128-.07.128,0v2.2A.055.055,0,0,1,1165.2,285.9Z" transform="translate(-1160.767 -283.579)"/><path class="a" d="M1186.271,285.9h-.012a.061.061,0,0,1-.058-.058v-2.2c0-.07.126-.07.126,0v2.2A.054.054,0,0,1,1186.271,285.9Zm-2.112,0h-2.1a.064.064,0,0,1-.07-.058v-2.2a.055.055,0,0,1,.058-.058h2.112a.055.055,0,0,1,.058.058v2.2A.055.055,0,0,1,1184.16,285.9Zm-4.214,0h-2.1a.065.065,0,0,1-.069-.058v-2.2a.055.055,0,0,1,.058-.058h2.111a.055.055,0,0,1,.059.058v2.2A.055.055,0,0,1,1179.946,285.9Zm-4.211,0h-2.112a.063.063,0,0,1-.059-.058v-2.2a.056.056,0,0,1,.059-.058h2.112a.054.054,0,0,1,.057.058v2.2A.054.054,0,0,1,1175.735,285.9Zm-4.212,0h-2.113c-.022,0-.068-.023-.068-.058v-2.2a.062.062,0,0,1,.058-.058h2.124a.054.054,0,0,1,.057.058v2.2A.054.054,0,0,1,1171.522,285.9Zm-4.212,0H1165.2a.055.055,0,0,1-.057-.058v-2.2a.055.055,0,0,1,.057-.058h2.113a.062.062,0,0,1,.058.058v2.2A.062.062,0,0,1,1167.31,285.9Z" transform="translate(-1160.765 -283.58)"/><path class="a" d="M1185.673,285.9h-2.321V283.58h1.161a1.16,1.16,0,0,1,1.16,1.16Z" transform="translate(-1157.843 -283.58)"/><path class="a" d="M1185.613,287.808h-2.206a.055.055,0,0,1-.057-.058c0-.023.023-.07.057-.07h2.206a.062.062,0,0,1,.058.058A.065.065,0,0,1,1185.613,287.808Z" transform="translate(-1157.844 -282.922)"/><path class="a" d="M1185.613,292.842h-2.206a.062.062,0,0,1-.057-.058c0-.035.023-.081.057-.081h2.206a.062.062,0,0,1,.058.058v.023a.062.062,0,0,1-.058.058Zm0-2.518h-2.206a.055.055,0,0,1-.057-.058v-2.518a.062.062,0,0,1,.057-.058h2.206a.062.062,0,0,1,.058.058v2.518A.055.055,0,0,1,1185.613,290.324Z" transform="translate(-1157.844 -282.921)"/></g><g transform="translate(1205.42 267.454)"><path class="c" d="M1225.648,265.988a3.075,3.075,0,0,1,1.611.586l7.472,7.472a3.077,3.077,0,0,1,.585,1.612v31.35a2.937,2.937,0,0,1-2.93,2.93h-29.3a2.938,2.938,0,0,1-2.93-2.93v-38.09a2.938,2.938,0,0,1,2.93-2.93h22.561m0-1.464h-22.561a4.317,4.317,0,0,0-4.395,4.238q0,.078,0,.157v38.09a4.315,4.315,0,0,0,4.237,4.395c.053,0,.106,0,.158,0h29.3a4.315,4.315,0,0,0,4.395-4.237c0-.053,0-.106,0-.158v-31.35a4.208,4.208,0,0,0-1.026-2.638l-7.471-7.471A4.564,4.564,0,0,0,1225.648,264.523Z" transform="translate(-1198.691 -264.522)"/><g transform="translate(6.326 9.672)"><path class="a" d="M1228.448,292.253h-23.69a.593.593,0,0,0-.046,1.185h23.737a.593.593,0,0,0,0-1.185Zm0,5.331h-23.69a.592.592,0,0,0,0,1.184h23.69a.592.592,0,0,0,0-1.184Z" transform="translate(-1204.143 -269.745)"/><path class="d" d="M1211.339,286.534c-1.251,2.014-2.481,3.288-3.2,3.288a.451.451,0,0,1-.32-.115.469.469,0,0,1-.165-.461c.137-.721,1.562-1.762,3.687-2.712Zm6.012-2.881c-.532.114-1.092.244-1.655.393-.4.107-.814.224-1.225.349.217-.444.418-.889.593-1.309.23-.556.443-1.111.644-1.654.178.274.355.54.538.795a16.076,16.076,0,0,0,1.148,1.416Zm-2.777-9.586a.514.514,0,0,1,.431-.28c.474,0,.577.571.577,1.049a13.117,13.117,0,0,1-.622,3.317c-.795-2.105-.685-3.581-.389-4.086Zm8.9,11a.874.874,0,0,1-.947.591,1.783,1.783,0,0,1-.428-.053,6.971,6.971,0,0,1-2.712-1.377,13.387,13.387,0,0,1,2.009-.154,7.085,7.085,0,0,1,1.338.1c.4.082.856.305.744.888Zm1.348-.949c-.593-.636-1.727-.96-3.37-.96a17.806,17.806,0,0,0-2.721.237,13.4,13.4,0,0,1-1.569-1.833,16.467,16.467,0,0,1-.978-1.525,15.468,15.468,0,0,0,.873-4.4c0-1.346-.533-2.786-2.028-2.786a1.508,1.508,0,0,0-1.253.739c-.638,1.1-.383,3.354.636,5.65-.355,1.055-.74,2.082-1.215,3.22a28.8,28.8,0,0,1-1.378,2.853c-1.527.615-4.772,2.106-5.08,3.754a1.4,1.4,0,0,0,.445,1.312,1.934,1.934,0,0,0,1.322.471c1.954,0,3.9-2.706,5.215-5.036.745-.254,1.51-.484,2.264-.684.831-.22,1.633-.4,2.391-.534a7.423,7.423,0,0,0,4.83,2.081c1.267,0,1.74-.55,1.913-1.012a1.551,1.551,0,0,0-.295-1.55Z" transform="translate(-1203.73 -272.857)"/></g></g><path class="a" d="M1229.857,252.632H1156.75V246.25h73.107Zm-71.366-1.741h69.626v-2.9h-69.626Z" transform="translate(0 0)"/><g transform="translate(1156.75 246.25)"><path class="a" d="M1203.1,300.79h-44.609v-52.8h69.626v17.146h1.741V246.25H1156.75v56.281H1203.1Z" transform="translate(-1156.75 -246.25)"/></g><path class="c" d="M1225.648,265.988a3.075,3.075,0,0,1,1.611.586l7.472,7.472a3.077,3.077,0,0,1,.585,1.612v31.35a2.937,2.937,0,0,1-2.93,2.93h-29.3a2.938,2.938,0,0,1-2.93-2.93v-38.09a2.938,2.938,0,0,1,2.93-2.93h22.561m0-1.464h-22.561a4.317,4.317,0,0,0-4.395,4.238q0,.078,0,.157v38.09a4.315,4.315,0,0,0,4.237,4.395c.053,0,.106,0,.158,0h29.3a4.315,4.315,0,0,0,4.395-4.237c0-.053,0-.106,0-.158v-31.35a4.208,4.208,0,0,0-1.026-2.638l-7.471-7.471A4.564,4.564,0,0,0,1225.648,264.523Z" transform="translate(6.729 2.931)"/></g></svg>