<svg xmlns="http://www.w3.org/2000/svg" width="243.336" height="51.713" viewBox="0 0 243.336 51.713"><defs><style>.a{fill:#fff;}.b{fill:#f25022;}.c{fill:#7fba00;}.d{fill:#00a4ef;}.e{fill:#ffb900;}</style></defs><path class="a" d="M58.583,5.294V36.322H53.194V12h-.087L43.478,36.322H39.907L30.041,12h-.065V36.322H25V5.294h7.724l8.916,23h.131l9.412-23h7.4Zm4.5,2.357a2.849,2.849,0,0,1,.942-2.175A3.174,3.174,0,0,1,66.27,4.6a3.133,3.133,0,0,1,2.294.9,2.917,2.917,0,0,1,.909,2.153,2.806,2.806,0,0,1-.931,2.142,3.213,3.213,0,0,1-2.273.866,3.148,3.148,0,0,1-2.262-.876A2.831,2.831,0,0,1,63.088,7.651Zm5.778,6.429V36.325H63.63V14.08ZM84.747,32.514a7.214,7.214,0,0,0,2.575-.542,10.858,10.858,0,0,0,2.6-1.429v4.869A10.49,10.49,0,0,1,87.075,36.5a15.527,15.527,0,0,1-3.495.367A10.583,10.583,0,0,1,72.524,25.827a12.684,12.684,0,0,1,3.138-8.84q3.135-3.474,8.892-3.473a12.115,12.115,0,0,1,2.975.378,9.945,9.945,0,0,1,2.39.876v5.019a10.721,10.721,0,0,0-2.477-1.374,7.165,7.165,0,0,0-2.586-.487,6.557,6.557,0,0,0-5,2.011,7.571,7.571,0,0,0-1.905,5.43,7.229,7.229,0,0,0,1.829,5.258A6.582,6.582,0,0,0,84.747,32.514Zm20.081-18.8a6.619,6.619,0,0,1,1.124.087,4.656,4.656,0,0,1,.844.218v5.3a4.665,4.665,0,0,0-1.2-.574,5.978,5.978,0,0,0-1.916-.269,4.07,4.07,0,0,0-3.258,1.622,7.8,7.8,0,0,0-1.331,5v11.23H93.854V14.08h5.237v3.506h.087a6.128,6.128,0,0,1,2.164-2.844A5.855,5.855,0,0,1,104.828,13.71Zm2.251,11.815q0-5.52,3.116-8.742t8.655-3.225q5.213,0,8.146,3.105a11.722,11.722,0,0,1,2.931,8.386,11.821,11.821,0,0,1-3.116,8.612,11.282,11.282,0,0,1-8.484,3.2,11.092,11.092,0,0,1-8.211-3.04A11.231,11.231,0,0,1,107.079,25.525Zm5.454-.174a7.954,7.954,0,0,0,1.579,5.324,5.632,5.632,0,0,0,4.521,1.84,5.271,5.271,0,0,0,4.349-1.84,8.5,8.5,0,0,0,1.494-5.452,8.211,8.211,0,0,0-1.546-5.422,5.371,5.371,0,0,0-4.338-1.829,5.482,5.482,0,0,0-4.469,1.916A8.326,8.326,0,0,0,112.534,25.351Zm25.184-5.43a2.24,2.24,0,0,0,.713,1.764,12.221,12.221,0,0,0,3.16,1.611,10.713,10.713,0,0,1,4.4,2.825,5.853,5.853,0,0,1,1.266,3.8,6.1,6.1,0,0,1-2.411,5.041,10.242,10.242,0,0,1-6.524,1.905,15.761,15.761,0,0,1-3.062-.335,13.629,13.629,0,0,1-2.844-.855v-5.15a12.873,12.873,0,0,0,3.073,1.579,9.015,9.015,0,0,0,2.986.585,5.315,5.315,0,0,0,2.618-.5,1.777,1.777,0,0,0,.844-1.666,2.313,2.313,0,0,0-.876-1.829,12.937,12.937,0,0,0-3.321-1.72,10.277,10.277,0,0,1-4.113-2.727,5.97,5.97,0,0,1-1.211-3.851,6.088,6.088,0,0,1,2.392-4.945,9.547,9.547,0,0,1,6.2-1.935,15.14,15.14,0,0,1,2.618.259,11.516,11.516,0,0,1,2.422.672v4.978a11.1,11.1,0,0,0-2.422-1.189,8.08,8.08,0,0,0-2.749-.5,4.007,4.007,0,0,0-2.327.585A1.84,1.84,0,0,0,137.718,19.921Zm11.793,5.6q0-5.52,3.116-8.742t8.655-3.225q5.213,0,8.146,3.105a11.722,11.722,0,0,1,2.931,8.386,11.821,11.821,0,0,1-3.116,8.612,11.282,11.282,0,0,1-8.484,3.2,11.092,11.092,0,0,1-8.211-3.04A11.22,11.22,0,0,1,149.511,25.525Zm5.452-.174a7.954,7.954,0,0,0,1.579,5.324,5.632,5.632,0,0,0,4.521,1.84,5.271,5.271,0,0,0,4.349-1.84,8.5,8.5,0,0,0,1.494-5.452A8.211,8.211,0,0,0,165.36,19.8a5.371,5.371,0,0,0-4.338-1.829,5.482,5.482,0,0,0-4.469,1.916A8.341,8.341,0,0,0,154.963,25.351Zm34.77-6.987h-7.8V36.325h-5.3V18.364h-3.721V14.08h3.721V10.986a7.693,7.693,0,0,1,2.284-5.746A8,8,0,0,1,184.768,3a12.909,12.909,0,0,1,1.687.1,6.849,6.849,0,0,1,1.3.291V7.913a5.465,5.465,0,0,0-.909-.367,4.715,4.715,0,0,0-1.492-.218,3.158,3.158,0,0,0-2.531,1.029,4.544,4.544,0,0,0-.887,3.04V14.08h7.8v-5l5.258-1.6v6.6h5.3v4.284h-5.3V28.772a4.378,4.378,0,0,0,.746,2.9,2.977,2.977,0,0,0,2.349.844,3.453,3.453,0,0,0,1.094-.218,5.024,5.024,0,0,0,1.113-.52V36.1a6.207,6.207,0,0,1-1.655.52,11.358,11.358,0,0,1-2.284.237A6.489,6.489,0,0,1,191.39,35.1a7.51,7.51,0,0,1-1.655-5.313V18.364Z" transform="translate(43.043 5.165)"/><rect class="b" width="24.577" height="24.577"/><rect class="c" width="24.577" height="24.577" transform="translate(27.136)"/><rect class="d" width="24.577" height="24.577" transform="translate(0 27.136)"/><rect class="e" width="24.577" height="24.577" transform="translate(27.136 27.136)"/></svg>