<?xml version="1.0" encoding="UTF-8"?>
<svg xmlns="http://www.w3.org/2000/svg" xmlns:xlink="http://www.w3.org/1999/xlink" width="22px" height="22px" viewBox="0 0 22 22" version="1.1">
<defs>
<filter id="alpha" filterUnits="objectBoundingBox" x="0%" y="0%" width="100%" height="100%">
  <feColorMatrix type="matrix" in="SourceGraphic" values="0 0 0 0 1 0 0 0 0 1 0 0 0 0 1 0 0 0 1 0"/>
</filter>
<mask id="mask0">
  <g filter="url(#alpha)">
<rect x="0" y="0" width="22" height="22" style="fill:rgb(0%,0%,0%);fill-opacity:0.101961;stroke:none;"/>
  </g>
</mask>
<clipPath id="clip1">
  <rect x="0" y="0" width="22" height="22"/>
</clipPath>
<g id="surface5" clip-path="url(#clip1)">
<path style=" stroke:none;fill-rule:evenodd;fill:rgb(36.078431%,36.078431%,87.843137%);fill-opacity:1;" d="M 11.609375 15.664062 C 11.609375 15.054688 11.855469 14.484375 12.296875 14.054688 C 12.414062 13.941406 12.542969 13.839844 12.683594 13.753906 L 12.683594 13.75 C 12.679688 12.382812 13.121094 11.265625 13.992188 10.421875 C 14.828125 9.613281 15.933594 9.167969 17.109375 9.167969 L 17.308594 9.171875 C 17.449219 9.175781 17.585938 9.191406 17.722656 9.207031 L 17.722656 4.644531 C 17.722656 4.402344 17.625 4.167969 17.453125 3.996094 L 14.324219 0.878906 C 14.152344 0.707031 13.917969 0.613281 13.675781 0.609375 L 4.277344 0.609375 C 3.601562 0.609375 3.054688 1.160156 3.054688 1.832031 L 3.054688 17.722656 C 3.054688 18.398438 3.601562 18.945312 4.277344 18.945312 L 11.613281 18.945312 Z M 11.609375 15.664062 "/>
</g>
</defs>
<g id="surface1">
<use xlink:href="#surface5" mask="url(#mask0)"/>
<path style=" stroke:none;fill-rule:evenodd;fill:rgb(36.078431%,36.078431%,87.843137%);fill-opacity:1;" d="M 14.054688 0.867188 L 17.410156 4.277344 L 14.355469 4.277344 C 14.273438 4.285156 14.191406 4.253906 14.132812 4.195312 C 14.074219 4.136719 14.042969 4.054688 14.050781 3.972656 Z M 11.613281 18.945312 L 4.277344 18.945312 C 3.601562 18.945312 3.054688 18.398438 3.054688 17.722656 L 3.054688 1.832031 C 3.054688 1.160156 3.601562 0.609375 4.277344 0.609375 L 13.445312 0.609375 L 13.445312 3.972656 C 13.457031 4.472656 13.859375 4.875 14.359375 4.890625 L 17.722656 4.890625 L 17.722656 9.207031 C 17.929688 9.238281 18.132812 9.285156 18.332031 9.339844 L 18.332031 4.949219 C 18.320312 4.542969 18.167969 4.15625 17.898438 3.851562 L 14.542969 0.429688 C 14.230469 0.171875 13.847656 0.0234375 13.445312 0 L 4.277344 0 C 3.265625 0 2.445312 0.820312 2.445312 1.832031 L 2.445312 17.722656 C 2.445312 18.734375 3.265625 19.554688 4.277344 19.554688 L 11.613281 19.554688 Z M 11.613281 18.945312 "/>
<path style=" stroke:none;fill-rule:nonzero;fill:rgb(36.078431%,36.078431%,87.843137%);fill-opacity:1;" d="M 20.320312 14.667969 C 20.910156 14.667969 21.390625 15.128906 21.390625 15.703125 L 21.390625 19.742188 C 21.390625 20.3125 20.910156 20.777344 20.320312 20.777344 L 13.902344 20.777344 C 13.3125 20.777344 12.832031 20.3125 12.832031 19.742188 L 12.832031 15.703125 C 12.832031 15.128906 13.3125 14.667969 13.902344 14.667969 L 13.949219 14.667969 C 13.921875 14.496094 13.902344 13.710938 13.902344 13.535156 C 13.902344 11.816406 15.339844 10.425781 17.109375 10.425781 C 18.222656 10.425781 19.203125 10.972656 19.777344 11.808594 L 19.054688 12.445312 C 18.664062 11.796875 17.941406 11.359375 17.109375 11.359375 C 15.871094 11.359375 14.867188 12.335938 14.867188 13.535156 C 14.867188 13.714844 14.894531 14.5 14.9375 14.667969 Z M 17.109375 16.152344 C 16.519531 16.152344 16.042969 16.617188 16.042969 17.191406 C 16.042969 17.570312 16.257812 17.902344 16.578125 18.082031 L 16.578125 18.847656 C 16.578125 19.074219 16.769531 19.261719 17.003906 19.261719 L 17.21875 19.261719 C 17.453125 19.261719 17.644531 19.074219 17.644531 18.847656 L 17.644531 18.082031 C 17.964844 17.902344 18.179688 17.570312 18.179688 17.191406 C 18.179688 16.617188 17.703125 16.152344 17.109375 16.152344 Z M 6.601562 13.351562 C 6.601562 13.53125 6.417969 13.710938 6.234375 13.710938 C 6.050781 13.710938 5.867188 13.53125 5.867188 13.351562 C 5.867188 12.265625 6.601562 11.242188 7.761719 10.457031 C 8.066406 10.277344 8.679688 10.457031 8.554688 10.941406 L 8.1875 12.386719 L 9.167969 11.664062 C 9.472656 11.421875 10.082031 11.601562 10.023438 12.085938 L 9.898438 12.6875 C 9.960938 12.625 10.070312 12.542969 10.207031 12.445312 C 10.632812 12.203125 11.121094 12.144531 11.550781 12.203125 C 11.734375 12.203125 12.203125 12.324219 12.390625 12.386719 C 12.574219 12.445312 12.648438 12.574219 12.648438 12.753906 C 12.648438 12.933594 12.449219 13.085938 12.328125 13.046875 C 12.203125 13.011719 11.832031 12.929688 11.488281 12.867188 C 11.183594 12.808594 10.816406 12.867188 10.570312 12.988281 C 10.449219 13.046875 10.390625 13.109375 10.328125 13.167969 C 10.023438 13.46875 9.738281 13.566406 9.535156 13.53125 C 9.226562 13.46875 9.167969 13.230469 9.167969 12.929688 C 9.167969 12.886719 9.1875 12.707031 9.226562 12.386719 L 7.882812 13.410156 C 7.640625 13.589844 7.273438 13.351562 7.332031 13.046875 L 7.820312 11.179688 C 7.027344 11.964844 6.601562 12.6875 6.601562 13.351562 Z M 11.304688 14.675781 C 11.488281 14.675781 11.609375 14.796875 11.609375 14.976562 C 11.609375 15.15625 11.488281 15.277344 11.304688 15.277344 L 5.195312 15.277344 C 5.011719 15.277344 4.890625 15.15625 4.890625 14.976562 C 4.890625 14.796875 5.011719 14.675781 5.195312 14.675781 Z M 11.304688 14.675781 "/>
</g>
</svg>
