<svg xmlns="http://www.w3.org/2000/svg" width="17" height="24" viewBox="0 0 17 24"><defs><style>.a,.b{fill:#e34850;}.a{opacity:0.149;}</style></defs><path class="a" d="M19,5.3V18H6V2h9.6Z" transform="translate(-4)"/><path class="b" d="M5.5,22a.5.5,0,0,0,0,1H12V22ZM17,22v1h2.5a.5.5,0,0,0,0-1Zm-1,.5A1.5,1.5,0,1,0,14.5,24,1.538,1.538,0,0,0,16,22.5Zm-.7.013a.8.8,0,0,1-1.6,0,.8.8,0,1,1,1.6,0ZM19,5.3V18H6V2h9.6ZM6,0A2.006,2.006,0,0,0,4,2V18a2.006,2.006,0,0,0,2,2H19a2.006,2.006,0,0,0,2-2V5a1.845,1.845,0,0,0-.5-1.2L16.9.5A1.845,1.845,0,0,0,15.7,0Z" transform="translate(-4)"/><path class="b" d="M16.391,11.043a.326.326,0,0,1-.067.144.358.358,0,0,1-.139.117.768.768,0,0,1-.314.09,1.718,1.718,0,0,1-.427-.014,2.6,2.6,0,0,1-.812-.3,5.373,5.373,0,0,1-.79-.525,6.864,6.864,0,0,1,1.1-.09,5.022,5.022,0,0,1,.826.05,1,1,0,0,1,.471.193.35.35,0,0,1,.153.332Zm-4.134-.359c-.153.04-.323.081-.5.126s-.346.09-.5.139c.086-.157.162-.332.238-.5s.143-.337.206-.485c.072-.175.148-.363.22-.548s.144-.373.206-.543c.068.108.153.242.238.373s.171.256.242.355c.117.157.238.309.359.449a5.437,5.437,0,0,0,.377.4c-.175.032-.35.068-.534.108s-.364.085-.552.13Zm-.741-4.323a1.7,1.7,0,0,1,.032-.35.91.91,0,0,1,.09-.251.316.316,0,0,1,.108-.112.284.284,0,0,1,.148-.045.358.358,0,0,1,.31.2.7.7,0,0,1,.1.345,2.971,2.971,0,0,1-.125.839c-.076.306-.188.637-.3.992a5.828,5.828,0,0,1-.274-.884,3.673,3.673,0,0,1-.085-.732Zm-3,7a.392.392,0,0,1-.1-.013.339.339,0,0,1-.085-.05.357.357,0,0,1-.085-.135.3.3,0,0,1,0-.157,1.569,1.569,0,0,1,.651-.718,7.589,7.589,0,0,1,1.454-.795,5.472,5.472,0,0,1-1,1.374,1.494,1.494,0,0,1-.835.494Zm8.088-2.68a1.28,1.28,0,0,0-.606-.31,4.115,4.115,0,0,0-.974-.1c-.2,0-.417.009-.651.032s-.467.049-.723.089c-.143-.13-.287-.278-.426-.431s-.274-.327-.409-.507q-.141-.188-.269-.391c-.085-.13-.171-.265-.247-.4a10.8,10.8,0,0,0,.328-1.185,4.671,4.671,0,0,0,.112-.916,1.644,1.644,0,0,0-.171-.786.683.683,0,0,0-.633-.363.651.651,0,0,0-.291.081.576.576,0,0,0-.224.2,1.755,1.755,0,0,0-.108,1.1,5.677,5.677,0,0,0,.48,1.517c-.09.265-.193.512-.3.763s-.229.507-.346.786c-.1.238-.2.458-.305.673s-.215.426-.341.651a7.7,7.7,0,0,0-1.742.907,1.732,1.732,0,0,0-.745.875.482.482,0,0,0,.018.265.561.561,0,0,0,.153.224.715.715,0,0,0,.171.108.906.906,0,0,0,.373.076,1.98,1.98,0,0,0,1.342-.839,9.96,9.96,0,0,0,1.019-1.513c.193-.063.4-.126.619-.188s.427-.117.624-.166c.216-.058.422-.112.624-.162s.4-.094.6-.125a4.252,4.252,0,0,0,1.4.835,3.073,3.073,0,0,0,.978.18,1.134,1.134,0,0,0,.575-.126.524.524,0,0,0,.22-.26.344.344,0,0,0,.027-.094.677.677,0,0,0,0-.094.634.634,0,0,0-.04-.224.459.459,0,0,0-.108-.171Z" transform="translate(-4)"/></svg>