<svg xmlns="http://www.w3.org/2000/svg" width="100" height="100" viewBox="0 0 100 100"><defs><style>.a{fill:#fff;opacity:0;}.b,.e{fill:#b3b3b3;}.c{fill:#fa0f00;}.d{fill:none;}.e{fill-rule:evenodd;}</style></defs><g transform="translate(-4135.579 5649.938)"><rect class="a" width="100" height="100" transform="translate(4135.579 -5649.938)"/><g transform="translate(4175.53 -5628.711)"><line class="b" x2="16.391" transform="translate(0.922 4.17)"/><path class="c" d="M413.324,388.844h-15.5a.922.922,0,1,1,0-1.844h15.5a.922.922,0,0,1,0,1.844Z" transform="translate(-396.897 -383.752)"/><g transform="translate(10.868)"><path class="d" d="M409.517,391.817a.83.83,0,0,1-.446-1.529l4.149-2.642-4.148-2.641a.83.83,0,0,1,.89-1.4l5.248,3.342a.831.831,0,0,1,0,1.4l-5.25,3.343A.834.834,0,0,1,409.517,391.817Z" transform="translate(-408.686 -383.476)"/></g></g><g transform="translate(4207.901 -5614.069)"><line class="b" y2="16.391" transform="translate(4.172 0.922)"/><path class="c" d="M433.539,415.786v-15.5a.922.922,0,0,1,1.844,0v15.5a.922.922,0,0,1-1.844,0Z" transform="translate(-430.289 -399.36)"/><g transform="translate(0 10.867)"><path class="d" d="M430.013,411.979a.83.83,0,0,1,1.529-.446l2.643,4.149,2.641-4.148a.83.83,0,0,1,1.4.89l-3.342,5.248a.831.831,0,0,1-1.4,0l-3.343-5.25A.836.836,0,0,1,430.013,411.979Z" transform="translate(-430.013 -411.148)"/></g></g><g transform="translate(4177.778 -5585.386)"><line class="b" x1="16.391" transform="translate(0.461 4.17)"/><g transform="translate(0)"><path class="c" d="M398.719,435.844h15.5a.922.922,0,1,0,0-1.844h-15.5a.922.922,0,1,0,0,1.844Z" transform="translate(-397.371 -430.752)"/><path class="c" d="M403.412,438.817a.83.83,0,0,0,.446-1.529l-4.149-2.642,4.148-2.641a.83.83,0,0,0-.89-1.4l-5.248,3.342a.831.831,0,0,0,0,1.4l5.249,3.343A.835.835,0,0,0,403.412,438.817Z" transform="translate(-397.335 -430.476)"/></g></g><path class="e" d="M424.129,446.389a2,2,0,0,1-1.982-1.983V425.6a1.993,1.993,0,0,1,1.983-1.982h9.955a2.416,2.416,0,0,1,.353-.029,1.986,1.986,0,0,1,1.655.884l2.9,2.668.194.193a3.122,3.122,0,0,1,1.3,2.305v14.766a1.993,1.993,0,0,1-1.983,1.982Zm-.23-1.751H438.74V430.9h-3.549a2,2,0,0,1-1.982-1.983v-3.548H423.9Zm11.062-15.486H438.6l-3.641-3.641Zm10.228,3.879a.107.107,0,0,1-.071-.027l-3.038-3.589c-.028-.125-.013-.165.015-.2l2.057-.033h.23v-1.725a4.592,4.592,0,0,0-4.46-4.7h-1.855a.5.5,0,0,1-.471-.507v-.757a.5.5,0,0,1,.46-.513h1.836a5.976,5.976,0,0,1,4.322,1.892,6.653,6.653,0,0,1,1.761,4.586v1.727h2.142a.118.118,0,0,1,.088.037.168.168,0,0,1,.039.106l-.03.089L445.265,433Z" transform="translate(3779.425 -6015.119)"/><g transform="translate(4199.359 -5638)"><path class="b" d="M423.372,383.028a.439.439,0,0,1-.312-.135.446.446,0,0,1-.128-.318,10.4,10.4,0,0,1,10.3-9.177l.222,0a10.3,10.3,0,0,1,8.579,4.7l.164.252,2.933-3.262.14,0,.032.087.025,7.743a.1.1,0,0,1-.1.1h-7.411a.1.1,0,0,1-.1-.1l3.374-3.375-.1-.156a9.305,9.305,0,0,0-7.521-4.424h-.117c-4.542,0-7.936,2.937-8.859,7.666a.467.467,0,0,1-.442.4Z" transform="translate(-420.918 -373.399)"/><path class="b" d="M421.189,395.537a.442.442,0,0,1-.442-.442v-7.4a.442.442,0,0,1,.442-.442h6.05a.443.443,0,0,1,.443.442v7.4a.443.443,0,0,1-.442.442Zm1.114-1.557h3.823v-5.167H422.3Z" transform="translate(-420.747 -374.483)"/><path class="b" d="M431.4,395.537a.442.442,0,0,1-.442-.442v-7.4a.442.442,0,0,1,.442-.442h6.049a.443.443,0,0,1,.443.442v7.4a.442.442,0,0,1-.443.442Zm1.114-1.557h3.822v-5.167h-3.822Z" transform="translate(-421.545 -374.483)"/><rect class="b" width="6.935" height="8.279" rx="0.479" transform="translate(18.822 12.775)"/></g><path class="e" d="M384.94,396.371v-1.106h-4.655a2,2,0,0,1-1.982-1.984v-4.654h-8.2v7.744h-1.751v-7.514a1.994,1.994,0,0,1,1.983-1.982h8.848a3.206,3.206,0,0,1,2.467,1.341l3.573,3.246a4.215,4.215,0,0,1,1.474,2.941v1.968Zm-4.886-2.859h4.769l-4.769-4.768Zm4.886-9.309V382.45h1.751V384.2Zm-3.319,0V382.45h1.751V384.2Zm-3.319,0V382.45h1.751V384.2Zm-3.319,0V382.45h1.751V384.2Zm-3.319,0V382.45h1.751V384.2Zm-3.319,0V382.45H370.1V384.2Zm1.982-4.425a1.994,1.994,0,0,1-1.982-1.984V373.6H370.1v4.424H384.94V373.6h1.751V377.8a1.994,1.994,0,0,1-1.983,1.983Z" transform="translate(3781.788 -6011.415)"/><path class="b" d="M370.3,445.707a1.993,1.993,0,0,1-1.981-1.983v-3.8l1.75-1.751v5.781h14.842v-5.781l1.751,1.751v3.8a1.993,1.993,0,0,1-1.982,1.982Zm18.78-6.664a.872.872,0,0,1-.585-.225l-3.327-3.324a.878.878,0,0,1-.05-1.18l3.358-3.357a.872.872,0,1,1,1.26,1.2l-2.717,2.714,2.7,2.691a.876.876,0,0,1-.637,1.477Zm-23.179,0a.876.876,0,0,1-.633-1.48l2.694-2.687-2.719-2.717a.986.986,0,0,1-.089-.091.876.876,0,0,1,.1-1.233.878.878,0,0,1,1.234.1l3.376,3.382a.877.877,0,0,1-.054,1.175l-3.336,3.333A.867.867,0,0,1,365.9,439.043Zm2.418-9.181v-3.836a1.993,1.993,0,0,1,1.982-1.982h10.853a1.62,1.62,0,0,1,1.162.483l3.863,3.8a1.2,1.2,0,0,1,.485.82l0,.671-1.751,1.769v-2.01l-3.9-3.784H370.069v5.8Z" transform="translate(3782.054 -6015.359)"/></g></svg>