<svg id="_6_Accelerate_Accessibility_Workflows_Icon" data-name="6_Accelerate Accessibility Workflows Icon" xmlns="http://www.w3.org/2000/svg" xmlns:xlink="http://www.w3.org/1999/xlink" width="82.344" height="70" viewBox="0 0 82.344 70">
  <defs>
    <clipPath id="clip-path">
      <rect id="Rectangle_217213" data-name="Rectangle 217213" width="82.344" height="70" fill="none"/>
    </clipPath>
  </defs>
  <g id="Group_187457" data-name="Group 187457" clip-path="url(#clip-path)">
    <path id="Path_359825" data-name="Path 359825" d="M15.919,43.994a1.174,1.174,0,0,1-1.168-1.077c-.067-.809-.1-1.628-.1-2.433A28.88,28.88,0,0,1,25.072,18.243a1.174,1.174,0,1,1,1.5,1.8A26.539,26.539,0,0,0,17,40.484c0,.741.031,1.494.093,2.239a1.174,1.174,0,0,1-1.073,1.267Q15.968,43.994,15.919,43.994Z" transform="translate(-2.417 -2.983)" fill="#b3b4b4"/>
    <path id="Path_359826" data-name="Path 359826" d="M46.818,78.935a28.837,28.837,0,0,1-12.546-2.854,1.174,1.174,0,1,1,1.019-2.115,26.653,26.653,0,0,0,23.11-.027,1.174,1.174,0,1,1,1.024,2.112,28.827,28.827,0,0,1-12.607,2.884Z" transform="translate(-5.646 -12.496)" fill="#b3b4b4"/>
    <path id="Path_359827" data-name="Path 359827" d="M80.242,41.31a1.174,1.174,0,0,1-1.174-1.174A26.564,26.564,0,0,0,67.344,18.086a1.174,1.174,0,1,1,1.314-1.945,29.167,29.167,0,0,1,9.265,10.2,28.814,28.814,0,0,1,3.494,13.795A1.174,1.174,0,0,1,80.242,41.31Z" transform="translate(-11.305 -2.637)" fill="#b3b4b4"/>
    <g id="Group_187464" data-name="Group 187464" transform="translate(2.389 44.167)">
      <path id="Path_359829" data-name="Path 359829" d="M11.722,1.556A10.166,10.166,0,0,0,4.533,18.911,10.166,10.166,0,0,0,18.911,4.533a10.1,10.1,0,0,0-7.189-2.978m0-1.556A11.722,11.722,0,1,1,0,11.722,11.722,11.722,0,0,1,11.722,0Z" fill="#b3b4b4"/>
      <g id="accessibility" transform="translate(5.598 4.228)">
        <path id="Path_26" data-name="Path 26" d="M201.6,3.208A1.6,1.6,0,1,0,200,1.6,1.605,1.605,0,0,0,201.6,3.208Z" transform="translate(-195.643)" fill="#eb1000"/>
        <path id="Path_27" data-name="Path 27" d="M58.9,111.923l-.014,0-.011,0-.086.026a21.291,21.291,0,0,1-4.944.885,20.831,20.831,0,0,1-4.8-.845,2.139,2.139,0,0,0-.229-.074c-.544-.143-.917.41-.917.914s.45.739.9.911v.009l2.727.851c.278.106.352.215.39.309a2.783,2.783,0,0,1-.009,1.114l-.166,1.289-.92,5.05-.009.043-.006.037a.823.823,0,0,0,.917.911c.561,0,.811-.387.917-.914,0,0,.8-4.515,1.2-4.515s1.226,4.515,1.226,4.515c.109.527.355.914.917.914a.823.823,0,0,0,.917-.914c-.006-.04-.014-.077-.023-.117l-.931-5-.166-1.289a1.843,1.843,0,0,1,.009-1.057.01.01,0,0,0,0-.006,1.022,1.022,0,0,1,.5-.309l2.558-.894a.281.281,0,0,0,.046-.014c.458-.172.917-.41.917-.914S59.447,111.78,58.9,111.923Z" transform="translate(-47.9 -108.692)" fill="#eb1000"/>
      </g>
    </g>
    <g id="Group_187465" data-name="Group 187465" transform="translate(57.216 44.167)">
      <path id="Path_359829-2" data-name="Path 359829" d="M11.722,1.556A10.166,10.166,0,0,0,4.533,18.911,10.166,10.166,0,0,0,18.911,4.533a10.1,10.1,0,0,0-7.189-2.978m0-1.556A11.722,11.722,0,1,1,0,11.722,11.722,11.722,0,0,1,11.722,0Z" fill="#b3b4b4"/>
      <g id="accessibility-2" data-name="accessibility" transform="translate(5.598 4.228)">
        <path id="Path_26-2" data-name="Path 26" d="M201.6,3.208A1.6,1.6,0,1,0,200,1.6,1.605,1.605,0,0,0,201.6,3.208Z" transform="translate(-195.643)" fill="#eb1000"/>
        <path id="Path_27-2" data-name="Path 27" d="M58.9,111.923l-.014,0-.011,0-.086.026a21.291,21.291,0,0,1-4.944.885,20.831,20.831,0,0,1-4.8-.845,2.139,2.139,0,0,0-.229-.074c-.544-.143-.917.41-.917.914s.45.739.9.911v.009l2.727.851c.278.106.352.215.39.309a2.783,2.783,0,0,1-.009,1.114l-.166,1.289-.92,5.05-.009.043-.006.037a.823.823,0,0,0,.917.911c.561,0,.811-.387.917-.914,0,0,.8-4.515,1.2-4.515s1.226,4.515,1.226,4.515c.109.527.355.914.917.914a.823.823,0,0,0,.917-.914c-.006-.04-.014-.077-.023-.117l-.931-5-.166-1.289a1.843,1.843,0,0,1,.009-1.057.01.01,0,0,0,0-.006,1.022,1.022,0,0,1,.5-.309l2.558-.894a.281.281,0,0,0,.046-.014c.458-.172.917-.41.917-.914S59.447,111.78,58.9,111.923Z" transform="translate(-47.9 -108.692)" fill="#eb1000"/>
      </g>
    </g>
    <g id="Group_187466" data-name="Group 187466" transform="translate(28.9 0.833)">
      <path id="Path_359829-3" data-name="Path 359829" d="M11.722,1.556A10.166,10.166,0,0,0,4.533,18.911,10.166,10.166,0,0,0,18.911,4.533a10.1,10.1,0,0,0-7.189-2.978m0-1.556A11.722,11.722,0,1,1,0,11.722,11.722,11.722,0,0,1,11.722,0Z" transform="translate(1)" fill="#b3b4b4"/>
      <g id="accessibility-3" data-name="accessibility" transform="translate(6.598 4.228)">
        <path id="Path_26-3" data-name="Path 26" d="M201.6,3.208A1.6,1.6,0,1,0,200,1.6,1.605,1.605,0,0,0,201.6,3.208Z" transform="translate(-195.643)" fill="#eb1000"/>
        <path id="Path_27-3" data-name="Path 27" d="M58.9,111.923l-.014,0-.011,0-.086.026a21.291,21.291,0,0,1-4.944.885,20.831,20.831,0,0,1-4.8-.845,2.139,2.139,0,0,0-.229-.074c-.544-.143-.917.41-.917.914s.45.739.9.911v.009l2.727.851c.278.106.352.215.39.309a2.783,2.783,0,0,1-.009,1.114l-.166,1.289-.92,5.05-.009.043-.006.037a.823.823,0,0,0,.917.911c.561,0,.811-.387.917-.914,0,0,.8-4.515,1.2-4.515s1.226,4.515,1.226,4.515c.109.527.355.914.917.914a.823.823,0,0,0,.917-.914c-.006-.04-.014-.077-.023-.117l-.931-5-.166-1.289a1.843,1.843,0,0,1,.009-1.057.01.01,0,0,0,0-.006,1.022,1.022,0,0,1,.5-.309l2.558-.894a.281.281,0,0,0,.046-.014c.458-.172.917-.41.917-.914S59.447,111.78,58.9,111.923Z" transform="translate(-47.9 -108.692)" fill="#eb1000"/>
      </g>
    </g>
  </g>
</svg>
