<?xml version="1.0" encoding="UTF-8"?>
<svg xmlns="http://www.w3.org/2000/svg" xmlns:xlink="http://www.w3.org/1999/xlink" width="23px" height="23px" viewBox="0 0 23 23" version="1.1">
<g id="surface1">
<path style=" stroke:none;fill-rule:nonzero;fill:rgb(84.313725%,21.568627%,24.705882%);fill-opacity:1;" d="M 22.472656 12.394531 L 17.414062 17.378906 C 17.21875 17.570312 16.757812 17.570312 16.558594 17.378906 L 15.96875 16.804688 C 15.769531 16.609375 15.769531 16.164062 15.96875 15.972656 L 20.238281 11.753906 L 15.96875 7.539062 C 15.769531 7.347656 15.769531 6.898438 15.96875 6.707031 L 16.558594 6.132812 C 16.757812 5.941406 17.21875 5.941406 17.414062 6.132812 L 22.472656 11.117188 C 22.804688 11.5 22.804688 12.074219 22.472656 12.394531 Z M 22.472656 12.394531 "/>
<path style=" stroke:none;fill-rule:nonzero;fill:rgb(84.313725%,21.568627%,24.705882%);fill-opacity:1;" d="M 0.65625 11.117188 L 5.71875 6.132812 C 5.914062 5.941406 6.375 5.941406 6.570312 6.132812 L 7.164062 6.707031 C 7.359375 6.898438 7.359375 7.347656 7.164062 7.539062 L 2.890625 11.753906 L 7.164062 15.972656 C 7.359375 16.164062 7.359375 16.609375 7.164062 16.804688 L 6.570312 17.378906 C 6.375 17.570312 5.914062 17.570312 5.71875 17.378906 L 0.65625 12.394531 C 0.261719 12.074219 0.261719 11.5 0.65625 11.117188 Z M 0.65625 11.117188 "/>
<path style=" stroke:none;fill-rule:nonzero;fill:rgb(84.313725%,21.568627%,24.705882%);fill-opacity:1;" d="M 10.121094 18.71875 L 9.398438 18.71875 C 9.003906 18.71875 8.738281 18.464844 8.738281 18.082031 C 8.738281 18.015625 8.738281 17.953125 8.738281 17.953125 L 12.550781 4.214844 C 12.683594 3.960938 12.8125 3.769531 13.144531 3.769531 L 13.867188 3.769531 C 14.261719 3.769531 14.523438 4.023438 14.523438 4.410156 C 14.523438 4.472656 14.523438 4.472656 14.523438 4.535156 L 10.777344 18.273438 C 10.644531 18.527344 10.316406 18.71875 10.121094 18.71875 Z M 10.121094 18.71875 "/>
</g>
</svg>
