<svg xmlns="http://www.w3.org/2000/svg" width="100" height="100" viewBox="0 0 100 100"><defs><style>.a{fill:#fff;opacity:0;}.b,.c{fill:#b3b3b3;}.c{stroke:rgba(0,0,0,0);stroke-miterlimit:10;}.d,.e,.f,.i{fill:none;}.d,.e,.f{stroke:#b3b3b3;stroke-linecap:round;}.d,.e{stroke-width:1.6px;}.e,.f{stroke-linejoin:round;}.g{fill:#fa0f00;}.h{stroke:none;}</style></defs><g transform="translate(-168 -418)"><rect class="a" width="100" height="100" transform="translate(168 418)"/><g transform="translate(-1251.047 -501.953)"><g transform="translate(-17 -1)"><circle class="b" cx="2" cy="2" r="2" transform="translate(1453 952)"/><circle class="b" cx="2" cy="2" r="2" transform="translate(1458 952)"/><circle class="b" cx="2" cy="2" r="2" transform="translate(1463 952)"/></g><path class="c" d="M14014.451,4021.094h-21.57a4.991,4.991,0,0,1-4.88-5.087v-29.1a4.983,4.983,0,0,1,4.972-4.9h32.146a4.923,4.923,0,0,1,3.487,1.528,4.977,4.977,0,0,1,1.392,3.559v4.46h-1.684v-4.46c0-.074,0-.2-.007-.2s0,.024,0,.076a3.483,3.483,0,0,0-3.371-3.269h-31.876a3.4,3.4,0,0,0-3.375,3.393V4016a3.4,3.4,0,0,0,3.375,3.393h21.388v1.7Z" transform="translate(-12556.953 -3037.047)"/><path class="b" d="M14011.452,4020.094h-18.573a4.919,4.919,0,0,1-3.486-1.528A4.981,4.981,0,0,1,13988,4015v-28.1a4.978,4.978,0,0,1,1.487-3.474,4.926,4.926,0,0,1,3.478-1.43h18.486v1.694h-18.39a3.4,3.4,0,0,0-3.374,3.392V4015a3.4,3.4,0,0,0,3.374,3.392h18.39v1.7Z" transform="translate(-12525.953 -3023.047)"/><path class="c" d="M21.452,29.094H4.971A4.984,4.984,0,0,1,0,24.188c0-.061,0-.122,0-.183V-3.912A4.991,4.991,0,0,1,4.882-9H21.452v1.7H5.063A3.4,3.4,0,0,0,1.688-3.911V24.006A3.4,3.4,0,0,0,5.063,27.4H21.452v1.7Z" transform="translate(1506.953 988.047) rotate(180)"/><g transform="translate(1 1)"><path class="d" d="M-12552.5-3014.5l4-4" transform="translate(14048 3983)"/><path class="d" d="M-12548.5-3014.5l-4-4" transform="translate(14048.001 3983)"/><g class="e" transform="translate(1486 964)"><rect class="h" width="6" height="5"/><rect class="i" x="0.8" y="0.8" width="4.4" height="3.4"/></g><g class="f" transform="translate(1478 968)"><rect class="h" width="6" height="1"/><rect class="i" x="0.5" y="0.5" width="5"/></g></g><path class="g" d="M11.726,16.452a1.239,1.239,0,0,1-.878-.364L8.364,13.6a1.242,1.242,0,0,1,1.756-1.756l1.606,1.606,4.09-4.09a1.242,1.242,0,1,1,1.756,1.756L12.6,16.088A1.239,1.239,0,0,1,11.726,16.452Z" transform="translate(1471.579 970.793)"/><path class="b" d="M11.726,16.452a1.239,1.239,0,0,1-.878-.364L8.364,13.6a1.242,1.242,0,0,1,1.756-1.756l1.606,1.606,4.09-4.09a1.242,1.242,0,1,1,1.756,1.756L12.6,16.088A1.239,1.239,0,0,1,11.726,16.452Z" transform="translate(1439.064 958.5)"/><rect class="b" width="43" height="1" transform="translate(1463.047 972.953)"/><rect class="b" width="25" height="1" transform="translate(1432.047 958.953)"/></g></g></svg>