<svg xmlns="http://www.w3.org/2000/svg" width="25" height="18.813" viewBox="0 0 25 18.813"><defs><style>.a,.b{fill:#d83790;}.b{opacity:0.15;}</style></defs><g transform="translate(-706.394 -664.53)"><rect class="a" width="3.8" height="10.133" transform="translate(708.927 668.063)"/><path class="a" d="M719.48,679.548l.028-.027h-.03a1.883,1.883,0,0,1-.447-.058H707.66V665.8h18.467v3.773a1.927,1.927,0,0,1,1.267,1.054v-5.461a.634.634,0,0,0-.634-.633H707.027a.633.633,0,0,0-.633.633v15.064a.5.5,0,0,0,.5.5h12.035A1.9,1.9,0,0,1,719.48,679.548Z"/><path class="a" d="M730.969,676.322h-1.2a4.6,4.6,0,0,0-.711-1.738l.851-.851a.424.424,0,0,0,0-.6h0l-.645-.645a.425.425,0,0,0-.6,0l0,0-.85.85a4.62,4.62,0,0,0-1.738-.71v-1.2a.424.424,0,0,0-.424-.424H724.8a.424.424,0,0,0-.424.424h0v1.2a4.62,4.62,0,0,0-1.738.71l-.848-.85a.425.425,0,0,0-.6,0l0,0-.649.645a.424.424,0,0,0,0,.6h0l.85.851a4.6,4.6,0,0,0-.71,1.738h-1.2a.424.424,0,0,0-.424.424v.851a.424.424,0,0,0,.424.424h1.2a4.581,4.581,0,0,0,.71,1.738l-.85.853a.424.424,0,0,0,0,.6h0l0,0,.645.645a.425.425,0,0,0,.6,0v0l.851-.85a4.612,4.612,0,0,0,1.738.71v1.2a.424.424,0,0,0,.424.424h.851a.424.424,0,0,0,.424-.424v-1.2a4.613,4.613,0,0,0,1.738-.71l.85.85a.425.425,0,0,0,.6,0h0l0,0,.645-.645a.425.425,0,0,0,0-.6l0,0-.85-.85a4.615,4.615,0,0,0,.71-1.738h1.2a.424.424,0,0,0,.425-.424v-.851a.425.425,0,0,0-.422-.427h0Zm-4.043.851a1.7,1.7,0,1,1-1.7-1.7h0A1.7,1.7,0,0,1,726.926,677.173Z"/><path class="b" d="M717.554,677.6v-.851a1.926,1.926,0,0,1,1.924-1.924h.028l-.036-.035a1.927,1.927,0,0,1,.013-2.723l.648-.642a1.925,1.925,0,0,1,2.722.007l.022.023v-.025a1.925,1.925,0,0,1,1.518-1.878v-1.486H713.926V678.2h3.733A1.884,1.884,0,0,1,717.554,677.6Z"/></g></svg>