<svg xmlns="http://www.w3.org/2000/svg" width="40" height="40" viewBox="0 0 40 40"><defs><style>.a{fill:rgba(255,255,255,0);}.b{fill:#fff;}</style></defs><g transform="translate(-1228 -3254)"><rect class="a" width="40" height="40" transform="translate(1228 3254)"/><g transform="translate(1232 3258.002)"><path class="b" d="M209.368,12734.208h-2.323c-3.713-.68-7.5-1.335-11.371-2l-.147-.025c-.733-.128-1.475-.256-2.222-.385l-.42-.072-1.082-.187-1.776-.308v-26.037q1.115-.2,2.237-.391l1.688-.294.564-.1,1.726-.3c3.49-.6,7.227-1.251,10.9-1.908h2.224v2.979h.763l1.151,0c.865,0,1.812,0,2.9-.007,1.115-.006,1.915-.006,2.688-.006,1.747,0,3.158.01,4.439.031a1.4,1.4,0,0,1,.147-.009,1.277,1.277,0,0,1,.962.415,1.293,1.293,0,0,1,.329,1.013c.035,3.858.029,7.746.022,11.506v.006c-.006,3.183-.01,6.879.013,10.486,0,.1-.006.216-.007.323,0,.055,0,.108,0,.162a3.137,3.137,0,0,1-.352,1.764,2.726,2.726,0,0,1-1.576.361h-.177c-.044,0-.085,0-.127.007-1.872-.011-4.021-.016-6.567-.016h-2.3c-.767,0-1.548,0-2.3,0v2.976h0Zm0-7.076v2.982h12.279V12706.3H209.368v2.6h9.674v1.489h-9.674v1.859h9.674v1.489h-9.674v1.86h9.674v1.489h-9.674v1.856h9.674v1.489h-9.674v1.863h9.674v1.489h-9.674v1.86h9.674v1.482Zm-9.041-3.837a5.944,5.944,0,0,1,.7.054,6.037,6.037,0,0,0,.713.054,1.54,1.54,0,0,0,.706-.141c.584-2.279,1.1-4.618,1.606-6.88.272-1.225.579-2.609.89-3.944-.754.046-1.494.088-2.231.112q-.2,1.165-.408,2.328c-.311,1.771-.633,3.6-.928,5.409-.512-2.4-1.013-4.861-1.534-7.521l-.469.023-.179.009c-.484.023-.983.048-1.473.077-.28,1.309-.57,2.64-.851,3.927l0,.012c-.261,1.2-.5,2.279-.729,3.36-.22-1.558-.488-3.136-.746-4.662-.136-.8-.275-1.623-.408-2.442-.728.025-1.336.051-1.911.08.333,1.9.722,3.817,1.1,5.673l0,.011c.274,1.351.557,2.747.817,4.125.847.056,1.531.1,2.151.127.166-.793.342-1.6.512-2.38l.012-.054c.338-1.547.688-3.146.978-4.737.275,1.544.609,3.1.931,4.6l.008.037c.193.9.392,1.828.576,2.744C200.217,12723.3,200.274,12723.295,200.326,12723.295Z" transform="translate(-190.026 -12702.206)"/></g></g></svg>