<svg id="_3_Wide_range_of_doc_types_at_scale_Icon" data-name="3_Wide range of doc types, at scale Icon" xmlns="http://www.w3.org/2000/svg" xmlns:xlink="http://www.w3.org/1999/xlink" width="79.785" height="90" viewBox="0 0 79.785 90">
  <defs>
    <clipPath id="clip-path">
      <rect id="Rectangle_216995" data-name="Rectangle 216995" width="79.785" height="90" fill="none"/>
    </clipPath>
  </defs>
  <g id="Group_187340" data-name="Group 187340" clip-path="url(#clip-path)">
    <path id="Path_357923" data-name="Path 357923" d="M7.567,87.333A7.574,7.574,0,0,1,0,79.789V29.127a7.575,7.575,0,0,1,7.545-7.6h29.8a8.763,8.763,0,0,1,5.726,2.238L52.005,32.7a8.218,8.218,0,0,1,2.466,5.768V79.733a7.576,7.576,0,0,1-7.545,7.6c-.035,0-.128,0-.169,0l-39.157,0ZM7.551,24.9a4.2,4.2,0,0,0-4.18,4.222V79.733a4.211,4.211,0,0,0,1.244,3.011,4.121,4.121,0,0,0,2.978,1.218H46.87A4.2,4.2,0,0,0,51.1,79.739V38.492a4.863,4.863,0,0,0-1.468-3.4L40.75,26.21A5.351,5.351,0,0,0,37.312,24.9Z" transform="translate(0 2.667)" fill="#b3b4b4"/>
    <path id="Path_357924" data-name="Path 357924" d="M41.82,39.808H33.227a1.686,1.686,0,0,1-1.686-1.686V29.037a1.686,1.686,0,1,1,3.372,0v7.4H41.82a1.686,1.686,0,1,1,0,3.372" transform="translate(3.907 3.388)" fill="#eb1000"/>
    <path id="Path_357925" data-name="Path 357925" d="M57.879,77.382,57.823,75.7V74.01a4.218,4.218,0,0,0,4.228-4.224V28.54a4.857,4.857,0,0,0-1.466-3.4L51.7,16.258a5.341,5.341,0,0,0-3.437-1.314H18.554a4.2,4.2,0,0,0-4.229,4.222,1.686,1.686,0,0,1-1.679,1.693h-.007a1.685,1.685,0,0,1-1.686-1.679A7.575,7.575,0,0,1,18.5,11.573h29.8a8.774,8.774,0,0,1,5.727,2.239l8.938,8.936a8.209,8.209,0,0,1,2.465,5.768V69.78a7.585,7.585,0,0,1-7.543,7.6" transform="translate(1.357 1.434)" fill="#b3b4b4"/>
    <path id="Path_357926" data-name="Path 357926" d="M69.45,65.81l-.056-3.372a4.2,4.2,0,0,0,4.229-4.222V16.968a4.858,4.858,0,0,0-1.468-3.4L63.272,4.687a5.346,5.346,0,0,0-3.437-1.313H30.125A4.206,4.206,0,0,0,25.9,7.6a1.686,1.686,0,0,1-1.679,1.693H24.21A1.685,1.685,0,0,1,22.524,7.61,7.577,7.577,0,0,1,30.069,0a1.174,1.174,0,0,1,.169,0L59.865,0A8.774,8.774,0,0,1,65.591,2.24l8.938,8.936a8.214,8.214,0,0,1,2.466,5.768V58.209a7.575,7.575,0,0,1-7.545,7.6" transform="translate(2.79 0)" fill="#b3b4b4"/>
    <path id="Path_357927" data-name="Path 357927" d="M30.713,34.765H8.471a1.686,1.686,0,1,1,0-3.372H30.713a1.686,1.686,0,1,1,0,3.372" transform="translate(0.84 3.889)" fill="#b3b4b4"/>
    <path id="Path_357928" data-name="Path 357928" d="M43.719,71.234H8.471a1.686,1.686,0,1,1,0-3.372H43.719a1.686,1.686,0,0,1,0,3.372" transform="translate(0.84 8.406)" fill="#b3b4b4"/>
    <path id="Path_357929" data-name="Path 357929" d="M43.719,46.921H8.471a1.686,1.686,0,1,1,0-3.372H43.719a1.686,1.686,0,0,1,0,3.372" transform="translate(0.84 5.395)" fill="#b3b4b4"/>
    <path id="Path_357930" data-name="Path 357930" d="M43.719,59.078H8.471a1.686,1.686,0,1,1,0-3.372H43.719a1.686,1.686,0,1,1,0,3.372" transform="translate(0.84 6.901)" fill="#b3b4b4"/>
  </g>
</svg>
