<svg xmlns="http://www.w3.org/2000/svg" xmlns:xlink="http://www.w3.org/1999/xlink" width="61" height="66" viewBox="0 0 61 66">
  <defs>
    <clipPath id="clip-path">
      <circle id="Ellipse_24870" data-name="Ellipse 24870" cx="11.756" cy="11.756" r="11.756" fill="#fff" stroke="#707070" stroke-width="1"/>
    </clipPath>
    <clipPath id="clip-path-2">
      <path id="Path_578174" data-name="Path 578174" d="M-100.488-13311.014l5.968,9.335h10.8v-15.5h-16.772Z" transform="translate(100.488 13317.176)" fill="none" stroke="#707070" stroke-width="1"/>
    </clipPath>
  </defs>
  <g id="Group_292631" data-name="Group 292631" transform="translate(10875 14244)">
    <rect id="Rectangle_215492" data-name="Rectangle 215492" width="61" height="66" transform="translate(-10875 -14244)" fill="#fff"/>
    <g id="Group_292630" data-name="Group 292630" transform="translate(-11179 -15202.999)">
      <path id="Path_578169" data-name="Path 578169" d="M247.093,249.513l-9.243-9.243a5.644,5.644,0,0,0-3.263-1.27H206.675a5.344,5.344,0,0,0-5.437,5.237c0,.065,0,.13,0,.194v1.363c.6-.371.978-.547,1.811-1.052v-.311a3.634,3.634,0,0,1,3.625-3.625h27.912a3.8,3.8,0,0,1,1.994.726l9.242,9.243a3.793,3.793,0,0,1,.725,1.994v38.785a3.634,3.634,0,0,1-3.625,3.625H206.675a3.634,3.634,0,0,1-3.625-3.625V280.805c-.628-.444-1.2-.683-1.811-1.052v11.807A5.344,5.344,0,0,0,206.475,297h36.443a5.344,5.344,0,0,0,5.438-5.237V252.776A5.211,5.211,0,0,0,247.093,249.513Z" transform="translate(114.171 724)" fill="#b3b3b3"/>
      <path id="Path_578170" data-name="Path 578170" d="M12.026,13.026a1,1,0,0,1-.707-.293L-.707.707a1,1,0,0,1,0-1.414,1,1,0,0,1,1.414,0L12.733,11.319a1,1,0,0,1-.707,1.707Z" transform="translate(333.031 997.58)" fill="#f00c00"/>
      <path id="Path_578171" data-name="Path 578171" d="M15.223-1A16.223,16.223,0,0,1,26.694,26.694,16.223,16.223,0,1,1,3.752,3.752,16.117,16.117,0,0,1,15.223-1Zm0,30.446A14.223,14.223,0,0,0,25.28,5.166,14.223,14.223,0,0,0,5.166,25.28,14.13,14.13,0,0,0,15.223,29.446Z" transform="translate(307 971.55)" fill="#f00c00"/>
      <g id="Group_292591" data-name="Group 292591" transform="translate(310.206 974.756)" clip-path="url(#clip-path)">
        <path id="Path_578172" data-name="Path 578172" d="M218.583,268.706c-1.757,2.829-3.485,4.617-4.489,4.617a.635.635,0,0,1-.45-.161.659.659,0,0,1-.231-.641c.191-1.013,2.193-2.474,5.177-3.809Zm8.443-4.046c-.748.158-1.535.341-2.324.551-.569.151-1.145.314-1.721.489.306-.624.587-1.248.831-1.837.321-.779.624-1.559.9-2.322.25.384.5.757.759,1.117a22.079,22.079,0,0,0,1.612,1.987Zm-3.9-13.466a.726.726,0,0,1,.606-.393c.666,0,.809.8.809,1.474a18.391,18.391,0,0,1-.873,4.659c-1.116-2.957-.962-5.029-.544-5.739Zm12.5,15.456c-.1.5-.624.829-1.33.829a2.433,2.433,0,0,1-.6-.075,9.783,9.783,0,0,1-3.808-1.934,18.954,18.954,0,0,1,2.819-.214,10.153,10.153,0,0,1,1.879.145c.565.118,1.2.427,1.045,1.248Zm1.894-1.334c-.834-.893-2.425-1.348-4.732-1.348a25.128,25.128,0,0,0-3.822.331,18.867,18.867,0,0,1-2.2-2.573,23.638,23.638,0,0,1-1.372-2.137,21.756,21.756,0,0,0,1.226-6.176c0-1.89-.748-3.913-2.85-3.913a2.112,2.112,0,0,0-1.759,1.04c-.9,1.539-.534,4.709.893,7.934-.5,1.481-1.041,2.924-1.71,4.522A40.357,40.357,0,0,1,219.258,267c-2.143.865-6.7,2.957-7.135,5.272a1.962,1.962,0,0,0,.624,1.842,2.719,2.719,0,0,0,1.856.664c2.746,0,5.481-3.8,7.325-7.074,1.047-.357,2.121-.68,3.179-.962,1.166-.309,2.292-.563,3.358-.748a10.42,10.42,0,0,0,6.784,2.921c1.779,0,2.443-.772,2.686-1.42a2.177,2.177,0,0,0-.414-2.177Z" transform="translate(-209.625 -249.023)" fill="#f00c00" fill-rule="evenodd"/>
      </g>
      <rect id="Rectangle_215461" data-name="Rectangle 215461" width="11.756" height="1.069" rx="0.5" transform="translate(340.13 991.855)" fill="#b3b3b3"/>
      <rect id="Rectangle_215462" data-name="Rectangle 215462" width="12.825" height="1.069" rx="0.5" transform="translate(341.199 997.199)" fill="#b3b3b3"/>
      <rect id="Rectangle_215463" data-name="Rectangle 215463" width="6.412" height="1.069" rx="0.5" transform="translate(346.543 1002.543)" fill="#b3b3b3"/>
      <rect id="Rectangle_215464" data-name="Rectangle 215464" width="10.687" height="1.069" rx="0.5" transform="translate(325.168 1007.886)" fill="#b3b3b3"/>
      <g id="Group_292592" data-name="Group 292592" transform="translate(335.334 966.018)" clip-path="url(#clip-path-2)">
        <path id="Path_578173" data-name="Path 578173" d="M215.808,260.508c-1.007,1.621-2,2.646-2.573,2.646a.364.364,0,0,1-.259-.093.378.378,0,0,1-.133-.371c.107-.58,1.257-1.418,2.967-2.182Zm4.839-2.318c-.427.091-.88.2-1.332.321-.321.087-.656.179-.986.281.175-.358.337-.715.477-1.053.185-.447.358-.893.518-1.331.143.22.286.434.435.641a12.638,12.638,0,0,0,.923,1.138Zm-2.235-7.715a.416.416,0,0,1,.347-.225c.382,0,.464.46.464.844a10.538,10.538,0,0,1-.5,2.672,4.541,4.541,0,0,1-.312-3.288Zm7.16,8.856c-.056.286-.358.476-.762.476a1.4,1.4,0,0,1-.344-.043,5.6,5.6,0,0,1-2.182-1.108,10.875,10.875,0,0,1,1.616-.125,5.813,5.813,0,0,1,1.077.083c.321.067.689.246.6.715Zm1.085-.764a3.687,3.687,0,0,0-2.712-.773,14.4,14.4,0,0,0-2.19.19,10.816,10.816,0,0,1-1.262-1.475,13.528,13.528,0,0,1-.787-1.227,12.468,12.468,0,0,0,.7-3.54c0-1.083-.427-2.244-1.633-2.244a1.211,1.211,0,0,0-1.008.6c-.513.882-.309,2.7.512,4.546-.286.849-.6,1.676-.979,2.592a23.118,23.118,0,0,1-1.108,2.3c-1.228.495-3.839,1.7-4.088,3.021a1.124,1.124,0,0,0,.358,1.056,1.558,1.558,0,0,0,1.069.38c1.573,0,3.141-2.179,4.2-4.054.6-.2,1.216-.39,1.817-.55.668-.177,1.313-.321,1.924-.427a5.971,5.971,0,0,0,3.887,1.674c1.02,0,1.4-.442,1.539-.814a1.247,1.247,0,0,0-.237-1.247Z" transform="translate(-213.702 -246.698)" fill="#b3b3b3" fill-rule="evenodd"/>
      </g>
    </g>
  </g>
</svg>
