<svg xmlns="http://www.w3.org/2000/svg" width="23.047" height="20" viewBox="0 0 23.047 20"><defs><style>.a,.b{fill:#1b959a;}.b{opacity:0.149;}</style></defs><path class="a" d="M5.707,11.3,2.716,8.305A1,1,0,1,0,1.28,9.691L3.591,12,1.3,14.285A1,1,0,0,0,2.691,15.72l3.016-3.014a1,1,0,0,0,0-1.411Zm13.586,0,2.991-2.99A1,1,0,0,1,24,9a.99.99,0,0,1-.28.691L21.409,12,23.7,14.285a1,1,0,0,1-1.391,1.435l-3.016-3.014a1,1,0,0,1,0-1.411ZM6,9.535,4,7.555V4A2.006,2.006,0,0,1,6,2h9.811a1.656,1.656,0,0,1,1.2.5L20.5,5.934A1.257,1.257,0,0,1,21,6.8v.716L19,9.535V7.3L15.6,4H6ZM6,14.48V20H19V14.48l2,2V20a2.006,2.006,0,0,1-2,2H6a2.006,2.006,0,0,1-2-2V16.48Z" transform="translate(-0.953 -2)"/><path class="a" d="M16.391,13.043a.321.321,0,0,1-.067.144.366.366,0,0,1-.139.117.781.781,0,0,1-.314.09,1.765,1.765,0,0,1-.427-.014,2.609,2.609,0,0,1-.813-.3,5.408,5.408,0,0,1-.789-.525,6.814,6.814,0,0,1,1.1-.09,5.025,5.025,0,0,1,.826.049,1,1,0,0,1,.471.193.35.35,0,0,1,.153.332Zm-4.134-.359c-.153.041-.323.081-.5.126s-.346.09-.5.139c.085-.157.162-.332.238-.5s.143-.336.206-.484c.072-.175.148-.364.22-.548s.144-.373.207-.543c.067.108.153.242.238.373s.17.256.242.354c.117.157.238.31.359.449a5.372,5.372,0,0,0,.377.4c-.175.032-.35.068-.534.108s-.364.086-.552.13Zm-.741-4.322a1.649,1.649,0,0,1,.032-.35.927.927,0,0,1,.089-.252.332.332,0,0,1,.108-.112.289.289,0,0,1,.148-.045.356.356,0,0,1,.31.2.706.706,0,0,1,.1.345,2.969,2.969,0,0,1-.126.84c-.076.3-.188.637-.3.992A5.743,5.743,0,0,1,11.6,9.1a3.616,3.616,0,0,1-.086-.731Zm-3,7a.377.377,0,0,1-.1-.013.333.333,0,0,1-.085-.05.351.351,0,0,1-.085-.134.3.3,0,0,1,0-.158,1.577,1.577,0,0,1,.65-.718,7.583,7.583,0,0,1,1.455-.794,5.47,5.47,0,0,1-1,1.373,1.493,1.493,0,0,1-.835.494Zm8.089-2.68a1.282,1.282,0,0,0-.6-.307,4.059,4.059,0,0,0-.974-.1c-.2,0-.417.009-.651.032s-.467.049-.723.089c-.143-.13-.287-.277-.426-.43s-.274-.328-.408-.508q-.143-.187-.27-.39c-.085-.13-.171-.265-.247-.4a10.816,10.816,0,0,0,.328-1.185,4.67,4.67,0,0,0,.112-.916,1.632,1.632,0,0,0-.171-.785.681.681,0,0,0-.632-.364.656.656,0,0,0-.292.081.572.572,0,0,0-.224.2,1.756,1.756,0,0,0-.108,1.1,5.664,5.664,0,0,0,.48,1.517c-.09.265-.193.512-.3.764s-.228.507-.346.785c-.1.238-.2.458-.3.673s-.215.427-.341.651a7.72,7.72,0,0,0-1.741.907,1.726,1.726,0,0,0-.745.875.478.478,0,0,0,.018.265.559.559,0,0,0,.152.225.71.71,0,0,0,.171.107.893.893,0,0,0,.373.077,1.979,1.979,0,0,0,1.341-.84,9.931,9.931,0,0,0,1.02-1.513c.192-.062.4-.125.619-.188s.426-.117.624-.166c.215-.058.421-.112.624-.162s.4-.094.6-.125a4.249,4.249,0,0,0,1.4.834,3.064,3.064,0,0,0,.978.18,1.135,1.135,0,0,0,.575-.126.524.524,0,0,0,.219-.26.373.373,0,0,0,.028-.094.755.755,0,0,0,0-.1.638.638,0,0,0-.04-.224.473.473,0,0,0-.108-.171Z" transform="translate(-0.953 -2)"/><path class="a" d="M16.391,13.043a.321.321,0,0,1-.067.144.366.366,0,0,1-.139.117.781.781,0,0,1-.314.09,1.765,1.765,0,0,1-.427-.014,2.609,2.609,0,0,1-.813-.3,5.408,5.408,0,0,1-.789-.525,6.814,6.814,0,0,1,1.1-.09,5.025,5.025,0,0,1,.826.049,1,1,0,0,1,.471.193.35.35,0,0,1,.153.332Zm-4.134-.359c-.153.041-.323.081-.5.126s-.346.09-.5.139c.085-.157.162-.332.238-.5s.143-.336.206-.484c.072-.175.148-.364.22-.548s.144-.373.207-.543c.067.108.153.242.238.373s.17.256.242.354c.117.157.238.31.359.449a5.372,5.372,0,0,0,.377.4c-.175.032-.35.068-.534.108s-.364.086-.552.13Zm-.741-4.322a1.649,1.649,0,0,1,.032-.35.927.927,0,0,1,.089-.252.332.332,0,0,1,.108-.112.289.289,0,0,1,.148-.045.356.356,0,0,1,.31.2.706.706,0,0,1,.1.345,2.969,2.969,0,0,1-.126.84c-.076.3-.188.637-.3.992A5.743,5.743,0,0,1,11.6,9.1a3.616,3.616,0,0,1-.086-.731Zm-3,7a.377.377,0,0,1-.1-.013.333.333,0,0,1-.085-.05.351.351,0,0,1-.085-.134.3.3,0,0,1,0-.158,1.577,1.577,0,0,1,.65-.718,7.583,7.583,0,0,1,1.455-.794,5.47,5.47,0,0,1-1,1.373,1.493,1.493,0,0,1-.835.494Zm8.089-2.68a1.282,1.282,0,0,0-.6-.307,4.059,4.059,0,0,0-.974-.1c-.2,0-.417.009-.651.032s-.467.049-.723.089c-.143-.13-.287-.277-.426-.43s-.274-.328-.408-.508q-.143-.187-.27-.39c-.085-.13-.171-.265-.247-.4a10.816,10.816,0,0,0,.328-1.185,4.67,4.67,0,0,0,.112-.916,1.632,1.632,0,0,0-.171-.785.681.681,0,0,0-.632-.364.656.656,0,0,0-.292.081.572.572,0,0,0-.224.2,1.756,1.756,0,0,0-.108,1.1,5.664,5.664,0,0,0,.48,1.517c-.09.265-.193.512-.3.764s-.228.507-.346.785c-.1.238-.2.458-.3.673s-.215.427-.341.651a7.72,7.72,0,0,0-1.741.907,1.726,1.726,0,0,0-.745.875.478.478,0,0,0,.018.265.559.559,0,0,0,.152.225.71.71,0,0,0,.171.107.893.893,0,0,0,.373.077,1.979,1.979,0,0,0,1.341-.84,9.931,9.931,0,0,0,1.02-1.513c.192-.062.4-.125.619-.188s.426-.117.624-.166c.215-.058.421-.112.624-.162s.4-.094.6-.125a4.249,4.249,0,0,0,1.4.834,3.064,3.064,0,0,0,.978.18,1.135,1.135,0,0,0,.575-.126.524.524,0,0,0,.219-.26.373.373,0,0,0,.028-.094.755.755,0,0,0,0-.1.638.638,0,0,0-.04-.224.473.473,0,0,0-.108-.171Z" transform="translate(-0.953 -2)"/><path class="b" d="M19,9.527l-1.237,1.237a1.745,1.745,0,0,0,0,2.472L19,14.473V20H6V14.473l1.237-1.237a1.745,1.745,0,0,0,0-2.472L6,9.527V4h9.6L19,7.3Z" transform="translate(-0.953 -2)"/></svg>