<svg xmlns="http://www.w3.org/2000/svg" xmlns:xlink="http://www.w3.org/1999/xlink" width="90" height="90" viewBox="0 0 90 90">
  <defs>
    <clipPath id="clip-path">
      <rect id="Rectangle_217468" data-name="Rectangle 217468" width="37.916" height="11.122" fill="#a4a3a4"/>
    </clipPath>
  </defs>
  <g id="TSP_Partnerships_icon" data-name="TSP Partnerships icon" transform="translate(-22.992 -10.686)">
    <g id="Group_187671" data-name="Group 187671" transform="translate(35.745 28.172)">
      <g id="Group_187670" data-name="Group 187670" transform="translate(0 0)" clip-path="url(#clip-path)">
        <path id="Path_642677" data-name="Path 642677" d="M2.934,8.191,2,10.984a.167.167,0,0,1-.185.135H.123c-.1,0-.134-.051-.119-.169L3.491,1.032A2.57,2.57,0,0,0,3.643.119c0-.068.032-.119.1-.119H6.1c.085,0,.1.017.12.1l3.907,10.864c.02.1,0,.154-.1.154h-1.9a.173.173,0,0,1-.169-.1L6.976,8.191Zm3.5-1.844c-.357-1.118-1.15-3.47-1.49-4.655H4.929c-.271,1.135-.947,3.114-1.455,4.655Z" transform="translate(0 0)" fill="#a4a3a4"/>
        <path id="Path_642678" data-name="Path 642678" d="M11.033,8.191,10.1,10.984a.167.167,0,0,1-.185.135H8.222c-.1,0-.134-.051-.119-.169L11.59,1.032a2.57,2.57,0,0,0,.152-.913c0-.068.034-.119.1-.119H14.2c.085,0,.1.017.119.1l3.909,10.864c.018.1,0,.154-.1.154h-1.9a.175.175,0,0,1-.169-.1l-.981-2.826Zm3.5-1.844c-.356-1.118-1.15-3.47-1.49-4.655h-.016c-.272,1.135-.948,3.114-1.456,4.655Z" transform="translate(3.33 0)" fill="#a4a3a4"/>
        <path id="Path_642679" data-name="Path 642679" d="M17.989,1.846H14.553c-.083,0-.119-.051-.1-.135l.22-1.575c.017-.1.052-.135.152-.135h8.412c.1,0,.152.035.169.154l.152,1.54c.017.1-.034.152-.119.152H20.019v9.121c0,.1-.051.152-.134.152H18.141c-.119.017-.152-.034-.152-.152Z" transform="translate(5.939 0)" fill="#a4a3a4"/>
        <path id="Path_642680" data-name="Path 642680" d="M21.976,11.119c-.137,0-.169-.051-.169-.169V.154c0-.086.032-.154.135-.154h1.81c.068,0,.1.051.1.119V9.274H28.83c.1,0,.135.052.117.119l-.286,1.592c-.017.119-.068.135-.152.135Z" transform="translate(8.965 0)" fill="#a4a3a4"/>
      </g>
    </g>
    <g id="Group_187654" data-name="Group 187654" transform="translate(32.818 43.579)">
      <rect id="Rectangle_217462" data-name="Rectangle 217462" width="8.67" height="21.964" rx="0.5" transform="translate(0 14.219)" fill="#fa0f00"/>
      <path id="Path_642605" data-name="Path 642605" d="M30.25,15.457h-12a66.162,66.162,0,0,0,1.2-10.935c0-2-1.243-3.516-2.409-3.516a2.215,2.215,0,0,0-2.409,2.409A13.639,13.639,0,0,1,11.6,10.95,55.817,55.817,0,0,1,5,16.711V34.725s3.383-.04,16.86,0a4.752,4.752,0,0,0,4.428-2.919l6.175-12.992a2.409,2.409,0,0,0-2.213-3.357Z" transform="translate(6.712 -0.996)" fill="#fa0f00"/>
    </g>
    <rect id="Rectangle_217456" data-name="Rectangle 217456" width="90" height="90" transform="translate(22.992 10.686)" fill="none"/>
    <path id="Path_642685" data-name="Path 642685" d="M31.551,73.873a3.22,3.22,0,0,1-2.014-.7L19.99,66.385a1.411,1.411,0,1,1,1.636-2.3L31.211,70.9q.044.032.086.066a.423.423,0,0,0,.508,0q.042-.035.086-.066l14-9.961A35.139,35.139,0,0,0,56.137,49.013a32.351,32.351,0,0,0,3.647-14.826V4.2a.982.982,0,0,0-1.059-.878H4.381A.982.982,0,0,0,3.322,4.2V34.187a32.809,32.809,0,0,0,.6,6.125,31.919,31.919,0,0,0,3.371,9.3,1.411,1.411,0,0,1-2.5,1.314,34.639,34.639,0,0,1-3.65-10.109A35.991,35.991,0,0,1,.5,34.187V4.2A3.8,3.8,0,0,1,4.381.5H58.725a3.8,3.8,0,0,1,3.881,3.7V34.187a35.185,35.185,0,0,1-3.964,16.126A37.979,37.979,0,0,1,47.565,63.218l-.022.016L33.565,73.177A3.22,3.22,0,0,1,31.551,73.873Z" transform="translate(22.493 18.5)" fill="#a4a3a4"/>
    <path id="Path_642686" data-name="Path 642686" d="M15466.793,2903.4h-24.928a1.412,1.412,0,0,1,0-2.823h24.928a1.412,1.412,0,0,1,0,2.823Z" transform="translate(-15417.5 -2854.436)" fill="#a4a3a4"/>
    <path id="Path_642687" data-name="Path 642687" d="M15462.048,2903.4h-20.176a1.412,1.412,0,0,1,0-2.823h20.176a1.412,1.412,0,0,1,0,2.823Z" transform="translate(-15378.326 -2854.436)" fill="#a4a3a4"/>
  </g>
</svg>
