<svg xmlns="http://www.w3.org/2000/svg" width="36" height="36" viewBox="0 0 36 36">
  <g fill="none" fill-rule="evenodd">
    <path fill="#5C5CE0" d="M19,25.6339 C19,24.6359 19.398,23.6999 20.121,22.9989 C20.315,22.8109 20.527,22.6449 20.755,22.5039 L20.755,22.5009 C20.749,20.2659 21.469,18.4359 22.896,17.0529 C24.263,15.7289 26.075,14.9999 28,14.9999 L28.324,15.0079 C28.552,15.0179 28.777,15.0389 29,15.0689 L29,7.5999 C29,7.2019 28.842,6.8219 28.56,6.5399 L23.44,1.4399 C23.159,1.1589 22.778,1.0009 22.38,0.9999 L7,0.9999 C5.896,0.9999 5,1.8959 5,2.9999 L5,28.9999 C5,30.1049 5.896,30.9999 7,30.9999 L19.001,30.9999 L19,25.6339 Z" opacity=".1"/>
    <path fill="#5C5CE0" d="M23,1.42 L28.49,7 L23.49,7 C23.354,7.009 23.223,6.959 23.127,6.863 C23.031,6.768 22.981,6.635 22.99,6.5 L23,1.42 Z M19.001,31 L7,31 C5.896,31 5,30.105 5,29 L5,3 C5,1.896 5.896,1 7,1 L22,1 L22,6.5 C22.021,7.319 22.681,7.979 23.5,8 L29,8 L29,15.069 C29.341,15.115 29.673,15.191 30,15.283 L30,8.1 C29.979,7.436 29.728,6.8 29.29,6.3 L23.8,0.7 C23.289,0.282 22.659,0.037 22,0 L7,0 C5.343,0 4,1.343 4,3 L4,29 C4,30.657 5.343,32 7,32 L19.001,32 L19.001,31 Z"/>
    <path fill="#5C5CE0" fill-rule="nonzero" d="M33.25 24.0001C34.216525 24.0001 35 24.758945 35 25.6950854L35 25.6950854 35 32.3051146C35 33.241255 34.216525 34.0001 33.25 34.0001L33.25 34.0001 22.75 34.0001C21.783475 34.0001 21 33.241255 21 32.3051146L21 32.3051146 21 25.6950854C21 24.758945 21.783475 24.0001 22.75 24.0001L22.75 24.0001 22.82875 24.0001C22.7808 23.7239021 22.75 22.4356285 22.75 22.1462097 22.75 19.3378732 25.1005125 17.0612536 28 17.0612536 29.8199148 17.0612536 31.4235516 17.9581662 32.3654259 19.3205112L31.1797829 20.3630919C30.542938 19.3018087 29.3560686 18.5867405 28 18.5867405 25.9735875 18.5867405 24.325 20.1835014 24.325 22.1462097 24.325 22.4396965 24.372425 23.7271226 24.4419 24.0001L24.4419 24.0001zM28 26.4338194C27.033475 26.4338194 26.25 27.1926644 26.25 28.1288048 26.25 28.7544239 26.6037625 29.2941073 27.125 29.5864922L27.125 29.5864922 27.125 30.8407814C27.125 31.2152037 27.438425 31.5187756 27.825 31.5187756L27.825 31.5187756 28.175 31.5187756C28.561575 31.5187756 28.875 31.2152037 28.875 30.8407814L28.875 30.8407814 28.875 29.5864922C29.3962375 29.294192 29.75 28.7545087 29.75 28.1288048 29.75 27.1926644 28.966525 26.4338194 28 26.4338194zM10.8 21.8451034C10.8 22.1408844 10.5 22.4366653 10.2 22.4366653 9.9 22.4366653 9.6 22.1408844 9.6 21.8451034 9.6 20.0704179 10.8 18.394326 12.7 17.1126086 13.2 16.8168277 14.2 17.1126086 14 17.9013578L13.4 20.2676052 15 19.0844815C15.5 18.6901069 16.5 18.9858878 16.4 19.774637L16.2 20.7605734C16.3 20.6619797 16.4776387 20.5274438 16.7 20.3661988 17.4 19.9718242 18.2 19.8732306 18.9 19.9718242 19.2 19.9718242 19.9710431 20.1690115 20.2725711 20.2676052 20.5740992 20.3661988 20.6959901 20.5734996 20.6959901 20.8692805 20.6959901 21.1650614 20.3740992 21.4108502 20.1725711 21.3521352 19.9710431 21.2934202 19.3643575 21.154948 18.8 21.0563543 18.3 20.9577607 17.7 21.0563543 17.3 21.2535416 17.1 21.3521352 17 21.4507289 16.9 21.5493225 16.4 22.0422907 15.9339923 22.2009929 15.6 22.1408844 15.1 22.0422907 15 21.6479162 15 21.154948 15 21.0892189 15.0333333 20.7934379 15.1 20.2676052L12.9 21.9436971C12.5 22.239478 11.9 21.8451034 12 21.3521352L12.8 18.2957323C11.5 19.5774497 10.8 20.7605734 10.8 21.8451034zM18.5 24.0141636C18.8 24.0141636 19 24.2113509 19 24.5071318 19 24.8029127 18.8 25.0001 18.5 25.0001L8.5 25.0001C8.2 25.0001 8 24.8029127 8 24.5071318 8 24.2113509 8.2 24.0141636 8.5 24.0141636L18.5 24.0141636z"/>
  </g>
</svg>
