<svg xmlns="http://www.w3.org/2000/svg" width="26" height="22.2" viewBox="0 0 26 22.2"><defs><style>.a,.b{fill:#d83790;}.b{opacity:0.15;}.c{fill:#fff;}</style></defs><g transform="translate(-705.875 -405.53)"><path class="a" d="M731.378,405.53h-25a.5.5,0,0,0-.5.5v21.2a.5.5,0,0,0,.5.5h24.987a.512.512,0,0,0,.512-.512V406.027A.5.5,0,0,0,731.378,405.53Zm-.769,20.933H707.142V406.8h23.467Z"/><path class="a" d="M715.252,413h2v-2h-2Zm-3-1v1h2v-2h-1A1,1,0,0,0,712.252,412Zm3,13h2v-2h-2Zm-3-9h2v-2h-2Zm0,8a1,1,0,0,0,1,1h1v-2h-2Zm0-5h2v-2h-2Zm15,6h1a1,1,0,0,0,1-1v-1h-2Zm0-6h2v-2h-2Zm-15,3h2v-2h-2Zm15,0h2v-2h-2Zm0-6h2v-2h-2Zm-9,9h2v-2h-2Zm10-14h-1v2h2v-1A1,1,0,0,0,728.252,411Zm-7,2h2v-2h-2Zm-3,0h2v-2h-2Zm3,12h2v-2h-2Zm3-12h2v-2h-2Zm0,12h2v-2h-2Z"/><rect class="b" width="25" height="21" rx="1.221" transform="translate(706.252 406)"/><rect class="c" width="13" height="10" transform="translate(714.252 413)"/><path class="a" d="M718.793,420.445c-.121.179-.251.353-.39.52-.063.074-.124.143-.184.2a1.041,1.041,0,0,1-.6.383.2.2,0,0,1-.139-.05.283.283,0,0,1-.039-.045.188.188,0,0,1-.035-.1.259.259,0,0,1,0-.055.3.3,0,0,1,.018-.06.825.825,0,0,1,.192-.268l.077-.072a5.365,5.365,0,0,1,1.3-.77C718.925,420.244,718.86,420.348,718.793,420.445Zm4.538-1.368a3.086,3.086,0,0,1,.576.045.385.385,0,0,1,.316.222.31.31,0,0,1,.012.075.364.364,0,0,1-.007.087c-.03.155-.191.254-.409.254a.86.86,0,0,1-.087-.01.824.824,0,0,1-.1-.015,3,3,0,0,1-1.17-.591c.09-.014.176-.024.259-.033q.3-.031.608-.033Zm-1.744-.183c-.236.048-.473.1-.709.169-.175.046-.355.1-.528.15.094-.193.181-.383.255-.564.1-.236.193-.479.278-.709.075.118.153.236.236.343s.159.214.237.314.164.2.249.29h-.02Zm-1.2-4.137.019-.026a.215.215,0,0,1,.168-.1.2.2,0,0,1,.125.042.547.547,0,0,1,.118.41,3.006,3.006,0,0,1-.039.444,7.107,7.107,0,0,1-.164.777c-.019.07-.039.141-.06.214a4.452,4.452,0,0,1-.19-.628,3.143,3.143,0,0,1-.07-.512,1.82,1.82,0,0,1,.016-.383.709.709,0,0,1,.076-.236Zm4.587,4.718a.707.707,0,0,0-.041-.175.608.608,0,0,0-.119-.2.95.95,0,0,0-.236-.181,2.548,2.548,0,0,0-1.219-.236c-.173,0-.354.008-.555.026s-.4.042-.618.075a5.711,5.711,0,0,1-.676-.789,7.149,7.149,0,0,1-.436-.654q.093-.294.164-.561c.027-.105.052-.2.074-.3q.048-.207.078-.4c.015-.086.028-.17.036-.25a3.328,3.328,0,0,0,.023-.386,1.3,1.3,0,0,0-.419-1.063.713.713,0,0,0-.129-.08.835.835,0,0,0-.32-.061.613.613,0,0,0-.309.089.651.651,0,0,0-.236.236,1.415,1.415,0,0,0-.15.717,3.018,3.018,0,0,0,.027.355,4.958,4.958,0,0,0,.4,1.359c-.039.118-.078.227-.118.341-.081.225-.167.452-.26.689-.048.118-.1.236-.147.354a12.422,12.422,0,0,1-.591,1.231,5.5,5.5,0,0,0-2,1.233.9.9,0,0,0-.2.39.632.632,0,0,0-.01.157.6.6,0,0,0,.1.286.686.686,0,0,0,.1.118.717.717,0,0,0,.159.108l.044.021a.874.874,0,0,0,.147.049.921.921,0,0,0,.215.03,1.109,1.109,0,0,0,.473-.118,1.877,1.877,0,0,0,.31-.187,3.58,3.58,0,0,0,.591-.57,7,7,0,0,0,.531-.727c.119-.191.237-.385.346-.573q.235-.083.485-.156c.163-.049.327-.1.491-.138l.1-.026c.32-.083.632-.154.927-.206.055.049.111.1.166.139.11.087.218.166.324.236.053.035.1.067.157.1a2.869,2.869,0,0,0,1.437.428,1.062,1.062,0,0,0,.591-.143.634.634,0,0,0,.087-.068.582.582,0,0,0,.15-.225.638.638,0,0,0,.04-.193A.748.748,0,0,0,724.977,419.475Z"/><rect class="a" width="25.001" height="3.002" transform="translate(706.251 405.998)"/></g></svg>