<svg xmlns="http://www.w3.org/2000/svg" width="17" height="21" viewBox="0 0 17 21"><defs><style>.a,.b{fill:#3da74e;fill-rule:evenodd;}.b{opacity:0.1;}</style></defs><g transform="translate(-3 -1)"><path class="a" d="M3,3V20a2.006,2.006,0,0,0,2,2H18a2.006,2.006,0,0,0,2-2V6.65c-.01-1.1-.64-1.63-1.42-2.41L15.988,1.866A2.009,2.009,0,0,0,14,1H5A2.006,2.006,0,0,0,3,3ZM5,3h8V6a2.006,2.006,0,0,0,2,2h3V20H5ZM17.58,6H15V3.42Z"/><path class="b" d="M5,3h8V6a2.006,2.006,0,0,0,2,2h3V20H5Z"/><path class="b" d="M17.6,6H15V3.359Z"/><path class="a" d="M15.542,13.338l-.531-1.521c-.118-.343-.2-.649-.278-.956h0c-.083.307-.171.6-.272.956l-.525,1.521Zm-1.771.535-.59,1.653h-.685l1.83-5.266h.838L17,15.526h-.744l-.59-1.653ZM10.05,12.4l-.7-2.164c-.159-.493-.266-.944-.372-1.377h0c-.106.451-.23.9-.366,1.359l-.7,2.182Zm-2.362.763-.75,2.362H6L8.439,8h1.1l2.444,7.526h-.968l-.768-2.362Z"/></g></svg>