<svg xmlns="http://www.w3.org/2000/svg" width="40" height="40" viewBox="0 0 40 40"><defs><style>.a,.b,.c{fill:#fff;}.a{fill-rule:evenodd;}.c{opacity:0.1;}.d{fill:rgba(255,255,255,0);}</style></defs><g transform="translate(-1246 -3273)"><g transform="translate(1249 3277)"><path class="a" d="M25.679,6.751l2.75-3a.34.34,0,0,1,.37-.07.33.33,0,0,1,.2.31V11.67a.34.34,0,0,1-.34.33H21.209a.33.33,0,0,1-.31-.2.32.32,0,0,1,.07-.37L24.2,8.281A9.162,9.162,0,0,0,16.828,4,8.685,8.685,0,0,0,8.037,11.41a.71.71,0,0,1-.68.59h-.68a.691.691,0,0,1-.52-.24.68.68,0,0,1-.15-.53A10.8,10.8,0,0,1,25.649,6.761Z"/><path class="b" d="M10.29,19.3,7.8,16.7A3.12,3.12,0,0,0,6,16H3a3,3,0,0,0-3,3v9a3,3,0,0,0,3,3H8a3,3,0,0,0,3-3V21.1A2.87,2.87,0,0,0,10.29,19.3ZM10,28a2,2,0,0,1-2,2H3a2,2,0,0,1-2-2V19a2,2,0,0,1,2-2H6v2.5A1.54,1.54,0,0,0,7.5,21H10ZM7,17.42,9.49,20h-2a.47.47,0,0,1-.5-.5Z"/><path class="c" d="M10,28a2,2,0,0,1-2,2H3a2,2,0,0,1-2-2V19a2,2,0,0,1,2-2H6v2.5A1.54,1.54,0,0,0,7.5,21H10Zm12,0a2,2,0,0,1-2,2H15a2,2,0,0,1-2-2V19a2,2,0,0,1,2-2h3v2.5A1.54,1.54,0,0,0,19.5,21H22Z"/><path class="c" d="M7,17l3,3H7.4c-.24,0-.4-.23-.4-.58Zm12,0,3,3H19.4c-.24,0-.4-.23-.4-.58Z"/><path class="b" d="M-118,12719h-7a2,2,0,0,1-2-2v-11a2,2,0,0,1,2-2h4v3.5a1.543,1.543,0,0,0,1.5,1.5h3.5v8A2,2,0,0,1-118,12719Zm-4-6v2h1v-2h2v-1h-2v-2h-1v2h-2v1Zm-9,6h-5a3,3,0,0,1-3-3v-9a3,3,0,0,1,3-3h3a3.127,3.127,0,0,1,1.8.7l2.49,2.6a2.87,2.87,0,0,1,.709,1.8v6.9A3,3,0,0,1-131,12719Zm-5-14a2,2,0,0,0-2,2v9a2,2,0,0,0,2,2h5a2,2,0,0,0,2-2v-7h-2.5a1.543,1.543,0,0,1-1.5-1.5v-2.5Zm4,.418h0l-.01,2.081a.472.472,0,0,0,.137.364.473.473,0,0,0,.338.138h2.024l-2.49-2.582Zm16,2.582h0l-3.5-.07h-.025a.481.481,0,0,1-.339-.138.462.462,0,0,1-.134-.364V12704l4,4Z" transform="translate(151 -12688)"/></g><rect class="d" width="40" height="40" transform="translate(1246 3273)"/></g></svg>