<svg xmlns="http://www.w3.org/2000/svg" width="133" height="92.44" viewBox="0 0 133 92.44">
  <g id="_2_Icon_modify-pages" data-name="2_Icon_modify-pages" transform="translate(-4135.862 5634.008)">
    <rect id="Rectangle_174348" data-name="Rectangle 174348" width="133" height="92" transform="translate(4135.862 -5633.655)" fill="#fff" opacity="0"/>
    <g id="Group_161193" data-name="Group 161193" transform="translate(4188.899 -5621.591)">
      <line id="Line_1" data-name="Line 1" x2="21.873" transform="translate(1.224 5.545)" fill="#b3b3b3"/>
      <path id="Path_185159" data-name="Path 185159" d="M418.817,389.461H398.132a1.23,1.23,0,1,1,0-2.461h20.684a1.23,1.23,0,0,1,0,2.461Z" transform="translate(-396.902 -382.685)" fill="#fa0f00"/>
      <g id="Group_161192" data-name="Group 161192" transform="translate(14.5 0)">
        <path id="Path_185160" data-name="Path 185160" d="M409.794,394.6a1.108,1.108,0,0,1-.6-2.04l5.537-3.526-5.535-3.524a1.108,1.108,0,0,1,1.188-1.868l7,4.46a1.109,1.109,0,0,1,0,1.868l-7.006,4.461A1.113,1.113,0,0,1,409.794,394.6Z" transform="translate(-408.689 -383.491)" fill="none"/>
      </g>
    </g>
    <g id="Group_161195" data-name="Group 161195" transform="translate(4232.091 -5602.066)">
      <line id="Line_2" data-name="Line 2" y2="21.873" transform="translate(5.567 1.225)" fill="#b3b3b3"/>
      <path id="Path_185161" data-name="Path 185161" d="M433.539,421.279V400.594a1.23,1.23,0,1,1,2.461,0v20.684a1.23,1.23,0,0,1-2.461,0Z" transform="translate(-429.202 -399.364)" fill="#fa0f00"/>
      <g id="Group_161194" data-name="Group 161194" transform="translate(0 14.5)">
        <path id="Path_185162" data-name="Path 185162" d="M430.013,412.256a1.108,1.108,0,0,1,2.04-.6l3.527,5.537,3.524-5.535a1.108,1.108,0,0,1,1.868,1.188l-4.46,7a1.109,1.109,0,0,1-1.868,0l-4.461-7.006a1.116,1.116,0,0,1-.171-.591Z" transform="translate(-430.013 -411.151)" fill="none"/>
      </g>
    </g>
    <g id="Group_161197" data-name="Group 161197" transform="translate(4191.894 -5563.776)">
      <line id="Line_3" data-name="Line 3" x1="21.873" transform="translate(0.614 5.545)" fill="#b3b3b3"/>
      <g id="Group_161196" data-name="Group 161196" transform="translate(0 0)">
        <path id="Path_185163" data-name="Path 185163" d="M399.027,436.461h20.684a1.23,1.23,0,0,0,0-2.461H399.027a1.23,1.23,0,1,0,0,2.461Z" transform="translate(-397.23 -429.685)" fill="#fa0f00"/>
        <path id="Path_185164" data-name="Path 185164" d="M405.444,441.6a1.108,1.108,0,0,0,.6-2.04l-5.537-3.526,5.535-3.524a1.108,1.108,0,0,0-1.188-1.868l-7,4.46a1.109,1.109,0,0,0,0,1.868l7,4.461a1.114,1.114,0,0,0,.592.169Z" transform="translate(-397.336 -430.491)" fill="#fa0f00"/>
      </g>
    </g>
    <path id="Path_185165" data-name="Path 185165" d="M424.792,454.888a2.669,2.669,0,0,1-2.645-2.646v-25.1a2.66,2.66,0,0,1,2.646-2.645h13.285a3.224,3.224,0,0,1,.471-.039,2.65,2.65,0,0,1,2.208,1.18l3.87,3.56.259.258a4.166,4.166,0,0,1,1.735,3.076v19.7a2.66,2.66,0,0,1-2.646,2.645Zm-.307-2.337h19.8V434.218h-4.736a2.669,2.669,0,0,1-2.645-2.646v-4.735H424.486Zm14.762-20.666H444.1l-4.859-4.859Zm13.649,5.176a.143.143,0,0,1-.095-.036l-4.054-4.789c-.037-.167-.017-.22.02-.267l2.745-.044h.307v-2.3a6.128,6.128,0,0,0-5.952-6.272h-2.475a.667.667,0,0,1-.629-.677v-1.01a.667.667,0,0,1,.614-.685h2.45a7.975,7.975,0,0,1,5.768,2.525,8.879,8.879,0,0,1,2.35,6.12v2.3H456.8a.157.157,0,0,1,.117.049.224.224,0,0,1,.052.141l-.04.119L453,437.02Z" transform="translate(3801.498 -5996.456)" fill="#b3b3b3" fill-rule="evenodd"/>
    <g id="Group_161198" data-name="Group 161198" transform="translate(4220.692 -5634.008)">
      <path id="Path_185166" data-name="Path 185166" d="M423.519,386.249a.586.586,0,0,1-.416-.18.6.6,0,0,1-.171-.424A13.879,13.879,0,0,1,436.677,373.4h.3a13.745,13.745,0,0,1,11.448,6.272l.219.336,3.914-4.353h.187l.043.116.033,10.333a.133.133,0,0,1-.134.133h-9.89a.133.133,0,0,1-.133-.133l4.5-4.5-.133-.208a12.417,12.417,0,0,0-10.037-5.9h-.156c-6.061,0-10.59,3.919-11.822,10.23a.623.623,0,0,1-.59.534Z" transform="translate(-420.244 -373.398)" fill="#b3b3b3"/>
      <path id="Path_185167" data-name="Path 185167" d="M421.337,398.308a.59.59,0,0,1-.59-.59v-9.875a.59.59,0,0,1,.59-.59h8.074a.591.591,0,0,1,.591.59v9.875a.591.591,0,0,1-.59.59Zm1.487-2.078h5.1v-6.9h-5.106Z" transform="translate(-420.747 -370.21)" fill="#b3b3b3"/>
      <path id="Path_185168" data-name="Path 185168" d="M431.548,398.308a.59.59,0,0,1-.59-.59v-9.875a.59.59,0,0,1,.59-.59h8.072a.591.591,0,0,1,.591.59v9.875a.59.59,0,0,1-.591.59Zm1.487-2.078h5.1v-6.9h-5.1Z" transform="translate(-418.397 -370.21)" fill="#b3b3b3"/>
      <rect id="Rectangle_174349" data-name="Rectangle 174349" width="9.255" height="11.048" rx="0.479" transform="translate(25.117 17.049)" fill="#b3b3b3"/>
    </g>
    <path id="Path_185169" data-name="Path 185169" d="M390.491,403.987v-1.476h-6.212a2.669,2.669,0,0,1-2.645-2.648v-6.211H370.691v10.334h-2.337V393.96A2.661,2.661,0,0,1,371,391.315h11.807a4.279,4.279,0,0,1,3.292,1.79l4.768,4.332a5.625,5.625,0,0,1,1.967,3.925v2.626Zm-6.52-3.815h6.364l-6.364-6.363Zm6.52-12.423V385.41h2.337v2.335Zm-4.429,0V385.41H388.4v2.335Zm-4.429,0V385.41h2.337v2.335Zm-4.429,0V385.41h2.337v2.335Zm-4.429,0V385.41h2.337v2.335Zm-4.429,0V385.41h2.342v2.335Zm2.645-5.905a2.661,2.661,0,0,1-2.645-2.648v-5.6h2.342v5.9h19.8v-5.9h2.337v5.6a2.661,2.661,0,0,1-2.646,2.646Z" transform="translate(3786.656 -6007.36)" fill="#b3b3b3" fill-rule="evenodd"/>
    <path id="Path_185170" data-name="Path 185170" d="M372.091,452.953a2.66,2.66,0,0,1-2.644-2.646v-5.071l2.335-2.337v7.715h19.806V442.9l2.337,2.337v5.071a2.66,2.66,0,0,1-2.645,2.645Zm25.061-8.893a1.164,1.164,0,0,1-.781-.3l-4.44-4.436a1.172,1.172,0,0,1-.067-1.575l4.481-4.48a1.164,1.164,0,1,1,1.681,1.6l-3.626,3.622,3.6,3.591a1.169,1.169,0,0,1-.85,1.971Zm-30.932,0a1.169,1.169,0,0,1-.845-1.975l3.6-3.586-3.628-3.626a1.312,1.312,0,0,1-.119-.121A1.168,1.168,0,0,1,367,433.24l4.505,4.513a1.17,1.17,0,0,1-.072,1.568l-4.452,4.448a1.157,1.157,0,0,1-.766.291Zm3.227-12.252v-5.119a2.66,2.66,0,0,1,2.645-2.645h14.483a2.162,2.162,0,0,1,1.551.645l5.155,5.071a1.6,1.6,0,0,1,.647,1.094v.9l-2.337,2.361v-2.682l-5.2-5.05h-14.6v7.74Z" transform="translate(3785.874 -5995.751)" fill="#b3b3b3"/>
  </g>
</svg>
