<?xml version="1.0" encoding="UTF-8"?>
<svg id="a" data-name="Icons" xmlns="http://www.w3.org/2000/svg" width="18" height="18" viewBox="0 0 18 18">
  <g id="b" data-name="Icons on Artboards">
    <g>
      <path d="M11.259,7.60748c.25773,0,.46666.20894.46667.46667v.50577c0,.25667-.20728.46516-.46395.46666l-2.10349.01224c.00049.52852.03528,1.05645.10415,1.58047l1.04575,2.44324c.10141.23694-.00845.51123-.24539.61265l-.02406.00952h0l-.4591.16706c-.23538.08565-.4964-.02979-.59139-.26156l-.992-2.42058-.83768,2.38972c-.08526.24321-.35154.37126-.59476.286l-.00531-.0019-.45681-.16634c-.24217-.08818-.36701-.35599-.27883-.59816v-.00002s.00145-.00391.00145-.00391l.91915-2.45575c.07816-.52357.12504-1.05132.14038-1.58047l-2.15311-.01226c-.25669-.00146-.464-.20997-.464-.46666v-.50572c0-.25773.20893-.46666.46666-.46667h6.52567Z" fill="var(--iconPurple, #864ccc)" stroke-width="0"/>
      <circle cx="8" cy="5.5" r="1.4" fill="var(--iconPurple, #864ccc)" stroke-width="0"/>
    </g>
    <g>
      <path d="M9.06287,15.15259c-3.39989.5851-6.63036-1.69675-7.21546-5.09664-.5851-3.39989,1.69675-6.63036,5.09664-7.21546,3.39989-.5851,6.63036,1.69675,7.21546,5.09664.06042.35106.09069.70665.09049,1.06287,0,.17542-.01215.3479-.02637.51965.50636.0204,1.00665.11783,1.48365.28894.45934-4.26835-2.62847-8.1009-6.89681-8.56024C4.54212.78901.70957,3.87682.25023,8.14517c-.45934,4.26835,2.62847,8.1009,6.89681,8.56024.77184.08306,1.55178.05004,2.31384-.09798-.20575-.46193-.33996-.95249-.39801-1.45483Z" fill="var(--iconPurple, #864ccc)" stroke-width="0"/>
      <path d="M12.74212,16.69833l-2.08162-1.92528c-.20271-.18748-.21507-.50379-.02761-.70652l.33961-.36728c.18747-.20275.50381-.21514.70656-.02767.00003.00003.00006.00006.0001.00009l1.37458,1.27169,3.61487-3.62736c.19491-.19558.51146-.19614.70706-.00126l.35407.35277c.19562.1949.19621.51148.0013.70711-.00002.00002-.00004.00004-.00006.00006l-4.29522,4.30952c-.1898.19045-.49624.19669-.69364.01413Z" fill="var(--iconPurple, #864ccc)" stroke-width="0"/>
    </g>
  </g>
</svg>