<?xml version="1.0" encoding="utf-8"?><svg id="autotag2" image-rendering="auto" baseProfile="basic" version="1.1" x="0px" y="0px" width="100" height="100" xmlns="http://www.w3.org/2000/svg" xmlns:xlink="http://www.w3.org/1999/xlink"><defs><g id="FlashAICB_0_Layer-1_Combined-Shape_1" overflow="visible"><path fill="#F7EAF2" stroke="none" d="M51.95 15.4Q51.85 13.25 50.35 11.8L39.9 1.4Q38.35 0 36.25 0L6.15 0Q3.75 .1 1.9 1.9 0 3.75 0 6.5L0 56.8Q.1 59.2 1.9 61.1 3.8 63 6.5 63L40.8 63 39.2 61.4Q36.65 58.8 36.35 55.15L36.35 55 11.5 55Q9.65 55 8.3 53.65 7 52.35 7 50.5L7 49.5Q7 47.65 8.3 46.3 9.65 45 11.5 45L35.55 45 35.5 44.35Q35.4 43.05 35.95 42L11.5 42Q9.65 42 8.3 40.65 7 39.35 7 37.5L7 36.5Q7 34.65 8.3 33.3 9.65 32 11.5 32L40.5 32Q42.35 32 43.65 33.3 45 34.65 45 36.5L45 37.5Q45 38.7 44.4 39.65L52 40.25 52 15.7 51.95 15.4M43.65 19.3Q45 20.65 45 22.5L45 25.5Q45 27.35 43.65 28.65 42.35 30 40.5 30L36.5 30Q34.65 30 33.3 28.65 32 27.35 32 25.5L32 22.5Q32 20.65 33.3 19.3 34.65 18 36.5 18L40.5 18Q42.35 18 43.65 19.3M24.5 19Q26.35 19 27.65 20.3 29 21.65 29 23.5 29 25.35 27.65 26.65 26.35 28 24.5 28L11.5 28Q9.65 28 8.3 26.65 7 25.35 7 23.5 7 21.65 8.3 20.3 9.65 19 11.5 19L24.5 19Z"/></g></defs><g id="Scene-1-copy-copy-copyr1" overflow="visible"><g display="none"><g id="Tween-19" transform="translate(59.45 141.6)"><use xlink:href="#FlashAICB_0_Layer-1_Combined-Shape_1" transform="translate(-34.6 -36.55)"/><path fill="#CE2783" stroke="none" d="M6 -34.75Q3.95 -36.55 1.3 -36.55L-28.4 -36.55Q-31 -36.45 -32.8 -34.6 -34.6 -32.7 -34.6 -30.1L-34.6 20.2Q-34.5 22.8 -32.65 24.6 -30.8 26.45 -28.2 26.45L6.2 26.45 4.6 24.85Q3.8 23.95 3.45 23.45L-28.35 23.45Q-29.75 23.4 -30.65 22.35 -31.6 21.35 -31.6 19.95L-31.6 -30.3Q-31.5 -31.65 -30.55 -32.6 -29.55 -33.55 -28.2 -33.55L1.4 -33.55 1.4 -23.35Q1.45 -22.2 2.3 -21.35 3.2 -20.55 4.4 -20.55L14.35 -20.55 14.4 -20.3 14.4 3.45 17.4 3.7 17.4 -20.3 17.35 -20.6Q17.3 -23.25 15.35 -25.2L6 -34.75M12.8 -23.55L4.4 -23.55 4.4 -32.1 12.8 -23.55Z"/><path fill="#CE2783" stroke="none" d="M-23.1 -17.55Q-24.95 -17.55 -26.3 -16.25 -27.6 -14.9 -27.6 -13.05 -27.6 -11.2 -26.3 -9.9 -24.95 -8.55 -23.1 -8.55L-10.1 -8.55Q-8.25 -8.55 -6.95 -9.9 -5.6 -11.2 -5.6 -13.05 -5.6 -14.9 -6.95 -16.25 -8.25 -17.55 -10.1 -17.55L-23.1 -17.55M-25.6 -13.05Q-25.6 -14.1 -24.85 -14.8 -24.15 -15.55 -23.1 -15.55L-10.1 -15.55Q-9.1 -15.55 -8.35 -14.8 -7.6 -14.1 -7.6 -13.05 -7.6 -12.05 -8.35 -11.3 -9.1 -10.55 -10.1 -10.55L-23.1 -10.55Q-24.15 -10.55 -24.85 -11.3 -25.6 -12.05 -25.6 -13.05Z"/><path fill="#CE2783" stroke="none" d="M5.9 -18.55L1.9 -18.55Q.05 -18.55 -1.3 -17.25 -2.6 -15.9 -2.6 -14.05L-2.6 -11.05Q-2.6 -9.2 -1.3 -7.9 .05 -6.55 1.9 -6.55L5.9 -6.55Q7.75 -6.55 9.05 -7.9 10.4 -9.2 10.4 -11.05L10.4 -14.05Q10.4 -15.9 9.05 -17.25 7.75 -18.55 5.9 -18.55M7.65 -15.8Q8.4 -15.1 8.4 -14.05L8.4 -11.05Q8.4 -10.05 7.65 -9.3 6.9 -8.55 5.9 -8.55L1.9 -8.55Q.85 -8.55 .15 -9.3 -.6 -10.05 -.6 -11.05L-.6 -14.05Q-.6 -15.1 .15 -15.8 .85 -16.55 1.9 -16.55L5.9 -16.55Q6.9 -16.55 7.65 -15.8Z"/><path fill="#CE2783" stroke="none" d="M10.4 -.05Q10.4 -1.9 9.05 -3.25 7.75 -4.55 5.9 -4.55L-23.1 -4.55Q-24.95 -4.55 -26.3 -3.25 -27.6 -1.9 -27.6 -.05L-27.6 .95Q-27.6 2.8 -26.3 4.1 -24.95 5.45 -23.1 5.45L1.35 5.45Q1.7 4.7 2.25 4.2 2.65 3.8 3.25 3.45L-23.1 3.45Q-24.15 3.45 -24.85 2.7 -25.6 1.95 -25.6 .95L-25.6 -.05Q-25.6 -1.1 -24.85 -1.8 -24.15 -2.55 -23.1 -2.55L5.9 -2.55Q6.9 -2.55 7.65 -1.8 8.4 -1.1 8.4 -.05L8.4 .95Q8.4 2.25 7.3 3L9.8 3.15Q10.4 2.05 10.4 .95L10.4 -.05Z"/><path fill="#CE2783" stroke="none" d="M1.1 10.45L.95 8.45 -23.1 8.45Q-24.95 8.45 -26.3 9.75 -27.6 11.1 -27.6 12.95L-27.6 14.15Q-27.5 15.95 -26.25 17.2 -24.95 18.45 -23.1 18.45L1.75 18.45 1.6 16.45 -23.1 16.45Q-24.15 16.45 -24.85 15.7 -25.6 14.95 -25.6 13.95L-25.6 12.75Q-25.55 11.8 -24.85 11.1 -24.1 10.45 -23.1 10.45L1.1 10.45Z"/><path fill="#CE2783" stroke="none" d="M34.65 23.35Q34.65 21.9 33.65 20.9L21.1 8.35Q19.2 6.45 16.45 6.2L5.65 5.35 5.45 5.35Q4.65 5.35 4 5.95 3.3 6.65 3.4 7.6L4.25 18.4Q4.5 21.15 6.4 23.05L18.9 35.6Q19.95 36.6 21.4 36.6 22.85 36.6 23.85 35.6L33.65 25.8Q34.65 24.8 34.65 23.35M11.65 10.2Q12.4 10.9 12.4 11.95 12.4 12.95 11.65 13.7 10.9 14.45 9.9 14.45 8.85 14.45 8.15 13.7 7.4 12.95 7.4 11.95 7.4 10.9 8.15 10.2 8.85 9.45 9.9 9.45 10.9 9.45 11.65 10.2Z"/></g><animate attributeName="display" fill="freeze" repeatCount="1" dur="5s" keyTimes="0;.127;.133;1" values="none;inline;none;none"/></g><g display="none"><g id="Tween-18" transform="translate(59.45 54.1)"><animateTransform attributeName="transform" additive="replace" type="translate" dur="5s" keyTimes="0;.087;.127;1" values="59.45,54.1;59.45,54.1;59.45,141.6;59.45,141.6" fill="freeze"/><use xlink:href="#FlashAICB_0_Layer-1_Combined-Shape_1" transform="translate(-34.6 -36.55)"/><path fill="#CE2783" stroke="none" d="M6 -34.75Q3.95 -36.55 1.3 -36.55L-28.4 -36.55Q-31 -36.45 -32.8 -34.6 -34.6 -32.7 -34.6 -30.1L-34.6 20.2Q-34.5 22.8 -32.65 24.6 -30.8 26.45 -28.2 26.45L6.2 26.45 4.6 24.85Q3.8 23.95 3.45 23.45L-28.35 23.45Q-29.75 23.4 -30.65 22.35 -31.6 21.35 -31.6 19.95L-31.6 -30.3Q-31.5 -31.65 -30.55 -32.6 -29.55 -33.55 -28.2 -33.55L1.4 -33.55 1.4 -23.35Q1.45 -22.2 2.3 -21.35 3.2 -20.55 4.4 -20.55L14.35 -20.55 14.4 -20.3 14.4 3.45 17.4 3.7 17.4 -20.3 17.35 -20.6Q17.3 -23.25 15.35 -25.2L6 -34.75M12.8 -23.55L4.4 -23.55 4.4 -32.1 12.8 -23.55Z"/><path fill="#CE2783" stroke="none" d="M-23.1 -17.55Q-24.95 -17.55 -26.3 -16.25 -27.6 -14.9 -27.6 -13.05 -27.6 -11.2 -26.3 -9.9 -24.95 -8.55 -23.1 -8.55L-10.1 -8.55Q-8.25 -8.55 -6.95 -9.9 -5.6 -11.2 -5.6 -13.05 -5.6 -14.9 -6.95 -16.25 -8.25 -17.55 -10.1 -17.55L-23.1 -17.55M-25.6 -13.05Q-25.6 -14.1 -24.85 -14.8 -24.15 -15.55 -23.1 -15.55L-10.1 -15.55Q-9.1 -15.55 -8.35 -14.8 -7.6 -14.1 -7.6 -13.05 -7.6 -12.05 -8.35 -11.3 -9.1 -10.55 -10.1 -10.55L-23.1 -10.55Q-24.15 -10.55 -24.85 -11.3 -25.6 -12.05 -25.6 -13.05Z"/><path fill="#CE2783" stroke="none" d="M5.9 -18.55L1.9 -18.55Q.05 -18.55 -1.3 -17.25 -2.6 -15.9 -2.6 -14.05L-2.6 -11.05Q-2.6 -9.2 -1.3 -7.9 .05 -6.55 1.9 -6.55L5.9 -6.55Q7.75 -6.55 9.05 -7.9 10.4 -9.2 10.4 -11.05L10.4 -14.05Q10.4 -15.9 9.05 -17.25 7.75 -18.55 5.9 -18.55M7.65 -15.8Q8.4 -15.1 8.4 -14.05L8.4 -11.05Q8.4 -10.05 7.65 -9.3 6.9 -8.55 5.9 -8.55L1.9 -8.55Q.85 -8.55 .15 -9.3 -.6 -10.05 -.6 -11.05L-.6 -14.05Q-.6 -15.1 .15 -15.8 .85 -16.55 1.9 -16.55L5.9 -16.55Q6.9 -16.55 7.65 -15.8Z"/><path fill="#CE2783" stroke="none" d="M10.4 -.05Q10.4 -1.9 9.05 -3.25 7.75 -4.55 5.9 -4.55L-23.1 -4.55Q-24.95 -4.55 -26.3 -3.25 -27.6 -1.9 -27.6 -.05L-27.6 .95Q-27.6 2.8 -26.3 4.1 -24.95 5.45 -23.1 5.45L1.35 5.45Q1.7 4.7 2.25 4.2 2.65 3.8 3.25 3.45L-23.1 3.45Q-24.15 3.45 -24.85 2.7 -25.6 1.95 -25.6 .95L-25.6 -.05Q-25.6 -1.1 -24.85 -1.8 -24.15 -2.55 -23.1 -2.55L5.9 -2.55Q6.9 -2.55 7.65 -1.8 8.4 -1.1 8.4 -.05L8.4 .95Q8.4 2.25 7.3 3L9.8 3.15Q10.4 2.05 10.4 .95L10.4 -.05Z"/><path fill="#CE2783" stroke="none" d="M1.1 10.45L.95 8.45 -23.1 8.45Q-24.95 8.45 -26.3 9.75 -27.6 11.1 -27.6 12.95L-27.6 14.15Q-27.5 15.95 -26.25 17.2 -24.95 18.45 -23.1 18.45L1.75 18.45 1.6 16.45 -23.1 16.45Q-24.15 16.45 -24.85 15.7 -25.6 14.95 -25.6 13.95L-25.6 12.75Q-25.55 11.8 -24.85 11.1 -24.1 10.45 -23.1 10.45L1.1 10.45Z"/><path fill="#CE2783" stroke="none" d="M34.65 23.35Q34.65 21.9 33.65 20.9L21.1 8.35Q19.2 6.45 16.45 6.2L5.65 5.35 5.45 5.35Q4.65 5.35 4 5.95 3.3 6.65 3.4 7.6L4.25 18.4Q4.5 21.15 6.4 23.05L18.9 35.6Q19.95 36.6 21.4 36.6 22.85 36.6 23.85 35.6L33.65 25.8Q34.65 24.8 34.65 23.35M11.65 10.2Q12.4 10.9 12.4 11.95 12.4 12.95 11.65 13.7 10.9 14.45 9.9 14.45 8.85 14.45 8.15 13.7 7.4 12.95 7.4 11.95 7.4 10.9 8.15 10.2 8.85 9.45 9.9 9.45 10.9 9.45 11.65 10.2Z"/></g><animate attributeName="display" fill="freeze" repeatCount="1" dur="5s" keyTimes="0;.087;.127;1" values="none;inline;none;none"/></g><g id="Layer15_0_FILL"><use xlink:href="#FlashAICB_0_Layer-1_Combined-Shape_1" transform="translate(24.85 17.55)"/><path fill="#CE2783" stroke="none" d="M65.45 19.35Q63.4 17.55 60.75 17.55L31.05 17.55Q28.45 17.65 26.65 19.5 24.85 21.4 24.85 24L24.85 74.3Q24.95 76.9 26.8 78.7 28.65 80.55 31.25 80.55L65.65 80.55 64.05 78.95Q63.25 78.05 62.9 77.55L31.1 77.55Q29.7 77.5 28.8 76.45 27.85 75.45 27.85 74.05L27.85 23.8Q27.95 22.45 28.9 21.5 29.9 20.55 31.25 20.55L60.85 20.55 60.85 30.75Q60.9 31.9 61.75 32.75 62.65 33.55 63.85 33.55L73.8 33.55 73.85 33.8 73.85 57.55 76.85 57.8 76.85 33.8 76.8 33.5Q76.75 30.85 74.8 28.9L65.45 19.35M72.25 30.55L63.85 30.55 63.85 22 72.25 30.55Z"/><path fill="#CE2783" stroke="none" d="M49.35 45.55Q51.2 45.55 52.5 44.2 53.85 42.9 53.85 41.05 53.85 39.2 52.5 37.85 51.2 36.55 49.35 36.55L36.35 36.55Q34.5 36.55 33.15 37.85 31.85 39.2 31.85 41.05 31.85 42.9 33.15 44.2 34.5 45.55 36.35 45.55L49.35 45.55M49.35 38.55Q50.35 38.55 51.1 39.3 51.85 40 51.85 41.05 51.85 42.05 51.1 42.8 50.35 43.55 49.35 43.55L36.35 43.55Q35.3 43.55 34.6 42.8 33.85 42.05 33.85 41.05 33.85 40 34.6 39.3 35.3 38.55 36.35 38.55L49.35 38.55Z"/><path fill="#CE2783" stroke="none" d="M56.85 43.05Q56.85 44.9 58.15 46.2 59.5 47.55 61.35 47.55L65.35 47.55Q67.2 47.55 68.5 46.2 69.85 44.9 69.85 43.05L69.85 40.05Q69.85 38.2 68.5 36.85 67.2 35.55 65.35 35.55L61.35 35.55Q59.5 35.55 58.15 36.85 56.85 38.2 56.85 40.05L56.85 43.05M58.85 43.05L58.85 40.05Q58.85 39 59.6 38.3 60.3 37.55 61.35 37.55L65.35 37.55Q66.35 37.55 67.1 38.3 67.85 39 67.85 40.05L67.85 43.05Q67.85 44.05 67.1 44.8 66.35 45.55 65.35 45.55L61.35 45.55Q60.3 45.55 59.6 44.8 58.85 44.05 58.85 43.05Z"/><path fill="#CE2783" stroke="none" d="M33.15 50.85Q31.85 52.2 31.85 54.05L31.85 55.05Q31.85 56.9 33.15 58.2 34.5 59.55 36.35 59.55L60.8 59.55Q61.15 58.8 61.7 58.3 62.1 57.9 62.7 57.55L36.35 57.55Q35.3 57.55 34.6 56.8 33.85 56.05 33.85 55.05L33.85 54.05Q33.85 53 34.6 52.3 35.3 51.55 36.35 51.55L65.35 51.55Q66.35 51.55 67.1 52.3 67.85 53 67.85 54.05L67.85 55.05Q67.85 56.35 66.75 57.1L69.25 57.25Q69.85 56.15 69.85 55.05L69.85 54.05Q69.85 52.2 68.5 50.85 67.2 49.55 65.35 49.55L36.35 49.55Q34.5 49.55 33.15 50.85Z"/><path fill="#CE2783" stroke="none" d="M33.15 63.85Q31.85 65.2 31.85 67.05L31.85 68.25Q31.95 70.05 33.2 71.3 34.5 72.55 36.35 72.55L61.2 72.55 61.05 70.55 36.35 70.55Q35.3 70.55 34.6 69.8 33.85 69.05 33.85 68.05L33.85 66.85Q33.9 65.9 34.6 65.2 35.35 64.55 36.35 64.55L60.55 64.55 60.4 62.55 36.35 62.55Q34.5 62.55 33.15 63.85Z"/><path fill="#CE2783" stroke="none" d="M94.1 77.45Q94.1 76 93.1 75L80.55 62.45Q78.65 60.55 75.9 60.3L65.1 59.45 64.9 59.45Q64.1 59.45 63.45 60.05 62.75 60.75 62.85 61.7L63.7 72.5Q63.95 75.25 65.85 77.15L78.35 89.7Q79.4 90.7 80.85 90.7 82.3 90.7 83.3 89.7L93.1 79.9Q94.1 78.9 94.1 77.45M67.6 67.8Q66.85 67.05 66.85 66.05 66.85 65 67.6 64.3 68.3 63.55 69.35 63.55 70.35 63.55 71.1 64.3 71.85 65 71.85 66.05 71.85 67.05 71.1 67.8 70.35 68.55 69.35 68.55 68.3 68.55 67.6 67.8Z"/><animate attributeName="display" fill="freeze" repeatCount="1" dur="5s" keyTimes="0;.087;1" values="inline;none;none"/></g><g display="none"><g id="Tween-17" transform="translate(50.85 49)"><path fill="#F9ECF3" stroke="none" d="M14.15 -29.9Q12.65 -31.5 10.3 -31.5L-19.5 -31.5Q-22.2 -31.5 -24.1 -29.6 -26 -27.7 -26 -25L-26 25Q-26 27.65 -24.1 29.55 -22.25 31.4 -19.5 31.5L19.5 31.5Q22.3 31.4 24.1 29.55 26 27.75 26 25L26 -15.85Q26 -18.15 24.4 -19.7L14.15 -29.9Z"/><path id="Layer35_0_1_STROKES" stroke="#CE2783" stroke-width="3" stroke-linejoin="round" stroke-linecap="butt" fill="none" d="M11.5 -30L11.5 -18.5Q11.5 -17.85 11.95 -17.45 12.4 -17 13 -17L23.45 -17"/><path id="Layer36_0_1_STROKES" stroke="#CE2783" stroke-width="3" stroke-linejoin="round" stroke-linecap="round" fill="none" d="M-24.5 25L-24.5 -25.05Q-24.5 -27.1 -23.05 -28.55 -21.6 -30 -19.55 -30L9.95 -30Q12.2 -30 13.75 -28.45L22.9 -19.1Q24.5 -17.55 24.5 -15.25L24.5 25Q24.5 27.05 23.05 28.55 21.6 30 19.55 30L-19.55 30Q-21.6 30 -23.05 28.55 -24.5 27.05 -24.5 25Z"/></g><animate attributeName="display" fill="freeze" repeatCount="1" dur="5s" keyTimes="0;.127;.833;1" values="none;inline;none;none"/></g><g display="none"><g id="Tween-16" transform="translate(50.85 -35)"><animateTransform attributeName="transform" additive="replace" type="translate" dur="5s" keyTimes="0;.087;.127;1" values="50.85,-35;50.85,-35;50.85,49;50.85,49" fill="freeze"/><path fill="#F9ECF3" stroke="none" d="M14.15 -29.9Q12.65 -31.5 10.3 -31.5L-19.5 -31.5Q-22.2 -31.5 -24.1 -29.6 -26 -27.7 -26 -25L-26 25Q-26 27.65 -24.1 29.55 -22.25 31.4 -19.5 31.5L19.5 31.5Q22.3 31.4 24.1 29.55 26 27.75 26 25L26 -15.85Q26 -18.15 24.4 -19.7L14.15 -29.9Z"/><path id="Layer32_0_1_STROKES" stroke="#CE2783" stroke-width="3" stroke-linejoin="round" stroke-linecap="butt" fill="none" d="M11.5 -30L11.5 -18.5Q11.5 -17.85 11.95 -17.45 12.4 -17 13 -17L23.45 -17"/><path id="Layer33_0_1_STROKES" stroke="#CE2783" stroke-width="3" stroke-linejoin="round" stroke-linecap="round" fill="none" d="M-24.5 25L-24.5 -25.05Q-24.5 -27.1 -23.05 -28.55 -21.6 -30 -19.55 -30L9.95 -30Q12.2 -30 13.75 -28.45L22.9 -19.1Q24.5 -17.55 24.5 -15.25L24.5 25Q24.5 27.05 23.05 28.55 21.6 30 19.55 30L-19.55 30Q-21.6 30 -23.05 28.55 -24.5 27.05 -24.5 25Z"/></g><animate attributeName="display" fill="freeze" repeatCount="1" dur="5s" keyTimes="0;.087;.127;1" values="none;inline;none;none"/></g><g display="none"><g id="Tween-15" transform="translate(50.65 50.2)"><path fill="#E5352B" stroke="none" d="M2 -.5Q1.05 -1.8 .4 -3 1.85 -7.45 1.85 -10.2 1.85 -12.1 1.1 -13.35 .15 -14.8 -1.55 -14.8 -2.95 -14.75 -3.65 -13.6 -4.45 -12.25 -4.15 -9.7 -3.85 -7.15 -2.6 -4.3 -3.55 -1.55 -4.65 1 -5.7 3.5 -6.95 5.7 -9.85 6.85 -11.95 8.15 -15.1 10.1 -15.45 11.85 -15.55 12.45 -15.35 13.05 -15.15 13.6 -14.7 14 -13.75 14.85 -12.5 14.8 -8.5 14.8 -3.75 6.5 -1.95 5.9 .05 5.4 1.85 4.9 4.05 4.5 6.35 6.45 8.8 7.3 10.5 7.9 12.1 7.9 14.7 7.9 15.35 6.25 15.55 5.6 15.45 4.9 15.3 4.25 14.85 3.7 13.35 2.15 9.2 2.15 6.85 2.2 4.65 2.55 3.3 1.25 2 -.5M12.55 5.3Q12.5 5.7 12.05 6 11.65 6.25 11 6.25 10.65 6.25 10.3 6.15 7.8 5.5 5.75 3.9 7.6 3.65 9.1 3.65 10.3 3.65 11.35 3.8 12.8 4.15 12.55 5.25L12.55 5.3M.5 .6Q1.35 1.75 2.4 2.95L2.35 2.95Q.4 3.35 -.45 3.6L-2.5 4.15Q-2.05 3.3 -1.5 2 -.8 .4 -.4 -.7L.5 .6M-2.3 -12.8Q-2.05 -13.25 -1.6 -13.25 -.6 -13.25 -.6 -11.55 -.8 -8.75 -1.65 -6.1 -2.55 -8.45 -2.65 -10.45 -2.75 -12.1 -2.3 -12.8M-13.9 12.3L-13.9 12.15Q-13.75 11.25 -12.05 10.05 -10.4 8.85 -7.75 7.7 -9.3 10.2 -10.75 11.65 -12.2 13.1 -13.1 13.1 -13.45 13.1 -13.65 12.85 -13.9 12.6 -13.9 12.3Z"/></g><animate attributeName="display" fill="freeze" repeatCount="1" dur="5s" keyTimes="0;.127;.307;1" values="none;inline;none;none"/></g><g display="none"><g id="Tween-14" transform="translate(50.65 -33.8)"><animateTransform attributeName="transform" additive="replace" type="translate" dur="5s" keyTimes="0;.087;.127;1" values="50.65,-33.8;50.65,-33.8;50.65,50.2;50.65,50.2" fill="freeze"/><path fill="#E5352B" stroke="none" d="M2 -.5Q1.05 -1.8 .4 -3 1.85 -7.45 1.85 -10.2 1.85 -12.1 1.1 -13.35 .15 -14.8 -1.55 -14.8 -2.95 -14.75 -3.65 -13.6 -4.45 -12.25 -4.15 -9.7 -3.85 -7.15 -2.6 -4.3 -3.55 -1.55 -4.65 1 -5.7 3.5 -6.95 5.7 -9.85 6.85 -11.95 8.15 -15.1 10.1 -15.45 11.85 -15.55 12.45 -15.35 13.05 -15.15 13.6 -14.7 14 -13.75 14.85 -12.5 14.8 -8.5 14.8 -3.75 6.5 -1.95 5.9 .05 5.4 1.85 4.9 4.05 4.5 6.35 6.45 8.8 7.3 10.5 7.9 12.1 7.9 14.7 7.9 15.35 6.25 15.55 5.6 15.45 4.9 15.3 4.25 14.85 3.7 13.35 2.15 9.2 2.15 6.85 2.2 4.65 2.55 3.3 1.25 2 -.5M12.55 5.3Q12.5 5.7 12.05 6 11.65 6.25 11 6.25 10.65 6.25 10.3 6.15 7.8 5.5 5.75 3.9 7.6 3.65 9.1 3.65 10.3 3.65 11.35 3.8 12.8 4.15 12.55 5.25L12.55 5.3M.5 .6Q1.35 1.75 2.4 2.95L2.35 2.95Q.4 3.35 -.45 3.6L-2.5 4.15Q-2.05 3.3 -1.5 2 -.8 .4 -.4 -.7L.5 .6M-2.3 -12.8Q-2.05 -13.25 -1.6 -13.25 -.6 -13.25 -.6 -11.55 -.8 -8.75 -1.65 -6.1 -2.55 -8.45 -2.65 -10.45 -2.75 -12.1 -2.3 -12.8M-13.9 12.3L-13.9 12.15Q-13.75 11.25 -12.05 10.05 -10.4 8.85 -7.75 7.7 -9.3 10.2 -10.75 11.65 -12.2 13.1 -13.1 13.1 -13.45 13.1 -13.65 12.85 -13.9 12.6 -13.9 12.3Z"/></g><animate attributeName="display" fill="freeze" repeatCount="1" dur="5s" keyTimes="0;.087;.127;1" values="none;inline;none;none"/></g><g display="none" id="Layer13_0_FILL"><path fill="#F9ECF2" stroke="none" d="M36 47.1L33.05 47.1 33.05 57.45 32.5 57.45 32.5 65.05 66.15 65.05 66.15 39.75 36 39.75 36 47.1Z"/><animate attributeName="display" fill="freeze" repeatCount="1" dur="5s" keyTimes="0;.287;.307;1" values="none;inline;none;none"/></g><g display="none" id="Layer12_0_FILL"><path fill="#F9ECF2" stroke="none" d="M33.05 57.4L32.5 57.4 32.5 65 66.15 65 66.15 47.05 33.05 47.05 33.05 57.4Z"/><animate attributeName="display" fill="freeze" repeatCount="1" dur="5s" keyTimes="0;.267;.287;1" values="none;inline;none;none"/></g><g display="none" id="Layer10_0_FILL"><path fill="#F9ECF2" stroke="none" d="M32.5 57.4L32.5 65 66.15 65 66.15 57.4 32.5 57.4Z"/><animate attributeName="display" fill="freeze" repeatCount="1" dur="5s" keyTimes="0;.233;.267;1" values="none;inline;none;none"/></g><g display="none" id="Layer9_0_FILL"><path fill="#CE2783" stroke="none" d="M33.15 63.9Q31.85 65.2 31.85 67.05L31.85 68.05Q31.85 69.95 33.15 71.25 34.5 72.55 36.35 72.55L65.4 72.55Q67.2 72.5 68.45 71.25 69.75 69.95 69.75 68.05L69.75 67.05Q69.75 66 69.35 65.15 69 64.45 68.45 63.9 67.15 62.6 65.35 62.55 65.3 62.55 65.25 62.55L36.35 62.55Q34.5 62.55 33.15 63.9M33.85 67.05Q33.85 66.05 34.6 65.3 35.3 64.55 36.35 64.55L65.35 64.55Q66.35 64.6 67.05 65.3 67.75 66.05 67.75 67.05L67.75 68.05Q67.75 69.1 67.05 69.85 66.3 70.55 65.3 70.55L36.35 70.55Q35.3 70.55 34.6 69.85 33.85 69.1 33.85 68.05L33.85 67.05Z"/><path fill="#FFF" stroke="none" d="M34.6 65.3Q33.85 66.05 33.85 67.05L33.85 68.05Q33.85 69.1 34.6 69.85 35.3 70.55 36.35 70.55L65.3 70.55Q66.3 70.55 67.05 69.85 67.75 69.1 67.75 68.05L67.75 67.05Q67.75 66.05 67.05 65.3 66.35 64.6 65.35 64.55L36.35 64.55Q35.3 64.55 34.6 65.3Z"/><animate attributeName="display" fill="freeze" repeatCount="1" dur="5s" keyTimes="0;.56;.833;1" values="none;inline;none;none"/></g><g display="none" id="Layer8_0_FILL"><path fill="#CE2783" stroke="none" d="M33.15 50.85Q31.85 52.15 31.85 54L31.85 55Q31.85 56.9 33.15 58.2 34.5 59.5 36.35 59.5L65.4 59.5Q67.2 59.45 68.45 58.2 69.75 56.9 69.75 55L69.75 54Q69.75 52.95 69.35 52.1 69 51.4 68.45 50.85 67.15 49.55 65.35 49.5 65.3 49.5 65.25 49.5L36.35 49.5Q34.5 49.5 33.15 50.85M33.85 55L33.85 54Q33.85 53 34.6 52.25 35.3 51.5 36.35 51.5L65.35 51.5Q66.35 51.55 67.05 52.25 67.75 53 67.75 54L67.75 55Q67.75 56.05 67.05 56.8 66.3 57.5 65.3 57.5L36.35 57.5Q35.3 57.5 34.6 56.8 33.85 56.05 33.85 55Z"/><path fill="#FFF" stroke="none" d="M33.85 54L33.85 55Q33.85 56.05 34.6 56.8 35.3 57.5 36.35 57.5L65.3 57.5Q66.3 57.5 67.05 56.8 67.75 56.05 67.75 55L67.75 54Q67.75 53 67.05 52.25 66.35 51.55 65.35 51.5L36.35 51.5Q35.3 51.5 34.6 52.25 33.85 53 33.85 54Z"/><animate attributeName="display" fill="freeze" repeatCount="1" dur="5s" keyTimes="0;.58;.833;1" values="none;inline;none;none"/></g><g display="none" id="Layer7_0_FILL"><path fill="#CE2783" stroke="none" d="M54 41Q54 39.15 52.65 37.8 51.35 36.5 49.5 36.5L36.5 36.5Q34.65 36.5 33.3 37.8 32 39.15 32 41 32 42.9 33.3 44.2 34.65 45.5 36.5 45.5L49.5 45.5Q51.35 45.5 52.65 44.2 54 42.85 54 41M52 41Q52 42.05 51.25 42.8 50.5 43.5 49.5 43.5L36.5 43.5Q35.45 43.5 34.75 42.8 34 42.05 34 41 34 39.95 34.75 39.25 35.45 38.5 36.5 38.5L49.5 38.5Q50.5 38.5 51.25 39.25 52 39.95 52 41M57 40L57 43Q57 44.9 58.3 46.2 59.65 47.5 61.5 47.5L65.5 47.5Q67.35 47.5 68.65 46.2 70 44.85 70 43L70 40Q70 38.15 68.65 36.8 67.35 35.5 65.5 35.5L61.5 35.5Q59.65 35.5 58.3 36.8 57 38.15 57 40M59 40Q59 38.95 59.75 38.25 60.45 37.5 61.5 37.5L65.5 37.5Q66.5 37.5 67.25 38.25 68 38.95 68 40L68 43Q68 44.05 67.25 44.8 66.5 45.5 65.5 45.5L61.5 45.5Q60.45 45.5 59.75 44.8 59 44.05 59 43L59 40Z"/><path fill="#FFF" stroke="none" d="M51.25 42.8Q52 42.05 52 41 52 39.95 51.25 39.25 50.5 38.5 49.5 38.5L36.5 38.5Q35.45 38.5 34.75 39.25 34 39.95 34 41 34 42.05 34.75 42.8 35.45 43.5 36.5 43.5L49.5 43.5Q50.5 43.5 51.25 42.8M59.75 38.25Q59 38.95 59 40L59 43Q59 44.05 59.75 44.8 60.45 45.5 61.5 45.5L65.5 45.5Q66.5 45.5 67.25 44.8 68 44.05 68 43L68 40Q68 38.95 67.25 38.25 66.5 37.5 65.5 37.5L61.5 37.5Q60.45 37.5 59.75 38.25Z"/><animate attributeName="display" fill="freeze" repeatCount="1" dur="5s" keyTimes="0;.6;.833;1" values="none;inline;none;none"/></g><g display="none" id="Layer1_0_FILL"><use xlink:href="#FlashAICB_0_Layer-1_Combined-Shape_1" transform="translate(24.85 17.55)"/><path fill="#CE2783" stroke="none" d="M65.45 19.35Q63.4 17.55 60.75 17.55L31.05 17.55Q28.45 17.65 26.65 19.5 24.85 21.4 24.85 24L24.85 74.3Q24.95 76.9 26.8 78.7 28.65 80.55 31.25 80.55L65.65 80.55 64.05 78.95Q63.25 78.05 62.9 77.55L31.1 77.55Q29.7 77.5 28.8 76.45 27.85 75.45 27.85 74.05L27.85 23.8Q27.95 22.45 28.9 21.5 29.9 20.55 31.25 20.55L60.85 20.55 60.85 30.75Q60.9 31.9 61.75 32.75 62.65 33.55 63.85 33.55L73.8 33.55 73.85 33.8 73.85 57.55 76.85 57.8 76.85 33.8 76.8 33.5Q76.75 30.85 74.8 28.9L65.45 19.35M72.25 30.55L63.85 30.55 63.85 22 72.25 30.55Z"/><path fill="#CE2783" stroke="none" d="M49.35 45.5Q51.2 45.5 52.5 44.15 53.85 42.85 53.85 41 53.85 39.15 52.5 37.8 51.2 36.5 49.35 36.5L36.35 36.5Q34.5 36.5 33.15 37.8 31.85 39.15 31.85 41 31.85 42.85 33.15 44.15 34.5 45.5 36.35 45.5L49.35 45.5M49.35 38.5Q50.35 38.5 51.1 39.25 51.85 39.95 51.85 41 51.85 42 51.1 42.75 50.35 43.5 49.35 43.5L36.35 43.5Q35.3 43.5 34.6 42.75 33.85 42 33.85 41 33.85 39.95 34.6 39.25 35.3 38.5 36.35 38.5L49.35 38.5Z"/><path fill="#CE2783" stroke="none" d="M56.85 43Q56.85 44.85 58.15 46.15 59.5 47.5 61.35 47.5L65.35 47.5Q67.2 47.5 68.5 46.15 69.85 44.85 69.85 43L69.85 40Q69.85 38.15 68.5 36.8 67.2 35.5 65.35 35.5L61.35 35.5Q59.5 35.5 58.15 36.8 56.85 38.15 56.85 40L56.85 43M58.85 43L58.85 40Q58.85 38.95 59.6 38.25 60.3 37.5 61.35 37.5L65.35 37.5Q66.35 37.5 67.1 38.25 67.85 38.95 67.85 40L67.85 43Q67.85 44 67.1 44.75 66.35 45.5 65.35 45.5L61.35 45.5Q60.3 45.5 59.6 44.75 58.85 44 58.85 43Z"/><path fill="#CE2783" stroke="none" d="M33.15 50.8Q31.85 52.15 31.85 54L31.85 55Q31.85 56.85 33.15 58.15 34.5 59.5 36.35 59.5L60.8 59.5Q61.15 58.75 61.7 58.25 62.1 57.85 62.7 57.5L36.35 57.5Q35.3 57.5 34.6 56.75 33.85 56 33.85 55L33.85 54Q33.85 52.95 34.6 52.25 35.3 51.5 36.35 51.5L65.35 51.5Q66.35 51.5 67.1 52.25 67.85 52.95 67.85 54L67.85 55Q67.85 56.3 66.75 57.05L69.25 57.2Q69.85 56.1 69.85 55L69.85 54Q69.85 52.15 68.5 50.8 67.2 49.5 65.35 49.5L36.35 49.5Q34.5 49.5 33.15 50.8Z"/><path fill="#CE2783" stroke="none" d="M33.15 63.8Q31.85 65.15 31.85 67L31.85 68.2Q31.95 70 33.2 71.25 34.5 72.5 36.35 72.5L61.2 72.5 61.05 70.5 36.35 70.5Q35.3 70.5 34.6 69.75 33.85 69 33.85 68L33.85 66.8Q33.9 65.85 34.6 65.15 35.35 64.5 36.35 64.5L60.55 64.5 60.4 62.5 36.35 62.5Q34.5 62.5 33.15 63.8Z"/><path fill="#CE2783" stroke="none" d="M94.1 77.4Q94.1 75.95 93.1 74.95L80.55 62.4Q78.65 60.5 75.9 60.25L65.1 59.4 64.9 59.4Q64.1 59.4 63.45 60 62.75 60.7 62.85 61.65L63.7 72.45Q63.95 75.2 65.85 77.1L78.35 89.65Q79.4 90.65 80.85 90.65 82.3 90.65 83.3 89.65L93.1 79.85Q94.1 78.85 94.1 77.4M67.6 67.75Q66.85 67 66.85 66 66.85 64.95 67.6 64.25 68.3 63.5 69.35 63.5 70.35 63.5 71.1 64.25 71.85 64.95 71.85 66 71.85 67 71.1 67.75 70.35 68.5 69.35 68.5 68.3 68.5 67.6 67.75Z"/><animate attributeName="display" fill="freeze" repeatCount="1" dur="5s" keyTimes="0;.833;1" values="none;inline;inline"/></g><g display="none"><g id="Tween-13" transform="translate(54.5 88.5)"><animateTransform attributeName="transform" additive="replace" type="translate" dur="5s" keyTimes="0;.53999;.54;.62;.62699;.627;.70699;.707;.787;.80699;.807;.81299;.813;.81999;.82;.82699;.827;1" values="54.5,88.5;54.5,88.5;54.5,85.35;54.5,44.7;54.5,44.7;54.5,40.65;54.5,40.65;54.5,44.2;54.5,71.7;54.5,71.7;54.569,71.7;54.569,71.7;54.004,71.7;54.004,71.7;54.08,71.75;54.08,71.75;54.056,71.75;54.056,71.75" fill="freeze"/><animateTransform attributeName="transform" additive="sum" type="scale" dur="5s" keyTimes="0;.80699;.807;.81299;.813;.81999;.82;.82699;.827;1" values="1,1;1,1;.895,1;.895,1;.677,1;.677,1;.44,1;.44,1;.291,1;.291,1" fill="freeze"/><animateTransform attributeName="transform" additive="sum" type="translate" dur="5s" keyTimes="0;.80699;.807;.81299;.813;.81999;.82;.82699;.827;1" values="0,0;0,0;-.3,0;-.3,0;-.45,0;-.45,0;-.75,-.1;-.75,-.1;-1.05,-.05;-1.05,-.05" fill="freeze"/><path fill="#CE2783" stroke="none" d="M32.6 -12.25L32.6 -19.6 -40.05 -19.6 -40.05 -12.25 32.6 -12.25Z"/><path id="Layer27_0_1_STROKES" stroke="#FFF" stroke-width="5" stroke-linejoin="miter" stroke-linecap="round" stroke-miterlimit="10" fill="none" d="M32.6 -12.25L-40.05 -12.25 -40.05 -19.6 32.6 -19.6 32.6 -12.25Z"/></g><animate attributeName="display" fill="freeze" repeatCount="1" dur="5s" keyTimes="0;.48;.833;1" values="none;inline;none;none"/></g><g display="none"><g id="Tween-12" transform="translate(54.5 40.5)"><animateTransform attributeName="transform" additive="replace" type="translate" dur="5s" keyTimes="0;.39999;.4;.48;1" values="54.5,40.5;54.5,40.5;54.5,42.5;54.5,88.5;54.5,88.5" fill="freeze"/><path fill="#CE2783" stroke="none" d="M32.6 -12.25L32.6 -19.6 -40.05 -19.6 -40.05 -12.25 32.6 -12.25Z"/><path id="Layer26_0_1_STROKES" stroke="#FFF" stroke-width="5" stroke-linejoin="miter" stroke-linecap="round" stroke-miterlimit="10" fill="none" d="M32.6 -12.25L-40.05 -12.25 -40.05 -19.6 32.6 -19.6 32.6 -12.25Z"/></g><animate attributeName="display" fill="freeze" repeatCount="1" dur="5s" keyTimes="0;.34;.48;1" values="none;inline;none;none"/></g><g display="none"><g id="Tween-11" transform="matrix(.173 0 0 1 51.8 71.55)"><animateTransform attributeName="transform" additive="replace" type="translate" dur="5s" keyTimes="0;.23299;.233;.23999;.24;.24699;.247;.25299;.253;.333;1" values="51.949,71.55;51.949,71.55;53.005,71.6;53.005,71.6;54.57,71.55;54.57,71.55;54.5,71.55;54.5,71.55;54.5,69.3;54.5,42.6;54.5,42.6" fill="freeze"/><animateTransform attributeName="transform" additive="sum" type="scale" dur="5s" keyTimes="0;.23299;.233;.23999;.24;.24699;.247;1" values=".173,1;.173,1;.455,1;.455,1;.899,1;.899,1;1,1;1,1" fill="freeze"/><animateTransform attributeName="transform" additive="sum" type="translate" dur="5s" keyTimes="0;.23299;.233;.23999;.24;.24699;.247;1" values="-1.15,0;-1.15,0;-.45,-.1;-.45,-.1;-.3,-.05;-.3,-.05;0,0;0,0" fill="freeze"/><path fill="#CE2783" stroke="none" d="M32.6 -12.25L32.6 -19.6 -40.05 -19.6 -40.05 -12.25 32.6 -12.25Z"/><path id="Layer25_0_1_STROKES" stroke="#FFF" stroke-width="5" stroke-linejoin="miter" stroke-linecap="round" stroke-miterlimit="10" fill="none" d="M32.6 -12.25L-40.05 -12.25 -40.05 -19.6 32.6 -19.6 32.6 -12.25Z"/></g><animate attributeName="display" fill="freeze" repeatCount="1" dur="5s" keyTimes="0;.227;.34;1" values="none;inline;none;none"/></g><g display="none"><g id="Tween-10" transform="translate(79.6 76.6)"><path fill="#FFF" stroke="none" d="M18.5 -1.15L3.3 -16.8Q.7 -19.35 -3.05 -19.65L-16.9 -19.75Q-18.2 -19.9 -19.15 -18.95 -20.1 -18.05 -19.95 -16.8L-19.8 -3.4Q-19.5 .25 -16.85 2.75L-1.65 18.4Q-.25 19.75 1.75 19.75 3.7 19.75 5.1 18.4L18.5 5.4Q19.95 4.05 19.95 2.15 19.95 .2 18.5 -1.15Z"/><path fill="#CE2783" stroke="none" d="M14.1 -1.1L1.55 -13.65Q-.35 -15.55 -3.1 -15.8L-13.9 -16.65 -14.1 -16.65Q-14.9 -16.65 -15.55 -16.05 -16.25 -15.35 -16.15 -14.4L-15.3 -3.6Q-15.05 -.8 -13.15 1.05L-.65 13.6Q.4 14.6 1.85 14.6 3.3 14.6 4.3 13.6L14.1 3.85Q15.1 2.8 15.1 1.35 15.1 -.1 14.1 -1.1M-12.2 -10.05Q-12.2 -11.1 -11.45 -11.8 -10.7 -12.55 -9.7 -12.55 -8.65 -12.55 -7.9 -11.8 -7.2 -11.1 -7.2 -10.05 -7.2 -9.05 -7.9 -8.3 -8.65 -7.55 -9.7 -7.55 -10.7 -7.55 -11.45 -8.3 -12.2 -9.05 -12.2 -10.05Z"/></g><animate attributeName="display" fill="freeze" repeatCount="1" dur="5s" keyTimes="0;.827;.833;1" values="none;inline;none;none"/></g><g display="none"><g id="Tween-9" transform="translate(80.05 122.6)"><animateTransform attributeName="transform" additive="replace" type="translate" dur="5s" keyTimes="0;.68;.827;1" values="80.05,122.6;80.05,122.6;79.6,76.6;79.6,76.6" fill="freeze"/><path fill="#FFF" stroke="none" d="M18.5 -1.15L3.3 -16.8Q.7 -19.35 -3.05 -19.65L-16.9 -19.75Q-18.2 -19.9 -19.15 -18.95 -20.1 -18.05 -19.95 -16.8L-19.8 -3.4Q-19.5 .25 -16.85 2.75L-1.65 18.4Q-.25 19.75 1.75 19.75 3.7 19.75 5.1 18.4L18.5 5.4Q19.95 4.05 19.95 2.15 19.95 .2 18.5 -1.15Z"/><path fill="#CE2783" stroke="none" d="M14.1 -1.1L1.55 -13.65Q-.35 -15.55 -3.1 -15.8L-13.9 -16.65 -14.1 -16.65Q-14.9 -16.65 -15.55 -16.05 -16.25 -15.35 -16.15 -14.4L-15.3 -3.6Q-15.05 -.8 -13.15 1.05L-.65 13.6Q.4 14.6 1.85 14.6 3.3 14.6 4.3 13.6L14.1 3.85Q15.1 2.8 15.1 1.35 15.1 -.1 14.1 -1.1M-12.2 -10.05Q-12.2 -11.1 -11.45 -11.8 -10.7 -12.55 -9.7 -12.55 -8.65 -12.55 -7.9 -11.8 -7.2 -11.1 -7.2 -10.05 -7.2 -9.05 -7.9 -8.3 -8.65 -7.55 -9.7 -7.55 -10.7 -7.55 -11.45 -8.3 -12.2 -9.05 -12.2 -10.05Z"/></g><animate attributeName="display" fill="freeze" repeatCount="1" dur="5s" keyTimes="0;.68;.827;1" values="none;inline;none;none"/></g></g></svg>