<svg xmlns="http://www.w3.org/2000/svg" width="23.602" height="23.059" viewBox="0 0 23.602 23.059"><defs><style>.a,.b{fill:#864ccc;fill-rule:evenodd;}.b{opacity:0.1;}</style></defs><g transform="translate(0 -1)"><path class="a" d="M12,3.42V6h2.58ZM11,1a2.01,2.01,0,0,1,1.988.866L15.58,4.24c.78.78,1.41,1.31,1.42,2.41V8H12a2.007,2.007,0,0,1-1.995-1.851L10,6V3H2V20h8.619l.147,2H2a2.007,2.007,0,0,1-2-1.851L0,20V3A2.006,2.006,0,0,1,2,1Z"/><path class="b" d="M10,3V6a2.006,2.006,0,0,0,2,2h5V9.124H13v1.868H9.058v3.034L10.121,14l.444,6H2V3Z"/><path class="b" d="M14.6,6.032H12V3.392Z"/><path class="a" d="M16.389,21.6h.844V14.026h-.844Z"/><path class="a" d="M19.79,14.081,18.867,14,18.2,21.634l.922.081Z"/><path class="a" d="M13.7,14.081,14.623,14l.667,7.634-.922.081Z"/><path class="a" d="M19.762,11.83V10.752a.924.924,0,0,0-.924-.978L14.7,9.79a.925.925,0,0,0-.925.973v1.084H10.012L10,13.041h1.315l.913,10.514a.559.559,0,0,0,.539.5h7.952a.557.557,0,0,0,.534-.5l.962-10.513H23.6V11.83ZM13.393,22.844,12.55,13l8.461.056L20.1,22.844ZM14.95,11.83h3.7v-.852h-3.7Z"/></g></svg>