<svg xmlns="http://www.w3.org/2000/svg" width="90" height="90" viewBox="0 0 90 90">
  <g id="REST_API_icon" data-name="REST API icon" transform="translate(0.113)">
    <rect id="Rectangle_217453" data-name="Rectangle 217453" width="90" height="90" transform="translate(-0.113)" fill="none"/>
    <g id="Group_187673" data-name="Group 187673" transform="translate(-15296.907 -3087.126)">
      <path id="Path_642713" data-name="Path 642713" d="M52.575,13.2a1.279,1.279,0,0,1-.9-.376l-3-3.013a1.277,1.277,0,1,1,1.81-1.8l2.1,2.106L62.572.124a1.277,1.277,0,0,1,1.805,1.805l-10.9,10.9A1.277,1.277,0,0,1,52.575,13.2Z" transform="translate(15306.229 3148.609)" fill="#fa0f1b"/>
      <path id="Path_642714" data-name="Path 642714" d="M52.575,32.233a1.275,1.275,0,0,1-.9-.376l-3-3.013a1.277,1.277,0,0,1,1.81-1.8l2.1,2.106,9.995-9.995a1.277,1.277,0,0,1,1.805,1.805l-10.9,10.9A1.277,1.277,0,0,1,52.575,32.233Z" transform="translate(15280.675 3129.58)" fill="#fa0f1b"/>
      <path id="Path_642715" data-name="Path 642715" d="M52.575,50.263a1.279,1.279,0,0,1-.9-.376l-3-3.013a1.277,1.277,0,1,1,1.81-1.8l2.1,2.106,9.995-9.995a1.277,1.277,0,0,1,1.805,1.805l-10.9,10.9A1.277,1.277,0,0,1,52.575,50.263Z" transform="translate(15254.047 3111.55)" fill="#fa0f1b"/>
      <path id="Path_642708" data-name="Path 642708" d="M56.32,41.945H11.769a11.406,11.406,0,0,1,0-22.811,11.048,11.048,0,0,1,3.343.512A20.7,20.7,0,0,1,21.033,6.581,20.227,20.227,0,0,1,47.455,4.418a20.649,20.649,0,0,1,6.967,8.953,14.038,14.038,0,0,1,11.922,4.081,14.485,14.485,0,0,1,0,20.283A13.981,13.981,0,0,1,56.32,41.945ZM11.769,21.688a8.853,8.853,0,0,0,0,17.7H56.32a11.8,11.8,0,0,0,0-23.6,11.373,11.373,0,0,0-2.446.265,1.277,1.277,0,0,1-1.482-.83,18.13,18.13,0,0,0-6.446-8.752,17.674,17.674,0,0,0-23.094,1.9,18.2,18.2,0,0,0-5.246,12.856c0,.053,0,.126,0,.151a1.277,1.277,0,0,1-1.858,1.288A8.531,8.531,0,0,0,11.769,21.688Z" transform="translate(15296.296 3096.437)" fill="#a4a3a4"/>
      <path id="Path_642709" data-name="Path 642709" d="M43.082,49.991v6.556a2.087,2.087,0,0,1-2.127,2.048H39.892a2.087,2.087,0,0,1-2.127-2.048V49.991a5.049,5.049,0,0,1-2.658-4.4,5.32,5.32,0,0,1,10.633,0A5.049,5.049,0,0,1,43.082,49.991Z" transform="translate(15291.459 3069.366)" fill="#fa0f00"/>
      <path id="Subtraction_24" data-name="Subtraction 24" d="M8.794,17.589A8.794,8.794,0,1,1,14.563,2.162L12.752,3.973a6.232,6.232,0,1,0,2.276,5.117l2.324-2.324A8.8,8.8,0,0,1,8.794,17.589Z" transform="translate(15349.191 3149.727)" fill="#a4a3a4"/>
      <path id="Subtraction_23" data-name="Subtraction 23" d="M8.794,17.589A8.794,8.794,0,1,1,14.642,2.232L12.834,4.041a6.238,6.238,0,1,0,2.185,5.206L17.38,6.886a8.8,8.8,0,0,1-8.586,10.7Z" transform="translate(15323.489 3149.726)" fill="#a4a3a4"/>
      <path id="Subtraction_22" data-name="Subtraction 22" d="M8.794,17.588A8.794,8.794,0,1,1,14.678,2.263L12.87,4.071A6.232,6.232,0,1,0,15.013,9.32l2.379-2.379a8.8,8.8,0,0,1-8.6,10.647Z" transform="translate(15296.794 3149.727)" fill="#a4a3a4"/>
      <path id="Path_642710" data-name="Path 642710" d="M14.712,2.553H1.277A1.277,1.277,0,1,1,1.277,0H14.712a1.277,1.277,0,1,1,0,2.553Z" transform="translate(15333.174 3136.291) rotate(90)" fill="#a4a3a4"/>
      <path id="Path_642711" data-name="Path 642711" d="M1.277,28.627A1.277,1.277,0,0,1,0,27.35V6.431A6.438,6.438,0,0,1,6.431,0H7.672a1.277,1.277,0,1,1,0,2.553H6.431A3.882,3.882,0,0,0,2.553,6.431V27.35A1.277,1.277,0,0,1,1.277,28.627Z" transform="translate(15359.264 3143.346) rotate(90)" fill="#a4a3a4"/>
      <path id="Path_642712" data-name="Path 642712" d="M7.672,28.627H6.431A6.438,6.438,0,0,1,0,22.2V1.277a1.277,1.277,0,0,1,2.553,0V22.2a3.882,3.882,0,0,0,3.878,3.878H7.672a1.277,1.277,0,0,1,0,2.553Z" transform="translate(15333.157 3143.346) rotate(90)" fill="#a4a3a4"/>
    </g>
  </g>
</svg>
