<svg xmlns="http://www.w3.org/2000/svg" width="90" height="90" viewBox="0 0 90 90">
  <g id="e-seal_application_icon" data-name="e-seal application icon" transform="translate(2)">
    <rect id="BG" width="90" height="90" transform="translate(-2)" fill="none"/>
    <g id="Group_187664" data-name="Group 187664" transform="translate(-13155.254 -2354.397)">
      <path id="Path_642667" data-name="Path 642667" d="M1.372,39.391A1.372,1.372,0,0,1,0,38.019V1.372a1.372,1.372,0,0,1,2.745,0V35.646L10.48,31.2a1.372,1.372,0,0,1,1.369,0l7.731,4.448V1.372a1.372,1.372,0,0,1,2.745,0V38.019a1.372,1.372,0,0,1-2.057,1.19l-9.1-5.238L2.057,39.209A1.371,1.371,0,0,1,1.372,39.391Z" transform="translate(13186.694 2404.2) rotate(-90)" fill="#a4a3a4"/>
      <path id="Path_642668" data-name="Path 642668" d="M81.775,94.446H37.829a7.972,7.972,0,0,1-7.857-7.857c0-.006,0-.013,0-.019V35.893a1.372,1.372,0,1,1,2.745,0V86.559A5.227,5.227,0,0,0,37.859,91.7H81.765a5.227,5.227,0,0,0,5.142-5.142V68.2a1.372,1.372,0,1,1,2.745,0V86.569c0,.006,0,.013,0,.019a7.972,7.972,0,0,1-7.857,7.857Z" transform="translate(13123.786 2341.424)" fill="#a4a3a4"/>
      <path id="Path_642669" data-name="Path 642669" d="M31.348,45.689a1.372,1.372,0,0,1-1.372-1.372V38.1q0-.01,0-.019a7.972,7.972,0,0,1,7.857-7.857h33.1A8.707,8.707,0,0,1,77.045,32.8L87.074,42.827a1.372,1.372,0,1,1-1.941,1.941L75.1,34.739a5.979,5.979,0,0,0-4.187-1.767H37.862a5.227,5.227,0,0,0-5.141,5.142v6.2A1.372,1.372,0,0,1,31.348,45.689Z" transform="translate(13123.793 2332.698)" fill="#a4a3a4"/>
      <path id="Subtraction_1" data-name="Subtraction 1" d="M13.262,26.521a1.371,1.371,0,0,1-.907-.342L9.689,23.834l-3.622.409a1.369,1.369,0,0,1-1.5-1.083l-.7-3.34L.728,18.146a1.371,1.371,0,0,1-.589-1.811l1.492-3.074L.139,10.186A1.369,1.369,0,0,1,.728,8.375L3.874,6.7l.7-3.34A1.377,1.377,0,0,1,5.913,2.27a1.393,1.393,0,0,1,.155.009l3.622.41L12.355.342a1.373,1.373,0,0,1,1.813,0l2.667,2.347,3.62-.41a1.373,1.373,0,0,1,1.5,1.083l.7,3.34,3.146,1.674a1.368,1.368,0,0,1,.59,1.811l-1.492,3.074,1.492,3.074a1.367,1.367,0,0,1-.59,1.811l-3.146,1.674-.7,3.34a1.371,1.371,0,0,1-1.5,1.083l-3.62-.409-2.667,2.346A1.371,1.371,0,0,1,13.262,26.521Zm0-22.113a8.852,8.852,0,1,0,8.851,8.852A8.863,8.863,0,0,0,13.263,4.408Zm0,14.959a6.107,6.107,0,1,1,4.45-10.284L13.057,13.74l-1.364-1.285a1.372,1.372,0,0,0-1.881,2l2.332,2.2a1.374,1.374,0,0,0,1.912-.028l5.07-5.07a6.108,6.108,0,0,1-5.863,7.815Z" transform="translate(13161.398 2380.184)" fill="#fa0f1b"/>
      <path id="Line_530" data-name="Line 530" d="M17.571,1.745H.372A1.372,1.372,0,1,1,.372-1h17.2a1.372,1.372,0,1,1,0,2.745Z" transform="translate(13192.324 2389.64)" fill="#fa0f1b"/>
      <path id="Line_531" data-name="Line 531" d="M21.688,1.745H.372A1.372,1.372,0,1,1,.372-1H21.688a1.372,1.372,0,0,1,0,2.745Z" transform="translate(13192.324 2395.692)" fill="#fa0f1b"/>
      <path id="Path_642670" data-name="Path 642670" d="M7.97,47.085h0a15.23,15.23,0,0,1,2.984-.166c3.15,0,4.31,1.658,4.31,3.647,0,2.653-1.989,3.813-4.476,3.813H9.793v3.481a.166.166,0,0,1-.166.166H7.97c-.166,0-.166,0-.166-.166V47.085ZM9.959,52.39h.995c1.326,0,2.487-.5,2.487-1.989,0-1.16-.829-1.989-2.321-1.989H9.959Zm7.626-5.305h0a14.417,14.417,0,0,1,3.15-.166c3.813,0,5.637,2.155,5.637,5.305A5.36,5.36,0,0,1,21.3,57.861a5.423,5.423,0,0,1-.569,0H17.751a.166.166,0,0,1-.166-.166Zm1.989,8.952h.995a3.5,3.5,0,0,0,3.677-3.3,3.55,3.55,0,0,0-.03-.676,3.316,3.316,0,0,0-3.647-3.647h-1.16v7.626ZM30.848,57.7h0l-1.824.166a.166.166,0,0,1-.166-.166V47.085a.166.166,0,0,1,.166-.166h6.134c.166,0,.166,0,.166.166l.166,1.492c0,.166,0,.166-.166.166H30.848v2.984h3.979c.166,0,.166,0,.166.166v1.492a.166.166,0,0,1-.166.166H30.848Z" transform="translate(13161.951 2367.03)" fill="#a4a3a4"/>
    </g>
  </g>
</svg>
