<svg xmlns="http://www.w3.org/2000/svg" width="90" height="90" viewBox="0 0 90 90">
  <g id="e-seal_verification_icon" data-name="e-seal verification icon" transform="translate(0.113)">
    <rect id="Rectangle_217453" data-name="Rectangle 217453" width="90" height="90" transform="translate(-0.113)" fill="none"/>
    <g id="Group_187679" data-name="Group 187679" transform="translate(-6.918 -88.3)">
      <path id="Subtraction_15" data-name="Subtraction 15" d="M26.036,68.46a4.8,4.8,0,0,1-1.418-.2c-1.981-.6-3.363-2.512-4.7-4.357l-.006-.009-.009-.012a15.121,15.121,0,0,0-3.161-3.542,15.273,15.273,0,0,0-4.473-1.8l-.007,0c-2.176-.626-4.427-1.274-5.654-2.9-1.1-1.453-1.205-3.508-1.221-5.488a4,4,0,0,0,2.689-1.073A4.143,4.143,0,0,0,9.141,46.7,28.734,28.734,0,0,0,35.012,62.951c.186,0,.348,0,.51,0A28.725,28.725,0,0,0,61.471,45.438h.6a4.93,4.93,0,0,0,1.143,3.642,3.663,3.663,0,0,0,2,.989,7.923,7.923,0,0,1-1.042,4.568c-1.17,1.667-3.394,2.393-5.545,3.094l-.007,0A15.31,15.31,0,0,0,54.2,59.686a15.076,15.076,0,0,0-3.047,3.669c-1.273,1.891-2.589,3.846-4.547,4.521a4.927,4.927,0,0,1-1.62.254,15.752,15.752,0,0,1-4.549-1l-.005,0-.049-.015-.006,0a15.951,15.951,0,0,0-4.684-1.016h-.115a15.675,15.675,0,0,0-4.809,1.2l0,0-.006,0A14.845,14.845,0,0,1,26.036,68.46ZM70.419,32.39h0l-1.148,0V29.969a8.507,8.507,0,0,1,1.15,2.419Zm-68.4,0H0a18.911,18.911,0,0,1,2.018-3.226v3.225Zm6.555-9.365H4.865a28.928,28.928,0,0,0,.006-2.973C4.8,17.8,4.723,15.471,5.878,13.824c1.168-1.666,3.39-2.391,5.539-3.093l0,0,.007,0a15.277,15.277,0,0,0,4.413-1.953A15.13,15.13,0,0,0,18.89,5.1c1.271-1.891,2.586-3.847,4.546-4.521A4.914,4.914,0,0,1,25.057.329a15.75,15.75,0,0,1,4.549,1l.006,0,.047.015.008,0a15.971,15.971,0,0,0,4.686,1.016h.112a15.72,15.72,0,0,0,4.81-1.2l.011,0A14.848,14.848,0,0,1,44.006,0a4.805,4.805,0,0,1,1.418.2c1.976.6,3.358,2.508,4.694,4.349l.006.008A15.115,15.115,0,0,0,53.3,8.121a15.287,15.287,0,0,0,4.471,1.8h.01c2.175.626,4.424,1.274,5.653,2.9,1.211,1.606,1.218,3.931,1.224,6.18v.006a19.8,19.8,0,0,0,.275,4.016H61.471A28.731,28.731,0,0,0,35.033,5.511c-.154,0-.316,0-.512,0A28.723,28.723,0,0,0,8.573,23.022Z" transform="translate(16.161 99.07)" fill="#fa0f00" stroke="rgba(0,0,0,0)" stroke-miterlimit="10" stroke-width="1"/>
      <path id="Subtraction_10" data-name="Subtraction 10" d="M17.078,19.184h-.044c-.162,0-1.327,0-5.185,0l-7.612,0A5.625,5.625,0,0,1,.065,17.665,6.3,6.3,0,0,1-1.5,12.984,1.452,1.452,0,0,1-.046,11.55H5.217a.484.484,0,0,0,.484-.484V-.048A1.452,1.452,0,0,1,7.152-1.5h9.925a1.452,1.452,0,0,1,1.261.733A1.452,1.452,0,0,1,18.326.692l-5,8.426L18.3,16.952a1.453,1.453,0,0,1-1.224,2.232ZM1.544,14.453a2.456,2.456,0,0,0,.586,1.171,2.885,2.885,0,0,0,2.107.654l7.612,0h2.585L10.4,9.922A1.452,1.452,0,0,1,10.375,8.4l4.153-7H8.6v9.663a3.391,3.391,0,0,1-3.387,3.387Z" transform="translate(78.275 131.506)" fill="#a4a3a4"/>
      <path id="Subtraction_11" data-name="Subtraction 11" d="M-.042,19.182a1.452,1.452,0,0,1-1.272-.751,1.452,1.452,0,0,1,.046-1.478L3.705,9.118l-5-8.426A1.452,1.452,0,0,1-1.306-.767,1.452,1.452,0,0,1-.045-1.5H9.879a1.452,1.452,0,0,1,1.026.425,1.452,1.452,0,0,1,.425,1.026V11.066a.484.484,0,0,0,.484.484h5.263a1.452,1.452,0,0,1,1.452,1.434,6.3,6.3,0,0,1-1.561,4.681A5.62,5.62,0,0,1,12.8,19.182h0l-7.613,0c-3.611,0-5.069,0-5.223,0Zm5.225-2.906,7.613,0,0,1.452V16.279a2.879,2.879,0,0,0,2.1-.654,2.454,2.454,0,0,0,.585-1.171H11.815a3.391,3.391,0,0,1-3.387-3.387V1.4H2.5l4.153,7a1.452,1.452,0,0,1-.023,1.519L2.6,16.277Z" transform="translate(8.301 131.506)" fill="#a4a3a4"/>
      <path id="Subtraction_21" data-name="Subtraction 21" d="M19.387,43.431A21.774,21.774,0,0,1,0,31.523H3.206a19.08,19.08,0,0,0,2.807,3.567,18.914,18.914,0,0,0,26.748,0,19.082,19.082,0,0,0,2.807-3.567h3.206A21.776,21.776,0,0,1,19.387,43.431ZM3.206,11.909H0a21.746,21.746,0,0,1,38.773,0H35.568a19.081,19.081,0,0,0-2.807-3.567,18.912,18.912,0,0,0-26.748,0,19.083,19.083,0,0,0-2.807,3.567Z" transform="translate(31.796 111.585)" fill="#a4a3a4"/>
      <path id="Path_642604" data-name="Path 642604" d="M41.58,32.023a2.522,2.522,0,0,0-.149-.631,2.259,2.259,0,0,0-.445-.734,3.418,3.418,0,0,0-.845-.649,9.213,9.213,0,0,0-4.382-.838c-.626,0-1.295.03-2,.092s-1.446.152-2.223.273A21.057,21.057,0,0,1,29.105,26.7a26.06,26.06,0,0,1-1.521-2.365q.338-1.061.59-2.018c.1-.377.186-.737.267-1.09.113-.5.207-.975.282-1.425.051-.311.095-.614.128-.9a11.859,11.859,0,0,0,.086-1.385,4.656,4.656,0,0,0-1.508-3.822,2.534,2.534,0,0,0-.488-.279,2.913,2.913,0,0,0-1.153-.219,2.185,2.185,0,0,0-1.107.317,2.353,2.353,0,0,0-.836.829,5.138,5.138,0,0,0-.539,2.581,11.168,11.168,0,0,0,.095,1.266A17.931,17.931,0,0,0,24.833,23.1c-.14.408-.279.815-.425,1.222-.29.814-.6,1.631-.934,2.478q-.252.633-.527,1.295a45.024,45.024,0,0,1-2.131,4.424c-1.924.773-5.607,2.446-7.18,4.42a3.285,3.285,0,0,0-.7,1.4,2.283,2.283,0,0,0-.035.563,2.111,2.111,0,0,0,.348,1.03,2.386,2.386,0,0,0,.375.44,2.459,2.459,0,0,0,.571.389c.053.027.105.051.161.077a2.965,2.965,0,0,0,.526.177,3.432,3.432,0,0,0,.791.092,3.99,3.99,0,0,0,1.7-.411,6.708,6.708,0,0,0,1.113-.673,12.819,12.819,0,0,0,2.123-2.05,25.7,25.7,0,0,0,1.915-2.615c.443-.688.86-1.385,1.242-2.062q.867-.3,1.748-.563t1.765-.5c.125-.033.246-.059.372-.092,1.155-.3,2.275-.55,3.335-.739.2.176.4.342.6.5q.592.471,1.164.839.284.187.563.348a10.294,10.294,0,0,0,5.169,1.541,3.814,3.814,0,0,0,2.12-.515,2.414,2.414,0,0,0,.309-.242,2.082,2.082,0,0,0,.538-.811,2.228,2.228,0,0,0,.144-.7,2.432,2.432,0,0,0-.008-.347M25.09,15.065a1.015,1.015,0,0,1,.066-.092.769.769,0,0,1,.6-.342.7.7,0,0,1,.451.149,1.96,1.96,0,0,1,.445,1.478,10.562,10.562,0,0,1-.14,1.6,26.209,26.209,0,0,1-.605,2.777q-.1.378-.218.77a16.214,16.214,0,0,1-.679-2.259,11.2,11.2,0,0,1-.257-1.841,6.6,6.6,0,0,1,.06-1.377,2.562,2.562,0,0,1,.273-.86M29.4,29.931c-.833.174-1.694.377-2.571.607-.628.167-1.264.348-1.9.542.339-.692.649-1.377.921-2.03.356-.861.691-1.723,1-2.563q.405.635.836,1.233c.287.4.574.77.867,1.134s.593.71.9,1.039l-.072.017Zm6.267.661a11.069,11.069,0,0,1,2.077.161,1.381,1.381,0,0,1,1.134.8,1,1,0,0,1,.045.266,1.378,1.378,0,0,1-.026.314c-.108.556-.683.915-1.47.915a2.676,2.676,0,0,1-.309-.038,2.79,2.79,0,0,1-.354-.045,10.811,10.811,0,0,1-4.211-2.131c.321-.05.635-.089.931-.12a20.474,20.474,0,0,1,2.188-.117ZM19.344,35.514a23,23,0,0,1-1.4,1.87c-.227.269-.449.514-.662.734A3.72,3.72,0,0,1,15.1,39.5a.694.694,0,0,1-.5-.179,1.039,1.039,0,0,1-.143-.161.684.684,0,0,1-.126-.354.735.735,0,0,1,.014-.2,1.068,1.068,0,0,1,.063-.215,2.946,2.946,0,0,1,.694-.964c.086-.086.177-.171.276-.26a19.3,19.3,0,0,1,4.685-2.772c-.239.4-.481.772-.721,1.125Z" transform="translate(25.875 104.169)" fill="#fa0f00"/>
      <path id="Subtraction_20" data-name="Subtraction 20" d="M64.861,24.621H29.9a15.523,15.523,0,0,0,1.489-1.58c.307-.37.612-.759.906-1.156h32.57a1.375,1.375,0,0,0,1.38-1.368V4.1a1.375,1.375,0,0,0-1.38-1.368H40.115l.006-.054a14.925,14.925,0,0,0,.1-1.688V.984c0-.337-.015-.668-.046-.984H64.861A4.126,4.126,0,0,1,69,4.1V20.517A4.127,4.127,0,0,1,64.861,24.621Zm-45.89,0H4.143A4.127,4.127,0,0,1,0,20.517V4.1A4.126,4.126,0,0,1,4.143,0H29.152c0,.178,0,.334.007.492a14.059,14.059,0,0,0,.115,1.523l0,.025c.033.229.07.463.11.695H4.143A1.375,1.375,0,0,0,2.763,4.1V20.517a1.375,1.375,0,0,0,1.38,1.368H17.027A18.849,18.849,0,0,0,18.97,24.62Z" transform="translate(16.812 121.161)" fill="#a4a3a4"/>
    </g>
  </g>
</svg>
