<svg xmlns="http://www.w3.org/2000/svg" width="90.144" height="90" viewBox="0 0 90.144 90">
  <g id="eIDAS_compliance_icon" data-name="eIDAS compliance icon" transform="translate(-1.721 4.069)">
    <rect id="Rectangle_217456" data-name="Rectangle 217456" width="90" height="90" transform="translate(1.865 -4.069)" fill="none"/>
    <path id="Path_642797" data-name="Path 642797" d="M5.722-.646A12.511,12.511,0,0,0,7.414-.711a.141.141,0,0,0,.131-.115,4.971,4.971,0,0,0,.066-1.018A3.265,3.265,0,0,0,4.244-5.31c-2.48,0-3.86,2.02-3.86,4.3A3.794,3.794,0,0,0,4.441,3.115,5.454,5.454,0,0,0,6.9,2.639.174.174,0,0,0,7,2.458V1.1c0-.082-.049-.1-.1-.066a5.176,5.176,0,0,1-2.037.394c-1.675,0-2.431-.92-2.48-2.07ZM2.388-2.058A1.794,1.794,0,0,1,4.162-3.734,1.519,1.519,0,0,1,5.738-2.206v.131a8.05,8.05,0,0,1-.9.016Zm8.8-5.65c0-.1-.033-.131-.131-.131H9.336c-.082,0-.131.016-.131.131V2.8c0,.1.033.148.131.148H11.06c.1,0,.131-.033.131-.148ZM13.639,2.8c0,.1.049.148.115.148.526.033,2.037.033,3.071.033,2.776,0,5.831-1.61,5.831-5.617,0-3.055-1.938-5.239-5.8-5.239-1.511,0-2.628.033-3.1.049-.1.016-.115.049-.115.131Zm1.987-8.919c.394-.016.756-.033,1.215-.033,2.217,0,3.778,1.183,3.778,3.564a3.556,3.556,0,0,1-3.876,3.843c-.427,0-.788,0-1.117-.016ZM29.85.11,30.8,2.853a.165.165,0,0,0,.164.1h1.84c.1,0,.115-.049.1-.148L29.111-7.741c-.016-.082-.033-.1-.115-.1H26.713c-.066,0-.1.049-.1.115a2.511,2.511,0,0,1-.148.887L23.083,2.787c-.016.115.016.164.115.164h1.642a.163.163,0,0,0,.181-.131l.9-2.71Zm-3.4-1.79C26.943-3.175,27.6-5.1,27.863-6.2h.016c.328,1.15,1.1,3.433,1.445,4.517Zm10.463,4.8c2.48,0,3.991-1.248,3.991-3.17,0-1.3-.608-2.332-2.743-3.219l-.624-.263c-1.3-.542-1.675-.953-1.675-1.544,0-.575.443-1.166,1.856-1.166A5.131,5.131,0,0,1,40.2-5.7c.1.066.148,0,.148-.066V-7.363c0-.115-.016-.164-.1-.214A6.021,6.021,0,0,0,37.734-8c-2.48,0-3.811,1.347-3.811,3.1,0,1.232.526,2.25,2.546,3.1l.788.328C38.506-.941,38.9-.482,38.9.126c0,.706-.575,1.232-1.922,1.232A5.527,5.527,0,0,1,34.055.5c-.066-.033-.131,0-.131.066V2.278a.244.244,0,0,0,.115.246A6.251,6.251,0,0,0,36.913,3.115Z" transform="translate(20.217 57.576)" fill="#a4a3a4"/>
    <path id="Subtraction_28" data-name="Subtraction 28" d="M6.8,8.423l0,0-1.23-.9.548-.49.227-.2L6.8,8.419ZM2.432,5.163h0L0,3.19H3.158L4.2,0l.905,2.771c-.318.282-.652.577-1.02.905-.514.457-1.055.943-1.654,1.486Z" transform="translate(54.782 7.722)" fill="#a4a3a4" stroke="#a4a3a4" stroke-miterlimit="10" stroke-width="1"/>
    <g id="Group_187722" data-name="Group 187722" transform="translate(3.133 2.892)">
      <path id="Path_642799" data-name="Path 642799" d="M47.245,58.9,46.2,62.091H43.043l2.517,2.042-.917,3.188,2.6-1.9,2.6,1.9-.917-3.188,2.517-2.042H48.287Z" transform="translate(-9.515 -58.903)" fill="#a4a3a4" stroke="#a4a3a4" stroke-width="1"/>
      <path id="Path_642800" data-name="Path 642800" d="M15.393,84.242l2.6-1.9,2.6,1.9-.917-3.19,2.519-2.039h-3.16l-1.042-3.19-1.045,3.19H13.791l2.518,2.039Z" transform="translate(-11.072 -58.003)" fill="#a4a3a4" stroke="#a4a3a4" stroke-width="1"/>
      <path id="Path_642801" data-name="Path 642801" d="M19.895,110.271l-1.042-3.188-1.043,3.188h-3.16l2.518,2.04-.917,3.191,2.6-1.9,2.6,1.9-.918-3.191,2.519-2.04Z" transform="translate(-11.027 -56.339)" fill="#a4a3a4" stroke="#a4a3a4" stroke-width="1"/>
      <path id="Path_642802" data-name="Path 642802" d="M30.037,63.492,28.994,66.68H25.836l2.518,2.041-.917,3.189,2.6-1.9,2.6,1.9-.917-3.189,2.518-2.041H31.081Z" transform="translate(-10.43 -58.659)" fill="#a4a3a4" stroke="#a4a3a4" stroke-width="1"/>
      <path id="Path_642803" data-name="Path 642803" d="M31.08,122.316l-1.044-3.188L29,122.316h-3.16l2.518,2.04-.917,3.191,2.6-1.9,2.6,1.9-.918-3.191,2.518-2.04Z" transform="translate(-10.431 -55.699)" fill="#a4a3a4" stroke="#a4a3a4" stroke-width="1"/>
      <path id="Path_642804" data-name="Path 642804" d="M73.607,84.242l2.6-1.9,2.6,1.9-.918-3.19,2.52-2.039H77.252l-1.045-3.19-1.042,3.19h-3.16l2.519,2.039Z" transform="translate(-7.975 -58.003)" fill="#a4a3a4" stroke="#a4a3a4" stroke-width="1"/>
      <path id="Path_642805" data-name="Path 642805" d="M77.252,110.271l-1.045-3.188-1.042,3.188H72.007l2.517,2.04-.917,3.191,2.6-1.9,2.6,1.9-.918-3.191,2.52-2.04Z" transform="translate(-7.973 -56.339)" fill="#a4a3a4" stroke="#a4a3a4" stroke-width="1"/>
      <path id="Path_642807" data-name="Path 642807" d="M65.493,121.169l-1.043-3.19-1.042,3.19H60.25l2.518,2.04-.918,3.189,2.6-1.9,2.6,1.9-.918-3.189,2.518-2.04Z" transform="translate(-8.601 -55.76)" fill="#a4a3a4" stroke="#a4a3a4" stroke-width="1"/>
      <path id="Path_642808" data-name="Path 642808" d="M48.287,126.33l-1.043-3.188L46.2,126.33h-3.16l2.518,2.042-.917,3.191,2.6-1.905,2.6,1.905-.918-3.191,2.518-2.042Z" transform="translate(-9.516 -55.485)" fill="#a4a3a4" stroke="#a4a3a4" stroke-width="1"/>
      <path id="Path_642809" data-name="Path 642809" d="M83.279,93.923h-3.16l-1.043-3.188-1.043,3.188h-3.16l2.519,2.042-.918,3.189,2.6-1.9,2.6,1.9-.918-3.191Z" transform="translate(-7.822 -57.209)" fill="#a4a3a4" stroke="#a4a3a4" stroke-width="1"/>
      <path id="Path_642810" data-name="Path 642810" d="M15.412,97.252l2.6,1.9L17.1,95.964l2.517-2.04H16.455l-1.043-3.188-1.044,3.188h-3.16l2.52,2.042-.918,3.191Z" transform="translate(-11.209 -57.209)" fill="#a4a3a4" stroke="#a4a3a4" stroke-width="1"/>
    </g>
    <path id="Path_642811" data-name="Path 642811" d="M69.989,61.087q-3.039,1.77-11.475,9.277-7.847,7-18.141,17.284L28.562,77.361,24.09,81.745q13.5,13.49,19.237,20.744,6.5-10.71,14.554-21.46A116.321,116.321,0,0,1,72.941,64.039c-1.012-2.024-1.892-2.595-2.952-2.952" transform="translate(-0.133 -55.179)" fill="#fa0f1b" fill-rule="evenodd"/>
  </g>
</svg>
