<svg xmlns="http://www.w3.org/2000/svg" width="90" height="90" viewBox="0 0 90 90">
  <g id="Customizable_icon" data-name="Customizable icon" transform="translate(-0.333)">
    <rect id="Rectangle_217454" data-name="Rectangle 217454" width="90" height="90" transform="translate(0.333)" fill="none"/>
    <g id="Group_187676" data-name="Group 187676" transform="translate(-15300.274 -3128.677)">
      <path id="Subtraction_6" data-name="Subtraction 6" d="M38.99,53.976a3.949,3.949,0,0,1-1.831-.457L34.648,52.2a1.309,1.309,0,0,0-.577-.152V49.418a3.975,3.975,0,0,1,1.8.458L38.381,51.2a1.3,1.3,0,0,0,1.184.019,1.3,1.3,0,0,0,.716-.942l.479-2.593a3.935,3.935,0,0,1,3.871-3.22q.087,0,.175,0l2.768.125h.062a1.293,1.293,0,0,0,.9-.36,1.316,1.316,0,0,0,.411-.945,1.347,1.347,0,0,0-.052-.365L48.2,40.5a3.972,3.972,0,0,1-.15-1.078,3.925,3.925,0,0,1,2.427-3.634l2.424-1.006a1.314,1.314,0,0,0,.81-1.218,1.282,1.282,0,0,0-.338-.87l-1.68-1.87a3.934,3.934,0,0,1,0-5.259l1.68-1.868a1.286,1.286,0,0,0,.338-.871,1.313,1.313,0,0,0-.81-1.217L50.481,20.6a3.922,3.922,0,0,1-2.427-3.633,3.972,3.972,0,0,1,.15-1.078l.69-2.423a1.334,1.334,0,0,0,.052-.365,1.316,1.316,0,0,0-.411-.945,1.293,1.293,0,0,0-.9-.36h-.062l-2.768.125c-.059,0-.119,0-.177,0A3.933,3.933,0,0,1,40.76,8.71l-.479-2.593a1.309,1.309,0,0,0-1.9-.922L35.869,6.517a3.969,3.969,0,0,1-1.841.459,3.891,3.891,0,0,1-3.149-1.594l-1.657-2.23a1.311,1.311,0,0,0-2.106,0l-1.657,2.23a3.9,3.9,0,0,1-3.15,1.594,3.968,3.968,0,0,1-1.841-.459L17.956,5.2a1.311,1.311,0,0,0-1.9.922L15.577,8.71a3.933,3.933,0,0,1-3.869,3.22q-.088,0-.177,0L8.763,11.8H8.7a1.3,1.3,0,0,0-.9.36,1.316,1.316,0,0,0-.41.945,1.292,1.292,0,0,0,.052.365l.689,2.423A3.93,3.93,0,0,1,5.858,20.6L3.433,21.611a1.312,1.312,0,0,0-.81,1.217,1.286,1.286,0,0,0,.336.871l1.68,1.868a3.934,3.934,0,0,1,0,5.259L2.96,32.7a1.282,1.282,0,0,0-.336.87,1.313,1.313,0,0,0,.81,1.218l2.424,1.006A3.932,3.932,0,0,1,8.133,40.5l-.689,2.422A1.31,1.31,0,0,0,8.7,44.593h.062l2.768-.125c.059,0,.117,0,.175,0a3.935,3.935,0,0,1,3.871,3.22l.479,2.593a1.317,1.317,0,0,0,1.29,1.075,1.317,1.317,0,0,0,.61-.152l2.512-1.323a3.977,3.977,0,0,1,1.8-.458v2.627a1.306,1.306,0,0,0-.578.152l-2.512,1.322a3.9,3.9,0,0,1-3.55.058,3.891,3.891,0,0,1-2.15-2.824L13,48.159a1.312,1.312,0,0,0-1.29-1.074h-.059l-2.767.125q-.093,0-.186,0A3.9,3.9,0,0,1,5.99,46.129,3.918,3.918,0,0,1,4.92,42.2l.69-2.423a1.331,1.331,0,0,0,.05-.359,1.308,1.308,0,0,0-.808-1.211L2.428,37.205a3.933,3.933,0,0,1-1.419-6.264l1.68-1.868a1.311,1.311,0,0,0,0-1.754l-1.68-1.868a3.933,3.933,0,0,1,1.419-6.264l2.424-1.006a1.308,1.308,0,0,0,.808-1.211,1.335,1.335,0,0,0-.05-.36l-.69-2.422a3.988,3.988,0,0,1-.152-1.083A3.948,3.948,0,0,1,5.99,10.265,3.905,3.905,0,0,1,8.7,9.177q.091,0,.182,0l2.767.125h.059A1.311,1.311,0,0,0,13,8.235l.479-2.593a3.948,3.948,0,0,1,3.87-3.225,3.944,3.944,0,0,1,1.831.457L21.69,4.2a1.323,1.323,0,0,0,.614.153,1.3,1.3,0,0,0,1.05-.532l1.657-2.231a3.934,3.934,0,0,1,6.316,0l1.657,2.231a1.3,1.3,0,0,0,1.05.532,1.323,1.323,0,0,0,.614-.153l2.512-1.322a3.892,3.892,0,0,1,3.55-.059,3.9,3.9,0,0,1,2.152,2.826l.478,2.593a1.311,1.311,0,0,0,1.29,1.073h.059l2.768-.125q.091,0,.182,0a3.909,3.909,0,0,1,2.711,1.088,3.92,3.92,0,0,1,1.068,3.924l-.689,2.422a1.292,1.292,0,0,0-.051.36,1.308,1.308,0,0,0,.808,1.211l2.425,1.006a3.933,3.933,0,0,1,1.417,6.264l-1.68,1.868a1.311,1.311,0,0,0,0,1.754l1.68,1.868a3.933,3.933,0,0,1-1.417,6.264l-2.425,1.007a1.308,1.308,0,0,0-.808,1.211,1.287,1.287,0,0,0,.051.359l.689,2.423a3.933,3.933,0,0,1-3.775,5.011q-.093,0-.186,0l-2.768-.125h-.059a1.312,1.312,0,0,0-1.29,1.074l-.478,2.593a3.95,3.95,0,0,1-3.871,3.224Z" transform="translate(15306.396 3143.76)" fill="#a4a3a4"/>
      <g id="Group_187675" data-name="Group 187675" transform="translate(15300.607 3138)">
        <path id="Path_642710" data-name="Path 642710" d="M15.743,20.2a1.311,1.311,0,0,1-1.311-1.311V5.772H1.311a1.311,1.311,0,1,1,0-2.623H15.743A1.311,1.311,0,0,1,17.055,4.46V18.892A1.311,1.311,0,0,1,15.743,20.2Z" transform="translate(50.857 -3.149)" fill="#a4a3a4"/>
        <path id="Path_642713" data-name="Path 642713" d="M15.743,17.055a1.311,1.311,0,0,1-1.311-1.311V2.623H1.311A1.311,1.311,0,0,1,1.311,0H15.743a1.311,1.311,0,0,1,1.311,1.311V15.743A1.311,1.311,0,0,1,15.743,17.055Z" transform="translate(0 17.055) rotate(-90)" fill="#a4a3a4"/>
        <path id="Path_642711" data-name="Path 642711" d="M18.892,17.055H4.461a1.311,1.311,0,0,1-1.311-1.311V1.312a1.311,1.311,0,1,1,2.623,0V14.432h13.12a1.311,1.311,0,1,1,0,2.623Z" transform="translate(-3.149 50.858)" fill="#a4a3a4"/>
        <path id="Path_642712" data-name="Path 642712" d="M15.743,17.055H1.311A1.311,1.311,0,0,1,0,15.743V1.311a1.311,1.311,0,0,1,2.623,0V14.432h13.12a1.311,1.311,0,0,1,0,2.623Z" transform="translate(50.857 67.912) rotate(-90)" fill="#a4a3a4"/>
      </g>
      <path id="Path_642722" data-name="Path 642722" d="M45.014,28.2H45a4.718,4.718,0,0,1-4.674-4.651c-.005-.135,0-.272,0-.407v-.007a4.527,4.527,0,0,1,4.524-4.311c.064,0,.129,0,.193,0a4.686,4.686,0,0,1-.032,9.372ZM42.95,23.261c0,.065,0,.131,0,.2q0,.023,0,.046a2.1,2.1,0,0,0,2.069,2.075,2.063,2.063,0,0,0-.006-4.126l-.064,0A1.907,1.907,0,0,0,42.95,23.261Z" transform="translate(15301.666 3138.835)" fill="#fa0f1b"/>
      <path id="Path_642723" data-name="Path 642723" d="M25.638,37.494a1.311,1.311,0,0,1-.921-2.245L36.824,23.3a2.053,2.053,0,0,1,2.884-.052l.023.022.026.026.027.028,4.865,5.16,1.969-2.092a1.312,1.312,0,0,1,.164-.147,2.466,2.466,0,0,1,2.962,0,1.311,1.311,0,0,1,.161.144l8.283,8.743a1.311,1.311,0,0,1-.946,2.213l-31.6.153Zm12.64-11.948-9.429,9.31,18.123-.088Zm8.173,4.845,4.11,4.359,3.64-.018-5.937-6.267Z" transform="translate(15293.126 3142.203)" fill="#fa0f1b"/>
      <path id="Path_642724" data-name="Path 642724" d="M1.311,0h9.18A1.311,1.311,0,0,1,11.8,1.311l-1.56,2.957A1.311,1.311,0,0,1,8.932,5.58l-7.62-.335A1.311,1.311,0,0,1,0,3.934V1.311A1.311,1.311,0,0,1,1.311,0Z" transform="translate(15342.068 3168.16) rotate(47)" fill="#fa0f1b"/>
      <path id="Path_642725" data-name="Path 642725" d="M6.678,7.989H1.311A1.311,1.311,0,0,1,0,6.678V1.311a1.311,1.311,0,1,1,2.623,0V5.366H6.678a1.311,1.311,0,1,1,0,2.623Z" transform="translate(15340.212 3188.352) rotate(135)" fill="#fa0f1b"/>
      <path id="Path_642726" data-name="Path 642726" d="M15462.813,3206.075a1.424,1.424,0,0,1-1.312-1.516v-22.477a1.325,1.325,0,1,1,2.623,0v22.477A1.425,1.425,0,0,1,15462.813,3206.075Z" transform="translate(-128.248 3.28)" fill="#fa0f1b"/>
    </g>
  </g>
</svg>
