<svg xmlns="http://www.w3.org/2000/svg" width="22.023" height="22.864" viewBox="0 0 22.023 22.864"><defs><style>.a,.b{fill:#1b959a;}.b{opacity:0.2;}</style></defs><path class="a" d="M4,1A2.006,2.006,0,0,0,2,3V19a2.006,2.006,0,0,0,2,2h7.175a6.529,6.529,0,0,1-.5-2H4V3h9.6L17,6.3v4.375a6.556,6.556,0,0,1,2,0V6a1.845,1.845,0,0,0-.5-1.2L15,1.5A2.106,2.106,0,0,0,13.7,1Z" transform="translate(-2 -1)"/><path class="a" d="M14.7,19.2a.472.472,0,0,1-.5-.5V17.2a.472.472,0,0,1,.5-.5h3.2V14.5c0-.318.3-.2.3-.2l3.2,3.4a.187.187,0,0,1,0,.3l-3.2,3.3c-.1.1-.363.2-.4-.1v-2Zm-2.677-1.238a6,6,0,1,0,6-5.9A5.941,5.941,0,0,0,12.023,17.962Zm-1.5-6.144L10,11.952l-.538.147a5.765,5.765,0,0,0,.257-.55l.22-.538.232-.6.22-.6.244.4.257.39c.134.183.257.342.391.5a4.67,4.67,0,0,0,.391.44l-.562.122ZM9.781,6.66a.856.856,0,0,1,.086-.281.578.578,0,0,1,.122-.122.357.357,0,0,1,.147-.049.367.367,0,0,1,.33.22.794.794,0,0,1,.11.38,3.367,3.367,0,0,1-.134.929c-.086.331-.2.7-.318,1.088a6.556,6.556,0,0,1-.293-.966,4.186,4.186,0,0,1-.086-.807A1.846,1.846,0,0,1,9.781,6.66Zm-3.214,8.1a.292.292,0,0,1-.293-.392c.327-.752,1.6-1.385,2.1-1.606C8.307,12.808,7.642,14.584,6.567,14.763ZM11.9,11.757a4.312,4.312,0,0,0,1.344.868l.214-.171a3.285,3.285,0,0,1-.409-.207,5.682,5.682,0,0,1-.843-.576,6.651,6.651,0,0,1,1.173-.1,7.561,7.561,0,0,1,.868.049,1.283,1.283,0,0,1,.33.1l.263-.128a1.92,1.92,0,0,0-.348-.122,3.708,3.708,0,0,0-1.039-.122,6.787,6.787,0,0,0-.684.037c-.232.024-.489.049-.758.1a5.549,5.549,0,0,1-.452-.478q-.22-.257-.44-.549l-.281-.44-.269-.44a10.071,10.071,0,0,0,.354-1.307,5.542,5.542,0,0,0,.11-1,1.929,1.929,0,0,0-.171-.868.706.706,0,0,0-.978-.318.611.611,0,0,0-.244.22,2.047,2.047,0,0,0-.11,1.21,6.447,6.447,0,0,0,.5,1.674,6.987,6.987,0,0,1-.318.842l-.367.868c-.1.257-.208.5-.318.733s-.232.477-.367.721c-.653.251-2.342,1.008-2.628,1.967a.755.755,0,0,0-.015.329.565.565,0,0,0,.159.257.54.54,0,0,0,.183.11.985.985,0,0,0,.43.037A2.09,2.09,0,0,0,8.2,14.139a10.047,10.047,0,0,0,1.063-1.65l.012-.024.66-.208.66-.183.66-.171C11.48,11.843,11.688,11.793,11.9,11.757Z" transform="translate(-2 -1)"/><path class="b" d="M10.7,19.05H4V3h9.65L17,6.334V10.65C11.9,12.3,10.5,15.375,10.7,19.05Z" transform="translate(-2 -1)"/></svg>