<svg xmlns="http://www.w3.org/2000/svg" xmlns:xlink="http://www.w3.org/1999/xlink" width="298.332" height="139.664" viewBox="0 0 298.332 139.664"><defs><style>.a{fill:#c7c7c7;}.b,.g,.x{fill:#61bdc9;}.b,.c,.d,.f,.g,.j,.k,.l{opacity:0.75;}.c,.w{fill:#80c1a3;}.d,.v{fill:#1473e6;}.e,.n{fill:#fff;}.f{fill:#4f96ec;}.g{stroke:rgba(0,0,0,0);stroke-miterlimit:10;}.h{fill:#e1e1e1;}.i,.j,.k,.l{fill:none;stroke-width:2px;}.i{stroke:#e1e1e1;}.j{stroke:#81c6cf;}.j,.k,.l{stroke-linecap:round;}.k{stroke:#99c9b3;}.l{stroke:#488fe5;}.m{fill:#747474;}.n,.r{opacity:0.5;}.o,.q,.r{fill:#b3b3b3;}.o,.p{opacity:0.504;}.s{fill:rgba(128,193,163,0.2);stroke:#80c1a3;}.s,.t,.u{stroke-width:1.5px;mix-blend-mode:multiply;isolation:isolate;}.t{fill:rgba(97,189,201,0.2);stroke:#61bdc9;}.u{fill:rgba(20,115,230,0.2);stroke:#1473e6;}.y{filter:url(#g);}.z{filter:url(#e);}.aa{filter:url(#c);}.ab{filter:url(#a);}</style><filter id="a" x="219.332" y="69.223" width="79" height="63" filterUnits="userSpaceOnUse"><feOffset dy="3" input="SourceAlpha"/><feGaussianBlur stdDeviation="5" result="b"/><feFlood flood-opacity="0.161"/><feComposite operator="in" in2="b"/><feComposite in="SourceGraphic"/></filter><filter id="c" x="221.171" y="0" width="74.629" height="74.629" filterUnits="userSpaceOnUse"><feOffset dy="3" input="SourceAlpha"/><feGaussianBlur stdDeviation="5" result="d"/><feFlood flood-opacity="0.161"/><feComposite operator="in" in2="d"/><feComposite in="SourceGraphic"/></filter><filter id="e" x="3.726" y="16.473" width="101.671" height="123.191" filterUnits="userSpaceOnUse"><feOffset dy="3" input="SourceAlpha"/><feGaussianBlur stdDeviation="5" result="f"/><feFlood flood-opacity="0.161"/><feComposite operator="in" in2="f"/><feComposite in="SourceGraphic"/></filter><filter id="g" x="12.332" y="9.223" width="101" height="122" filterUnits="userSpaceOnUse"><feOffset dy="3" input="SourceAlpha"/><feGaussianBlur stdDeviation="5" result="h"/><feFlood flood-opacity="0.161"/><feComposite operator="in" in2="h"/><feComposite in="SourceGraphic"/></filter></defs><g transform="translate(-1693.68 -1443.314)"><g transform="translate(1835.19 1500.951)"><path class="a" d="M1873.138,1256.575a5.326,5.326,0,0,1-5.1-5.522c0-.148.017-.294.036-.443l0-4.121a3.822,3.822,0,0,0-1.9-3.551.25.25,0,0,1-.142-.141.212.212,0,0,1,.008-.165.218.218,0,0,1,.1-.1,3.843,3.843,0,0,0,1.926-3.6c0-.923,0-.961-.03-3.974a5.278,5.278,0,0,1,4.583-5.929l.113-.013c.144-.014.266-.021.389-.025l.948-.147a.347.347,0,0,1,.331.337v2.63a.341.341,0,0,1-.344.31l-1.839.144h-.037a1.209,1.209,0,0,0-1.2,1.125l0,5.405a6.562,6.562,0,0,1-1.968,3.632l-.347.325.342.33a6.747,6.747,0,0,1,1.967,3.635v5.383a1.225,1.225,0,0,0,1.22,1.155h1.914a.35.35,0,0,1,.362.337v2.655a.344.344,0,0,1-.344.331Z" transform="translate(-1866.021 -1228.842)"/><path class="a" d="M1952.083,1256.45a.346.346,0,0,1-.344-.337v-2.663a.345.345,0,0,1,.345-.331h1.967a1.225,1.225,0,0,0,1.26-1.115l0-5.454a6.766,6.766,0,0,1,1.967-3.636l.343-.33-.348-.325a6.558,6.558,0,0,1-1.962-3.592v-5.373a1.217,1.217,0,0,0-1.205-1.155h-1.949a.351.351,0,0,1-.363-.335v-2.633a.346.346,0,0,1,.345-.331h1.04a5.249,5.249,0,0,1,5.068,5.4c-.006.175-.02.351-.043.527,0,1.983-.017,2.691-.027,3.2-.005.29-.009.517-.009.862a3.854,3.854,0,0,0,1.938,3.552.218.218,0,0,1,.028.4l-.713.343.126.084a3.875,3.875,0,0,0-1.373,3.174v4.042a5.319,5.319,0,0,1-4.577,5.98c-.152.019-.306.031-.461.038Z" transform="translate(-1909.665 -1228.842)"/><rect class="b" width="23.233" height="3.829" rx="1.5" transform="translate(13.521 17.694)"/><rect class="c" width="23.233" height="3.829" rx="1.5" transform="translate(13.521 11.738)"/><rect class="d" width="23.233" height="3.829" rx="1.5" transform="translate(13.521 4.931)"/></g><g transform="translate(1927.45 1524.42)"><g class="ab" transform="matrix(1, 0, 0, 1, -233.77, -81.11)"><rect class="e" width="49" height="33" rx="6" transform="translate(234.33 81.22)"/></g><rect class="c" width="13.942" height="1.9" rx="0.95" transform="translate(24.259 22.668)"/><rect class="c" width="21.416" height="1.9" rx="0.95" transform="translate(24.259 18.591)"/><rect class="f" width="21.416" height="1.9" rx="0.95" transform="translate(24.259 14.515)"/><path class="g" d="M.679,17.665A.679.679,0,0,1,0,16.984V.681A.679.679,0,0,1,.679,0H16.984a.679.679,0,0,1,.68.681v16.3a.679.679,0,0,1-.68.681Zm14.666-1.36L8.832,9.794,2.32,16.305Zm.961-.961V2.32L9.793,8.833Zm-14.946,0L7.871,8.832,1.359,2.32ZM8.832,7.871l6.512-6.512H2.319Z" transform="translate(3.877 11.118)"/><ellipse class="h" cx="0.95" cy="0.95" rx="0.95" ry="0.95" transform="translate(38.526 2.189)"/><ellipse class="h" cx="0.95" cy="0.95" rx="0.95" ry="0.95" transform="translate(41.244 2.189)"/><ellipse class="h" cx="0.95" cy="0.95" rx="0.95" ry="0.95" transform="translate(43.961 2.189)"/><rect class="h" width="27.53" height="1.9" rx="0.95" transform="translate(3.198 2.189)"/><path class="i" d="M-735-14157.407h49.562" transform="translate(734.997 14164.425)"/></g><g transform="translate(1929.851 1455.314)"><g class="aa" transform="matrix(1, 0, 0, 1, -236.17, -12)"><path class="e" d="M0,37.656V25.486c2.494,3.946,15.431,5.579,22.315,5.579s18.9-1.269,22.315-5.585V37.656c0,3.849-9.992,6.973-22.315,6.973S0,41.5,0,37.656ZM0,22.082v-11.7c2.494,3.95,15.431,5.579,22.315,5.579s18.9-1.269,22.315-5.585V22.082c0,3.849-9.992,6.973-22.315,6.973S0,25.931,0,22.082ZM0,6.973C0,3.122,9.991,0,22.315,0S44.629,3.122,44.629,6.973s-9.991,6.973-22.315,6.973S0,10.825,0,6.973Z" transform="translate(236.17 12)"/></g><circle class="h" cx="0.949" cy="0.949" r="0.949" transform="translate(38.578 18.963)"/><circle class="h" cx="0.949" cy="0.949" r="0.949" transform="translate(38.578 34.069)"/><path class="j" d="M0,4.2A7.7,7.7,0,0,0,1.4,0" transform="translate(7.119 21.917) rotate(90)"/><path class="j" d="M0,4.2A7.7,7.7,0,0,0,1.4,0" transform="translate(7.119 37.349) rotate(90)"/><path class="k" d="M0,4.2A7.7,7.7,0,0,0,1.4,0" transform="translate(7.119 18.643) rotate(90)"/><path class="k" d="M0,4.2A7.7,7.7,0,0,0,1.4,0" transform="translate(7.119 34.076) rotate(90)"/><path class="l" d="M0,4.2A7.7,7.7,0,0,0,1.4,0" transform="translate(7.119 15.369) rotate(90)"/><path class="l" d="M0,4.2A7.7,7.7,0,0,0,1.4,0" transform="translate(7.119 30.802) rotate(90)"/></g><path class="m" d="M.814-.1c0,.066.033.1.077.1.352.022,1.364.022,2.057.022A3.635,3.635,0,0,0,6.853-3.74c0-2.046-1.3-3.509-3.883-3.509-1.012,0-1.76.022-2.079.033-.066.011-.077.033-.077.088ZM2.145-6.072c.264-.011.506-.022.814-.022a2.259,2.259,0,0,1,2.53,2.387,2.382,2.382,0,0,1-2.6,2.574c-.286,0-.528,0-.748-.011Zm8.591,5a2.011,2.011,0,0,1-.781.132c-.792,0-1.078-.352-1.078-.759,0-.473.385-.759,1.254-.759a4.525,4.525,0,0,1,.6.033Zm1.287-2.288A2,2,0,0,0,9.834-5.533a4.087,4.087,0,0,0-1.672.33.1.1,0,0,0-.066.11v.957a.064.064,0,0,0,.088.066,3.272,3.272,0,0,1,1.441-.308c.968,0,1.111.572,1.111.825v.132c-.1-.011-.352-.022-.682-.022-1.43,0-2.475.583-2.475,1.749,0,1.243.957,1.8,2.156,1.8a5.35,5.35,0,0,0,2.288-.495c.022-.011.022-.022.022-.044-.022-.231-.022-.451-.022-.693ZM15.917-.968c0-.066-.033-.077-.066-.066a1.864,1.864,0,0,1-.418.044c-.473,0-.627-.231-.627-.715V-4.312h1.078c.055,0,.077-.022.077-.077v-.957c0-.055-.022-.077-.077-.077H14.817c0-.539.022-1.188.055-1.551,0-.055-.022-.066-.077-.055l-1.111.154a.106.106,0,0,0-.088.1,11.61,11.61,0,0,0-.11,1.353h-.693c-.066,0-.088.022-.088.088v.924c0,.066.022.088.077.1h.693v2.893c0,1.089.539,1.529,1.441,1.529a2.529,2.529,0,0,0,.935-.154c.055-.022.066-.066.066-.132Zm3.762-.1a2.011,2.011,0,0,1-.781.132c-.792,0-1.078-.352-1.078-.759,0-.473.385-.759,1.254-.759a4.525,4.525,0,0,1,.6.033Zm1.287-2.288a2,2,0,0,0-2.189-2.178A4.087,4.087,0,0,0,17.1-5.2a.1.1,0,0,0-.066.11v.957a.064.064,0,0,0,.088.066,3.272,3.272,0,0,1,1.441-.308c.968,0,1.111.572,1.111.825v.132c-.1-.011-.352-.022-.682-.022-1.43,0-2.475.583-2.475,1.749,0,1.243.957,1.8,2.156,1.8a5.35,5.35,0,0,0,2.288-.495c.022-.011.022-.022.022-.044-.022-.231-.022-.451-.022-.693Zm1.463-4.477a.069.069,0,0,0-.077.077V-.231a.117.117,0,0,0,.077.1,5.5,5.5,0,0,0,1.65.242,3,3,0,0,0,3.212-3.047,2.483,2.483,0,0,0-2.6-2.6,3.185,3.185,0,0,0-1,.154l-.011-2.365c0-.077-.022-.088-.1-.088ZM25.938-2.8A1.664,1.664,0,0,1,24.2-1.012a1.831,1.831,0,0,1-.506-.055V-4.279a2.02,2.02,0,0,1,.77-.121A1.417,1.417,0,0,1,25.938-2.8Zm5.247,1.738a2.011,2.011,0,0,1-.781.132c-.792,0-1.078-.352-1.078-.759,0-.473.385-.759,1.254-.759a4.525,4.525,0,0,1,.6.033Zm1.287-2.288a2,2,0,0,0-2.189-2.178,4.087,4.087,0,0,0-1.672.33.1.1,0,0,0-.066.11v.957a.064.064,0,0,0,.088.066,3.272,3.272,0,0,1,1.441-.308c.968,0,1.111.572,1.111.825v.132c-.1-.011-.352-.022-.682-.022-1.43,0-2.475.583-2.475,1.749,0,1.243.957,1.8,2.156,1.8a5.35,5.35,0,0,0,2.288-.495c.022-.011.022-.022.022-.044-.022-.231-.022-.451-.022-.693Zm4.455-.792c.066.022.1-.011.1-.066v-.968a.134.134,0,0,0-.066-.132,3.391,3.391,0,0,0-1.386-.22c-1.375,0-2.057.781-2.057,1.617,0,.792.429,1.287,1.628,1.727.682.275.891.451.891.726s-.275.484-.847.484a2.994,2.994,0,0,1-1.573-.44.057.057,0,0,0-.088.055V-.319c0,.066.022.088.077.121A3.384,3.384,0,0,0,35.156.11c1.353,0,2.167-.649,2.167-1.683,0-.781-.429-1.276-1.683-1.738-.7-.275-.869-.44-.869-.682s.2-.473.781-.473A3.129,3.129,0,0,1,36.927-4.147ZM41.6-2.409a8.379,8.379,0,0,0,1.133-.044.094.094,0,0,0,.088-.077,3.329,3.329,0,0,0,.044-.682,2.187,2.187,0,0,0-2.255-2.321,2.636,2.636,0,0,0-2.585,2.882A2.541,2.541,0,0,0,40.744.11a3.652,3.652,0,0,0,1.65-.319A.116.116,0,0,0,42.46-.33v-.913c0-.055-.033-.066-.066-.044a3.466,3.466,0,0,1-1.364.264c-1.122,0-1.628-.616-1.661-1.386Zm-2.233-.946a1.2,1.2,0,0,1,1.188-1.122,1.018,1.018,0,0,1,1.056,1.023v.088a5.391,5.391,0,0,1-.6.011Z" transform="translate(1929.012 1512.538)"/><path class="m" d="M1.572-2.136C1.572-1,1.116-.7.372-.7A2.275,2.275,0,0,1,0-.72c-.084-.012-.108.012-.108.072v1.1c0,.072.012.108.084.132a2.373,2.373,0,0,0,.54.048,2.21,2.21,0,0,0,2.412-1.8,5.3,5.3,0,0,0,.1-1.116V-7.8c0-.072-.024-.084-.084-.084H1.668c-.072,0-.1.036-.1.084ZM6.588.12C8.4.12,9.5-.792,9.5-2.2c0-.948-.444-1.7-2-2.352L7.044-4.74c-.948-.4-1.224-.7-1.224-1.128s.324-.852,1.356-.852a3.749,3.749,0,0,1,1.812.4c.072.048.108,0,.108-.048V-7.536c0-.084-.012-.12-.072-.156A4.4,4.4,0,0,0,7.188-8C5.376-8,4.4-7.02,4.4-5.736c0,.9.384,1.644,1.86,2.268l.576.24c.912.384,1.2.72,1.2,1.164,0,.516-.42.9-1.4.9A4.038,4.038,0,0,1,4.5-1.788c-.048-.024-.1,0-.1.048V-.492a.178.178,0,0,0,.084.18A4.567,4.567,0,0,0,6.588.12ZM14.076-8a3.766,3.766,0,0,0-3.72,4.056c0,2.34,1.392,4.068,3.72,4.068,2.184,0,3.72-1.62,3.708-4.1C17.772-6.2,16.428-8,14.076-8Zm-2.22,4.056c0-1.776.924-2.772,2.2-2.772,1.4,0,2.232,1.092,2.232,2.772s-.8,2.784-2.16,2.784C12.648-1.164,11.856-2.4,11.856-3.948ZM20.388,0c.072,0,.1-.036.1-.108V-4.116c0-1.092-.012-1.62-.06-2.232h.012C20.9-5.184,23.1-1.308,23.724-.084A.152.152,0,0,0,23.88,0H25.4c.084,0,.12-.024.12-.108V-7.776c0-.072-.024-.108-.108-.108H24.264c-.072,0-.108.036-.108.1v4c0,1.128.024,1.524.036,1.86H24.18c-.42-.9-2.256-4.284-3.144-5.868a.127.127,0,0,0-.144-.084H19.2c-.06,0-.084.024-.084.084V-.108c0,.1.036.108.108.108Z" transform="translate(1847.012 1541.538)"/><path class="m" d="M6.457,0c.066,0,.088-.022.088-.088V-7.15c0-.055-.022-.077-.077-.077H5.291a.069.069,0,0,0-.077.077v2.794H2.145V-7.139c0-.066-.022-.088-.088-.088H.913c-.066,0-.088.022-.088.1V-.1c0,.066.022.1.1.1H2.057c.066,0,.088-.033.088-.1V-3.157H5.214V-.088c0,.066.022.088.088.088ZM9.669-.1c0,.077.022.11.1.1H10.9c.055,0,.088-.033.088-.1V-6.028h2.222c.055,0,.088-.033.077-.1l-.1-1c-.011-.077-.044-.1-.11-.1H7.612c-.066,0-.088.022-.1.088L7.37-6.116c-.011.055.011.088.066.088H9.669Zm4.554-7.062L13.805-.088c-.011.077.011.088.077.088h1.1c.066,0,.088-.011.088-.077.11-2.31.2-5.1.209-6.215H15.3c.308,1.342,1.188,4.543,1.661,6.215.011.066.033.077.11.077h1.1a.087.087,0,0,0,.1-.088c.44-1.463,1.573-5.137,1.826-6.193h.011c-.011.693.011,3.861.066,6.2,0,.066.033.077.088.077h1.221c.055,0,.088-.022.077-.088l-.3-7.073c-.011-.055-.033-.066-.088-.066H19.459c-.066,0-.077.033-.1.077-.341,1.133-1.43,4.466-1.661,5.4h-.011c-.22-1.023-1.177-4.29-1.507-5.4a.1.1,0,0,0-.11-.077h-1.76C14.256-7.227,14.234-7.227,14.223-7.161ZM27.423,0c.055,0,.088-.011.1-.088l.187-1.034c.011-.044-.011-.077-.077-.077H24.4V-7.15c0-.044-.022-.077-.066-.077H23.155c-.066,0-.088.044-.088.1V-.11c0,.077.022.11.11.11Z" transform="translate(1938.012 1570.538)"/><g transform="translate(1712.406 1464.475)"><g class="z" transform="matrix(1, 0, 0, 1, -18.73, -21.16)"><path class="n" d="M5.131-.006h44.4c1.536,0,4.247-.2,6.033,1.659S66.786,13.331,69.027,15.668s2.644,3.758,2.644,5.122V87.8a5.261,5.261,0,0,1-5.131,5.383H5.131A5.261,5.261,0,0,1,0,87.8V5.376A5.261,5.261,0,0,1,5.131-.006Z" transform="translate(18.73 28.49)"/></g><g class="y" transform="matrix(1, 0, 0, 1, -18.73, -21.16)"><rect class="e" width="71" height="92" rx="6" transform="translate(27.33 21.22)"/></g><rect class="o" width="6.321" height="2.529" rx="1.264" transform="translate(60.432 73.857)"/><rect class="o" width="6.321" height="2.529" rx="1.264" transform="translate(60.432 69.432)"/><rect class="o" width="6.321" height="2.529" rx="1.264" transform="translate(60.432 65.007)"/><rect class="o" width="6.321" height="2.529" rx="1.264" transform="translate(49.686 73.857)"/><rect class="o" width="6.321" height="2.529" rx="1.264" transform="translate(49.686 69.432)"/><rect class="o" width="6.321" height="2.529" rx="1.264" transform="translate(49.686 65.007)"/><rect class="o" width="16.435" height="2.529" rx="1.264" transform="translate(27.562 73.857)"/><rect class="o" width="16.435" height="2.529" rx="1.264" transform="translate(27.562 69.432)"/><rect class="o" width="16.435" height="2.529" rx="1.264" transform="translate(27.562 65.007)"/><g class="p" transform="translate(18.799 54.98)"><path class="q" d="M1683.854,1586.062h-4.477a1.673,1.673,0,0,1-1.671-1.672v-21.543h6.147Zm-4.425-1.723h2.7V1564.57h-2.7Z" transform="translate(-1677.707 -1558.422)"/><path class="q" d="M1710.523,1586.062h-25.112v-23.215h25.112Zm-23.389-1.723H1708.8V1564.57h-21.666Z" transform="translate(-1680.986 -1558.422)"/><path class="q" d="M1755.645,1586.062h-10.8v-23.215h12.469v21.543A1.674,1.674,0,0,1,1755.645,1586.062Zm-9.074-1.723h9.023V1564.57h-9.023Z" transform="translate(-1706.288 -1558.422)"/><path class="q" d="M1738.605,1586.062h-12.469v-23.215h12.469Zm-10.746-1.723h9.024V1564.57h-9.024Z" transform="translate(-1698.323 -1558.422)"/><path class="q" d="M1728.736,1561.291h-51.029v-4.477a1.672,1.672,0,0,1,1.671-1.671h47.686a1.673,1.673,0,0,1,1.672,1.671Zm-49.306-1.723h47.583v-2.7H1679.43Z" transform="translate(-1677.707 -1555.143)"/></g><g transform="translate(19.977 28.015)"><rect class="h" width="24.653" height="2.529" rx="1.264" transform="translate(0 17.979)"/><rect class="h" width="49.306" height="2.529" rx="1.264" transform="translate(0 12.29)"/><rect class="h" width="49.306" height="2.529" rx="1.264" transform="translate(0 7.233)"/><rect class="r" width="26.549" height="2.529" rx="1.264" transform="translate(11.378 0)"/></g><path class="r" d="M1680.927,1481.179h34.627a1.251,1.251,0,0,1,1.237,1.265h0a1.251,1.251,0,0,1-1.237,1.264h-34.627a1.251,1.251,0,0,1-1.237-1.264h0A1.251,1.251,0,0,1,1680.927,1481.179Z" transform="translate(-1659.752 -1468.209)"/><rect class="s" width="33.247" height="6.509" rx="3.255" transform="translate(28.187 25.969)"/><rect class="t" width="56.13" height="32.397" rx="4" transform="translate(16.028 52.601)"/><rect class="u" width="41.145" height="6.257" rx="3.128" transform="translate(17.899 11.144)"/></g><path class="v" d="M-20.148-.1c-.012.06.024.1.1.1h1.392c.072,0,.1-.024.108-.084l1.1-6.324h2.316c.06,0,.084-.012.084-.084l.012-1.3c0-.036,0-.072-.072-.072h-5.676c-.06,0-.1.012-.108.072l-.42,1.3c-.012.048,0,.084.06.084h2.208Zm4.584,0c0,.06.024.1.084.1h1.368c.072,0,.1-.012.12-.084l1.032-5.772c.012-.072,0-.108-.072-.108h-1.392c-.06,0-.084.012-.1.084Zm2.016-6.564a.913.913,0,0,0,.96-.864.7.7,0,0,0-.756-.864.946.946,0,0,0-1,.864A.737.737,0,0,0-13.548-6.66Zm4.2,5.4c0-.084-.06-.06-.1-.048a1.811,1.811,0,0,1-.612.1c-.432,0-.492-.252-.42-.684l.492-2.724H-8.94c.072-.012.1-.024.1-.108l.2-1.14c.012-.072-.012-.1-.1-.1H-9.744c.132-.576.24-1.128.348-1.644,0-.048-.024-.1-.072-.072a4.292,4.292,0,0,1-1.476.264c-.072.012-.084.036-.1.084-.072.408-.18.924-.264,1.368h-.72c-.072,0-.084.024-.1.084l-.24,1.152c-.012.072.012.1.072.108h.744l-.516,2.868c-.252,1.344.336,1.872,1.3,1.872a2.523,2.523,0,0,0,1.08-.192.188.188,0,0,0,.12-.144Zm3.18.1c.012-.048,0-.1-.06-.084a1.328,1.328,0,0,1-.36.06c-.2,0-.348-.06-.288-.408l1.224-6.876c0-.072-.024-.1-.084-.1-.1,0-1,.06-1.416.1a.1.1,0,0,0-.1.084L-8.46-1.476C-8.676-.264-8.184.12-7.32.12a2.3,2.3,0,0,0,.84-.144c.072-.036.1-.048.108-.132Zm5.292-.444c0-.048-.024-.072-.072-.06A2.939,2.939,0,0,1-2.5-1.26c-1.068,0-1.3-.624-1.308-.96a.234.234,0,0,1,.012-.1C-1.224-2.3-.144-3.108-.156-4.44c-.012-.828-.468-1.644-1.908-1.644A3.464,3.464,0,0,0-5.328-2.448,2.3,2.3,0,0,0-2.856.12a3.121,3.121,0,0,0,1.68-.36c.06-.036.1-.06.108-.132Zm-2.8-1.9A1.728,1.728,0,0,1-2.184-4.836c.516,0,.612.276.612.48C-1.572-4.008-1.908-3.48-3.672-3.5Z" transform="translate(1720.012 1481.538)"/><path class="w" d="M-27.181,0c.077,0,.077-.022.088-.088l1.243-7.029c.011-.066-.033-.088-.077-.088h-1.32a.077.077,0,0,0-.088.066l-.484,2.794h-2.695l.484-2.772c0-.077-.022-.088-.077-.088h-1.32c-.044,0-.066.022-.077.077l-1.232,7.04c-.022.077.033.088.077.088h1.309c.055,0,.066-.022.077-.077l.517-2.937h2.695l-.506,2.926c-.011.066,0,.088.077.088Zm5.621-1.474c0-.044-.022-.066-.066-.055a2.694,2.694,0,0,1-1.419.374c-.979,0-1.188-.572-1.2-.88a.214.214,0,0,1,.011-.088c2.354.011,3.344-.726,3.333-1.947-.011-.759-.429-1.507-1.749-1.507a3.175,3.175,0,0,0-2.992,3.333A2.107,2.107,0,0,0-23.375.11a2.861,2.861,0,0,0,1.54-.33c.055-.033.088-.055.1-.121Zm-2.563-1.738a1.584,1.584,0,0,1,1.364-1.221c.473,0,.561.253.561.44C-22.2-3.674-22.506-3.19-24.123-3.212Zm8.91-2.1c0-.044-.011-.055-.022-.066a5.176,5.176,0,0,0-1.485-.2,3.481,3.481,0,0,0-3.718,3.388,2.134,2.134,0,0,0,2.3,2.3,4.577,4.577,0,0,0,1.98-.418A.1.1,0,0,0-16.082-.4Zm-2.156,4.136a1.147,1.147,0,0,1-.451.066,1.053,1.053,0,0,1-1.144-1.133,1.978,1.978,0,0,1,1.936-2.112c.11,0,.165.011.209.011Zm8.349-6.6c0-.066-.022-.077-.066-.077-.066,0-.968.055-1.3.088-.055.011-.066.033-.077.077l-.385,2.156a2.237,2.237,0,0,0-.5-.044,3.315,3.315,0,0,0-3.388,3.3A2.207,2.207,0,0,0-12.353.11a4.527,4.527,0,0,0,1.969-.429.169.169,0,0,0,.077-.11ZM-11.6-1.221a1.3,1.3,0,0,1-.484.077,1.1,1.1,0,0,1-1.166-1.177,1.9,1.9,0,0,1,1.738-2.046,1.408,1.408,0,0,1,.451.055Zm6.831-.253c0-.044-.022-.066-.066-.055a2.694,2.694,0,0,1-1.419.374c-.979,0-1.188-.572-1.2-.88a.214.214,0,0,1,.011-.088c2.354.011,3.344-.726,3.333-1.947-.011-.759-.429-1.507-1.749-1.507A3.175,3.175,0,0,0-8.855-2.244,2.107,2.107,0,0,0-6.589.11a2.861,2.861,0,0,0,1.54-.33c.055-.033.088-.055.1-.121ZM-7.337-3.212A1.584,1.584,0,0,1-5.973-4.433c.473,0,.561.253.561.44C-5.412-3.674-5.72-3.19-7.337-3.212ZM-2.86-5.467c-.055,0-.1,0-.1.066a12.912,12.912,0,0,1-.165,1.287L-3.839-.077c-.011.044.011.077.066.077H-2.5c.066,0,.077-.022.088-.066l.506-2.86a.6.6,0,0,1,.088-.209A2.209,2.209,0,0,1-.1-4Q-.05-4-.033-4.07l.286-1.4c.011-.077-.011-.1-.077-.1A2.484,2.484,0,0,0-1.749-4.488,3.756,3.756,0,0,0-1.705-5.4c0-.055-.022-.066-.1-.066Z" transform="translate(1729.012 1495.538)"/><path class="x" d="M-25.164-.1c-.012.06.024.1.1.1h1.392c.072,0,.1-.024.108-.084l1.1-6.324h2.316c.06,0,.084-.012.084-.084l.012-1.3c0-.036,0-.072-.072-.072H-25.8c-.06,0-.1.012-.108.072l-.42,1.3c-.012.048,0,.084.06.084h2.208Zm9.672-5.7c0-.048-.012-.06-.024-.072a5.646,5.646,0,0,0-1.62-.216,3.8,3.8,0,0,0-4.056,3.7A2.328,2.328,0,0,0-18.684.12a4.993,4.993,0,0,0,2.16-.456.114.114,0,0,0,.084-.1Zm-2.352,4.512a1.251,1.251,0,0,1-.492.072,1.149,1.149,0,0,1-1.248-1.236,2.157,2.157,0,0,1,2.112-2.3c.12,0,.18.012.228.012Zm2.868.84a.116.116,0,0,0,.048.132,3.548,3.548,0,0,0,1.86.432A3.737,3.737,0,0,0-9.252-3.732c0-1.392-.708-2.352-1.956-2.352a2.531,2.531,0,0,0-1.272.312l.468-2.7c.012-.084-.024-.1-.072-.1s-.96.048-1.392.084c-.072,0-.1.036-.108.1Zm2.268-4.008a1.6,1.6,0,0,1,.912-.276c.732,0,.936.528.936,1.128a2.2,2.2,0,0,1-1.98,2.388,1.288,1.288,0,0,1-.42-.072Zm6.54,3.288c.012-.048,0-.1-.06-.084a1.328,1.328,0,0,1-.36.06c-.2,0-.348-.06-.288-.408l1.224-6.876c0-.072-.024-.1-.084-.1-.1,0-1,.06-1.416.1a.1.1,0,0,0-.1.084L-8.46-1.476C-8.676-.264-8.184.12-7.32.12a2.3,2.3,0,0,0,.84-.144c.072-.036.1-.048.108-.132Zm5.292-.444c0-.048-.024-.072-.072-.06A2.939,2.939,0,0,1-2.5-1.26c-1.068,0-1.3-.624-1.308-.96a.234.234,0,0,1,.012-.1C-1.224-2.3-.144-3.108-.156-4.44c-.012-.828-.468-1.644-1.908-1.644A3.464,3.464,0,0,0-5.328-2.448,2.3,2.3,0,0,0-2.856.12a3.121,3.121,0,0,0,1.68-.36c.06-.036.1-.06.108-.132Zm-2.8-1.9A1.728,1.728,0,0,1-2.184-4.836c.516,0,.612.276.612.48C-1.572-4.008-1.908-3.48-3.672-3.5Z" transform="translate(1720.012 1536.538)"/><path class="a" d="M2000.65,1527.627h-11.3a.664.664,0,0,0-.665.664h0v6.646a.664.664,0,0,0,.665.665h11.3v4.647a.332.332,0,0,0,.567.235l8.871-8.871-8.87-8.87a.332.332,0,0,0-.568.235Z" transform="translate(-92.792 -16.859)"/><path class="a" d="M1827.65,1527.627h-11.3a.664.664,0,0,0-.665.664h0v6.646a.664.664,0,0,0,.665.665h11.3v4.647a.332.332,0,0,0,.567.235l8.871-8.871-8.87-8.87a.332.332,0,0,0-.47,0,.328.328,0,0,0-.1.236Z" transform="translate(-12.206 -16.859)"/></g></svg>