<svg xmlns="http://www.w3.org/2000/svg" xmlns:xlink="http://www.w3.org/1999/xlink" width="100" height="100" viewBox="0 0 100 100"><defs><style>.a,.c{fill:#fff;}.a,.b{stroke:#707070;}.b,.e,.f{fill:none;}.c{opacity:0;}.d,.j{fill:#b3b3b3;}.e,.f{stroke:#f00c00;stroke-width:2px;}.e{stroke-linecap:round;}.f{stroke-linecap:square;}.g{clip-path:url(#a);}.h{fill:#f00c00;}.h,.j{fill-rule:evenodd;}.i{clip-path:url(#b);}</style><clipPath id="a"><circle class="a" cx="11" cy="11" r="11" transform="translate(314 976)"/></clipPath><clipPath id="b"><path class="b" d="M-100.488-13311.411l5.584,8.735h10.11v-14.5h-15.694Z" transform="translate(433 14284)"/></clipPath></defs><g transform="translate(-175 -418)"><rect class="c" width="100" height="100" transform="translate(175 418)"/><g transform="translate(-108 -522)"><path class="d" d="M244.144,248.837l-8.649-8.649A5.281,5.281,0,0,0,232.442,239H206.325a5,5,0,0,0-5.087,4.9c0,.061,0,.122,0,.182v1.275c.561-.347.915-.512,1.695-.984v-.291a3.4,3.4,0,0,1,3.392-3.392h26.117a3.559,3.559,0,0,1,1.866.679l8.648,8.649a3.549,3.549,0,0,1,.678,1.866v36.291a3.4,3.4,0,0,1-3.392,3.392H206.325a3.4,3.4,0,0,1-3.392-3.392V278.117c-.588-.415-1.125-.639-1.695-.984v11.048a5,5,0,0,0,4.9,5.088h34.1a5,5,0,0,0,5.088-4.9q0-.092,0-.183V251.89A4.876,4.876,0,0,0,244.144,248.837Z" transform="translate(113.63 724)"/><path class="e" d="M0,0,11.253,11.253" transform="translate(331.357 995.356)"/><path class="f" d="M14.244,0A14.244,14.244,0,1,1,0,14.244,14.244,14.244,0,0,1,14.244,0Z" transform="translate(307 971)"/><g class="g" transform="translate(-4 -2)"><path class="h" d="M218.165,267.471c-1.644,2.647-3.261,4.32-4.2,4.32a.594.594,0,0,1-.421-.151.617.617,0,0,1-.216-.6c.179-.948,2.052-2.315,4.844-3.564Zm7.9-3.786c-.7.148-1.436.319-2.175.516-.532.141-1.071.294-1.61.458.286-.584.549-1.168.778-1.719.3-.729.584-1.459.846-2.173.234.359.467.708.71,1.045a20.653,20.653,0,0,0,1.508,1.859Zm-3.65-12.6a.679.679,0,0,1,.567-.368c.623,0,.757.751.757,1.379a17.21,17.21,0,0,1-.817,4.359c-1.044-2.767-.9-4.706-.509-5.37Zm11.7,14.462c-.091.467-.584.776-1.244.776a2.28,2.28,0,0,1-.563-.07,9.154,9.154,0,0,1-3.563-1.81,17.741,17.741,0,0,1,2.638-.2,9.5,9.5,0,0,1,1.758.136c.529.11,1.125.4.978,1.168Zm1.772-1.248c-.78-.836-2.269-1.261-4.428-1.261a23.5,23.5,0,0,0-3.576.31,17.657,17.657,0,0,1-2.062-2.408,22.111,22.111,0,0,1-1.284-2,20.358,20.358,0,0,0,1.147-5.779c0-1.768-.7-3.661-2.667-3.661a1.976,1.976,0,0,0-1.646.973c-.839,1.44-.5,4.406.836,7.424-.467,1.386-.974,2.736-1.6,4.231a37.751,37.751,0,0,1-1.81,3.75c-2.005.809-6.269,2.767-6.676,4.933a1.836,1.836,0,0,0,.584,1.724,2.544,2.544,0,0,0,1.737.621c2.569,0,5.129-3.558,6.854-6.619.98-.334,1.985-.636,2.975-.9,1.091-.289,2.145-.527,3.142-.7a9.75,9.75,0,0,0,6.348,2.733c1.665,0,2.286-.722,2.513-1.329a2.037,2.037,0,0,0-.387-2.037Z" transform="translate(104.217 726.946)"/></g><rect class="d" width="11" height="1" rx="0.5" transform="translate(338 990)"/><rect class="d" width="12" height="1" rx="0.5" transform="translate(339 995)"/><rect class="d" width="6" height="1" rx="0.5" transform="translate(344 1000)"/><rect class="d" width="10" height="1" rx="0.5" transform="translate(324 1005)"/><g class="i" transform="translate(1 -1)"><path class="j" d="M215.569,259.8c-.942,1.517-1.868,2.476-2.408,2.476a.341.341,0,0,1-.242-.087.354.354,0,0,1-.124-.347c.1-.543,1.176-1.327,2.776-2.042Zm4.528-2.169c-.4.085-.823.183-1.246.3-.3.081-.614.168-.923.263.164-.335.315-.669.446-.985.173-.418.335-.836.485-1.245.134.206.268.406.407.6a11.836,11.836,0,0,0,.864,1.065Zm-2.091-7.219a.389.389,0,0,1,.325-.211c.357,0,.434.43.434.79a9.862,9.862,0,0,1-.468,2.5,4.249,4.249,0,0,1-.292-3.077Zm6.7,8.287c-.052.268-.335.445-.713.445a1.307,1.307,0,0,1-.322-.04,5.245,5.245,0,0,1-2.042-1.037,10.169,10.169,0,0,1,1.512-.117,5.442,5.442,0,0,1,1.008.078c.3.063.645.23.56.669Zm1.015-.715a3.45,3.45,0,0,0-2.538-.723,13.463,13.463,0,0,0-2.049.178,10.118,10.118,0,0,1-1.181-1.38,12.671,12.671,0,0,1-.736-1.148,11.666,11.666,0,0,0,.657-3.312c0-1.013-.4-2.1-1.528-2.1a1.133,1.133,0,0,0-.943.558c-.48.825-.289,2.525.479,4.254-.268.794-.558,1.568-.916,2.425a21.632,21.632,0,0,1-1.037,2.149c-1.149.463-3.592,1.586-3.825,2.827a1.052,1.052,0,0,0,.335.988,1.458,1.458,0,0,0,1,.356c1.472,0,2.939-2.039,3.927-3.793.561-.191,1.138-.365,1.7-.515.625-.166,1.229-.3,1.8-.4a5.587,5.587,0,0,0,3.637,1.566c.954,0,1.31-.414,1.44-.762a1.167,1.167,0,0,0-.222-1.167Z" transform="translate(118.914 719.946)"/></g></g></g></svg>