<svg xmlns="http://www.w3.org/2000/svg" width="40" height="40" viewBox="0 0 40 40"><defs><style>.a,.b{fill:none;stroke:#fff;}.b{stroke-linecap:square;stroke-miterlimit:10;}.c{fill:#fff;opacity:0.185;}.d{fill:rgba(255,255,255,0);}</style></defs><g transform="translate(3.52 3.5)"><path class="a" d="M22.5,14.5l3.556,4,4.444-5" transform="translate(1)"/><path class="a" d="M1.5,20.5l8-7,5,5,3-4"/><rect class="a" width="30" height="26" rx="2" transform="translate(1.5 3.5)"/><line class="b" y2="9" transform="translate(20.5 20.5)"/><line class="b" y2="7" transform="translate(20.5 3.5)"/><circle class="a" cx="3" cy="3" r="3" transform="translate(17.5 10.5)"/><path class="c" d="M9.367,13.785h0L1.48,20.656v7.707L2.868,29.5h27.6l1.218-1.937-.149-14.3-4.614,5.43-3.734-4.477-1.44,2.105h-2.3l-1.888-1.912-3.288,4.283Z"/></g><rect class="d" width="40" height="40"/></svg>