<svg xmlns="http://www.w3.org/2000/svg" width="40" height="40" viewBox="0 0 40 40"><defs><style>.a{fill:rgba(255,255,255,0);}.b,.c{fill:#fff;}.b{opacity:0.1;}.d,.e{fill:none;stroke:#fff;stroke-linecap:round;}.e{stroke-linejoin:round;stroke-miterlimit:10;}</style></defs><rect class="a" width="40" height="40"/><g transform="translate(2 2)"><path class="b" d="M23.38,3a1.5,1.5,0,0,1,1.06.44l5.12,5.1A1.5,1.5,0,0,1,30,9.6V31a2,2,0,0,1-2,2H8a2,2,0,0,1-2-2V5A2,2,0,0,1,8,3Z"/><path class="c" d="M23.38,3a1.5,1.5,0,0,1,1.06.44l5.12,5.1A1.5,1.5,0,0,1,30,9.6V31a2,2,0,0,1-2,2H8a2,2,0,0,1-2-2V5A2,2,0,0,1,8,3Zm0-1H8A3,3,0,0,0,5,5V31a3,3,0,0,0,3,3H28a3,3,0,0,0,3-3V9.6a2.52,2.52,0,0,0-.74-1.77l-5.12-5.1A2.47,2.47,0,0,0,23.38,2Z"/><line class="d" x2="15" transform="translate(10.5 27.5)"/><line class="d" x2="12" transform="translate(10.5 23.5)"/><line class="e" y2="11" transform="translate(14.5 7.5)"/><path class="e" d="M14.393,11.106c-1.354-.655-6-1.257-6,1,0,2.7,6,1.616,6,4s-3.563,2.771-6,2" transform="translate(3.107 -1.606)"/></g></svg>