<svg xmlns="http://www.w3.org/2000/svg" width="40" height="40" viewBox="0 0 40 40"><defs><style>.a{fill:none;}.b,.c{fill:#fff;}.c{opacity:0.1;}.d{fill:rgba(255,255,255,0);}</style></defs><g transform="translate(2 2)"><rect class="a" width="36" height="36"/><path class="b" d="M18.612,32.864c1.117-.034,3.339-1.59,3.788-2.167.017.167-.468.953-.268,1.4a.926.926,0,0,0,.905.5,12.049,12.049,0,0,0,4.346-1.9c-.029.171-.84,1.026-.74,1.492a.916.916,0,0,0,.508.675c1.447.722,4.2-1.623,4.743-2.448a.643.643,0,0,0-.179-.889.636.636,0,0,0-.882.175,5.54,5.54,0,0,1-2.7,1.752c.068-.141.662-1.128.734-1.244a4.329,4.329,0,0,0,.317-.509.937.937,0,0,0,0-.9c-.119-.2-.336-.356-.9-.356A7.366,7.366,0,0,0,25.759,29.7a13.752,13.752,0,0,1-1.971,1.167,12.108,12.108,0,0,1,.395-1.222c.327-.684.582-1.222.3-1.688a.8.8,0,0,0-.691-.376A2.206,2.206,0,0,0,21.9,29.125a6.172,6.172,0,0,1-3.082,2.146,1.174,1.174,0,0,1-.585,0,22.769,22.769,0,0,0,1.692-1.765c.5-.646,1.63-2.261,1.125-3.338a1.269,1.269,0,0,0-1.239-.7c-1.014.03-2.186,1.252-2.818,2.444a11.781,11.781,0,0,0-1.231,3.543c-.137.269-.061.124-1.318.2H4.509l3.674-8.3L26.792,3.618a1.045,1.045,0,0,1,.747-.334.916.916,0,0,1,.747.3l2.049,2.067a1.178,1.178,0,0,1,.026,1.607L12.015,26.71a.644.644,0,0,0,.025.906.63.63,0,0,0,.9-.03L31.29,8.129a2.477,2.477,0,0,0-.056-3.389L29.182,2.668A2.193,2.193,0,0,0,27.514,2a2.29,2.29,0,0,0-1.647.735L7.164,22.578a.54.54,0,0,0-.136.226L3.036,32.1a.645.645,0,0,0,.081.581.661.661,0,0,0,.543.256h11.6a2.346,2.346,0,0,0,1.549-.341,3.645,3.645,0,0,0,1.8.268Zm1.2-6.057c.607.681-1.933,3.89-2.613,3.89.458-2.338,2-4.571,2.61-3.89Z"/><path class="c" d="M8.183,23.355,26.792,3.618a1.045,1.045,0,0,1,.747-.334.916.916,0,0,1,.747.3l2.049,2.067a1.178,1.178,0,0,1,.026,1.607L12.015,26.71Z"/></g><rect class="d" width="40" height="40"/></svg>