<svg xmlns="http://www.w3.org/2000/svg" xmlns:xlink="http://www.w3.org/1999/xlink" width="79.785" height="90" viewBox="0 0 79.785 90">
  <defs>
    <clipPath id="clip-path">
      <rect id="Rectangle_217212" data-name="Rectangle 217212" width="79.785" height="90" fill="none"/>
    </clipPath>
  </defs>
  <g id="_6_Improve_Accessibility_of_PDF_Backlogs_Icon" data-name="6_Improve Accessibility of PDF Backlogs Icon" clip-path="url(#clip-path)">
    <path id="Path_359812" data-name="Path 359812" d="M7.567,87.333A7.574,7.574,0,0,1,0,79.789V29.127a7.575,7.575,0,0,1,7.545-7.6h29.8a8.763,8.763,0,0,1,5.726,2.238L52.005,32.7a8.218,8.218,0,0,1,2.466,5.768V79.733a7.576,7.576,0,0,1-7.545,7.6c-.035,0-.128,0-.169,0l-39.157,0ZM7.551,24.9a4.2,4.2,0,0,0-4.18,4.222V79.733a4.211,4.211,0,0,0,1.244,3.011,4.121,4.121,0,0,0,2.978,1.218H46.87A4.2,4.2,0,0,0,51.1,79.739V38.492a4.863,4.863,0,0,0-1.468-3.4L40.75,26.21A5.351,5.351,0,0,0,37.312,24.9Z" transform="translate(0 2.667)" fill="#b3b4b4"/>
    <path id="Path_359814" data-name="Path 359814" d="M57.879,77.382,57.823,75.7V74.01a4.218,4.218,0,0,0,4.228-4.224V28.54a4.857,4.857,0,0,0-1.466-3.4L51.7,16.258a5.341,5.341,0,0,0-3.437-1.314H18.554a4.2,4.2,0,0,0-4.229,4.222,1.686,1.686,0,0,1-1.679,1.693h-.007a1.685,1.685,0,0,1-1.686-1.679A7.575,7.575,0,0,1,18.5,11.573h29.8a8.774,8.774,0,0,1,5.727,2.239l8.938,8.936a8.209,8.209,0,0,1,2.465,5.768V69.78a7.585,7.585,0,0,1-7.543,7.6" transform="translate(1.357 1.434)" fill="#b3b4b4"/>
    <path id="Path_359815" data-name="Path 359815" d="M69.45,65.81l-.056-3.372a4.2,4.2,0,0,0,4.229-4.222V16.968a4.858,4.858,0,0,0-1.468-3.4L63.272,4.687a5.346,5.346,0,0,0-3.437-1.313H30.125A4.206,4.206,0,0,0,25.9,7.6a1.686,1.686,0,0,1-1.679,1.693H24.21A1.685,1.685,0,0,1,22.524,7.61,7.577,7.577,0,0,1,30.069,0a1.174,1.174,0,0,1,.169,0L59.865,0A8.774,8.774,0,0,1,65.591,2.24l8.938,8.936a8.214,8.214,0,0,1,2.466,5.768V58.209a7.575,7.575,0,0,1-7.545,7.6" transform="translate(2.79 0)" fill="#b3b4b4"/>
    <g id="accessibility" transform="translate(8.632 37.759)">
      <path id="Path_26" data-name="Path 26" d="M204.49,8.981A4.49,4.49,0,1,0,200,4.49,4.493,4.493,0,0,0,204.49,8.981Z" transform="translate(-187.804)" fill="#eb1000"/>
      <path id="Path_27" data-name="Path 27" d="M78.7,111.97l-.04.008-.032.008-.241.072c-1.491.441-8.732,2.478-13.84,2.478-4.739,0-11.33-1.764-13.439-2.365a5.981,5.981,0,0,0-.641-.208c-1.524-.4-2.566,1.147-2.566,2.558s1.259,2.069,2.526,2.55v.024l7.634,2.382c.778.3.986.6,1.091.866a7.79,7.79,0,0,1-.024,3.119l-.465,3.608-2.574,14.137-.024.12-.016.1a2.3,2.3,0,0,0,2.566,2.55c1.572,0,2.269-1.083,2.566-2.558,0,0,2.245-12.637,3.368-12.637s3.432,12.637,3.432,12.637c.3,1.475.994,2.558,2.566,2.558a2.3,2.3,0,0,0,2.566-2.558c-.016-.112-.04-.217-.064-.329L70.44,127.085l-.465-3.608c-.337-2.1-.064-2.8.024-2.959a.028.028,0,0,0,.008-.016,2.86,2.86,0,0,1,1.4-.866l7.161-2.5a.79.79,0,0,0,.128-.04c1.283-.481,2.566-1.147,2.566-2.558S80.223,111.569,78.7,111.97Z" transform="translate(-47.9 -102.925)" fill="#eb1000"/>
    </g>
  </g>
</svg>
