<svg xmlns="http://www.w3.org/2000/svg" width="22.6" height="21.747" viewBox="0 0 22.6 21.747"><defs><style>.a,.b{fill:#ce2783;}.a,.b,.c{fill-rule:evenodd;}.b{opacity:0.1;}.c{fill:rgba(206,39,131,0.6);}</style></defs><g transform="translate(-0.4 -1.127)"><path class="a" d="M9,6.986V13.2l2,1.84V6.986h4v4a2.006,2.006,0,0,0,2,2h4v7H12.66a3.175,3.175,0,0,1-.3.34l-.05.04-1.74,1.57a2.024,2.024,0,0,0,.43.05H21a2.006,2.006,0,0,0,2-2v-8a3.98,3.98,0,0,0-1.42-2.76l-2.79-2.82A4.044,4.044,0,0,0,16,4.986H11A2.006,2.006,0,0,0,9,6.986Zm8,.56,3.58,3.58H17V7.547Z"/><path class="b" d="M11,15.036V6.969h4v4a2.006,2.006,0,0,0,2,2l4,.017v7H12.66a7.321,7.321,0,0,0,1.164-1.452.806.806,0,0,0,0-.713A25.9,25.9,0,0,0,11,15.036Zm9.58-3.91H17V7.547Z"/><path class="c" d="M12,1.127H7a2.006,2.006,0,0,0-2,2v8.92a2.3,2.3,0,0,1,2-.26V3.127h4v1h2v-.58l.58.58h2.78l-1.57-1.58A4.044,4.044,0,0,0,12,1.127"/><path class="a" d="M5.06,17.067c.32.03.94.06.94.06v-3.28c0-.45.28-.66.6-.34l4.4,4.06a.809.809,0,0,1,0,1.15l-4.38,3.97c-.31.32-.62.22-.62-.23v-3.28a5.636,5.636,0,0,1-1.01,0A6.841,6.841,0,0,1,.4,16.807l1.53-1.53C2.9,16.207,3.44,16.927,5.06,17.067Z"/></g></svg>