<svg xmlns="http://www.w3.org/2000/svg" width="24.067" height="23.752" viewBox="0 0 24.067 23.752"><defs><style>.a,.b{fill:#5c5ce0;}.a{opacity:0.1;}</style></defs><path class="a" d="M12.027-4.554v1.567c0,.757.016,1.185-.646,1.185h-6.1Q4.64-1.8,1.668-4.8V-9.988H3.79a2.37,2.37,0,0,0,.583-.12,1.775,1.775,0,0,0,1.166-1.646V-14.2h5.328a1.175,1.175,0,0,1,1.166,1.185C12.029-7.512,12.027-4.554,12.027-4.554Z" transform="translate(13.7) rotate(180)"/><path class="b" d="M20,0a.6.6,0,0,1,.4.1l3.5,3.5c.1.1.1.2.1.4H20ZM10,18.023V11.6a.472.472,0,0,1,.5-.5h2a.472.472,0,0,1,.5.5v6.423h3.4c.6,0,.5.7.4.8l-4.9,4.8a.685.685,0,0,1-.8,0l-4.9-4.8c-.1-.1-.391-.8.5-.8Z"/><path class="b" d="M12.5,0a.472.472,0,0,0-.5.5v2L9.9.5A1.845,1.845,0,0,0,8.7,0H2.1A2.094,2.094,0,0,0,0,2V13.9a1.974,1.974,0,0,0,.6,1.4,1.974,1.974,0,0,0,1.4.6H7.756a.472.472,0,0,0,.5-.5v-.8a.472.472,0,0,0-.5-.5H2V2H8.7L12,5.1V9.5a.472.472,0,0,0,.5.5h2a.472.472,0,0,1,.5.5l.067,4.9a.472.472,0,0,0,.5.5h8a.472.472,0,0,0,.5-.5L24,5.1H19.6a.56.56,0,0,1-.6-.5V0Z"/><path class="b" d="M4.868,9.5a5.38,5.38,0,0,1-.33.44c-.053.063-.105.121-.156.173a.876.876,0,0,1-.511.324.164.164,0,0,1-.117-.042.235.235,0,0,1-.033-.038.161.161,0,0,1-.03-.083.186.186,0,0,1,0-.047.282.282,0,0,1,.015-.051.694.694,0,0,1,.163-.226q.03-.03.065-.061a4.536,4.536,0,0,1,1.1-.652Q4.953,9.377,4.868,9.5ZM8.707,8.343a2.612,2.612,0,0,1,.488.038.325.325,0,0,1,.267.188.232.232,0,0,1,.01.063.311.311,0,0,1-.006.074c-.025.131-.161.215-.346.215a.7.7,0,0,1-.073-.009A.623.623,0,0,1,8.964,8.9a2.541,2.541,0,0,1-.99-.5c.076-.012.149-.021.219-.028a4.859,4.859,0,0,1,.514-.028ZM7.232,8.188c-.2.041-.4.089-.6.143-.148.039-.3.082-.447.127.08-.163.153-.324.216-.477.084-.2.163-.405.235-.6.064.1.13.2.2.29s.134.181.2.266.139.167.211.245l-.017,0Zm-1.013-3.5.016-.022a.181.181,0,0,1,.142-.081.165.165,0,0,1,.106.035.462.462,0,0,1,.1.347,2.478,2.478,0,0,1-.033.376A6.115,6.115,0,0,1,6.411,6q-.024.089-.051.181A3.828,3.828,0,0,1,6.2,5.65a2.661,2.661,0,0,1-.06-.433,1.563,1.563,0,0,1,.014-.324.6.6,0,0,1,.064-.2ZM10.1,8.68a.584.584,0,0,0-.035-.148.528.528,0,0,0-.1-.173.8.8,0,0,0-.2-.153,2.164,2.164,0,0,0-1.031-.2c-.147,0-.3.007-.47.022s-.34.036-.523.064a4.927,4.927,0,0,1-.572-.668A6.085,6.085,0,0,1,6.8,6.871q.079-.249.139-.475c.023-.089.044-.173.063-.256q.04-.176.066-.335c.012-.073.023-.144.03-.212a2.865,2.865,0,0,0,.02-.326,1.1,1.1,0,0,0-.355-.9A.593.593,0,0,0,6.654,4.3a.69.69,0,0,0-.271-.052.519.519,0,0,0-.261.075.552.552,0,0,0-.2.2,1.2,1.2,0,0,0-.127.607,2.58,2.58,0,0,0,.023.3A4.2,4.2,0,0,0,6.158,6.58c-.033.1-.066.192-.1.288-.068.191-.141.383-.22.583-.04.1-.081.2-.124.3a10.52,10.52,0,0,1-.5,1.041A4.674,4.674,0,0,0,3.525,9.835a.767.767,0,0,0-.165.33.548.548,0,0,0-.008.133.5.5,0,0,0,.082.242.565.565,0,0,0,.088.1.588.588,0,0,0,.134.091l.038.018a.707.707,0,0,0,.124.042A.8.8,0,0,0,4,10.816a.94.94,0,0,0,.4-.1,1.567,1.567,0,0,0,.262-.158,3.016,3.016,0,0,0,.5-.482,6.075,6.075,0,0,0,.45-.615c.1-.162.2-.326.292-.485q.2-.07.411-.132c.138-.042.276-.081.415-.117l.088-.022c.271-.07.535-.13.784-.174q.071.062.141.117.139.111.274.2.067.044.133.082a2.422,2.422,0,0,0,1.216.362.9.9,0,0,0,.5-.121.539.539,0,0,0,.073-.057.494.494,0,0,0,.127-.191A.529.529,0,0,0,10.1,8.76.575.575,0,0,0,10.1,8.68Z"/></svg>