<svg xmlns="http://www.w3.org/2000/svg" width="35" height="35.612" viewBox="0 0 35 35.612"><defs><style>.a,.b{fill:#5c5ce0;}.b{fill-rule:evenodd;opacity:0.1;}</style></defs><g transform="translate(-1)"><path class="a" d="M14.516,0l.28.189A31.076,31.076,0,0,0,26.439,4.962l.582.1.115.025A1.158,1.158,0,0,1,28,6.175v11.5a7.393,7.393,0,0,0-1,.205V6.175a.176.176,0,0,0-.138-.124l-.588-.1A32.037,32.037,0,0,1,15,1.516V33.858l.408-.177A29.853,29.853,0,0,0,20,31.127v1.2a30.744,30.744,0,0,1-4.873,2.562l-.627.251-.627-.251a30.048,30.048,0,0,1-7.1-4.166C3.136,27.814,1,24.4,1,20.5V6.175a1.162,1.162,0,0,1,.978-1.111A30.924,30.924,0,0,0,14.237.19ZM14,1.54A31.953,31.953,0,0,1,2.138,6.051.176.176,0,0,0,2,6.175V20.5c0,3.551,1.976,6.7,5.394,9.442A29.059,29.059,0,0,0,14,33.859Z"/><path class="b" d="M14,34.114C11.742,33.153,2,28.88,2,20.5V6.175a.647.647,0,0,1,.515-.617A28.8,28.8,0,0,0,14,1.154Z"/><path class="a" d="M34.25,25.615h-.079a4.879,4.879,0,0,0,.079-.842,5.254,5.254,0,0,0-10.5,0,4.879,4.879,0,0,0,.079.842H23.75A1.718,1.718,0,0,0,22,27.3v6.629a1.718,1.718,0,0,0,1.75,1.684h10.5A1.718,1.718,0,0,0,36,33.928V27.3A1.718,1.718,0,0,0,34.25,25.615Zm-4.375,5.551v1.246a.687.687,0,0,1-.7.674h-.35a.687.687,0,0,1-.7-.674V31.166a1.662,1.662,0,0,1-.875-1.448,1.751,1.751,0,0,1,3.5,0A1.662,1.662,0,0,1,29.875,31.166Zm2.683-5.551H25.442a3.377,3.377,0,0,1-.117-.842,3.678,3.678,0,0,1,7.35,0A3.377,3.377,0,0,1,32.558,25.615Z"/></g></svg>