<?xml version="1.0" encoding="UTF-8"?>
<svg xmlns="http://www.w3.org/2000/svg" xmlns:xlink="http://www.w3.org/1999/xlink" width="22px" height="23px" viewBox="0 0 22 22" version="1.1">
<defs>
<filter id="alpha" filterUnits="objectBoundingBox" x="0%" y="0%" width="100%" height="100%">
  <feColorMatrix type="matrix" in="SourceGraphic" values="0 0 0 0 1 0 0 0 0 1 0 0 0 0 1 0 0 0 1 0"/>
</filter>
<mask id="mask0">
  <g filter="url(#alpha)">
<rect x="0" y="0" width="22" height="22" style="fill:rgb(0%,0%,0%);fill-opacity:0.101961;stroke:none;"/>
  </g>
</mask>
<clipPath id="clip1">
  <rect x="0" y="0" width="22" height="22"/>
</clipPath>
<g id="surface5" clip-path="url(#clip1)">
<path style=" stroke:none;fill-rule:evenodd;fill:rgb(36.078431%,36.078431%,87.843137%);fill-opacity:1;" d="M 8.171875 20.847656 C 6.753906 20.261719 0.628906 17.648438 0.628906 12.527344 L 0.628906 3.773438 C 0.632812 3.589844 0.765625 3.433594 0.953125 3.398438 C 3.53125 3.015625 5.992188 2.097656 8.171875 0.707031 Z M 8.171875 20.847656 "/>
</g>
</defs>
<g id="surface1">
<path style=" stroke:none;fill-rule:nonzero;fill:rgb(36.078431%,36.078431%,87.843137%);fill-opacity:1;" d="M 8.496094 0 L 8.671875 0.117188 C 10.882812 1.5625 13.371094 2.554688 15.988281 3.03125 L 16.355469 3.09375 L 16.429688 3.109375 C 16.742188 3.1875 16.960938 3.460938 16.972656 3.773438 L 16.972656 10.800781 C 16.757812 10.828125 16.550781 10.871094 16.34375 10.925781 L 16.34375 3.773438 C 16.332031 3.734375 16.296875 3.703125 16.257812 3.699219 L 15.886719 3.636719 C 13.367188 3.179688 10.964844 2.261719 8.800781 0.925781 L 8.800781 20.691406 L 9.054688 20.582031 C 10.0625 20.144531 11.03125 19.625 11.941406 19.023438 L 11.941406 19.753906 C 10.972656 20.367188 9.945312 20.890625 8.878906 21.320312 L 8.484375 21.472656 L 8.089844 21.320312 C 6.492188 20.675781 4.988281 19.820312 3.628906 18.773438 C 1.34375 16.996094 0 14.910156 0 12.527344 L 0 3.773438 C 0.0117188 3.433594 0.269531 3.148438 0.613281 3.09375 C 3.375 2.652344 6.003906 1.636719 8.320312 0.117188 Z M 8.171875 0.941406 C 5.902344 2.335938 3.367188 3.273438 0.714844 3.699219 C 0.675781 3.703125 0.640625 3.734375 0.628906 3.773438 L 0.628906 12.527344 C 0.628906 14.699219 1.871094 16.621094 4.019531 18.296875 C 5.289062 19.269531 6.683594 20.074219 8.171875 20.691406 Z M 8.171875 0.941406 "/>
<use xlink:href="#surface5" mask="url(#mask0)"/>
<path style=" stroke:none;fill-rule:nonzero;fill:rgb(36.078431%,36.078431%,87.843137%);fill-opacity:1;" d="M 20.898438 15.652344 L 20.851562 15.652344 C 20.882812 15.484375 20.898438 15.3125 20.898438 15.140625 C 20.832031 13.414062 19.375 12.054688 17.601562 12.054688 C 15.828125 12.054688 14.371094 13.414062 14.300781 15.140625 C 14.300781 15.3125 14.316406 15.484375 14.351562 15.652344 L 14.300781 15.652344 C 13.703125 15.644531 13.210938 16.105469 13.199219 16.683594 L 13.199219 20.734375 C 13.210938 21.3125 13.703125 21.773438 14.300781 21.761719 L 20.898438 21.761719 C 21.496094 21.773438 21.988281 21.3125 22 20.734375 L 22 16.683594 C 21.988281 16.105469 21.496094 15.644531 20.898438 15.652344 Z M 18.148438 19.046875 L 18.148438 19.808594 C 18.144531 20.039062 17.949219 20.222656 17.710938 20.21875 L 17.488281 20.21875 C 17.25 20.222656 17.054688 20.039062 17.050781 19.808594 L 17.050781 19.046875 C 16.714844 18.871094 16.503906 18.53125 16.5 18.160156 C 16.519531 17.585938 17.007812 17.128906 17.601562 17.128906 C 18.195312 17.128906 18.679688 17.585938 18.699219 18.160156 C 18.695312 18.53125 18.484375 18.871094 18.148438 19.046875 Z M 19.835938 15.652344 L 15.363281 15.652344 C 15.316406 15.484375 15.292969 15.3125 15.289062 15.140625 C 15.339844 13.933594 16.359375 12.980469 17.601562 12.980469 C 18.839844 12.980469 19.859375 13.933594 19.910156 15.140625 C 19.90625 15.3125 19.882812 15.484375 19.835938 15.652344 Z M 19.835938 15.652344 "/>
</g>
</svg>
