<svg xmlns="http://www.w3.org/2000/svg" xmlns:xlink="http://www.w3.org/1999/xlink" width="417" height="226" viewBox="0 0 417 226"><defs><style>.a{fill:#fff;}.b{clip-path:url(#a);}.c,.d{opacity:0.3;}.d,.e,.f,.g{fill:none;}.e{opacity:0.45;}.f{opacity:0.6;}.g{opacity:0.7;}.h,.i{stroke:none;}.i{fill:#707070;}</style><clipPath id="a"><rect class="a" width="417" height="226" transform="translate(320 2236)"/></clipPath></defs><g class="b" transform="translate(-320 -2236)"><g class="c" transform="translate(-996 -150.943)"><g class="d" transform="translate(1524.656 2284.943) rotate(45)"><path class="h" d="M72.652,72.652,295.024,0,222.371,222.371,0,295.024Z"/><path class="i" d="M 292.6797485351562 2.34381103515625 L 73.84190368652344 73.84194946289062 L 2.34381103515625 292.6797485351562 L 221.1815795898438 221.1816101074219 L 292.6797485351562 2.34381103515625 M 295.0235595703125 0 L 222.3710021972656 222.3710479736328 L 0 295.0235595703125 L 72.6524658203125 72.65251159667969 L 295.0235595703125 0 Z"/></g><g class="e" transform="translate(1524.656 2335.981) rotate(45)"><path class="h" d="M72.652,72.652,295.024,0,222.371,222.371,0,295.024Z"/><path class="i" d="M 292.6797485351562 2.34381103515625 L 73.84190368652344 73.84194946289062 L 2.34381103515625 292.6797485351562 L 221.1815795898438 221.1816101074219 L 292.6797485351562 2.34381103515625 M 295.0235595703125 0 L 222.3710021972656 222.3710479736328 L 0 295.0235595703125 L 72.6524658203125 72.65251159667969 L 295.0235595703125 0 Z"/></g><g class="f" transform="translate(1524.656 2388.264) rotate(45)"><path class="h" d="M72.652,72.652,295.024,0,222.371,222.371,0,295.024Z"/><path class="i" d="M 292.6797485351562 2.34381103515625 L 73.84190368652344 73.84194946289062 L 2.34381103515625 292.6797485351562 L 221.1815795898438 221.1816101074219 L 292.6797485351562 2.34381103515625 M 295.0235595703125 0 L 222.3710021972656 222.3710479736328 L 0 295.0235595703125 L 72.6524658203125 72.65251159667969 L 295.0235595703125 0 Z"/></g><g class="g" transform="translate(1524.656 2439.302) rotate(45)"><path class="h" d="M72.652,72.652,295.024,0,222.371,222.371,0,295.024Z"/><path class="i" d="M 292.6797485351562 2.34381103515625 L 73.84190368652344 73.84194946289062 L 2.34381103515625 292.6797485351562 L 221.1815795898438 221.1816101074219 L 292.6797485351562 2.34381103515625 M 295.0235595703125 0 L 222.3710021972656 222.3710479736328 L 0 295.0235595703125 L 72.6524658203125 72.65251159667969 L 295.0235595703125 0 Z"/></g></g></g></svg>