<svg xmlns="http://www.w3.org/2000/svg" xmlns:xlink="http://www.w3.org/1999/xlink" width="77.465" height="90" viewBox="0 0 77.465 90">
  <defs>
    <clipPath id="clip-path">
      <rect id="Rectangle_216998" data-name="Rectangle 216998" width="77.465" height="90" fill="none"/>
    </clipPath>
    <clipPath id="clip-path-2">
      <rect id="Rectangle_216996" data-name="Rectangle 216996" width="25.473" height="16.967" fill="none"/>
    </clipPath>
  </defs>
  <g id="_3_Tailored_tagging_report_Icon" data-name="3_Tailored tagging report Icon" transform="translate(0 0)">
    <g id="Group_187345" data-name="Group 187345" transform="translate(0 0)" clip-path="url(#clip-path)">
      <path id="Path_357931" data-name="Path 357931" d="M28.935,42.788a1.692,1.692,0,0,0-.1-.43,1.531,1.531,0,0,0-.3-.5,2.33,2.33,0,0,0-.578-.441,6.279,6.279,0,0,0-2.988-.573c-.427,0-.883.02-1.363.063s-.986.1-1.515.188a14.277,14.277,0,0,1-1.659-1.936,17.435,17.435,0,0,1-1.038-1.612q.23-.723.4-1.378c.067-.255.127-.5.182-.742q.117-.512.193-.972c.036-.213.066-.42.088-.615a7.917,7.917,0,0,0,.058-.944,3.175,3.175,0,0,0-1.027-2.606,1.855,1.855,0,0,0-.333-.191,2.017,2.017,0,0,0-.786-.15,1.512,1.512,0,0,0-.756.216,1.607,1.607,0,0,0-.57.567,3.5,3.5,0,0,0-.368,1.759,7.247,7.247,0,0,0,.066.864,12.209,12.209,0,0,0,.975,3.351c-.094.279-.189.556-.29.833-.2.556-.407,1.113-.637,1.691-.114.288-.233.582-.36.883a30.7,30.7,0,0,1-1.453,3.016c-1.312.529-3.824,1.669-4.9,3.015A2.235,2.235,0,0,0,9.4,47.1a1.571,1.571,0,0,0-.023.384,1.434,1.434,0,0,0,.238.7,1.612,1.612,0,0,0,.255.3,1.783,1.783,0,0,0,.39.265c.034.017.07.034.11.052a2.1,2.1,0,0,0,.358.122,2.323,2.323,0,0,0,.54.061,2.7,2.7,0,0,0,1.157-.28,4.452,4.452,0,0,0,.759-.459,8.689,8.689,0,0,0,1.45-1.4,17.762,17.762,0,0,0,1.306-1.783c.3-.47.587-.944.847-1.406q.592-.2,1.193-.384c.4-.122.8-.236,1.2-.341.086-.023.169-.039.255-.063.786-.2,1.551-.376,2.275-.5.136.119.272.232.407.338q.4.322.794.573c.13.085.257.164.384.238a7.026,7.026,0,0,0,3.525,1.05,2.6,2.6,0,0,0,1.446-.351,1.659,1.659,0,0,0,.211-.164,1.42,1.42,0,0,0,.366-.554,1.545,1.545,0,0,0,.1-.476,1.981,1.981,0,0,0,0-.236M17.688,31.223c.014-.022.03-.042.045-.063a.529.529,0,0,1,.412-.235.484.484,0,0,1,.307.1,1.334,1.334,0,0,1,.3,1.007,7.243,7.243,0,0,1-.1,1.089,18.136,18.136,0,0,1-.412,1.894c-.047.172-.1.348-.149.526a11.034,11.034,0,0,1-.463-1.54,7.737,7.737,0,0,1-.175-1.257,4.582,4.582,0,0,1,.041-.938,1.763,1.763,0,0,1,.186-.587m2.938,10.137c-.568.119-1.155.258-1.753.415-.427.114-.863.238-1.3.369.232-.471.443-.939.628-1.384.243-.587.471-1.176.681-1.75q.277.434.571.842c.194.271.39.524.59.772s.4.485.61.711l-.05.011Zm4.275.451a7.646,7.646,0,0,1,1.415.11.945.945,0,0,1,.775.545.658.658,0,0,1,.03.182.9.9,0,0,1-.017.214c-.074.379-.466.625-1,.625-.072-.006-.142-.014-.213-.027a1.814,1.814,0,0,1-.241-.031,7.349,7.349,0,0,1-2.871-1.453c.219-.033.432-.061.634-.083a14.855,14.855,0,0,1,1.492-.08ZM13.77,45.169a15.5,15.5,0,0,1-.958,1.276q-.232.272-.452.5a2.533,2.533,0,0,1-1.482.939.481.481,0,0,1-.34-.122.715.715,0,0,1-.1-.11.464.464,0,0,1-.086-.243.488.488,0,0,1,.009-.135.828.828,0,0,1,.042-.147,1.991,1.991,0,0,1,.474-.657c.058-.058.121-.117.188-.177a13.14,13.14,0,0,1,3.2-1.891q-.247.406-.493.767Z" transform="translate(-0.656 9.817)" fill="#fa0f00"/>
      <path id="Path_357932" data-name="Path 357932" d="M61.244,59.487l-.146,0H26.654a6.316,6.316,0,0,1-4.593-2A7.159,7.159,0,0,1,20.1,52.622c0-.009,0-.017,0-.025V6.888A6.7,6.7,0,0,1,26.572,0H52.89a6.652,6.652,0,0,1,4.858,2.176l7.743,7.933a7.015,7.015,0,0,1,2.248,5.236V52.423a6.747,6.747,0,0,1-6.328,7.061Q61.327,59.487,61.244,59.487ZM26.719,56.354h34.4l.121,0,.087,0a3.439,3.439,0,0,0,2.488-1.174,3.9,3.9,0,0,0,.98-2.7c0-.013,0-.025,0-.038v-37.1s0-.006,0-.009a3.8,3.8,0,0,0-1.24-2.863q-.038-.034-.073-.07L55.693,4.415l-.034-.036a3.781,3.781,0,0,0-2.77-1.248H26.572a3.652,3.652,0,0,0-3.529,3.757V52.583a3.745,3.745,0,0,0,3.61,3.771h.065Z" transform="translate(9.724 0.774)" fill="#b3b4b4"/>
      <path id="Path_357933" data-name="Path 357933" d="M7.961,47.074h0a14.381,14.381,0,0,1,2.818-.157c2.974,0,4.07,1.565,4.07,3.444,0,2.5-1.878,3.6-4.227,3.6H9.682v3.287a.157.157,0,0,1-.157.157H7.961c-.157,0-.157,0-.157-.157V47.074Zm1.878,5.009h.939c1.252,0,2.348-.47,2.348-1.878,0-1.1-.783-1.878-2.192-1.878h-1.1Zm7.2-5.009h0a13.613,13.613,0,0,1,2.974-.157c3.6,0,5.322,2.035,5.322,5.009a5.061,5.061,0,0,1-4.785,5.322,5.122,5.122,0,0,1-.537,0H17.2a.157.157,0,0,1-.157-.157Zm1.878,8.453h.939a3.3,3.3,0,0,0,3.472-3.118,3.352,3.352,0,0,0-.028-.639,3.131,3.131,0,0,0-3.444-3.444h-1.1v7.2Zm10.645,1.565h0l-1.722.157a.157.157,0,0,1-.157-.157V47.074a.157.157,0,0,1,.157-.157h5.792c.157,0,.157,0,.157.157l.157,1.409c0,.157,0,.157-.157.157H29.563v2.818H33.32c.157,0,.157,0,.157.157v1.409a.157.157,0,0,1-.157.157H29.563Z" transform="translate(4.412 21.026)" fill="#b3b4b4"/>
      <path id="Path_357934" data-name="Path 357934" d="M6.842,82.484A6.852,6.852,0,0,1,0,75.7s0-.009,0-.013V29.9A6.854,6.854,0,0,1,6.787,23H6.8l18.1.034a1.565,1.565,0,1,1,0,3.131l-18.1-.034a3.719,3.719,0,0,0-3.676,3.744s0,.008,0,.013V75.677a3.717,3.717,0,0,0,3.743,3.676H42.193a3.711,3.711,0,0,0,3.673-3.743s0-.009,0-.013l-.4-18.355a1.565,1.565,0,0,1,3.131,0l.4,18.35a6.842,6.842,0,0,1-6.783,6.893H6.842Z" transform="translate(0 7.516)" fill="#b3b4b4"/>
      <path id="Path_357935" data-name="Path 357935" d="M14.139,16.051a1.236,1.236,0,0,1-.874-2.11L17.83,9.375,13.265,4.81a1.236,1.236,0,0,1,1.748-1.748l5.031,5.031a1.788,1.788,0,0,1,.228.24l.018.024a1.706,1.706,0,0,1-.25,2.3l-5.027,5.027A1.232,1.232,0,0,1,14.139,16.051Z" transform="translate(4.376 4.62)" fill="#b3b4b4"/>
      <path id="Path_357936" data-name="Path 357936" d="M3.739,21.958A1.236,1.236,0,0,1,2.5,20.721,12.72,12.72,0,0,1,7.17,10.989,17.67,17.67,0,0,1,18.7,7h1.854a1.236,1.236,0,1,1,0,2.472H18.7a15.2,15.2,0,0,0-9.921,3.4,10.286,10.286,0,0,0-3.8,7.852A1.236,1.236,0,0,1,3.739,21.958Z" transform="translate(1.92 5.636)" fill="#b3b4b4"/>
      <g id="Group_187344" data-name="Group 187344" transform="translate(40.909 12.875)" style="isolation: isolate">
        <g id="Group_187343" data-name="Group 187343" transform="translate(0.001 0)">
          <g id="Group_187342" data-name="Group 187342" clip-path="url(#clip-path-2)">
            <text id="XLS" transform="translate(0.203 12.183)" fill="#b3b4b4" font-size="14" font-family="AdobeClean-ExtraBold, Adobe Clean" font-weight="800"><tspan x="0" y="0" letter-spacing="0.006em">X</tspan><tspan y="0" letter-spacing="0.02em">L</tspan><tspan y="0">S</tspan></text>
          </g>
        </g>
      </g>
      <path id="Rectangle_216997" data-name="Rectangle 216997" d="M.4-.711H26.955A1.112,1.112,0,0,1,28.068.4V19.579a1.112,1.112,0,0,1-1.112,1.112H.4A1.112,1.112,0,0,1-.711,19.579V.4A1.112,1.112,0,0,1,.4-.711ZM25.843,1.514H1.514V18.467H25.843Z" transform="translate(39.967 32.627)" fill="#b3b4b4"/>
      <path id="Line_1" data-name="Line 1" d="M26.855,1.136H.3A.834.834,0,1,1,.3-.533H26.855a.834.834,0,1,1,0,1.669Z" transform="translate(40.068 38.627)" fill="#b3b4b4"/>
      <path id="Line_2" data-name="Line 2" d="M26.855,1.136H.3A.834.834,0,1,1,.3-.533H26.855a.834.834,0,1,1,0,1.669Z" transform="translate(40.068 43.052)" fill="#b3b4b4"/>
      <path id="Line_3" data-name="Line 3" d="M26.855,1.136H.3A.834.834,0,1,1,.3-.533H26.855a.834.834,0,1,1,0,1.669Z" transform="translate(40.068 47.479)" fill="#b3b4b4"/>
      <path id="Line_4" data-name="Line 4" d="M.3,14.413a.834.834,0,0,1-.834-.834V.3A.834.834,0,0,1,1.136.3V13.579A.834.834,0,0,1,.3,14.413Z" transform="translate(57.769 38.627)" fill="#b3b4b4"/>
      <path id="Line_5" data-name="Line 5" d="M.3,14.413a.834.834,0,0,1-.834-.834V.3A.834.834,0,0,1,1.136.3V13.579A.834.834,0,0,1,.3,14.413Z" transform="translate(48.919 38.627)" fill="#b3b4b4"/>
    </g>
  </g>
</svg>
