<svg version="1.1" xmlns="http://www.w3.org/2000/svg" x="0px" y="0px" width="18" height="21" viewBox="0 0 18 21" style="enable-background:new 0 0 23 23.6;">
    <style type="text/css">
        .st0 { fill: #D7373F; }
    </style>
    <path class="st0" d="M30.8,25.9H16.6c-0.5-2.3-2.8-3.6-5-3.2c-1.5,0.4-3,1.5-3.4,3.2H4.1c-0.2,0-0.4,0.2-0.4,0.4v1.1
        c0,0.2,0.2,0.4,0.4,0.4h4.2c0.5,2.3,2.8,3.6,5,3.2c1.5-0.4,3-1.5,3.4-3.2h14.2c0.2,0,0.4-0.2,0.4-0.4v-1.1
        C31.2,26.2,31,25.9,30.8,25.9z M12.5,29.3c-1.2,0-2.4-1.1-2.4-2.4c0-1.2,1.1-2.4,2.4-2.4c1.3,0,2.4,1.2,2.4,2.4
        C14.9,28.1,13.8,29.3,12.5,29.3z"/>
    <path class="st0" d="M30.8,7.1H16.6c-0.5-2.3-2.8-3.6-5-3.2c-1.5,0.4-2.9,1.5-3.4,3.2H4.1c-0.2,0-0.4,0.2-0.4,0.4v1.1
        C3.7,8.8,3.9,9,4.1,9h4.2c0.5,2.3,2.8,3.6,5,3.2c1.5-0.4,3-1.5,3.4-3.2h14.2c0.2,0,0.4-0.2,0.4-0.4V7.5C31.2,7.3,31,7.1,30.8,7.1z
         M12.5,10.5c-1.2,0-2.4-1.1-2.4-2.4c0-1.2,1.1-2.4,2.4-2.4c1.3,0,2.4,1.2,2.4,2.4S13.8,10.5,12.5,10.5z"/>
    <path class="st0" d="M4.1,18.4h14.2c0.5,2.3,2.8,3.6,5,3.2c1.5-0.4,3-1.5,3.4-3.2h4.2c0.2,0,0.4-0.2,0.4-0.4v-1.1
        c0-0.2-0.2-0.4-0.4-0.4h-4.2c-0.5-2.3-2.8-3.6-5-3.2c-1.5,0.4-3,1.5-3.4,3.2H4.1c-0.2,0-0.4,0.2-0.4,0.4V18
        C3.7,18.2,3.9,18.4,4.1,18.4z M22.5,15.1c1.2,0,2.4,1.1,2.4,2.4c0,1.2-1.1,2.4-2.4,2.4c-1.3,0-2.4-1.2-2.4-2.4
        C20.1,16.3,21.1,15.1,22.5,15.1z"/>
</svg>
