<svg xmlns="http://www.w3.org/2000/svg" width="73.5" height="80.383" viewBox="0 0 73.5 80.383"><defs><style>.a,.c{fill:#f00c00;}.b{fill:#b3b3b3;}.c{fill-rule:evenodd;}</style></defs><g transform="translate(-188 -428)"><path class="a" d="M1239.758,673.383a.994.994,0,0,1-.787-.391l-7.881-10.309a1,1,0,0,1,.038-1.253l4.787-5.541a1.05,1.05,0,0,1,.771-.345,1,1,0,0,1,.773.391l12.1,15.885a.994.994,0,0,1-.79,1.6Zm-6.6-11.266,7.094,9.279,6.506.025-10.143-13.306Z" transform="translate(-1001.25 -181.971)"/><path class="b" d="M1190.244,681.645a1,1,0,0,1-.994-1v-1h1.988v2Z" transform="translate(-1001.25 -181.971)"/><path class="b" d="M1189.25,618.182v-1a1,1,0,0,1,.994-1h.994v2Z" transform="translate(-1001.25 -181.971)"/><path class="b" d="M1212.239,681.645v-2h1.9v2Zm-4.568,0v-2h1.915v2Zm-4.578,0v-2h1.927v2Zm-4.568,0v-2h1.927v2Zm-4.566,0v-2h1.927v2Z" transform="translate(-1001.25 -181.971)"/><path class="b" d="M1189.255,640.2v-2.377h1.976V640.2Zm0-5.478v-2.389h1.976v2.389Zm0-5.491v-2.375h1.976v2.375Zm0-5.49v-2.376h1.976v2.376Z" transform="translate(-1001.25 -181.971)"/><path class="b" d="M1189.255,661.459v-2.377h1.976v2.377Zm0-5.478v-2.389h1.976v2.389Zm0-5.491v-2.376h1.976v2.376Zm0-5.49v-2.376h1.976V645Z" transform="translate(-1001.25 -181.971)"/><path class="b" d="M1189.255,677.242v-2.389h1.976v2.389Zm0-5.491v-2.376h1.976v2.376Zm0-5.49v-2.376h1.976v2.376Z" transform="translate(-1001.25 -181.971)"/><path class="b" d="M1212.226,618.174v-1.988h1.915v1.988Zm-4.567,0v-1.988h1.914v1.988Zm-4.566,0v-1.988h1.914v1.988Zm-4.579,0v-1.988h1.926v1.988Zm-4.555,0v-1.988h1.914v1.988Z" transform="translate(-1001.25 -181.971)"/><path class="b" d="M1222.186,681.645v-1.989h38.576V618.182h-38.576v-1.989h40.564v65.452Z" transform="translate(-1001.25 -181.971)"/><path class="b" d="M1218.2,690.354a1,1,0,0,1-.995-.994V610.965a.995.995,0,0,1,1.989,0V689.36A1,1,0,0,1,1218.2,690.354Z" transform="translate(-1001.25 -181.971)"/><path class="a" d="M1222.328,673.349V671.36l15.444.061-13.632-17.83-1.812,2.091v-3.037l1.109-1.28a1.029,1.029,0,0,1,.772-.343,1,1,0,0,1,.77.391l15.6,20.4a1,1,0,0,1-.791,1.6Z" transform="translate(-1001.25 -181.971)"/><path class="c" d="M1222.328,641.458s.239-.363.334-.516l-.1.092-.1-.476h-.054l-.074.033v-.849c.319-.138.616-.263.875-.368l.082-.033.043-.077a39.468,39.468,0,0,0,1.9-3.942c.64-1.532,1.172-2.941,1.675-4.434l.031-.093-.04-.089c-1.362-3.069-1.717-6.093-.885-7.523a1.8,1.8,0,0,1,1.51-.892c1.861,0,2.527,1.846,2.527,3.572a20.968,20.968,0,0,1-1.183,5.95l-.038.109.056.1a23.312,23.312,0,0,0,1.356,2.115,18.875,18.875,0,0,0,2.181,2.548l.091.088.125-.02a23.955,23.955,0,0,1,3.7-.321c2.181,0,3.675.416,4.439,1.236a1.883,1.883,0,0,1,.352,1.875c-.3.8-1.124,1.222-2.39,1.222a9.918,9.918,0,0,1-6.454-2.784l-.091-.088-.125.022c-1.028.18-2.139.427-3.3.736-1.064.283-2.114.6-3.123.944l-.09.03-.047.083a24.822,24.822,0,0,1-3.172,4.561Zm13.919-4.273a18.959,18.959,0,0,0-2.789.214l-.552.084.431.356a9.87,9.87,0,0,0,3.817,1.94,2.683,2.683,0,0,0,.65.081,1.445,1.445,0,0,0,1.545-1.012c.152-.775-.29-1.326-1.211-1.517a10.155,10.155,0,0,0-1.728-.147Zm-8.036-3.463c-.273.741-.566,1.5-.881,2.259-.236.572-.51,1.176-.807,1.781l-.253.517.551-.168c.561-.171,1.121-.329,1.673-.476.768-.2,1.53-.382,2.258-.536l.427-.09-.235-.336a21.831,21.831,0,0,1-1.555-1.92c-.251-.348-.493-.709-.734-1.081l-.272-.417Zm-1.539-10.148c-.493.842-.543,3.023.514,5.822l.252.667.219-.678a18.2,18.2,0,0,0,.866-4.615c0-1.484-.652-1.7-1.041-1.7a.966.966,0,0,0-.815.52Z" transform="translate(-1001.25 -181.971)"/><path class="b" d="M1209.805,657.879a4.181,4.181,0,0,1-.452-.024l-.533-.055.3-1.717.459.042c.071.007.144.009.215.009a2.626,2.626,0,0,0,1.108-.247l.415-.2.874,1.506-.479.238a4.335,4.335,0,0,1-1.9.445Zm-2.375-.715a4.286,4.286,0,0,1-1.547-1.828l-.217-.487,1.631-.6.195.417a2.56,2.56,0,0,0,.87,1.026l.379.262-.868,1.508Zm4.192-1.733.265-.376a2.562,2.562,0,0,0,.459-1.268l.035-.445,1.743-.055-.035.549a4.326,4.326,0,0,1-.818,2.281l-.316.432Zm-6.1-2.112a4.283,4.283,0,0,1,.805-2.246l.313-.431,1.34,1.106-.262.378a2.567,2.567,0,0,0-.451,1.254l-.037.452-1.743.027Zm6.593-.825a2.557,2.557,0,0,0-.875-1.021l-.38-.258.856-1.518.447.294a4.293,4.293,0,0,1,1.557,1.819l.221.486-1.627.615Zm-4.714-2.508.481-.239a4.407,4.407,0,0,1,1.946-.454c.137,0,.273.006.407.019l.532.052-.285,1.715-.456-.034c-.065-.005-.129-.008-.195-.008a2.655,2.655,0,0,0-1.133.252l-.413.2Z" transform="translate(-1001.25 -181.971)"/><rect class="b" width="1.744" height="1.745" transform="matrix(0.648, -0.762, 0.762, 0.648, 211.445, 481.813)"/><path class="b" d="M1207.628,669.747l1.591-1.873,1.327,1.133-1.591,1.873Zm2.532-2.979,1.591-1.873,1.33,1.129-1.591,1.873Z" transform="translate(-1001.25 -181.971)"/><path class="b" d="M1204.5,673.434l2.189-2.576,1.191,1.014v1.563Z" transform="translate(-1001.25 -181.971)"/><rect class="b" width="2.159" height="1.744" transform="translate(207.784 489.718)"/><rect class="b" width="1.744" height="1.744" transform="translate(211.104 489.718)"/></g></svg>