<svg xmlns="http://www.w3.org/2000/svg" width="25.655" height="22.4" viewBox="0 0 25.655 22.4"><defs><style>.a{fill:#b130bd;}</style></defs><g transform="translate(-756 -566)"><path class="a" d="M767.472,582.262v-.909a1.456,1.456,0,0,1,1.453-1.454h.511a5.912,5.912,0,0,1,.282-.69l-.367-.368a1.452,1.452,0,0,1,0-2.059l.3-.3v-.671a.86.86,0,0,1,.214-.559A6.785,6.785,0,0,0,771.428,571c0-3.206-1.7-5-4.272-5s-4.318,1.862-4.318,5a6.866,6.866,0,0,0,1.629,4.255.854.854,0,0,1,.211.556v1.284a.882.882,0,0,1-.77.89c-4.908,0-5.285,5.083-5.285,5.083h9.093A1.444,1.444,0,0,1,767.472,582.262Z"/><path class="a" d="M781.2,580.9H779.92a4.918,4.918,0,0,0-.759-1.856l.909-.909a.453.453,0,0,0,0-.641v0l-.69-.689a.452.452,0,0,0-.64,0h0l-.909.909a4.918,4.918,0,0,0-1.856-.759V575.67a.453.453,0,0,0-.453-.453h-.91a.453.453,0,0,0-.453.453h0v1.282a4.93,4.93,0,0,0-1.857.759l-.906-.909a.453.453,0,0,0-.641,0h0l-.7.689a.453.453,0,0,0,0,.641v0l.909.909a4.919,4.919,0,0,0-.759,1.856h-1.282a.453.453,0,0,0-.453.454v.909a.453.453,0,0,0,.453.453h1.282a4.931,4.931,0,0,0,.759,1.857l-.909.911a.453.453,0,0,0,0,.641h0v0l.69.689a.453.453,0,0,0,.64,0l0,0,.909-.909a4.918,4.918,0,0,0,1.856.759v1.282a.453.453,0,0,0,.453.453h.91a.453.453,0,0,0,.453-.453v-1.282a4.93,4.93,0,0,0,1.857-.759l.908.909a.454.454,0,0,0,.641,0h0l0,0,.689-.689a.454.454,0,0,0,0-.641l0,0-.909-.908a4.914,4.914,0,0,0,.759-1.857H781.2a.453.453,0,0,0,.453-.453v-.91a.454.454,0,0,0-.45-.456h0Zm-4.32.91a1.819,1.819,0,1,1-1.818-1.819h0A1.818,1.818,0,0,1,776.882,581.809Z"/><path class="a" d="M763.679,576.986v-1.177a7.566,7.566,0,0,1-1.841-4.784,6.088,6.088,0,0,1,2.139-4.982A4.328,4.328,0,0,0,763.5,566c-2.26,0-3.8,1.636-3.8,4.393a6.04,6.04,0,0,0,1.432,3.74.746.746,0,0,1,.186.489v1.128a.777.777,0,0,1-.677.783C756.331,576.533,756,581,756,581h2.093A5.919,5.919,0,0,1,763.679,576.986Z"/></g></svg>