<svg xmlns="http://www.w3.org/2000/svg" width="18.286" height="20.668" viewBox="0 0 18.286 20.668"><defs><style>.a,.b{fill:#44b556;}.b{opacity:0.15;}</style></defs><g transform="translate(-709.732 -460.997)"><rect class="a" width="18.286" height="1.076" rx="0.269" transform="translate(709.732 480.589)"/><rect class="a" width="4.275" height="3.918" transform="translate(711.038 475.364)"/><rect class="a" width="4.275" height="9.143" transform="translate(722.438 470.14)"/><rect class="a" width="4.275" height="6.531" transform="translate(716.738 472.752)"/><path class="b" d="M721.013,466.874v4.572h-4.275v-4.572a.685.685,0,0,1,.712-.653h2.85A.685.685,0,0,1,721.013,466.874Z"/><path class="b" d="M726.712,461.65v7.184h-4.275V461.65a.685.685,0,0,1,.713-.653H726A.684.684,0,0,1,726.712,461.65Z"/><path class="b" d="M715.313,472.1v1.959h-4.275V472.1a.685.685,0,0,1,.713-.653H714.6A.685.685,0,0,1,715.313,472.1Z"/></g></svg>