<?xml version="1.0" encoding="UTF-8"?>
<svg xmlns="http://www.w3.org/2000/svg" xmlns:xlink="http://www.w3.org/1999/xlink" width="22px" height="22px" viewBox="0 0 22 22" version="1.1">
<defs>
<filter id="alpha" filterUnits="objectBoundingBox" x="0%" y="0%" width="100%" height="100%">
  <feColorMatrix type="matrix" in="SourceGraphic" values="0 0 0 0 1 0 0 0 0 1 0 0 0 0 1 0 0 0 1 0"/>
</filter>
<mask id="mask0">
  <g filter="url(#alpha)">
<rect x="0" y="0" width="22" height="22" style="fill:rgb(0%,0%,0%);fill-opacity:0.101961;stroke:none;"/>
  </g>
</mask>
<clipPath id="clip1">
  <rect x="0" y="0" width="22" height="22"/>
</clipPath>
<g id="surface5" clip-path="url(#clip1)">
<path style=" stroke:none;fill-rule:nonzero;fill:rgb(84.313725%,21.568627%,24.705882%);fill-opacity:1;" d="M 14.289062 0.609375 C 14.53125 0.609375 14.761719 0.707031 14.933594 0.878906 L 18.0625 3.996094 C 18.234375 4.167969 18.332031 4.402344 18.332031 4.644531 L 18.332031 11.960938 L 17.117188 13.507812 L 15.5 11.378906 L 15.382812 11.214844 C 14.808594 10.460938 13.992188 10.078125 13.007812 10.625 L 12.925781 10.671875 L 12.851562 10.726562 L 12.753906 10.808594 C 12.023438 11.441406 11.964844 12.277344 12.375 13.039062 L 12.441406 13.160156 L 12.632812 13.472656 C 12.777344 13.714844 12.953125 13.976562 13.152344 14.265625 L 13.410156 14.632812 L 14.628906 16.304688 L 14.527344 16.5 L 14.421875 16.6875 C 14.363281 16.683594 14.304688 16.679688 14.25 16.679688 C 12.800781 16.679688 11.578125 17.632812 11.15625 18.945312 L 4.890625 18.945312 C 4.214844 18.945312 3.667969 18.398438 3.667969 17.722656 L 3.667969 1.832031 C 3.667969 1.160156 4.214844 0.609375 4.890625 0.609375 Z M 14.289062 0.609375 "/>
</g>
</defs>
<g id="surface1">
<path style=" stroke:none;fill-rule:nonzero;fill:rgb(84.313725%,21.568627%,24.705882%);fill-opacity:1;" d="M 14.054688 0 C 14.421875 0 14.851562 0.183594 15.15625 0.429688 L 18.511719 3.851562 C 18.757812 4.15625 18.941406 4.523438 18.941406 4.949219 L 18.941406 11.164062 L 18.886719 11.238281 L 18.765625 11.414062 L 18.332031 11.964844 C 18.332031 8.957031 18.328125 6.910156 18.328125 5.820312 L 18.328125 4.890625 L 14.972656 4.890625 C 14.484375 4.890625 14.054688 4.460938 14.054688 3.972656 L 14.054688 0.609375 L 4.890625 0.609375 C 4.214844 0.609375 3.667969 1.160156 3.667969 1.832031 L 3.667969 17.722656 C 3.667969 18.394531 4.214844 18.945312 4.890625 18.945312 L 11.15625 18.945312 C 11.09375 19.140625 11.050781 19.34375 11.023438 19.554688 L 4.890625 19.554688 C 3.851562 19.554688 3.054688 18.761719 3.054688 17.722656 L 3.054688 1.832031 C 3.054688 0.792969 3.851562 0 4.890625 0 Z M 14.667969 0.867188 L 14.667969 3.972656 C 14.667969 4.15625 14.789062 4.277344 14.972656 4.277344 L 18.023438 4.277344 Z M 14.667969 0.867188 "/>
<use xlink:href="#surface5" mask="url(#mask0)"/>
<path style=" stroke:none;fill-rule:nonzero;fill:rgb(84.313725%,21.568627%,24.705882%);fill-opacity:1;" d="M 16.496094 14.707031 L 14.558594 12.164062 C 14.371094 11.910156 14.101562 11.414062 13.601562 11.695312 C 13.144531 12.050781 13.398438 12.375 13.597656 12.710938 C 14.183594 13.699219 15.253906 15.046875 15.765625 15.796875 C 15.960938 16.078125 15.949219 16.523438 15.75 16.800781 C 15.523438 17.238281 15.246094 17.707031 15.003906 18.054688 C 14.769531 17.953125 14.515625 17.902344 14.25 17.902344 C 13.128906 17.902344 12.222656 18.820312 12.222656 19.953125 C 12.222656 21.082031 13.128906 22 14.25 22 C 15.363281 22 16.269531 21.082031 16.269531 19.953125 C 16.269531 19.566406 16.167969 19.210938 15.984375 18.902344 C 16.125 18.351562 16.300781 18.011719 16.511719 17.59375 C 16.824219 16.886719 17.394531 16.886719 17.710938 17.59375 C 17.921875 18.011719 18.019531 18.335938 18.238281 18.902344 C 18.054688 19.210938 17.953125 19.566406 17.953125 19.953125 C 17.953125 21.082031 18.859375 22 19.972656 22 C 21.09375 22 22 21.082031 22 19.953125 C 22 18.820312 21.09375 17.902344 19.972656 17.902344 C 19.707031 17.902344 19.453125 17.953125 19.21875 18.054688 C 18.992188 17.609375 18.765625 17.273438 18.558594 16.835938 C 18.410156 16.527344 18.261719 16.078125 18.457031 15.796875 C 18.96875 15.046875 20.117188 13.6875 20.703125 12.699219 C 20.898438 12.363281 21.105469 12.050781 20.644531 11.695312 C 20.144531 11.414062 19.925781 11.90625 19.738281 12.152344 L 17.726562 14.707031 C 17.125 15.546875 17.066406 15.519531 16.496094 14.707031 Z M 14.25 18.847656 C 14.851562 18.847656 15.28125 19.273438 15.28125 19.882812 C 15.28125 20.488281 14.851562 21.0625 14.25 21.0625 C 13.644531 21.0625 13.152344 20.5625 13.152344 19.953125 C 13.152344 19.347656 13.644531 18.847656 14.25 18.847656 Z M 19.972656 18.847656 C 20.578125 18.847656 21.066406 19.347656 21.066406 19.953125 C 21.066406 20.5625 20.578125 21.0625 19.972656 21.0625 C 19.371094 21.0625 18.9375 20.488281 18.9375 19.882812 C 18.9375 19.273438 19.371094 18.847656 19.972656 18.847656 Z M 19.972656 18.847656 "/>
</g>
</svg>
