<svg xmlns="http://www.w3.org/2000/svg" width="24.007" height="23.385" viewBox="0 0 24.007 23.385"><defs><style>.a,.b{fill:#7cc33f;fill-rule:evenodd;}.b{opacity:0.1;}</style></defs><g transform="translate(0 -0.615)"><path class="a" d="M16.25.615A5.589,5.589,0,0,1,20.31,2.391a6.243,6.243,0,0,1,1.647,4.29V8.032h1.729a.314.314,0,0,1,.231.1.359.359,0,0,1,.091.237.318.318,0,0,1-.074.213l-2.666,3.237a.306.306,0,0,1-.461,0l-2.74-3.237a.318.318,0,0,1-.074-.213.359.359,0,0,1,.091-.237.3.3,0,0,1,.231-.1H20.1V6.681a3.939,3.939,0,0,0-3.829-4.044H14.6a.657.657,0,0,1-.634-.671v-.68a.656.656,0,0,1,.609-.671ZM0,5V22a2.006,2.006,0,0,0,2,2H15a2.006,2.006,0,0,0,2-2V8.65c-.01-1.1-.64-1.63-1.42-2.41L12.988,3.866A2.009,2.009,0,0,0,11,3H2A2.006,2.006,0,0,0,0,5ZM2,5h8V8a2.006,2.006,0,0,0,2,2h3V22H2ZM14.58,8H12V5.42Z"/><path class="b" d="M2,5h8V8a2.006,2.006,0,0,0,2,2h3V22H2Z"/><path class="b" d="M14.6,8.032H12V5.392Z"/></g></svg>