<svg xmlns="http://www.w3.org/2000/svg" xmlns:xlink="http://www.w3.org/1999/xlink" width="335" height="162" viewBox="0 0 335 162"><defs><style>.a{fill:#fff;}.b{clip-path:url(#a);}.c,.d,.e,.f{fill:none;}.c{opacity:0.3;}.d{opacity:0.45;}.e{opacity:0.6;}.f{opacity:0.7;}.g,.h{stroke:none;}.h{fill:#707070;}</style><clipPath id="a"><rect class="a" width="335" height="162" transform="translate(929 2300)"/></clipPath></defs><g class="b" transform="translate(-929 -2300)"><g transform="translate(-387 -65.527)"><g class="c" transform="translate(1483.627 2364.943) rotate(45)"><path class="g" d="M1.8,1.8,180.431-56.569,122.068,122.068-56.569,180.431Z"/><path class="h" d="M 178.087646484375 -54.2247314453125 L 2.984481811523438 2.984481811523438 L -54.2247314453125 178.087646484375 L 120.8783645629883 120.8783645629883 L 178.087646484375 -54.2247314453125 M 180.4314575195312 -56.56854248046875 L 122.0678024291992 122.0678024291992 L -56.56854248046875 180.4314575195312 L 1.795051574707031 1.795051574707031 L 180.4314575195312 -56.56854248046875 Z"/></g><g class="d" transform="translate(1483.627 2405.943) rotate(45)"><path class="g" d="M1.8,1.8,180.431-56.569,122.068,122.068-56.569,180.431Z"/><path class="h" d="M 178.087646484375 -54.2247314453125 L 2.984481811523438 2.984481811523438 L -54.2247314453125 178.087646484375 L 120.8783645629883 120.8783645629883 L 178.087646484375 -54.2247314453125 M 180.4314575195312 -56.56854248046875 L 122.0678024291992 122.0678024291992 L -56.56854248046875 180.4314575195312 L 1.795051574707031 1.795051574707031 L 180.4314575195312 -56.56854248046875 Z"/></g><g class="e" transform="translate(1483.627 2447.943) rotate(45)"><path class="g" d="M1.8,1.8,180.431-56.569,122.068,122.068-56.569,180.431Z"/><path class="h" d="M 178.087646484375 -54.2247314453125 L 2.984481811523438 2.984481811523438 L -54.2247314453125 178.087646484375 L 120.8783645629883 120.8783645629883 L 178.087646484375 -54.2247314453125 M 180.4314575195312 -56.56854248046875 L 122.0678024291992 122.0678024291992 L -56.56854248046875 180.4314575195312 L 1.795051574707031 1.795051574707031 L 180.4314575195312 -56.56854248046875 Z"/></g><g class="f" transform="translate(1483.627 2488.943) rotate(45)"><path class="g" d="M1.8,1.8,180.431-56.569,122.068,122.068-56.569,180.431Z"/><path class="h" d="M 178.087646484375 -54.2247314453125 L 2.984481811523438 2.984481811523438 L -54.2247314453125 178.087646484375 L 120.8783645629883 120.8783645629883 L 178.087646484375 -54.2247314453125 M 180.4314575195312 -56.56854248046875 L 122.0678024291992 122.0678024291992 L -56.56854248046875 180.4314575195312 L 1.795051574707031 1.795051574707031 L 180.4314575195312 -56.56854248046875 Z"/></g></g></g></svg>