<svg xmlns="http://www.w3.org/2000/svg" xmlns:xlink="http://www.w3.org/1999/xlink" width="667.86" height="191.786" viewBox="0 0 667.86 191.786"><defs><style>.a{fill:#c7c7c7;}.b,.c{fill:#fff;}.b{opacity:0.5;}.d{fill:#e1e1e1;}.e{fill:rgba(20,115,230,0.2);stroke:#1473e6;}.ad,.e,.i,.k{stroke-width:2px;}.e,.i,.k{mix-blend-mode:multiply;isolation:isolate;}.f,.h{fill:#b3b3b3;}.f,.g{opacity:0.504;}.i{fill:rgba(61,167,78,0.15);stroke:#3da74e;}.j{fill:#d9d9d9;}.k{fill:rgba(206,39,131,0.15);stroke:#ce2783;}.l,.s{fill:#1473e6;}.ab,.l,.m,.n{stroke:rgba(0,0,0,0);}.aa,.m{fill:#3da74e;}.n,.w{fill:#ce2783;}.ad,.ag,.o{fill:none;}.p{fill:#043e84;}.q{fill:#cdddf2;}.r{fill:#a9c7ed;}.t{fill:#790b48;}.u{fill:#e5c9d8;}.v{fill:#d9abc4;}.x{fill:#1a6425;}.y{fill:#c7ddcb;}.z{fill:#a6c3ab;}.ab{fill:#535353;}.ac{opacity:0.8;}.ad,.ag{stroke:#7e9cc3;stroke-linecap:round;stroke-linejoin:round;}.ad{stroke-miterlimit:10;}.ae,.af{fill:#7e9cc3;}.af{opacity:0;}.ah{opacity:0.7;}.ai{filter:url(#s);}.aj{filter:url(#q);}.ak{filter:url(#o);}.al{filter:url(#m);}.am{filter:url(#k);}.an{filter:url(#i);}.ao{filter:url(#g);}.ap{filter:url(#e);}.aq{filter:url(#c);}.ar{filter:url(#a);}</style><filter id="a" x="40.012" y="19.801" width="126.759" height="158.339" filterUnits="userSpaceOnUse"><feOffset dy="3" input="SourceAlpha"/><feGaussianBlur stdDeviation="5" result="b"/><feFlood flood-opacity="0.122"/><feComposite operator="in" in2="b"/><feComposite in="SourceGraphic"/></filter><filter id="c" x="46.603" y="7.672" width="127.862" height="161.324" filterUnits="userSpaceOnUse"><feOffset dx="-4" dy="4" input="SourceAlpha"/><feGaussianBlur stdDeviation="5" result="d"/><feFlood flood-opacity="0.071"/><feComposite operator="in" in2="d"/><feComposite in="SourceGraphic"/></filter><filter id="e" x="355.564" y="129.854" width="210.944" height="61.931" filterUnits="userSpaceOnUse"><feOffset dy="6" input="SourceAlpha"/><feGaussianBlur stdDeviation="5" result="f"/><feFlood flood-opacity="0.039"/><feComposite operator="in" in2="f"/><feComposite in="SourceGraphic"/></filter><filter id="g" x="542.952" y="129.854" width="96.701" height="61.931" filterUnits="userSpaceOnUse"><feOffset dy="6" input="SourceAlpha"/><feGaussianBlur stdDeviation="5" result="h"/><feFlood flood-opacity="0.039"/><feComposite operator="in" in2="h"/><feComposite in="SourceGraphic"/></filter><filter id="i" x="328.481" y="43.285" width="191.076" height="61.931" filterUnits="userSpaceOnUse"><feOffset dy="6" input="SourceAlpha"/><feGaussianBlur stdDeviation="5" result="j"/><feFlood flood-opacity="0.039"/><feComposite operator="in" in2="j"/><feComposite in="SourceGraphic"/></filter><filter id="k" x="495.943" y="43.285" width="171.208" height="61.931" filterUnits="userSpaceOnUse"><feOffset dy="6" input="SourceAlpha"/><feGaussianBlur stdDeviation="5" result="l"/><feFlood flood-opacity="0.039"/><feComposite operator="in" in2="l"/><feComposite in="SourceGraphic"/></filter><filter id="m" x="327.771" y="86.569" width="158.435" height="61.931" filterUnits="userSpaceOnUse"><feOffset dy="6" input="SourceAlpha"/><feGaussianBlur stdDeviation="5" result="n"/><feFlood flood-opacity="0.039"/><feComposite operator="in" in2="n"/><feComposite in="SourceGraphic"/></filter><filter id="o" x="462.592" y="86.569" width="205.268" height="61.931" filterUnits="userSpaceOnUse"><feOffset dy="6" input="SourceAlpha"/><feGaussianBlur stdDeviation="5" result="p"/><feFlood flood-opacity="0.039"/><feComposite operator="in" in2="p"/><feComposite in="SourceGraphic"/></filter><filter id="q" x="361.122" y="0" width="93.153" height="61.931" filterUnits="userSpaceOnUse"><feOffset dy="6" input="SourceAlpha"/><feGaussianBlur stdDeviation="5" result="r"/><feFlood flood-opacity="0.039"/><feComposite operator="in" in2="r"/><feComposite in="SourceGraphic"/></filter><filter id="s" x="432.08" y="0" width="202.429" height="61.931" filterUnits="userSpaceOnUse"><feOffset dy="6" input="SourceAlpha"/><feGaussianBlur stdDeviation="5" result="t"/><feFlood flood-opacity="0.039"/><feComposite operator="in" in2="t"/><feComposite in="SourceGraphic"/></filter></defs><g transform="translate(-432.323 -5010.959)"><g transform="translate(653.1 5037.937)"><path class="a" d="M1875.629,1284.674a7.19,7.19,0,0,1-6.882-7.455c.007-.2.023-.4.048-.6l0-49.759a5.16,5.16,0,0,0-2.568-4.794.339.339,0,0,1-.192-.189.288.288,0,0,1,.011-.223.3.3,0,0,1,.137-.136,5.188,5.188,0,0,0,2.6-4.862c0-1.245,0-45.493-.041-49.561a7.125,7.125,0,0,1,6.187-8l.153-.018c.195-.019.359-.028.525-.033l1.279-.2a.468.468,0,0,1,.447.455v3.551a.461.461,0,0,1-.464.419l-2.483.195-.05,0a1.632,1.632,0,0,0-1.623,1.518l0,51.493a8.862,8.862,0,0,1-2.656,4.9l-.469.438.462.446a9.109,9.109,0,0,1,2.655,4.907v51.464a1.654,1.654,0,0,0,1.647,1.559l2.584,0a.473.473,0,0,1,.49.456v3.584a.465.465,0,0,1-.464.447Z" transform="translate(-1866.021 -1158.843)"/><path class="a" d="M1867.818,1284.674a7.19,7.19,0,0,0,6.882-7.455c-.007-.2-.023-.4-.048-.6l0-49.759a5.16,5.16,0,0,1,2.568-4.794.338.338,0,0,0,.192-.189.288.288,0,0,0-.011-.223.3.3,0,0,0-.137-.136,5.188,5.188,0,0,1-2.6-4.862c0-1.245,0-45.493.041-49.561a7.125,7.125,0,0,0-6.187-8l-.153-.018c-.195-.019-.359-.028-.525-.033l-1.279-.2a.468.468,0,0,0-.447.455v3.551a.461.461,0,0,0,.464.419l2.483.195.05,0a1.632,1.632,0,0,1,1.623,1.518l0,51.493a8.862,8.862,0,0,0,2.656,4.9l.469.438-.462.446a9.109,9.109,0,0,0-2.655,4.907v51.464a1.654,1.654,0,0,1-1.647,1.559l-2.584,0a.474.474,0,0,0-.49.456v3.584a.465.465,0,0,0,.465.447Z" transform="translate(-1810.46 -1158.843)"/></g><g transform="translate(487.335 5029.631)"><g class="ar" transform="matrix(1, 0, 0, 1, -55.01, -18.67)"><path class="b" d="M6.927,0H66.875c2.073,0,5.734-.279,8.145,2.285s15.144,16.083,18.17,19.3,3.569,5.175,3.569,7.054v92.278a7.182,7.182,0,0,1-6.927,7.413H6.927A7.182,7.182,0,0,1,0,120.913V7.409A7.182,7.182,0,0,1,6.927,0Z" transform="translate(55.01 31.81)"/></g><g class="aq" transform="matrix(1, 0, 0, 1, -55.01, -18.67)"><rect class="c" width="97.862" height="131.324" rx="10" transform="translate(65.6 18.67)"/></g><g transform="translate(22.27 43.248)"><g transform="translate(3.437 3.689)"><rect class="d" width="30.305" height="2.525" rx="1.263" transform="translate(0.035 8.623)"/><rect class="d" width="34.094" height="2.525" rx="1.263" transform="translate(0.035 13.674)"/><rect class="d" width="10.733" height="2.525" rx="1.263" transform="translate(0.035 23.775)"/><rect class="d" width="33.462" height="2.525" rx="1.263" transform="translate(0.035 18.724)"/><rect class="d" width="24.895" height="3.414" rx="1.707" transform="translate(0 0)"/></g><g transform="translate(50.193 12.312)"><rect class="d" width="3.157" height="2.525" rx="1.263" transform="translate(0 15.153)"/><rect class="d" width="3.157" height="2.525" rx="1.263" transform="translate(0 10.102)"/><rect class="d" width="3.157" height="2.525" rx="1.263" transform="translate(0 5.051)"/><rect class="d" width="3.157" height="2.525" rx="1.263" transform="translate(0 0)"/><rect class="d" width="7.576" height="2.525" rx="1.263" transform="translate(4.42 0)"/><rect class="d" width="14.521" height="2.525" rx="1.263" transform="translate(4.42 5.051)"/><rect class="d" width="10.102" height="2.525" rx="1.263" transform="translate(4.42 10.102)"/><rect class="d" width="10.102" height="2.525" rx="1.263" transform="translate(4.42 15.153)"/></g><rect class="e" width="73.87" height="34.094" rx="8"/></g><g transform="translate(22.27 83.656)"><g transform="translate(3.11 3.298)"><rect class="f" width="8.534" height="3.414" rx="1.707" transform="translate(56.207 19.51)"/><rect class="f" width="8.534" height="3.414" rx="1.707" transform="translate(56.207 13.537)"/><rect class="f" width="8.534" height="3.414" rx="1.707" transform="translate(41.699 19.51)"/><rect class="f" width="8.534" height="3.414" rx="1.707" transform="translate(41.699 13.537)"/><rect class="f" width="22.189" height="3.414" rx="1.707" transform="translate(11.831 19.51)"/><rect class="f" width="22.189" height="3.414" rx="1.707" transform="translate(11.831 13.537)"/><g class="g"><path class="h" d="M1686.006,1587.875h-6.044a2.07,2.07,0,0,1-2.255-1.8v-23.226h8.3Zm-5.973-1.857h3.647V1564.7h-3.647Z" transform="translate(-1677.707 -1556.874)"/><path class="h" d="M1719.313,1587.875h-33.9v-25.028h33.9Zm-31.576-1.858h29.25V1564.7h-29.25Z" transform="translate(-1679.438 -1556.874)"/><path class="h" d="M1759.425,1587.875h-14.576v-25.028h16.833v23.226A2.071,2.071,0,0,1,1759.425,1587.875Zm-12.25-1.857h12.181V1564.7h-12.181Z" transform="translate(-1692.791 -1556.874)"/><path class="h" d="M1742.97,1587.875h-16.834v-25.028h16.834Zm-14.508-1.857h12.182V1564.7h-12.182Z" transform="translate(-1688.587 -1556.874)"/><path class="h" d="M1746.6,1563.443h-68.891V1557.4a2.258,2.258,0,0,1,2.255-2.255h64.379a2.258,2.258,0,0,1,2.257,2.255Zm-66.565-2.326h64.239v-3.647h-64.239Z" transform="translate(-1677.707 -1555.143)"/></g></g><rect class="i" width="75.132" height="37.251" rx="8" transform="translate(0 0)"/></g><g transform="translate(22.27 14.206)"><rect class="d" width="32.2" height="3.788" rx="1.894" transform="translate(2.21 2.21)"/><rect class="e" width="36.619" height="8.208" rx="4.104"/></g><g transform="translate(70.018 13.89)"><path class="j" d="M16.835,17.048H4a4,4,0,0,1-4-4V4A4,4,0,0,1,4,0H16.835a4.005,4.005,0,0,1,4,4v9.047A4,4,0,0,1,16.835,17.048ZM6.649,8.623l-.038,0a.371.371,0,0,0-.274.164L3.358,13.257a.372.372,0,0,0,.31.579H18.563a.371.371,0,0,0,.318-.564L14.412,5.824a.367.367,0,0,0-.3-.18h-.026a.364.364,0,0,0-.292.149l-4.21,5.615L6.91,8.732A.368.368,0,0,0,6.649,8.623Zm.37-5.959a1.49,1.49,0,1,0,1.49,1.49A1.492,1.492,0,0,0,7.019,2.664Z" transform="translate(2.525 2.524)"/><rect class="k" width="26.11" height="22.098" rx="8"/></g></g><path class="a" d="M2004.837,1529.37h-15.253a.9.9,0,0,0-.9.9h0v8.973a.9.9,0,0,0,.9.9h15.253v6.274a.448.448,0,0,0,.766.318l11.976-11.976-11.976-11.975a.448.448,0,0,0-.767.317Z" transform="translate(-1253.632 3566.016)"/><path class="a" d="M1831.837,1529.37h-15.253a.9.9,0,0,0-.9.9h0v8.973a.9.9,0,0,0,.9.9h15.253v6.274a.448.448,0,0,0,.766.318l11.977-11.976-11.976-11.975a.448.448,0,0,0-.767.317Z" transform="translate(-1205.396 3566.016)"/><path class="l" d="M-13.725-4.959h-1.692q-.063,0-.045-.063l.27-.846a.077.077,0,0,1,.081-.045h4.221q.063,0,.063.054v.837a.056.056,0,0,1-.063.063h-1.791l-.855,4.9A.07.07,0,0,1-13.617,0h-.891q-.09,0-.072-.072Zm3.276.576q.009-.045.023-.049a.181.181,0,0,1,.05,0h.9q.063,0,.054.072l-.774,4.3A.078.078,0,0,1-10.278,0h-.882a.056.056,0,0,1-.063-.063Zm.675-.7a.536.536,0,0,1-.41-.157.5.5,0,0,1-.122-.419.654.654,0,0,1,.216-.418.659.659,0,0,1,.45-.158.5.5,0,0,1,.4.162.489.489,0,0,1,.094.423.577.577,0,0,1-.194.414A.64.64,0,0,1-9.774-5.085ZM-6.957-.153a.135.135,0,0,1-.081.108,1.308,1.308,0,0,1-.333.1A2.484,2.484,0,0,1-7.794.09a.978.978,0,0,1-.774-.306,1.235,1.235,0,0,1-.144-1.035l.423-2.313h-.576a.176.176,0,0,1-.041-.018q-.013-.009,0-.054l.153-.747a.063.063,0,0,1,.072-.054h.549q.045-.261.1-.54t.1-.513a.068.068,0,0,1,.063-.054,3.238,3.238,0,0,0,.486-.049,3.1,3.1,0,0,0,.468-.13q.054-.009.054.045-.063.288-.126.6t-.135.639h.783q.072,0,.063.063l-.135.738q0,.063-.072.072h-.792l-.4,2.241a.7.7,0,0,0,.018.4q.063.144.306.144A1.426,1.426,0,0,0-7.119-.8a1.372,1.372,0,0,0,.234-.063A.1.1,0,0,1-6.84-.873q.027,0,.027.045ZM-4.671-.1a.111.111,0,0,1-.072.09,1.466,1.466,0,0,1-.585.1A1.328,1.328,0,0,1-5.719.036.579.579,0,0,1-6-.148.693.693,0,0,1-6.142-.5a1.887,1.887,0,0,1,.023-.553l.927-5.274A.07.07,0,0,1-5.13-6.39q.1-.009.247-.018l.288-.018.247-.018q.108-.009.135-.009.054,0,.054.063l-.927,5.274q-.045.225.027.288a.29.29,0,0,0,.2.063A1,1,0,0,0-4.581-.81q.045-.009.045.045ZM-.792-.27a.112.112,0,0,1-.081.09,1.949,1.949,0,0,1-.5.2A3.03,3.03,0,0,1-2.088.09a2.186,2.186,0,0,1-.729-.117,1.526,1.526,0,0,1-.572-.351,1.568,1.568,0,0,1-.369-.59A2.413,2.413,0,0,1-3.888-1.8a3.022,3.022,0,0,1,.176-1.017,2.824,2.824,0,0,1,.49-.873A2.44,2.44,0,0,1-2.466-4.3a2.074,2.074,0,0,1,.972-.23,1.84,1.84,0,0,1,.648.1,1.147,1.147,0,0,1,.423.266,1,1,0,0,1,.234.378,1.345,1.345,0,0,1,.072.437A1.278,1.278,0,0,1-.774-2.187a4.041,4.041,0,0,1-2.115.4q0,.027,0,.072t0,.072a1.2,1.2,0,0,0,.054.279.67.67,0,0,0,.162.265.907.907,0,0,0,.315.2,1.343,1.343,0,0,0,.5.081A2.648,2.648,0,0,0-1.3-.882a1.928,1.928,0,0,0,.585-.243q.045-.018.045.045Zm-2.016-2.3a4.19,4.19,0,0,0,.9-.049A1.8,1.8,0,0,0-1.368-2.8a.624.624,0,0,0,.256-.239.54.54,0,0,0,.068-.247.614.614,0,0,0-.018-.139.306.306,0,0,0-.077-.139.431.431,0,0,0-.162-.1.768.768,0,0,0-.275-.04.961.961,0,0,0-.391.086,1.373,1.373,0,0,0-.36.234,1.52,1.52,0,0,0-.293.36A1.733,1.733,0,0,0-2.808-2.574Z" transform="translate(474.78 5049.996)"/><path class="l" d="M-25.23,0q-.07,0-.06-.08l.48-2.75H-27.5l-.48,2.76q-.01.07-.07.07h-1.02a.133.133,0,0,1-.06-.015q-.03-.015-.01-.065l1.12-6.43a.064.064,0,0,1,.07-.06h1.03a.062.062,0,0,1,.07.07l-.46,2.62h2.69l.46-2.64a.071.071,0,0,1,.07-.05h1.03a.062.062,0,0,1,.07.07L-24.13-.08q-.01.05-.015.065T-24.2,0Zm5.92-.3a.124.124,0,0,1-.09.1,2.166,2.166,0,0,1-.56.225A3.367,3.367,0,0,1-20.75.1a2.428,2.428,0,0,1-.81-.13,1.7,1.7,0,0,1-.635-.39,1.742,1.742,0,0,1-.41-.655A2.681,2.681,0,0,1-22.75-2a3.358,3.358,0,0,1,.2-1.13,3.137,3.137,0,0,1,.545-.97,2.711,2.711,0,0,1,.84-.675,2.3,2.3,0,0,1,1.08-.255,2.044,2.044,0,0,1,.72.11,1.274,1.274,0,0,1,.47.3,1.109,1.109,0,0,1,.26.42,1.5,1.5,0,0,1,.08.485,1.42,1.42,0,0,1-.73,1.29,4.49,4.49,0,0,1-2.35.44q0,.03,0,.08t-.005.08a1.338,1.338,0,0,0,.06.31.744.744,0,0,0,.18.295A1.008,1.008,0,0,0-21.06-1a1.492,1.492,0,0,0,.56.09,2.942,2.942,0,0,0,.63-.07,2.142,2.142,0,0,0,.65-.27q.05-.02.05.05Zm-2.24-2.56a4.656,4.656,0,0,0,1.005-.055,2,2,0,0,0,.595-.195.693.693,0,0,0,.285-.265.6.6,0,0,0,.075-.275.682.682,0,0,0-.02-.155.34.34,0,0,0-.085-.155.479.479,0,0,0-.18-.115.854.854,0,0,0-.3-.045,1.067,1.067,0,0,0-.435.095,1.526,1.526,0,0,0-.4.26,1.689,1.689,0,0,0-.325.4A1.925,1.925,0,0,0-21.55-2.86ZM-14.3-.34a.1.1,0,0,1-.06.08,4.212,4.212,0,0,1-.835.275A4.259,4.259,0,0,1-16.07.1a2.5,2.5,0,0,1-.8-.125,1.81,1.81,0,0,1-.655-.38,1.769,1.769,0,0,1-.44-.64,2.377,2.377,0,0,1-.16-.915A3,3,0,0,1-17.9-3.1a2.946,2.946,0,0,1,.655-.985,3.232,3.232,0,0,1,1.05-.69,3.59,3.59,0,0,1,1.4-.26,4.529,4.529,0,0,1,.73.05q.3.05.53.11a.081.081,0,0,1,.02.06Zm-.48-3.71q-.04,0-.1,0t-.155-.005a1.859,1.859,0,0,0-.74.15,1.9,1.9,0,0,0-.615.42,2,2,0,0,0-.42.645,2.167,2.167,0,0,0-.155.835,1.223,1.223,0,0,0,.275.81,1.063,1.063,0,0,0,.865.33,1.355,1.355,0,0,0,.5-.08ZM-9.14-.37a.125.125,0,0,1-.07.1,4.183,4.183,0,0,1-.865.29A4.2,4.2,0,0,1-10.91.1a2.517,2.517,0,0,1-.82-.13,1.926,1.926,0,0,1-.67-.39,1.776,1.776,0,0,1-.455-.665,2.522,2.522,0,0,1-.165-.955,2.934,2.934,0,0,1,.225-1.14,3.015,3.015,0,0,1,.63-.955A2.962,2.962,0,0,1-11.2-4.79a3.064,3.064,0,0,1,1.22-.24,2.676,2.676,0,0,1,.51.04l.36-2.04a.078.078,0,0,1,.07-.07q.1-.01.265-.02l.325-.02.285-.02.145-.01a.053.053,0,0,1,.06.06Zm-.51-3.64a.648.648,0,0,0-.21-.05q-.12-.01-.26-.01a1.528,1.528,0,0,0-.665.15,1.77,1.77,0,0,0-.555.415,1.976,1.976,0,0,0-.38.635,2.242,2.242,0,0,0-.14.8,1.514,1.514,0,0,0,.065.45.972.972,0,0,0,.21.37A1.041,1.041,0,0,0-11.22-1,1.3,1.3,0,0,0-10.7-.9a1.971,1.971,0,0,0,.305-.02.773.773,0,0,0,.225-.07ZM-4.34-.3a.124.124,0,0,1-.09.1,2.165,2.165,0,0,1-.56.225A3.367,3.367,0,0,1-5.78.1a2.428,2.428,0,0,1-.81-.13,1.7,1.7,0,0,1-.635-.39,1.742,1.742,0,0,1-.41-.655A2.681,2.681,0,0,1-7.78-2a3.358,3.358,0,0,1,.2-1.13A3.137,3.137,0,0,1-7.04-4.1a2.711,2.711,0,0,1,.84-.675A2.3,2.3,0,0,1-5.12-5.03a2.044,2.044,0,0,1,.72.11,1.274,1.274,0,0,1,.47.3,1.11,1.11,0,0,1,.26.42,1.5,1.5,0,0,1,.08.485,1.42,1.42,0,0,1-.73,1.29,4.49,4.49,0,0,1-2.35.44q0,.03,0,.08t-.005.08a1.338,1.338,0,0,0,.06.31.744.744,0,0,0,.18.295A1.008,1.008,0,0,0-6.09-1a1.492,1.492,0,0,0,.56.09A2.942,2.942,0,0,0-4.9-.98a2.142,2.142,0,0,0,.65-.27q.05-.02.05.05ZM-6.58-2.86a4.656,4.656,0,0,0,1.005-.055,2,2,0,0,0,.6-.195.693.693,0,0,0,.285-.265A.6.6,0,0,0-4.62-3.65.682.682,0,0,0-4.64-3.8a.34.34,0,0,0-.085-.155.479.479,0,0,0-.18-.115A.854.854,0,0,0-5.21-4.12a1.067,1.067,0,0,0-.435.095,1.526,1.526,0,0,0-.4.26,1.689,1.689,0,0,0-.325.4A1.925,1.925,0,0,0-6.58-2.86ZM-1.6-4.93q.08,0,.09.05a.775.775,0,0,1,.005.165q-.005.115-.015.245t-.025.255q-.015.125-.025.2A2.621,2.621,0,0,1-1.2-4.425a2.653,2.653,0,0,1,.435-.32,2.22,2.22,0,0,1,.475-.21A1.619,1.619,0,0,1,.18-5.03q.07,0,.06.09L.02-3.85q-.02.06-.06.06a2.036,2.036,0,0,0-.9.255,1.8,1.8,0,0,0-.66.585.37.37,0,0,0-.1.22L-2.18-.05A.071.071,0,0,1-2.25,0h-1q-.08,0-.06-.07l.64-3.62q.07-.35.105-.645t.055-.545q0-.05.08-.05Z" transform="translate(475.784 5081.301)"/><path class="l" d="M-12.71-1.05h2.83q.07,0,.04.08l-.3.91a.111.111,0,0,1-.09.06h-3.76q-.08,0-.06-.06l1.12-6.45a.064.064,0,0,1,.07-.06h1.05q.06,0,.05.08Zm4.36-3.82q.01-.05.025-.055a.2.2,0,0,1,.055,0h1q.07,0,.06.08L-8.07-.07A.086.086,0,0,1-8.16,0h-.98a.062.062,0,0,1-.07-.07Zm.75-.78a.6.6,0,0,1-.455-.175A.56.56,0,0,1-8.19-6.29a.726.726,0,0,1,.24-.465.732.732,0,0,1,.5-.175A.555.555,0,0,1-7-6.75a.544.544,0,0,1,.1.47.641.641,0,0,1-.215.46A.712.712,0,0,1-7.6-5.65Zm4.05,1.81a2.106,2.106,0,0,0-.525-.19A2.464,2.464,0,0,0-4.6-4.09a.859.859,0,0,0-.585.16.462.462,0,0,0-.175.34.544.544,0,0,0,.02.15.352.352,0,0,0,.085.14.968.968,0,0,0,.18.145,2.646,2.646,0,0,0,.305.165,3.5,3.5,0,0,1,.93.635,1.18,1.18,0,0,1,.33.865,1.535,1.535,0,0,1-.145.685,1.39,1.39,0,0,1-.4.5,1.865,1.865,0,0,1-.615.305A2.723,2.723,0,0,1-5.45.1a3.149,3.149,0,0,1-.84-.1A2.005,2.005,0,0,1-6.9-.27a.081.081,0,0,1-.04-.06A.294.294,0,0,1-6.93-.4l.19-.87q.02-.05.06-.02a2.338,2.338,0,0,0,1.32.43.84.84,0,0,0,.56-.15.445.445,0,0,0,.17-.34.474.474,0,0,0-.14-.33,2.133,2.133,0,0,0-.5-.35q-.22-.12-.43-.25a1.919,1.919,0,0,1-.37-.295,1.373,1.373,0,0,1-.26-.38,1.137,1.137,0,0,1-.1-.485,1.518,1.518,0,0,1,.12-.595,1.41,1.41,0,0,1,.365-.505,1.874,1.874,0,0,1,.61-.355A2.462,2.462,0,0,1-4.48-5.03a3.359,3.359,0,0,1,.67.065,1.449,1.449,0,0,1,.49.175.091.091,0,0,1,.04.1l-.19.82Q-3.48-3.81-3.55-3.84ZM-.58-.17a.15.15,0,0,1-.09.12,1.453,1.453,0,0,1-.37.115A2.761,2.761,0,0,1-1.51.1a1.086,1.086,0,0,1-.86-.34,1.372,1.372,0,0,1-.16-1.15l.47-2.57H-2.7a.2.2,0,0,1-.045-.02q-.015-.01,0-.06l.17-.83a.07.07,0,0,1,.08-.06h.61q.05-.29.115-.6t.115-.57a.075.075,0,0,1,.07-.06,3.6,3.6,0,0,0,.54-.055A3.447,3.447,0,0,0-.53-6.36q.06-.01.06.05-.07.32-.14.67t-.15.71H.11q.08,0,.07.07l-.15.82q0,.07-.08.08H-.93l-.45,2.49a.777.777,0,0,0,.02.44q.07.16.34.16A1.584,1.584,0,0,0-.76-.89,1.524,1.524,0,0,0-.5-.96.111.111,0,0,1-.45-.97q.03,0,.03.05Z" transform="translate(475.937 5106.556)"/><path class="m" d="M-19.48-5.51h-1.88q-.07,0-.05-.07l.3-.94a.086.086,0,0,1,.09-.05h4.69q.07,0,.07.06v.93a.062.062,0,0,1-.07.07h-1.99l-.95,5.44a.078.078,0,0,1-.09.07h-.99q-.1,0-.08-.08Zm6.03,5.17a.1.1,0,0,1-.06.08,4.212,4.212,0,0,1-.835.275A4.259,4.259,0,0,1-15.22.1a2.5,2.5,0,0,1-.8-.125,1.81,1.81,0,0,1-.655-.38,1.769,1.769,0,0,1-.44-.64,2.377,2.377,0,0,1-.16-.915A3,3,0,0,1-17.045-3.1a2.946,2.946,0,0,1,.655-.985,3.232,3.232,0,0,1,1.05-.69,3.59,3.59,0,0,1,1.4-.26,4.529,4.529,0,0,1,.73.05q.3.05.53.11a.081.081,0,0,1,.02.06Zm-.48-3.71q-.04,0-.1,0t-.155-.005a1.859,1.859,0,0,0-.74.15,1.9,1.9,0,0,0-.615.42,2,2,0,0,0-.42.645,2.167,2.167,0,0,0-.155.835,1.223,1.223,0,0,0,.275.81,1.063,1.063,0,0,0,.865.33,1.355,1.355,0,0,0,.5-.08Zm2.94-2.98a.1.1,0,0,1,.09-.08q.12-.01.285-.02l.315-.02.26-.015.13-.005q.07,0,.06.07l-.41,2.37a2.089,2.089,0,0,1,.54-.23,2.391,2.391,0,0,1,.6-.07,1.556,1.556,0,0,1,.675.14,1.408,1.408,0,0,1,.5.395,1.761,1.761,0,0,1,.31.605,2.709,2.709,0,0,1,.1.78,3.438,3.438,0,0,1-.225,1.245A3.042,3.042,0,0,1-8.4-.845a3.089,3.089,0,0,1-.985.69A3.051,3.051,0,0,1-10.64.1a3.92,3.92,0,0,1-.78-.075,2.066,2.066,0,0,1-.69-.275.1.1,0,0,1-.05-.11Zm.08,6.08a.788.788,0,0,0,.22.065,1.626,1.626,0,0,0,.22.015A1.51,1.51,0,0,0-9.8-1.03a1.758,1.758,0,0,0,.57-.45,2.267,2.267,0,0,0,.39-.68,2.451,2.451,0,0,0,.145-.86,1.84,1.84,0,0,0-.04-.38.868.868,0,0,0-.14-.33.79.79,0,0,0-.26-.23.83.83,0,0,0-.41-.09,1.54,1.54,0,0,0-.89.29Zm5.72.84a.123.123,0,0,1-.08.1A1.629,1.629,0,0,1-5.92.1,1.476,1.476,0,0,1-6.355.04a.643.643,0,0,1-.315-.2.77.77,0,0,1-.155-.39A2.1,2.1,0,0,1-6.8-1.17l1.03-5.86A.078.078,0,0,1-5.7-7.1q.11-.01.275-.02l.32-.02.275-.02q.12-.01.15-.01.06,0,.06.07L-5.65-1.24q-.05.25.03.32a.323.323,0,0,0,.22.07A1.107,1.107,0,0,0-5.09-.9q.05-.01.05.05ZM-.88-.3a.124.124,0,0,1-.09.1,2.165,2.165,0,0,1-.56.225A3.367,3.367,0,0,1-2.32.1a2.428,2.428,0,0,1-.81-.13,1.7,1.7,0,0,1-.635-.39,1.742,1.742,0,0,1-.41-.655A2.681,2.681,0,0,1-4.32-2a3.358,3.358,0,0,1,.2-1.13A3.137,3.137,0,0,1-3.58-4.1a2.711,2.711,0,0,1,.84-.675A2.3,2.3,0,0,1-1.66-5.03a2.044,2.044,0,0,1,.72.11,1.274,1.274,0,0,1,.47.3,1.11,1.11,0,0,1,.26.42,1.5,1.5,0,0,1,.08.485A1.42,1.42,0,0,1-.86-2.43a4.49,4.49,0,0,1-2.35.44q0,.03,0,.08t-.005.08a1.338,1.338,0,0,0,.06.31.744.744,0,0,0,.18.295A1.008,1.008,0,0,0-2.63-1a1.492,1.492,0,0,0,.56.09,2.942,2.942,0,0,0,.63-.07,2.142,2.142,0,0,0,.65-.27q.05-.02.05.05ZM-3.12-2.86a4.656,4.656,0,0,0,1-.055,2,2,0,0,0,.6-.195.693.693,0,0,0,.285-.265A.6.6,0,0,0-1.16-3.65.682.682,0,0,0-1.18-3.8a.34.34,0,0,0-.085-.155.479.479,0,0,0-.18-.115A.854.854,0,0,0-1.75-4.12a1.067,1.067,0,0,0-.435.095,1.526,1.526,0,0,0-.4.26,1.689,1.689,0,0,0-.325.4A1.925,1.925,0,0,0-3.12-2.86Z" transform="translate(476.36 5136.23)"/><path class="n" d="M-23.97-.07q-.01.07-.07.07h-1.02q-.07,0-.06-.08L-24-6.51a.064.064,0,0,1,.07-.06h1.03q.07,0,.07.08Zm3.11-4.86q.06,0,.06.05a.892.892,0,0,1,0,.25q-.015.13-.035.25a2.554,2.554,0,0,1,.78-.505,2.144,2.144,0,0,1,.77-.145,1.145,1.145,0,0,1,.695.2.99.99,0,0,1,.365.545,2.745,2.745,0,0,1,.87-.58,2.345,2.345,0,0,1,.84-.16,1.479,1.479,0,0,1,.53.1.982.982,0,0,1,.425.315,1.256,1.256,0,0,1,.235.59,2.78,2.78,0,0,1-.04.92L-15.9-.08q-.01.08-.07.08h-.99q-.09,0-.08-.08l.55-3.1a1.172,1.172,0,0,0-.025-.635q-.1-.225-.445-.225a1.171,1.171,0,0,0-.54.16,1.665,1.665,0,0,0-.56.53.436.436,0,0,0-.07.155q-.02.085-.04.185L-18.7-.07a.073.073,0,0,1-.08.07h-.98q-.08,0-.06-.08l.54-3.05a1.2,1.2,0,0,0-.025-.68.428.428,0,0,0-.435-.23,1.148,1.148,0,0,0-.57.165,1.836,1.836,0,0,0-.55.515.675.675,0,0,0-.075.12.7.7,0,0,0-.055.2l-.53,2.96q-.02.05-.025.065T-21.6,0h-.96q-.09,0-.08-.08l.68-3.79q.05-.27.09-.56t.05-.43a.062.062,0,0,1,.07-.07ZM-10.71-.34a.1.1,0,0,1-.06.08,4.212,4.212,0,0,1-.835.275A4.259,4.259,0,0,1-12.48.1a2.5,2.5,0,0,1-.8-.125,1.81,1.81,0,0,1-.655-.38,1.769,1.769,0,0,1-.44-.64,2.377,2.377,0,0,1-.16-.915A3,3,0,0,1-14.305-3.1a2.946,2.946,0,0,1,.655-.985,3.232,3.232,0,0,1,1.05-.69,3.59,3.59,0,0,1,1.4-.26,4.529,4.529,0,0,1,.73.05q.3.05.53.11a.081.081,0,0,1,.02.06Zm-.48-3.71q-.04,0-.1,0t-.155-.005a1.859,1.859,0,0,0-.74.15,1.9,1.9,0,0,0-.615.42,2,2,0,0,0-.42.645,2.166,2.166,0,0,0-.155.835,1.223,1.223,0,0,0,.275.81,1.063,1.063,0,0,0,.865.33,1.355,1.355,0,0,0,.5-.08ZM-9.7.91q.01-.06.08-.04a2.661,2.661,0,0,0,.585.205,3,3,0,0,0,.645.065A1.622,1.622,0,0,0-7.33.82,1.4,1.4,0,0,0-7,.405,3.142,3.142,0,0,0-6.76-.27a2.067,2.067,0,0,1-.87.17,2.05,2.05,0,0,1-.715-.12A1.546,1.546,0,0,1-8.91-.58a1.657,1.657,0,0,1-.375-.6,2.356,2.356,0,0,1-.135-.83,3.051,3.051,0,0,1,.21-1.105,2.991,2.991,0,0,1,.6-.97,2.957,2.957,0,0,1,.98-.685A3.256,3.256,0,0,1-6.29-5.03a4.274,4.274,0,0,1,.86.075,5.466,5.466,0,0,1,.6.155.065.065,0,0,1,.05.08q-.05.14-.085.275t-.065.3L-5.5-.9q-.06.32-.11.56t-.1.425q-.055.185-.11.33T-5.94.69a2.424,2.424,0,0,1-.48.72,2.409,2.409,0,0,1-.615.45,2.513,2.513,0,0,1-.7.235,4.184,4.184,0,0,1-.735.065,3.142,3.142,0,0,1-1.41-.28.069.069,0,0,1-.03-.09Zm3.61-4.92a.454.454,0,0,0-.165-.045A1.982,1.982,0,0,0-6.51-4.07a1.605,1.605,0,0,0-.69.15,1.7,1.7,0,0,0-.555.415,2.02,2.02,0,0,0-.37.61,2,2,0,0,0-.135.735,1.708,1.708,0,0,0,.05.425.9.9,0,0,0,.165.34.753.753,0,0,0,.3.225,1.214,1.214,0,0,0,.47.08,1.856,1.856,0,0,0,.33-.035,1.083,1.083,0,0,0,.37-.145ZM-.88-.3a.124.124,0,0,1-.09.1,2.165,2.165,0,0,1-.56.225A3.367,3.367,0,0,1-2.32.1a2.428,2.428,0,0,1-.81-.13,1.7,1.7,0,0,1-.635-.39,1.742,1.742,0,0,1-.41-.655A2.681,2.681,0,0,1-4.32-2a3.358,3.358,0,0,1,.2-1.13A3.137,3.137,0,0,1-3.58-4.1a2.711,2.711,0,0,1,.84-.675A2.3,2.3,0,0,1-1.66-5.03a2.044,2.044,0,0,1,.72.11,1.274,1.274,0,0,1,.47.3,1.11,1.11,0,0,1,.26.42,1.5,1.5,0,0,1,.08.485A1.42,1.42,0,0,1-.86-2.43a4.49,4.49,0,0,1-2.35.44q0,.03,0,.08t-.005.08a1.338,1.338,0,0,0,.06.31.744.744,0,0,0,.18.295A1.008,1.008,0,0,0-2.63-1a1.492,1.492,0,0,0,.56.09,2.942,2.942,0,0,0,.63-.07,2.142,2.142,0,0,0,.65-.27q.05-.02.05.05ZM-3.12-2.86a4.656,4.656,0,0,0,1-.055,2,2,0,0,0,.6-.195.693.693,0,0,0,.285-.265A.6.6,0,0,0-1.16-3.65.682.682,0,0,0-1.18-3.8a.34.34,0,0,0-.085-.155.479.479,0,0,0-.18-.115A.854.854,0,0,0-1.75-4.12a1.067,1.067,0,0,0-.435.095,1.526,1.526,0,0,0-.4.26,1.689,1.689,0,0,0-.325.4A1.925,1.925,0,0,0-3.12-2.86Z" transform="translate(475.572 5063.623)"/><g transform="translate(671.55 5045.416)"><rect class="o" width="30.305" height="30.305"/><g transform="translate(0.631 0.631)"><path class="p" d="M28.149,24.051H2.894L1,21.525,3.525,19H27.517l2.525,2.525Z" transform="translate(-1 -7.635)"/><path class="q" d="M27.729,30.043H6.263A1.263,1.263,0,0,1,5,28.78V2.263A1.263,1.263,0,0,1,6.263,1H21.415l7.576,7.576v20.2A1.263,1.263,0,0,1,27.729,30.043Z" transform="translate(-2.475 -1)"/><path class="r" d="M31,1V7.314a1.263,1.263,0,0,0,1.263,1.263h6.314Z" transform="translate(-12.059 -1)"/><path class="s" d="M1,23H30.043V33.1a1.263,1.263,0,0,1-1.263,1.263H2.263A1.263,1.263,0,0,1,1,33.1Z" transform="translate(-1 -9.11)"/><path class="c" d="M10.181,34.661a3.3,3.3,0,0,1-.694-.071V33.547l.231.046a1.3,1.3,0,0,0,.265.025.542.542,0,0,0,.474-.2,1.226,1.226,0,0,0,.142-.686V28.147h1.347V32.62a2.3,2.3,0,0,1-.442,1.524A1.642,1.642,0,0,1,10.181,34.661Z" transform="translate(-4.128 -11.007)"/><path class="c" d="M18.184,31.559a1.457,1.457,0,0,1-.234.821,1.528,1.528,0,0,1-.675.556,2.492,2.492,0,0,1-1.034.2,4.206,4.206,0,0,1-.831-.069,3.062,3.062,0,0,1-.7-.242V31.629a4.027,4.027,0,0,0,.8.307,2.979,2.979,0,0,0,.758.11.743.743,0,0,0,.438-.1.319.319,0,0,0,.14-.266.294.294,0,0,0-.055-.18.672.672,0,0,0-.18-.155,7.054,7.054,0,0,0-.659-.316,3.151,3.151,0,0,1-.727-.427,1.312,1.312,0,0,1-.36-.475,1.57,1.57,0,0,1-.117-.631,1.268,1.268,0,0,1,.5-1.068,2.19,2.19,0,0,1,1.37-.383,3.846,3.846,0,0,1,1.57.356l-.41,1.034a2.978,2.978,0,0,0-1.2-.316.622.622,0,0,0-.379.092.277.277,0,0,0-.119.227.326.326,0,0,0,.151.261,5.827,5.827,0,0,0,.821.42,2.262,2.262,0,0,1,.89.619,1.345,1.345,0,0,1,.247.825Z" transform="translate(-6.054 -10.967)"/><path class="c" d="M25.954,30.57a2.673,2.673,0,0,1-.614,1.9,2.354,2.354,0,0,1-1.8.651,2.35,2.35,0,0,1-1.789-.655,2.661,2.661,0,0,1-.622-1.9,2.644,2.644,0,0,1,.619-1.891,2.364,2.364,0,0,1,1.8-.653,2.347,2.347,0,0,1,1.794.648A2.676,2.676,0,0,1,25.954,30.57Zm-3.409,0q0,1.439,1,1.438a.859.859,0,0,0,.758-.349,1.911,1.911,0,0,0,.247-1.089,1.938,1.938,0,0,0-.249-1.1.852.852,0,0,0-.745-.354q-1.014,0-1.013,1.451Z" transform="translate(-8.419 -10.958)"/><path class="c" d="M34.91,33.1H33.154l-1.811-3.493h-.03q.063.824.063,1.258V33.1H30.189V28.146h1.75l1.8,3.443h.021c-.032-.5-.049-.9-.049-1.2V28.143H34.91Z" transform="translate(-11.76 -11.006)"/></g></g><g transform="translate(671.55 5084.56)"><rect class="o" width="30.305" height="30.305"/><g transform="translate(0.631 0.631)"><path class="t" d="M28.149,24.051H2.894L1,21.525,3.525,19H27.517l2.525,2.525Z" transform="translate(-1 -7.635)"/><path class="u" d="M27.729,30.043H6.263A1.263,1.263,0,0,1,5,28.78V2.263A1.263,1.263,0,0,1,6.263,1H21.415l7.576,7.576v20.2A1.263,1.263,0,0,1,27.729,30.043Z" transform="translate(-2.475 -1)"/><path class="v" d="M31,1V7.314a1.263,1.263,0,0,0,1.263,1.263h6.314Z" transform="translate(-12.059 -1)"/><path class="w" d="M1,23H30.043V33.1a1.263,1.263,0,0,1-1.263,1.263H2.263A1.263,1.263,0,0,1,1,33.1Z" transform="translate(-1 -9.11)"/><path class="c" d="M16.313,29.724a1.662,1.662,0,0,1-.489,1.284,1.975,1.975,0,0,1-1.392.453h-.377v1.645h-1.34V28.147h1.717a2.1,2.1,0,0,1,1.41.41A1.468,1.468,0,0,1,16.313,29.724Zm-2.258.645H14.3a.668.668,0,0,0,.48-.17.614.614,0,0,0,.177-.467q0-.5-.556-.5h-.346v1.14Z" transform="translate(-5.349 -11.052)"/><path class="c" d="M24.387,33.105H22.63l-1.81-3.493h-.031q.064.824.064,1.258v2.234H19.667V28.147h1.75l1.8,3.445h.02q-.047-.749-.047-1.2V28.147h1.194v4.958Z" transform="translate(-7.912 -11.052)"/><path class="c" d="M30.723,30.16h2.14v2.672a5.883,5.883,0,0,1-1.916.3,2.314,2.314,0,0,1-1.772-.665,2.658,2.658,0,0,1-.626-1.9,2.489,2.489,0,0,1,.686-1.869,2.633,2.633,0,0,1,1.919-.668,4.261,4.261,0,0,1,.884.088,3.786,3.786,0,0,1,.724.224L32.337,29.4a2.625,2.625,0,0,0-1.176-.264,1.119,1.119,0,0,0-.908.381,1.653,1.653,0,0,0-.321,1.09,1.678,1.678,0,0,0,.29,1.06,1.006,1.006,0,0,0,.836.364,2.459,2.459,0,0,0,.55-.057V31.2h-.885V30.16Z" transform="translate(-11.186 -11.01)"/></g></g><g transform="translate(671.55 5123.705)"><rect class="o" width="30.305" height="30.305"/><g transform="translate(0.631 0.631)"><path class="x" d="M28.149,24.051H2.894L1,21.525,3.525,19H27.517l2.525,2.525Z" transform="translate(-1 -7.635)"/><path class="y" d="M27.729,30.043H6.263A1.263,1.263,0,0,1,5,28.78V2.263A1.263,1.263,0,0,1,6.263,1H21.415l7.576,7.576v20.2A1.263,1.263,0,0,1,27.729,30.043Z" transform="translate(-2.475 -1)"/><path class="z" d="M31,1V7.314a1.263,1.263,0,0,0,1.263,1.263h6.314Z" transform="translate(-12.059 -1)"/><path class="aa" d="M1,23H30.043V33.1a1.263,1.263,0,0,1-1.263,1.263H2.263A1.263,1.263,0,0,1,1,33.1Z" transform="translate(-1 -9.11)"/><path class="c" d="M16.39,29.134a.854.854,0,0,0-.746.391,1.888,1.888,0,0,0-.268,1.08q0,1.432,1.088,1.432a2.225,2.225,0,0,0,.638-.092,6.47,6.47,0,0,0,.621-.22v1.132a3.423,3.423,0,0,1-1.4.275A2.222,2.222,0,0,1,14.6,32.48,2.686,2.686,0,0,1,14,30.6a3.008,3.008,0,0,1,.29-1.354,2.079,2.079,0,0,1,.834-.9,2.522,2.522,0,0,1,1.28-.313,3.523,3.523,0,0,1,1.536.349l-.41,1.054a4.72,4.72,0,0,0-.549-.217A1.919,1.919,0,0,0,16.39,29.134Z" transform="translate(-5.968 -11.011)"/><path class="c" d="M24.535,31.558a1.463,1.463,0,0,1-.234.819,1.531,1.531,0,0,1-.675.556,2.5,2.5,0,0,1-1.034.2,4.206,4.206,0,0,1-.831-.069,3.051,3.051,0,0,1-.7-.242V31.626a3.965,3.965,0,0,0,.8.307,2.979,2.979,0,0,0,.76.11.74.74,0,0,0,.438-.1.318.318,0,0,0,.139-.266.3.3,0,0,0-.056-.178.661.661,0,0,0-.18-.154c-.082-.052-.3-.158-.659-.319a3.134,3.134,0,0,1-.727-.427,1.31,1.31,0,0,1-.359-.475,1.569,1.569,0,0,1-.117-.634,1.269,1.269,0,0,1,.5-1.068,2.2,2.2,0,0,1,1.37-.383,3.853,3.853,0,0,1,1.57.355l-.41,1.034a2.978,2.978,0,0,0-1.2-.318.626.626,0,0,0-.38.092.276.276,0,0,0-.119.227.329.329,0,0,0,.151.261,5.679,5.679,0,0,0,.819.42,2.273,2.273,0,0,1,.89.619A1.35,1.35,0,0,1,24.535,31.558Z" transform="translate(-8.572 -11.011)"/><path class="c" d="M30.247,28.147h1.5l-1.625,4.958H28.545l-1.618-4.958h1.506l.675,2.512a7.637,7.637,0,0,1,.23,1.167q.024-.237.095-.593c.047-.237.09-.424.126-.56Z" transform="translate(-10.734 -11.052)"/></g></g><g transform="translate(775.094 5019.959)"><g transform="translate(27.793 129.854)"><g transform="translate(0 0)"><g class="ap" transform="matrix(1, 0, 0, 1, -370.56, -138.85)"><rect class="c" width="180.944" height="31.931" rx="8" transform="translate(370.56 138.85)"/></g><path class="ab" d="M.74-.09c0,.06.03.09.07.09.32.02,1.24.02,1.87.02A3.3,3.3,0,0,0,6.23-3.4c0-1.86-1.18-3.19-3.53-3.19-.92,0-1.6.02-1.89.03-.06.01-.07.03-.07.08ZM1.95-5.52c.24-.01.46-.02.74-.02a2.054,2.054,0,0,1,2.3,2.17A2.165,2.165,0,0,1,2.63-1.03c-.26,0-.48,0-.68-.01ZM9.76-.97a1.828,1.828,0,0,1-.71.12c-.72,0-.98-.32-.98-.69,0-.43.35-.69,1.14-.69a4.114,4.114,0,0,1,.55.03Zm1.17-2.08A1.815,1.815,0,0,0,8.94-5.03a3.715,3.715,0,0,0-1.52.3.1.1,0,0,0-.06.1v.87a.058.058,0,0,0,.08.06,2.975,2.975,0,0,1,1.31-.28c.88,0,1.01.52,1.01.75v.12c-.09-.01-.32-.02-.62-.02-1.3,0-2.25.53-2.25,1.59C6.89-.41,7.76.1,8.85.1a4.864,4.864,0,0,0,2.08-.45c.02-.01.02-.02.02-.04-.02-.21-.02-.41-.02-.63ZM14.47-.88c0-.06-.03-.07-.06-.06a1.7,1.7,0,0,1-.38.04c-.43,0-.57-.21-.57-.65V-3.92h.98c.05,0,.07-.02.07-.07v-.87c0-.05-.02-.07-.07-.07h-.97c0-.49.02-1.08.05-1.41,0-.05-.02-.06-.07-.05l-1.01.14a.1.1,0,0,0-.08.09,10.555,10.555,0,0,0-.1,1.23h-.63c-.06,0-.08.02-.08.08v.84c0,.06.02.08.07.09h.63v2.63c0,.99.49,1.39,1.31,1.39a2.3,2.3,0,0,0,.85-.14c.05-.02.06-.06.06-.12Zm3.42-.09a1.828,1.828,0,0,1-.71.12c-.72,0-.98-.32-.98-.69,0-.43.35-.69,1.14-.69a4.114,4.114,0,0,1,.55.03Zm1.17-2.08a1.815,1.815,0,0,0-1.99-1.98,3.715,3.715,0,0,0-1.52.3.1.1,0,0,0-.06.1v.87a.058.058,0,0,0,.08.06,2.975,2.975,0,0,1,1.31-.28c.88,0,1.01.52,1.01.75v.12c-.09-.01-.32-.02-.62-.02-1.3,0-2.25.53-2.25,1.59,0,1.13.87,1.64,1.96,1.64a4.864,4.864,0,0,0,2.08-.45c.02-.01.02-.02.02-.04-.02-.21-.02-.41-.02-.63Zm1.33-4.07a.063.063,0,0,0-.07.07V-.21a.107.107,0,0,0,.07.09,5,5,0,0,0,1.5.22,2.728,2.728,0,0,0,2.92-2.77,2.257,2.257,0,0,0-2.36-2.36,2.9,2.9,0,0,0-.91.14l-.01-2.15c0-.07-.02-.08-.09-.08Zm3.19,4.57A1.512,1.512,0,0,1,22-.92a1.665,1.665,0,0,1-.46-.05V-3.89a1.836,1.836,0,0,1,.7-.11A1.288,1.288,0,0,1,23.58-2.55ZM28.35-.97a1.828,1.828,0,0,1-.71.12c-.72,0-.98-.32-.98-.69,0-.43.35-.69,1.14-.69a4.114,4.114,0,0,1,.55.03Zm1.17-2.08a1.815,1.815,0,0,0-1.99-1.98,3.715,3.715,0,0,0-1.52.3.1.1,0,0,0-.06.1v.87a.058.058,0,0,0,.08.06,2.975,2.975,0,0,1,1.31-.28c.88,0,1.01.52,1.01.75v.12c-.09-.01-.32-.02-.62-.02-1.3,0-2.25.53-2.25,1.59,0,1.13.87,1.64,1.96,1.64a4.864,4.864,0,0,0,2.08-.45c.02-.01.02-.02.02-.04-.02-.21-.02-.41-.02-.63Zm4.05-.72c.06.02.09-.01.09-.06v-.88a.122.122,0,0,0-.06-.12,3.082,3.082,0,0,0-1.26-.2c-1.25,0-1.87.71-1.87,1.47,0,.72.39,1.17,1.48,1.57.62.25.81.41.81.66s-.25.44-.77.44a2.722,2.722,0,0,1-1.43-.4.052.052,0,0,0-.08.05v.95c0,.06.02.08.07.11A3.076,3.076,0,0,0,31.96.1c1.23,0,1.97-.59,1.97-1.53,0-.71-.39-1.16-1.53-1.58-.64-.25-.79-.4-.79-.62s.18-.43.71-.43A2.844,2.844,0,0,1,33.57-3.77Zm4.25,1.58a7.617,7.617,0,0,0,1.03-.04.086.086,0,0,0,.08-.07,3.027,3.027,0,0,0,.04-.62,1.988,1.988,0,0,0-2.05-2.11,2.4,2.4,0,0,0-2.35,2.62A2.31,2.31,0,0,0,37.04.1a3.32,3.32,0,0,0,1.5-.29A.106.106,0,0,0,38.6-.3v-.83c0-.05-.03-.06-.06-.04a3.151,3.151,0,0,1-1.24.24c-1.02,0-1.48-.56-1.51-1.26Zm-2.03-.86a1.092,1.092,0,0,1,1.08-1.02.925.925,0,0,1,.96.93v.08a4.9,4.9,0,0,1-.55.01Zm6.99-.72c.06.02.09-.01.09-.06v-.88a.122.122,0,0,0-.06-.12,3.082,3.082,0,0,0-1.26-.2c-1.25,0-1.87.71-1.87,1.47,0,.72.39,1.17,1.48,1.57.62.25.81.41.81.66s-.25.44-.77.44a2.722,2.722,0,0,1-1.43-.4.052.052,0,0,0-.08.05v.95c0,.06.02.08.07.11A3.076,3.076,0,0,0,41.17.1c1.23,0,1.97-.59,1.97-1.53,0-.71-.39-1.16-1.53-1.58-.64-.25-.79-.4-.79-.62s.18-.43.71-.43A2.844,2.844,0,0,1,42.78-3.77Zm6.07,2.8a1.828,1.828,0,0,1-.71.12c-.72,0-.98-.32-.98-.69,0-.43.35-.69,1.14-.69a4.114,4.114,0,0,1,.55.03Zm1.17-2.08a1.815,1.815,0,0,0-1.99-1.98,3.715,3.715,0,0,0-1.52.3.1.1,0,0,0-.06.1v.87a.058.058,0,0,0,.08.06,2.975,2.975,0,0,1,1.31-.28c.88,0,1.01.52,1.01.75v.12c-.09-.01-.32-.02-.62-.02-1.3,0-2.25.53-2.25,1.59,0,1.13.87,1.64,1.96,1.64a4.864,4.864,0,0,0,2.08-.45c.02-.01.02-.02.02-.04-.02-.21-.02-.41-.02-.63ZM51.28-.08c0,.05.02.08.08.08h1.05a.074.074,0,0,0,.08-.08V-3.57a1.28,1.28,0,0,1,.97-.41c.58,0,.86.38.86,1.04V-.09a.08.08,0,0,0,.09.09h1.04c.05,0,.08-.02.08-.09V-3.05c0-1.6-.92-1.98-1.67-1.98a2.2,2.2,0,0,0-1.45.55,2.177,2.177,0,0,0-.07-.38c-.02-.05-.05-.07-.12-.07h-.91c-.06,0-.07.02-.07.07.02.2.04.74.04,1.08ZM59.04.1a4.742,4.742,0,0,0,1.89-.39.078.078,0,0,0,.06-.09c-.02-.18-.04-.44-.04-.64V-7.06c0-.04,0-.06-.05-.06H59.81c-.04,0-.06.02-.06.07V-5a3.46,3.46,0,0,0-.43-.03,2.614,2.614,0,0,0-2.84,2.61A2.356,2.356,0,0,0,59.04.1Zm.71-1.12a1.849,1.849,0,0,1-.58.08,1.366,1.366,0,0,1-1.45-1.54,1.464,1.464,0,0,1,1.56-1.54,1.33,1.33,0,0,1,.47.07ZM66.06.1c1.51,0,2.43-.76,2.43-1.93,0-.79-.37-1.42-1.67-1.96l-.38-.16c-.79-.33-1.02-.58-1.02-.94s.27-.71,1.13-.71a3.124,3.124,0,0,1,1.51.33c.06.04.09,0,.09-.04v-.97c0-.07-.01-.1-.06-.13a3.666,3.666,0,0,0-1.53-.26c-1.51,0-2.32.82-2.32,1.89,0,.75.32,1.37,1.55,1.89l.48.2c.76.32,1,.6,1,.97,0,.43-.35.75-1.17.75a3.365,3.365,0,0,1-1.78-.52c-.04-.02-.08,0-.08.04V-.41a.149.149,0,0,0,.07.15A3.806,3.806,0,0,0,66.06.1Zm6.41-2.29a7.617,7.617,0,0,0,1.03-.04.086.086,0,0,0,.08-.07,3.027,3.027,0,0,0,.04-.62,1.988,1.988,0,0,0-2.05-2.11,2.4,2.4,0,0,0-2.35,2.62A2.31,2.31,0,0,0,71.69.1a3.32,3.32,0,0,0,1.5-.29.106.106,0,0,0,.06-.11v-.83c0-.05-.03-.06-.06-.04a3.151,3.151,0,0,1-1.24.24c-1.02,0-1.48-.56-1.51-1.26Zm-2.03-.86a1.092,1.092,0,0,1,1.08-1.02.925.925,0,0,1,.96.93v.08a4.9,4.9,0,0,1-.55.01ZM77.08-.97a1.828,1.828,0,0,1-.71.12c-.72,0-.98-.32-.98-.69,0-.43.35-.69,1.14-.69a4.114,4.114,0,0,1,.55.03Zm1.17-2.08a1.815,1.815,0,0,0-1.99-1.98,3.715,3.715,0,0,0-1.52.3.1.1,0,0,0-.06.1v.87a.058.058,0,0,0,.08.06,2.975,2.975,0,0,1,1.31-.28c.88,0,1.01.52,1.01.75v.12c-.09-.01-.32-.02-.62-.02-1.3,0-2.25.53-2.25,1.59,0,1.13.87,1.64,1.96,1.64a4.864,4.864,0,0,0,2.08-.45c.02-.01.02-.02.02-.04-.02-.21-.02-.41-.02-.63Zm1.27-1.88c-.05,0-.06.01-.06.06.04.33.05.91.05,1.34V-.08c0,.05.02.08.09.08h1.04c.06,0,.09-.02.09-.08V-3.3a1.943,1.943,0,0,1,1.53-.53c.07,0,.09-.02.09-.07V-4.96c0-.06-.02-.07-.08-.07a2.083,2.083,0,0,0-1.6.78,2.261,2.261,0,0,0-.1-.6.1.1,0,0,0-.11-.08Zm7,3.9c0-.04-.02-.07-.07-.05a2.879,2.879,0,0,1-.87.1,1.435,1.435,0,0,1-1.56-1.51,1.42,1.42,0,0,1,1.55-1.5,2.351,2.351,0,0,1,.86.13c.04.01.08.01.08-.06l.01-.89c0-.06-.01-.09-.05-.11a2.872,2.872,0,0,0-.94-.11,2.558,2.558,0,0,0-2.75,2.58A2.432,2.432,0,0,0,85.36.1a3.046,3.046,0,0,0,1.11-.16c.04-.01.05-.03.05-.08Zm2.14-2.6a1.419,1.419,0,0,1,.96-.35c.58,0,.87.38.87,1.05V-.09a.08.08,0,0,0,.09.09h1.04c.05,0,.08-.02.08-.09V-3.05c0-1.6-.91-1.98-1.67-1.98a2.193,2.193,0,0,0-1.37.46V-7.05c0-.05-.01-.07-.07-.07H87.53c-.06,0-.08.03-.08.07V-.08c0,.05.02.08.08.08h1.06c.06,0,.07-.02.07-.07Zm7.92-2.86c0-.06-.02-.08-.08-.08H95.45c-.05,0-.08.01-.08.08v6.4c0,.06.02.09.08.09H96.5c.06,0,.08-.02.08-.09ZM97.89-.08c0,.05.02.08.08.08h1.05a.074.074,0,0,0,.08-.08V-3.57a1.28,1.28,0,0,1,.97-.41c.58,0,.86.38.86,1.04V-.09a.08.08,0,0,0,.09.09h1.04c.05,0,.08-.02.08-.09V-3.05c0-1.6-.92-1.98-1.67-1.98a2.2,2.2,0,0,0-1.45.55,2.178,2.178,0,0,0-.07-.38c-.02-.05-.05-.07-.12-.07h-.91c-.06,0-.07.02-.07.07.02.2.04.74.04,1.08Zm7.76.18a4.742,4.742,0,0,0,1.89-.39.078.078,0,0,0,.06-.09c-.02-.18-.04-.44-.04-.64V-7.06c0-.04,0-.06-.05-.06h-1.09c-.04,0-.06.02-.06.07V-5a3.46,3.46,0,0,0-.43-.03,2.614,2.614,0,0,0-2.84,2.61A2.356,2.356,0,0,0,105.65.1Zm.71-1.12a1.849,1.849,0,0,1-.58.08,1.366,1.366,0,0,1-1.45-1.54,1.464,1.464,0,0,1,1.56-1.54,1.33,1.33,0,0,1,.47.07Zm5.41-1.17a7.617,7.617,0,0,0,1.03-.04.086.086,0,0,0,.08-.07,3.027,3.027,0,0,0,.04-.62,1.988,1.988,0,0,0-2.05-2.11,2.4,2.4,0,0,0-2.35,2.62A2.31,2.31,0,0,0,110.99.1a3.32,3.32,0,0,0,1.5-.29.106.106,0,0,0,.06-.11v-.83c0-.05-.03-.06-.06-.04a3.151,3.151,0,0,1-1.24.24c-1.02,0-1.48-.56-1.51-1.26Zm-2.03-.86a1.092,1.092,0,0,1,1.08-1.02.925.925,0,0,1,.96.93v.08a4.9,4.9,0,0,1-.55.01Zm5.05.6c-.43.63-1.12,1.73-1.54,2.36a.056.056,0,0,0,.05.09h1.07c.07,0,.09-.02.11-.06l1.03-1.76h.01l1,1.74a.144.144,0,0,0,.13.08h1.23c.07,0,.09-.04.05-.08-.35-.51-1.18-1.76-1.61-2.43.39-.55,1.16-1.78,1.51-2.34.03-.05.01-.08-.05-.08h-1.06c-.05,0-.06,0-.09.05l-1,1.75h-.02l-.95-1.73c-.03-.06-.05-.07-.12-.07h-1.2c-.07,0-.08.05-.05.09Zm6.64.26a7.617,7.617,0,0,0,1.03-.04.086.086,0,0,0,.08-.07,3.027,3.027,0,0,0,.04-.62,1.988,1.988,0,0,0-2.05-2.11,2.4,2.4,0,0,0-2.35,2.62A2.31,2.31,0,0,0,120.65.1a3.32,3.32,0,0,0,1.5-.29.106.106,0,0,0,.06-.11v-.83c0-.05-.03-.06-.06-.04a3.151,3.151,0,0,1-1.24.24c-1.02,0-1.48-.56-1.51-1.26Zm-2.03-.86a1.092,1.092,0,0,1,1.08-1.02.925.925,0,0,1,.96.93v.08a4.9,4.9,0,0,1-.55.01Zm6.99-.72c.06.02.09-.01.09-.06v-.88a.122.122,0,0,0-.06-.12,3.082,3.082,0,0,0-1.26-.2c-1.25,0-1.87.71-1.87,1.47,0,.72.39,1.17,1.48,1.57.62.25.81.41.81.66s-.25.44-.77.44a2.722,2.722,0,0,1-1.43-.4.052.052,0,0,0-.08.05v.95c0,.06.02.08.07.11a3.076,3.076,0,0,0,1.41.28c1.23,0,1.97-.59,1.97-1.53,0-.71-.39-1.16-1.53-1.58-.64-.25-.79-.4-.79-.62s.18-.43.71-.43A2.844,2.844,0,0,1,126.39-3.77Z" transform="translate(34.06 19.225)"/><g class="ac" transform="translate(11.353 7.805)"><rect class="o" width="17.03" height="17.03"/><g transform="translate(0.71 2.129)"><line class="ad" x1="2.96" y1="2.96" transform="translate(12.65 8.393)"/><line class="ad" x1="4.967" transform="translate(0 4.258)"/><line class="ad" x1="4.967" transform="translate(0 8.515)"/><line class="ad" x1="10.644" transform="translate(0 12.773)"/><line class="ad" x1="10.644"/><circle class="ad" cx="2.838" cy="2.838" r="2.838" transform="translate(7.805 3.548)"/></g></g></g><g transform="translate(187.388)"><g class="ao" transform="matrix(1, 0, 0, 1, -557.95, -138.85)"><rect class="c" width="66.701" height="31.931" rx="8" transform="translate(557.95 138.85)"/></g><path class="ab" d="M5.24-1.1c0-.06-.03-.07-.07-.05a3.554,3.554,0,0,1-1.23.17A2.187,2.187,0,0,1,1.61-3.3,2.155,2.155,0,0,1,3.92-5.6a3.2,3.2,0,0,1,1.3.22c.04.02.08.02.08-.06v-.95a.106.106,0,0,0-.06-.11,3.423,3.423,0,0,0-1.3-.17A3.3,3.3,0,0,0,.36-3.27,3.182,3.182,0,0,0,3.79.1,4.312,4.312,0,0,0,5.17-.08a.127.127,0,0,0,.07-.13ZM7.42,0c.05,0,.08-.02.08-.08V-2.52h.86c.11,0,.16.05.23.17.44.7,1.14,1.85,1.43,2.3a.167.167,0,0,0,.14.05h1.25c.06,0,.05-.05.02-.11-.29-.5-1.49-2.29-1.82-2.75A1.859,1.859,0,0,0,10.9-4.62c0-1.28-.94-1.97-2.54-1.97-.77,0-1.19.01-1.98.03-.06,0-.07.04-.07.09V-.08c0,.06.02.08.08.08ZM7.5-3.55V-5.52c.16-.01.48-.02.82-.02.85,0,1.38.33,1.38.99,0,.64-.52,1-1.33,1Zm4.89-2.96L12.01-.08c-.01.07.01.08.07.08h1c.06,0,.08-.01.08-.07.1-2.1.18-4.64.19-5.65h.02c.28,1.22,1.08,4.13,1.51,5.65.01.06.03.07.1.07h1a.079.079,0,0,0,.09-.08c.4-1.33,1.43-4.67,1.66-5.63h.01c-.01.63.01,3.51.06,5.64,0,.06.03.07.08.07h1.11c.05,0,.08-.02.07-.08l-.27-6.43c-.01-.05-.03-.06-.08-.06H17.15c-.06,0-.07.03-.09.07-.31,1.03-1.3,4.06-1.51,4.91h-.01c-.2-.93-1.07-3.9-1.37-4.91a.09.09,0,0,0-.1-.07h-1.6C12.42-6.57,12.4-6.57,12.39-6.51Z" transform="translate(34.06 19.225)"/><g class="ac" transform="translate(11.353 7.805)"><rect class="o" width="17.03" height="17.03"/><g transform="translate(0.71 0.71)"><rect class="ae" width="7.096" height="1.419" transform="translate(0 8.515)"/><rect class="ae" width="7.096" height="1.419" transform="translate(8.515 8.515)"/><rect class="ae" width="7.096" height="1.419" transform="translate(0 11.353)"/><rect class="ae" width="7.096" height="1.419" transform="translate(8.515 11.353)"/><rect class="ae" width="7.096" height="1.419" transform="translate(0 14.192)"/><rect class="ae" width="7.096" height="1.419" transform="translate(8.515 14.192)"/><path class="ae" d="M1,1.71V7.386a.71.71,0,0,0,.71.71H15.9a.71.71,0,0,0,.71-.71V1.71A.71.71,0,0,0,15.9,1H1.71A.71.71,0,0,0,1,1.71ZM8.1,5.967H3.129V3.129H8.1Zm6.386,0H9.515V3.129h4.967Z" transform="translate(-1 -1)"/></g></g></g></g><g transform="translate(0.71 43.285)"><g transform="translate(0)"><g class="an" transform="matrix(1, 0, 0, 1, -343.48, -52.28)"><rect class="c" width="161.076" height="31.931" rx="8" transform="translate(343.48 52.28)"/></g><path class="ab" d="M1.01-6.51.63-.08C.62-.01.64,0,.7,0h1c.06,0,.08-.01.08-.07.1-2.1.18-4.64.19-5.65h.02C2.27-4.5,3.07-1.59,3.5-.07c.01.06.03.07.1.07h1a.079.079,0,0,0,.09-.08c.4-1.33,1.43-4.67,1.66-5.63h.01c-.01.63.01,3.51.06,5.64,0,.06.03.07.08.07H7.61c.05,0,.08-.02.07-.08L7.41-6.51c-.01-.05-.03-.06-.08-.06H5.77c-.06,0-.07.03-.09.07-.31,1.03-1.3,4.06-1.51,4.91H4.16c-.2-.93-1.07-3.9-1.37-4.91a.09.09,0,0,0-.1-.07H1.09C1.04-6.57,1.02-6.57,1.01-6.51ZM11.44-.97a1.828,1.828,0,0,1-.71.12c-.72,0-.98-.32-.98-.69,0-.43.35-.69,1.14-.69a4.114,4.114,0,0,1,.55.03Zm1.17-2.08a1.815,1.815,0,0,0-1.99-1.98,3.715,3.715,0,0,0-1.52.3.1.1,0,0,0-.06.1v.87a.058.058,0,0,0,.08.06,2.975,2.975,0,0,1,1.31-.28c.88,0,1.01.52,1.01.75v.12c-.09-.01-.32-.02-.62-.02-1.3,0-2.25.53-2.25,1.59C8.57-.41,9.44.1,10.53.1a4.864,4.864,0,0,0,2.08-.45c.02-.01.02-.02.02-.04-.02-.21-.02-.41-.02-.63Zm4.65,2.02c0-.04-.02-.07-.07-.05a2.879,2.879,0,0,1-.87.1,1.435,1.435,0,0,1-1.56-1.51,1.42,1.42,0,0,1,1.55-1.5,2.351,2.351,0,0,1,.86.13c.04.01.08.01.08-.06l.01-.89c0-.06-.01-.09-.05-.11a2.872,2.872,0,0,0-.94-.11,2.558,2.558,0,0,0-2.75,2.58A2.432,2.432,0,0,0,16.1.1a3.046,3.046,0,0,0,1.11-.16c.04-.01.05-.03.05-.08Zm2.14-2.6a1.419,1.419,0,0,1,.96-.35c.58,0,.87.38.87,1.05V-.09a.08.08,0,0,0,.09.09h1.04c.05,0,.08-.02.08-.09V-3.05c0-1.6-.91-1.98-1.67-1.98a2.193,2.193,0,0,0-1.37.46V-7.05c0-.05-.01-.07-.07-.07H18.27c-.06,0-.08.03-.08.07V-.08c0,.05.02.08.08.08h1.06c.06,0,.07-.02.07-.07ZM23.71-.09c0,.06.03.09.1.09h1.03c.07,0,.09-.02.09-.08V-4.86c0-.06-.02-.07-.08-.07H23.79c-.05,0-.08.02-.08.07Zm.61-5.51a.651.651,0,0,0,.69-.69.643.643,0,0,0-.68-.69.662.662,0,0,0-.69.69A.648.648,0,0,0,24.32-5.6ZM26.16-.08c0,.05.02.08.08.08h1.05a.074.074,0,0,0,.08-.08V-3.57a1.28,1.28,0,0,1,.97-.41c.58,0,.86.38.86,1.04V-.09a.08.08,0,0,0,.09.09h1.04c.05,0,.08-.02.08-.09V-3.05c0-1.6-.92-1.98-1.67-1.98a2.2,2.2,0,0,0-1.45.55,2.177,2.177,0,0,0-.07-.38c-.02-.05-.05-.07-.12-.07h-.91c-.06,0-.07.02-.07.07.02.2.04.74.04,1.08Zm8.45-2.11a7.617,7.617,0,0,0,1.03-.04.086.086,0,0,0,.08-.07,3.027,3.027,0,0,0,.04-.62,1.988,1.988,0,0,0-2.05-2.11,2.4,2.4,0,0,0-2.35,2.62A2.31,2.31,0,0,0,33.83.1a3.32,3.32,0,0,0,1.5-.29.106.106,0,0,0,.06-.11v-.83c0-.05-.03-.06-.06-.04a3.151,3.151,0,0,1-1.24.24c-1.02,0-1.48-.56-1.51-1.26Zm-2.03-.86a1.092,1.092,0,0,1,1.08-1.02.925.925,0,0,1,.96.93v.08a4.9,4.9,0,0,1-.55.01ZM43.05,0c.05,0,.08-.01.09-.08l.17-.94c.01-.04-.01-.07-.07-.07H40.3V-6.5c0-.04-.02-.07-.06-.07H39.17c-.06,0-.08.04-.08.09V-.1c0,.07.02.1.1.1Zm3.94-2.19a7.617,7.617,0,0,0,1.03-.04.086.086,0,0,0,.08-.07,3.027,3.027,0,0,0,.04-.62,1.988,1.988,0,0,0-2.05-2.11,2.4,2.4,0,0,0-2.35,2.62A2.31,2.31,0,0,0,46.21.1a3.32,3.32,0,0,0,1.5-.29.106.106,0,0,0,.06-.11v-.83c0-.05-.03-.06-.06-.04a3.151,3.151,0,0,1-1.24.24c-1.02,0-1.48-.56-1.51-1.26Zm-2.03-.86a1.092,1.092,0,0,1,1.08-1.02.925.925,0,0,1,.96.93v.08a4.9,4.9,0,0,1-.55.01ZM51.6-.97a1.828,1.828,0,0,1-.71.12c-.72,0-.98-.32-.98-.69,0-.43.35-.69,1.14-.69a4.114,4.114,0,0,1,.55.03Zm1.17-2.08a1.815,1.815,0,0,0-1.99-1.98,3.715,3.715,0,0,0-1.52.3.1.1,0,0,0-.06.1v.87a.058.058,0,0,0,.08.06,2.975,2.975,0,0,1,1.31-.28c.88,0,1.01.52,1.01.75v.12c-.09-.01-.32-.02-.62-.02-1.3,0-2.25.53-2.25,1.59C48.73-.41,49.6.1,50.69.1a4.864,4.864,0,0,0,2.08-.45c.02-.01.02-.02.02-.04-.02-.21-.02-.41-.02-.63Zm1.27-1.88c-.05,0-.06.01-.06.06.04.33.05.91.05,1.34V-.08c0,.05.02.08.09.08h1.04c.06,0,.09-.02.09-.08V-3.3a1.943,1.943,0,0,1,1.53-.53c.07,0,.09-.02.09-.07V-4.96c0-.06-.02-.07-.08-.07a2.083,2.083,0,0,0-1.6.78,2.26,2.26,0,0,0-.1-.6.1.1,0,0,0-.11-.08ZM57.58-.08c0,.05.02.08.08.08h1.05a.074.074,0,0,0,.08-.08V-3.57a1.28,1.28,0,0,1,.97-.41c.58,0,.86.38.86,1.04V-.09a.08.08,0,0,0,.09.09h1.04c.05,0,.08-.02.08-.09V-3.05c0-1.6-.92-1.98-1.67-1.98a2.2,2.2,0,0,0-1.45.55,2.177,2.177,0,0,0-.07-.38c-.02-.05-.05-.07-.12-.07h-.91c-.06,0-.07.02-.07.07.02.2.04.74.04,1.08Zm5.51-.01c0,.06.03.09.1.09h1.03c.07,0,.09-.02.09-.08V-4.86c0-.06-.02-.07-.08-.07H63.17c-.05,0-.08.02-.08.07ZM63.7-5.6a.651.651,0,0,0,.69-.69.643.643,0,0,0-.68-.69.662.662,0,0,0-.69.69A.648.648,0,0,0,63.7-5.6ZM65.54-.08c0,.05.02.08.08.08h1.05a.074.074,0,0,0,.08-.08V-3.57a1.28,1.28,0,0,1,.97-.41c.58,0,.86.38.86,1.04V-.09a.08.08,0,0,0,.09.09h1.04c.05,0,.08-.02.08-.09V-3.05c0-1.6-.92-1.98-1.67-1.98a2.2,2.2,0,0,0-1.45.55,2.178,2.178,0,0,0-.07-.38c-.02-.05-.05-.07-.12-.07h-.91c-.06,0-.07.02-.07.07.02.2.04.74.04,1.08Zm7.62.05c.61.03,1.11.15,1.11.59,0,.38-.42.77-1.37.77-.83,0-1.31-.39-1.31-.74a1.1,1.1,0,0,1,.48-.67Zm-.48-4.13a.751.751,0,0,1,.8.84.726.726,0,0,1-.8.78.748.748,0,0,1-.81-.8A.754.754,0,0,1,72.68-4.16ZM72.4-1.09a.563.563,0,0,1-.13-.31.618.618,0,0,1,.03-.3,2.693,2.693,0,0,0,.4.03c1.08,0,1.93-.54,1.93-1.61a1.3,1.3,0,0,0-.22-.76,7.088,7.088,0,0,0,.77.05c.05,0,.06-.02.06-.06v-.82c0-.04-.01-.06-.06-.06H73.79a1.115,1.115,0,0,1-.23-.03,5.037,5.037,0,0,0-.88-.07,1.763,1.763,0,0,0-1.99,1.71,1.467,1.467,0,0,0,.69,1.3,1.249,1.249,0,0,0-.18.65,1.238,1.238,0,0,0,.21.75c-.66.57-.93.98-.93,1.3,0,.73.73,1.54,2.34,1.54,1.56,0,2.56-.82,2.56-1.84,0-.82-.59-1.36-1.96-1.43Zm6.29-5.42L78.31-.08c-.01.07.01.08.07.08h1c.06,0,.08-.01.08-.07.1-2.1.18-4.64.19-5.65h.02c.28,1.22,1.08,4.13,1.51,5.65.01.06.03.07.1.07h1a.079.079,0,0,0,.09-.08c.4-1.33,1.43-4.67,1.66-5.63h.01c-.01.63.01,3.51.06,5.64,0,.06.03.07.08.07h1.11c.05,0,.08-.02.07-.08l-.27-6.43c-.01-.05-.03-.06-.08-.06H83.45c-.06,0-.07.03-.09.07-.31,1.03-1.3,4.06-1.51,4.91h-.01c-.2-.93-1.07-3.9-1.37-4.91a.09.09,0,0,0-.1-.07h-1.6C78.72-6.57,78.7-6.57,78.69-6.51Zm9.97,1.48a2.406,2.406,0,0,0-2.43,2.57A2.363,2.363,0,0,0,88.64.1a2.38,2.38,0,0,0,2.4-2.59A2.346,2.346,0,0,0,88.66-5.03ZM88.6-4.02c.85,0,1.21.73,1.21,1.56,0,1.03-.53,1.54-1.15,1.54-.76,0-1.21-.64-1.21-1.56C87.45-3.43,87.93-4.02,88.6-4.02ZM94.29.1a4.742,4.742,0,0,0,1.89-.39.078.078,0,0,0,.06-.09c-.02-.18-.04-.44-.04-.64V-7.06c0-.04,0-.06-.05-.06H95.06c-.04,0-.06.02-.06.07V-5a3.46,3.46,0,0,0-.43-.03,2.614,2.614,0,0,0-2.84,2.61A2.356,2.356,0,0,0,94.29.1ZM95-1.02a1.849,1.849,0,0,1-.58.08,1.366,1.366,0,0,1-1.45-1.54,1.464,1.464,0,0,1,1.56-1.54,1.33,1.33,0,0,1,.47.07Zm5.41-1.17a7.617,7.617,0,0,0,1.03-.04.086.086,0,0,0,.08-.07,3.027,3.027,0,0,0,.04-.62,1.988,1.988,0,0,0-2.05-2.11,2.4,2.4,0,0,0-2.35,2.62A2.31,2.31,0,0,0,99.63.1a3.32,3.32,0,0,0,1.5-.29.106.106,0,0,0,.06-.11v-.83c0-.05-.03-.06-.06-.04a3.151,3.151,0,0,1-1.24.24c-1.02,0-1.48-.56-1.51-1.26Zm-2.03-.86a1.092,1.092,0,0,1,1.08-1.02.925.925,0,0,1,.96.93v.08a4.9,4.9,0,0,1-.55.01Zm4.08,1.86c0,1.05.52,1.29,1.16,1.29a1.458,1.458,0,0,0,.57-.08c.05-.03.06-.04.06-.11V-.84c0-.05-.01-.07-.04-.06a1.275,1.275,0,0,1-.19.01c-.24,0-.35-.1-.35-.41V-7.04c0-.05-.03-.08-.09-.08h-1.03c-.06,0-.09.03-.09.08Zm5.51-2.58c.06.02.09-.01.09-.06v-.88a.122.122,0,0,0-.06-.12,3.083,3.083,0,0,0-1.26-.2c-1.25,0-1.87.71-1.87,1.47,0,.72.39,1.17,1.48,1.57.62.25.81.41.81.66s-.25.44-.77.44a2.722,2.722,0,0,1-1.43-.4.052.052,0,0,0-.08.05v.95c0,.06.02.08.07.11a3.076,3.076,0,0,0,1.41.28c1.23,0,1.97-.59,1.97-1.53,0-.71-.39-1.16-1.53-1.58-.64-.25-.79-.4-.79-.62s.18-.43.71-.43A2.844,2.844,0,0,1,107.97-3.77Z" transform="translate(34.06 19.225)"/><g class="ac" transform="translate(11.353 7.805)"><rect class="o" width="17.03" height="17.03" transform="translate(0.01 0)"/><g transform="translate(0 0)"><path class="ae" d="M17.026,5.677a2.121,2.121,0,0,0-3.7-1.423L8.5,2.242c0-.038.011-.071.011-.114a2.129,2.129,0,1,0-4.258,0A2.106,2.106,0,0,0,4.683,3.4L2.643,6.457a2.084,2.084,0,0,0-.519-.071,2.129,2.129,0,1,0,2.1,2.388l8.236-1.83L7.375,11.61a2.1,2.1,0,0,0-.993-.257,2.129,2.129,0,1,0,1.958,1.3l5.548-5.086-.808,5.251a2.144,2.144,0,1,0,1.4.224l.811-5.272A2.129,2.129,0,0,0,17.026,5.677ZM7.954,3.552l4.6,1.916L3.923,7.384c-.031-.05-.065-.1-.1-.142l2.04-3.055a2.084,2.084,0,0,0,.519.071,2.117,2.117,0,0,0,1.572-.705Z" transform="translate(0.015 0)"/></g></g></g><g transform="translate(167.462)"><g class="am" transform="matrix(1, 0, 0, 1, -510.94, -52.28)"><rect class="c" width="141.208" height="31.931" rx="8" transform="translate(510.94 52.28)"/></g><path class="ab" d="M5.24-1.1c0-.06-.03-.07-.07-.05a3.554,3.554,0,0,1-1.23.17A2.187,2.187,0,0,1,1.61-3.3,2.155,2.155,0,0,1,3.92-5.6a3.2,3.2,0,0,1,1.3.22c.04.02.08.02.08-.06v-.95a.106.106,0,0,0-.06-.11,3.423,3.423,0,0,0-1.3-.17A3.3,3.3,0,0,0,.36-3.27,3.182,3.182,0,0,0,3.79.1,4.312,4.312,0,0,0,5.17-.08a.127.127,0,0,0,.07-.13ZM8.26-5.03A2.406,2.406,0,0,0,5.83-2.46,2.363,2.363,0,0,0,8.24.1a2.38,2.38,0,0,0,2.4-2.59A2.346,2.346,0,0,0,8.26-5.03ZM8.2-4.02c.85,0,1.21.73,1.21,1.56,0,1.03-.53,1.54-1.15,1.54-.76,0-1.21-.64-1.21-1.56C7.05-3.43,7.53-4.02,8.2-4.02ZM11.58-.08c0,.05.02.08.08.08h1.05a.074.074,0,0,0,.08-.08V-3.57a1.28,1.28,0,0,1,.97-.41c.58,0,.86.38.86,1.04V-.09a.08.08,0,0,0,.09.09h1.04c.05,0,.08-.02.08-.09V-3.05c0-1.6-.92-1.98-1.67-1.98a2.2,2.2,0,0,0-1.45.55,2.177,2.177,0,0,0-.07-.38c-.02-.05-.05-.07-.12-.07h-.91c-.06,0-.07.02-.07.07.02.2.04.74.04,1.08Zm7.84-.8c0-.06-.03-.07-.06-.06a1.7,1.7,0,0,1-.38.04c-.43,0-.57-.21-.57-.65V-3.92h.98c.05,0,.07-.02.07-.07v-.87c0-.05-.02-.07-.07-.07h-.97c0-.49.02-1.08.05-1.41,0-.05-.02-.06-.07-.05l-1.01.14a.1.1,0,0,0-.08.09,10.554,10.554,0,0,0-.1,1.23h-.63c-.06,0-.08.02-.08.08v.84c0,.06.02.08.07.09h.63v2.63C17.2-.3,17.69.1,18.51.1a2.3,2.3,0,0,0,.85-.14c.05-.02.06-.06.06-.12Zm3.76-1.31a7.617,7.617,0,0,0,1.03-.04.086.086,0,0,0,.08-.07,3.027,3.027,0,0,0,.04-.62,1.988,1.988,0,0,0-2.05-2.11,2.4,2.4,0,0,0-2.35,2.62A2.31,2.31,0,0,0,22.4.1a3.32,3.32,0,0,0,1.5-.29.106.106,0,0,0,.06-.11v-.83c0-.05-.03-.06-.06-.04a3.151,3.151,0,0,1-1.24.24c-1.02,0-1.48-.56-1.51-1.26Zm-2.03-.86a1.092,1.092,0,0,1,1.08-1.02.925.925,0,0,1,.96.93v.08a4.9,4.9,0,0,1-.55.01ZM25.26-.08c0,.05.02.08.08.08h1.05a.074.074,0,0,0,.08-.08V-3.57a1.28,1.28,0,0,1,.97-.41c.58,0,.86.38.86,1.04V-.09a.08.08,0,0,0,.09.09h1.04c.05,0,.08-.02.08-.09V-3.05c0-1.6-.92-1.98-1.67-1.98a2.2,2.2,0,0,0-1.45.55,2.177,2.177,0,0,0-.07-.38c-.02-.05-.05-.07-.12-.07h-.91c-.06,0-.07.02-.07.07.02.2.04.74.04,1.08Zm7.84-.8c0-.06-.03-.07-.06-.06a1.7,1.7,0,0,1-.38.04c-.43,0-.57-.21-.57-.65V-3.92h.98c.05,0,.07-.02.07-.07v-.87c0-.05-.02-.07-.07-.07H32.1c0-.49.02-1.08.05-1.41,0-.05-.02-.06-.07-.05l-1.01.14a.1.1,0,0,0-.08.09,10.554,10.554,0,0,0-.1,1.23h-.63c-.06,0-.08.02-.08.08v.84c0,.06.02.08.07.09h.63v2.63c0,.99.49,1.39,1.31,1.39a2.3,2.3,0,0,0,.85-.14c.05-.02.06-.06.06-.12ZM37.43,0c.05,0,.08-.02.08-.08V-2.52h.86c.11,0,.16.05.23.17.44.7,1.14,1.85,1.43,2.3a.167.167,0,0,0,.14.05h1.25c.06,0,.05-.05.02-.11-.29-.5-1.49-2.29-1.82-2.75a1.859,1.859,0,0,0,1.29-1.76c0-1.28-.94-1.97-2.54-1.97-.77,0-1.19.01-1.98.03-.06,0-.07.04-.07.09V-.08c0,.06.02.08.08.08Zm.08-3.55V-5.52c.16-.01.48-.02.82-.02.85,0,1.38.33,1.38.99,0,.64-.52,1-1.33,1ZM44.9-2.19a7.617,7.617,0,0,0,1.03-.04.086.086,0,0,0,.08-.07,3.027,3.027,0,0,0,.04-.62A1.988,1.988,0,0,0,44-5.03a2.4,2.4,0,0,0-2.35,2.62A2.31,2.31,0,0,0,44.12.1a3.32,3.32,0,0,0,1.5-.29.106.106,0,0,0,.06-.11v-.83c0-.05-.03-.06-.06-.04a3.151,3.151,0,0,1-1.24.24c-1.02,0-1.48-.56-1.51-1.26Zm-2.03-.86a1.092,1.092,0,0,1,1.08-1.02.925.925,0,0,1,.96.93v.08a4.9,4.9,0,0,1-.55.01Zm6.14-1.98a6.1,6.1,0,0,0-2.02.4.047.047,0,0,0-.04.05c.02.14.03.47.03.59V2c0,.05.01.06.07.06s.72-.06,1.07-.1c.06-.01.07-.04.07-.08V.08a2.661,2.661,0,0,0,.3.02,2.75,2.75,0,0,0,2.99-2.73A2.3,2.3,0,0,0,49.01-5.03ZM48.9-4a1.278,1.278,0,0,1,1.34,1.45A1.551,1.551,0,0,1,48.59-.92a1.711,1.711,0,0,1-.4-.03V-3.9A2.257,2.257,0,0,1,48.9-4Zm7.71-.86c0-.05-.01-.07-.07-.07H55.49c-.06,0-.08.02-.08.07v3.55a1.268,1.268,0,0,1-.91.36c-.6,0-.87-.38-.87-1V-4.86c0-.05-.01-.07-.07-.07H52.51c-.06,0-.08.01-.08.07v3.05c0,1.4.73,1.91,1.68,1.91A1.976,1.976,0,0,0,55.5-.41a2.169,2.169,0,0,0,.07.35c.01.04.03.06.1.06h.92c.06,0,.09-.02.08-.07a8.879,8.879,0,0,1-.06-1.03Zm1.34-2.26a.063.063,0,0,0-.07.07V-.21a.107.107,0,0,0,.07.09,5,5,0,0,0,1.5.22,2.728,2.728,0,0,0,2.92-2.77,2.257,2.257,0,0,0-2.36-2.36,2.9,2.9,0,0,0-.91.14l-.01-2.15c0-.07-.02-.08-.09-.08Zm3.19,4.57A1.512,1.512,0,0,1,59.56-.92a1.665,1.665,0,0,1-.46-.05V-3.89A1.836,1.836,0,0,1,59.8-4,1.288,1.288,0,0,1,61.14-2.55Zm2.19,1.36c0,1.05.52,1.29,1.16,1.29a1.458,1.458,0,0,0,.57-.08c.05-.03.06-.04.06-.11V-.84c0-.05-.01-.07-.04-.06a1.275,1.275,0,0,1-.19.01c-.24,0-.35-.1-.35-.41V-7.04c0-.05-.03-.08-.09-.08H63.42c-.06,0-.09.03-.09.08Zm2.62,1.1c0,.06.03.09.1.09h1.03c.07,0,.09-.02.09-.08V-4.86c0-.06-.02-.07-.08-.07H66.03c-.05,0-.08.02-.08.07Zm.61-5.51a.651.651,0,0,0,.69-.69.643.643,0,0,0-.68-.69.662.662,0,0,0-.69.69A.648.648,0,0,0,66.56-5.6Zm4.73,1.83c.06.02.09-.01.09-.06v-.88a.122.122,0,0,0-.06-.12,3.083,3.083,0,0,0-1.26-.2c-1.25,0-1.87.71-1.87,1.47,0,.72.39,1.17,1.48,1.57.62.25.81.41.81.66s-.25.44-.77.44a2.722,2.722,0,0,1-1.43-.4.052.052,0,0,0-.08.05v.95c0,.06.02.08.07.11A3.076,3.076,0,0,0,69.68.1c1.23,0,1.97-.59,1.97-1.53,0-.71-.39-1.16-1.53-1.58-.64-.25-.79-.4-.79-.62s.18-.43.71-.43A2.844,2.844,0,0,1,71.29-3.77Zm2.42.14a1.419,1.419,0,0,1,.96-.35c.58,0,.87.38.87,1.05V-.09a.08.08,0,0,0,.09.09h1.04c.05,0,.08-.02.08-.09V-3.05c0-1.6-.91-1.98-1.67-1.98a2.193,2.193,0,0,0-1.37.46V-7.05c0-.05-.01-.07-.07-.07H72.58c-.06,0-.08.03-.08.07V-.08c0,.05.02.08.08.08h1.06c.06,0,.07-.02.07-.07ZM78.02-.09c0,.06.03.09.1.09h1.03c.07,0,.09-.02.09-.08V-4.86c0-.06-.02-.07-.08-.07H78.1c-.05,0-.08.02-.08.07Zm.61-5.51a.651.651,0,0,0,.69-.69.643.643,0,0,0-.68-.69.662.662,0,0,0-.69.69A.648.648,0,0,0,78.63-5.6ZM80.47-.08c0,.05.02.08.08.08H81.6a.074.074,0,0,0,.08-.08V-3.57a1.28,1.28,0,0,1,.97-.41c.58,0,.86.38.86,1.04V-.09A.08.08,0,0,0,83.6,0h1.04c.05,0,.08-.02.08-.09V-3.05c0-1.6-.92-1.98-1.67-1.98a2.2,2.2,0,0,0-1.45.55,2.178,2.178,0,0,0-.07-.38c-.02-.05-.05-.07-.12-.07H80.5c-.06,0-.07.02-.07.07.02.2.04.74.04,1.08Zm7.62.05C88.7,0,89.2.12,89.2.56c0,.38-.42.77-1.37.77-.83,0-1.31-.39-1.31-.74A1.1,1.1,0,0,1,87-.08Zm-.48-4.13a.751.751,0,0,1,.8.84.726.726,0,0,1-.8.78.748.748,0,0,1-.81-.8A.754.754,0,0,1,87.61-4.16Zm-.28,3.07a.563.563,0,0,1-.13-.31.618.618,0,0,1,.03-.3,2.693,2.693,0,0,0,.4.03c1.08,0,1.93-.54,1.93-1.61a1.3,1.3,0,0,0-.22-.76,7.088,7.088,0,0,0,.77.05c.05,0,.06-.02.06-.06v-.82c0-.04-.01-.06-.06-.06H88.72a1.115,1.115,0,0,1-.23-.03,5.037,5.037,0,0,0-.88-.07,1.763,1.763,0,0,0-1.99,1.71,1.467,1.467,0,0,0,.69,1.3,1.249,1.249,0,0,0-.18.65,1.238,1.238,0,0,0,.21.75c-.66.57-.93.98-.93,1.3,0,.73.73,1.54,2.34,1.54,1.56,0,2.56-.82,2.56-1.84,0-.82-.59-1.36-1.96-1.43Z" transform="translate(34.06 19.225)"/><g class="ac" transform="translate(11.353 7.096)"><rect class="af" width="17.03" height="17.03"/><path class="ae" d="M3.434,6.651c-.495-1.791.782-2.563.657-4.093A7.6,7.6,0,0,0,1,8.653c0,4.31,3.757,6.879,6.412,7.442a3.242,3.242,0,0,0,.495.08c.946-2.413-.839-5.1-2.017-6.856C4.908,7.857,4.017,8.76,3.434,6.651Z" transform="translate(-0.054 -0.138)"/><path class="ae" d="M15.814,9.057c-.762-.29-1.415.7-1.473-1.97a2.726,2.726,0,0,1,.788-1.892,1.458,1.458,0,0,1,.345-.165c-.09-.165-.189-.324-.293-.482-.018.009-.033.021-.052.029-.591.276-.673.358-.946,0a.746.746,0,0,1,.164-1.1,7.563,7.563,0,0,0-5.513-2.47c.959.013,2.1.724,1.52,1.859.088-.18-1.905-.61-2.176-.61-.365,0,.745-1.367.643-1.248a7.613,7.613,0,0,0-3.129.673c.516.335,1.093.218,1.675.362a1.426,1.426,0,0,1,.52.214,1.767,1.767,0,0,0-.52-.214c-.86-.1.416,2.26.368,1.946a1.09,1.09,0,0,1,2.16-.07A1.77,1.77,0,0,1,9.5,4.99c-.667.877-.8,2.438-1.135,2.039C5.247,5.751,5.59,7.441,6.614,8.57c1.639,1.807.807.185,2.953,1.132,1.726.761,3.8.941,3.3,1.514-1.534,1.736-1.211,2.886-3.923,4.92.226-.006.946-.078,1.093-.1A7.7,7.7,0,0,0,16.36,9.221a1.135,1.135,0,0,1-.546-.164Z" transform="translate(-0.307 -0.054)"/></g></g></g><g transform="translate(0 86.569)"><g class="al" transform="matrix(1, 0, 0, 1, -342.77, -95.57)"><rect class="c" width="128.435" height="31.931" rx="8" transform="translate(342.77 95.57)"/></g><path class="ab" d="M2.18.1C3.69.1,4.61-.66,4.61-1.83c0-.79-.37-1.42-1.67-1.96l-.38-.16c-.79-.33-1.02-.58-1.02-.94s.27-.71,1.13-.71a3.124,3.124,0,0,1,1.51.33c.06.04.09,0,.09-.04v-.97c0-.07-.01-.1-.06-.13a3.666,3.666,0,0,0-1.53-.26C1.17-6.67.36-5.85.36-4.78c0,.75.32,1.37,1.55,1.89l.48.2c.76.32,1,.6,1,.97,0,.43-.35.75-1.17.75A3.365,3.365,0,0,1,.44-1.49c-.04-.02-.08,0-.08.04V-.41a.149.149,0,0,0,.07.15A3.806,3.806,0,0,0,2.18.1ZM4.82-4.93c-.05,0-.08.03-.06.07C5.36-3.29,6.32-.91,6.59-.25a.219.219,0,0,1-.01.16c-.32.76-.64,1.47-.94,2.07-.02.06-.01.08.05.08l1.09-.08a.123.123,0,0,0,.13-.07C7.72.06,8.81-2.64,9.53-4.85c.01-.05,0-.08-.06-.08H8.44a.106.106,0,0,0-.11.06c-.45,1.4-.8,2.43-1.13,3.44C7.07-1.92,6.73-3,6.08-4.87a.084.084,0,0,0-.09-.06Zm8.32,1.16c.06.02.09-.01.09-.06v-.88a.122.122,0,0,0-.06-.12,3.082,3.082,0,0,0-1.26-.2c-1.25,0-1.87.71-1.87,1.47,0,.72.39,1.17,1.48,1.57.62.25.81.41.81.66s-.25.44-.77.44a2.722,2.722,0,0,1-1.43-.4.052.052,0,0,0-.08.05v.95c0,.06.02.08.07.11A3.076,3.076,0,0,0,11.53.1c1.23,0,1.97-.59,1.97-1.53,0-.71-.39-1.16-1.53-1.58-.64-.25-.79-.4-.79-.62s.18-.43.71-.43A2.844,2.844,0,0,1,13.14-3.77ZM16.81-.88c0-.06-.03-.07-.06-.06a1.7,1.7,0,0,1-.38.04c-.43,0-.57-.21-.57-.65V-3.92h.98c.05,0,.07-.02.07-.07v-.87c0-.05-.02-.07-.07-.07h-.97c0-.49.02-1.08.05-1.41,0-.05-.02-.06-.07-.05l-1.01.14a.1.1,0,0,0-.08.09,10.555,10.555,0,0,0-.1,1.23h-.63c-.06,0-.08.02-.08.08v.84c0,.06.02.08.07.09h.63v2.63C14.59-.3,15.08.1,15.9.1a2.3,2.3,0,0,0,.85-.14c.05-.02.06-.06.06-.12Zm3.76-1.31a7.617,7.617,0,0,0,1.03-.04.086.086,0,0,0,.08-.07,3.027,3.027,0,0,0,.04-.62,1.988,1.988,0,0,0-2.05-2.11,2.4,2.4,0,0,0-2.35,2.62A2.31,2.31,0,0,0,19.79.1a3.32,3.32,0,0,0,1.5-.29.106.106,0,0,0,.06-.11v-.83c0-.05-.03-.06-.06-.04a3.151,3.151,0,0,1-1.24.24c-1.02,0-1.48-.56-1.51-1.26Zm-2.03-.86a1.092,1.092,0,0,1,1.08-1.02.925.925,0,0,1,.96.93v.08a4.9,4.9,0,0,1-.55.01ZM23.78,0c.06,0,.08-.02.08-.08V-3.61a1.407,1.407,0,0,1,.95-.37c.54,0,.84.32.84.98V-.09c0,.07.03.09.09.09h1.04c.06,0,.07-.03.07-.08V-2.99a4.575,4.575,0,0,0-.03-.59,1.417,1.417,0,0,1,.98-.41c.61,0,.84.45.84,1.02V-.09c0,.06.02.09.09.09h1.03c.05,0,.09-.02.09-.08v-3c0-1.51-.86-1.95-1.69-1.95a2.464,2.464,0,0,0-1.64.66,1.4,1.4,0,0,0-1.29-.66,2.134,2.134,0,0,0-1.46.56,1.7,1.7,0,0,0-.06-.4.1.1,0,0,0-.1-.06h-.92c-.06,0-.09.02-.08.07.02.19.04.6.04.99V-.09c0,.06.02.09.08.09ZM33.92-3.77c.06.02.09-.01.09-.06v-.88a.122.122,0,0,0-.06-.12,3.082,3.082,0,0,0-1.26-.2c-1.25,0-1.87.71-1.87,1.47,0,.72.39,1.17,1.48,1.57.62.25.81.41.81.66s-.25.44-.77.44a2.722,2.722,0,0,1-1.43-.4.052.052,0,0,0-.08.05v.95c0,.06.02.08.07.11A3.076,3.076,0,0,0,32.31.1c1.23,0,1.97-.59,1.97-1.53,0-.71-.39-1.16-1.53-1.58-.64-.25-.79-.4-.79-.62s.18-.43.71-.43A2.844,2.844,0,0,1,33.92-3.77Zm5.66-1.26a2.406,2.406,0,0,0-2.43,2.57A2.363,2.363,0,0,0,39.56.1a2.38,2.38,0,0,0,2.4-2.59A2.346,2.346,0,0,0,39.58-5.03Zm-.06,1.01c.85,0,1.21.73,1.21,1.56,0,1.03-.53,1.54-1.15,1.54-.76,0-1.21-.64-1.21-1.56C38.37-3.43,38.85-4.02,39.52-4.02Zm3.51.1V-.08c0,.05.02.08.08.08h1.04c.08,0,.09-.03.09-.08V-3.92h.88c.06-.01.08-.02.08-.07v-.88c0-.04-.01-.06-.08-.06h-.88v-.33c0-.69.25-.91.66-.91a1.709,1.709,0,0,1,.31.03c.05.02.07-.01.07-.05v-.86c0-.05,0-.08-.06-.1a1.331,1.331,0,0,0-.49-.06,1.5,1.5,0,0,0-1.48.88,2.709,2.709,0,0,0-.22,1.17v.23h-.61c-.04,0-.06.01-.06.06v.88c0,.05.01.07.06.07ZM49.21,0c.05,0,.08-.02.08-.08V-2.52h.86c.11,0,.16.05.23.17.44.7,1.14,1.85,1.43,2.3a.167.167,0,0,0,.14.05H53.2c.06,0,.05-.05.02-.11-.29-.5-1.49-2.29-1.82-2.75a1.859,1.859,0,0,0,1.29-1.76c0-1.28-.94-1.97-2.54-1.97-.77,0-1.19.01-1.98.03-.06,0-.07.04-.07.09V-.08c0,.06.02.08.08.08Zm.08-3.55V-5.52c.16-.01.48-.02.82-.02.85,0,1.38.33,1.38.99,0,.64-.52,1-1.33,1Zm7.39,1.36a7.617,7.617,0,0,0,1.03-.04.086.086,0,0,0,.08-.07,3.027,3.027,0,0,0,.04-.62,1.988,1.988,0,0,0-2.05-2.11,2.4,2.4,0,0,0-2.35,2.62A2.31,2.31,0,0,0,55.9.1a3.32,3.32,0,0,0,1.5-.29.106.106,0,0,0,.06-.11v-.83c0-.05-.03-.06-.06-.04a3.151,3.151,0,0,1-1.24.24c-1.02,0-1.48-.56-1.51-1.26Zm-2.03-.86a1.092,1.092,0,0,1,1.08-1.02.925.925,0,0,1,.96.93v.08a4.9,4.9,0,0,1-.55.01Zm7.61,2.02c0-.04-.02-.07-.07-.05a2.88,2.88,0,0,1-.87.1,1.435,1.435,0,0,1-1.56-1.51,1.42,1.42,0,0,1,1.55-1.5,2.351,2.351,0,0,1,.86.13c.04.01.08.01.08-.06l.01-.89c0-.06-.01-.09-.05-.11a2.872,2.872,0,0,0-.94-.11,2.558,2.558,0,0,0-2.75,2.58A2.432,2.432,0,0,0,61.1.1a3.046,3.046,0,0,0,1.11-.16c.04-.01.05-.03.05-.08Zm3-4a2.406,2.406,0,0,0-2.43,2.57A2.363,2.363,0,0,0,65.24.1a2.38,2.38,0,0,0,2.4-2.59A2.346,2.346,0,0,0,65.26-5.03ZM65.2-4.02c.85,0,1.21.73,1.21,1.56,0,1.03-.53,1.54-1.15,1.54-.76,0-1.21-.64-1.21-1.56C64.05-3.43,64.53-4.02,65.2-4.02Zm3.39-.91c-.05,0-.06.01-.06.06.04.33.05.91.05,1.34V-.08c0,.05.02.08.09.08h1.04c.06,0,.09-.02.09-.08V-3.3a1.943,1.943,0,0,1,1.53-.53c.07,0,.09-.02.09-.07V-4.96c0-.06-.02-.07-.08-.07a2.083,2.083,0,0,0-1.6.78,2.261,2.261,0,0,0-.1-.6.1.1,0,0,0-.11-.08ZM74.41.1A4.742,4.742,0,0,0,76.3-.29a.078.078,0,0,0,.06-.09c-.02-.18-.04-.44-.04-.64V-7.06c0-.04,0-.06-.05-.06H75.18c-.04,0-.06.02-.06.07V-5a3.46,3.46,0,0,0-.43-.03,2.614,2.614,0,0,0-2.84,2.61A2.356,2.356,0,0,0,74.41.1Zm.71-1.12a1.849,1.849,0,0,1-.58.08,1.366,1.366,0,0,1-1.45-1.54,1.464,1.464,0,0,1,1.56-1.54,1.33,1.33,0,0,1,.47.07Z" transform="translate(34.06 19.225)"/><g class="ac" transform="translate(11.353 7.805)"><rect class="af" width="17.03" height="17.03"/><ellipse class="ae" cx="7.569" cy="2.365" rx="7.569" ry="2.365" transform="translate(0.946 0.946)"/><path class="ae" d="M8.569,12.03c-2.335,0-6.723-.553-7.569-1.892v4.127c0,1.306,3.389,2.365,7.569,2.365s7.569-1.059,7.569-2.365v-4.13C14.98,11.6,10.9,12.03,8.569,12.03Z" transform="translate(-0.054 -0.546)"/><path class="ae" d="M8.569,7.03C6.234,7.03,1.846,6.477,1,5.135V8.319c0,1.306,3.389,2.365,7.569,2.365s7.569-1.059,7.569-2.365V5.135C14.98,6.6,10.9,7.03,8.569,7.03Z" transform="translate(-0.054 -0.277)"/></g><g transform="translate(134.821)"><g class="ak" transform="matrix(1, 0, 0, 1, -477.59, -95.57)"><rect class="c" width="175.268" height="31.931" rx="8" transform="translate(477.59 95.57)"/></g><path class="ab" d="M1.8,0c.06,0,.08-.03.08-.09V-3.43c0-.91-.01-1.35-.05-1.86h.01c.39.97,2.22,4.2,2.74,5.22A.127.127,0,0,0,4.71,0H5.98c.07,0,.1-.02.1-.09V-6.48c0-.06-.02-.09-.09-.09H5.03c-.06,0-.09.03-.09.08v3.33c0,.94.02,1.27.03,1.55H4.96C4.61-2.36,3.08-5.18,2.34-6.5a.106.106,0,0,0-.12-.07H.81c-.05,0-.07.02-.07.07V-.09c0,.08.03.09.09.09ZM9.86-.97a1.828,1.828,0,0,1-.71.12c-.72,0-.98-.32-.98-.69,0-.43.35-.69,1.14-.69a4.114,4.114,0,0,1,.55.03Zm1.17-2.08A1.815,1.815,0,0,0,9.04-5.03a3.715,3.715,0,0,0-1.52.3.1.1,0,0,0-.06.1v.87a.058.058,0,0,0,.08.06,2.975,2.975,0,0,1,1.31-.28c.88,0,1.01.52,1.01.75v.12c-.09-.01-.32-.02-.62-.02-1.3,0-2.25.53-2.25,1.59C6.99-.41,7.86.1,8.95.1a4.864,4.864,0,0,0,2.08-.45c.02-.01.02-.02.02-.04-.02-.21-.02-.41-.02-.63ZM14.57-.88c0-.06-.03-.07-.06-.06a1.7,1.7,0,0,1-.38.04c-.43,0-.57-.21-.57-.65V-3.92h.98c.05,0,.07-.02.07-.07v-.87c0-.05-.02-.07-.07-.07h-.97c0-.49.02-1.08.05-1.41,0-.05-.02-.06-.07-.05l-1.01.14a.1.1,0,0,0-.08.09,10.555,10.555,0,0,0-.1,1.23h-.63c-.06,0-.08.02-.08.08v.84c0,.06.02.08.07.09h.63v2.63c0,.99.49,1.39,1.31,1.39a2.3,2.3,0,0,0,.85-.14c.05-.02.06-.06.06-.12Zm4.96-3.98c0-.05-.01-.07-.07-.07H18.41c-.06,0-.08.02-.08.07v3.55a1.268,1.268,0,0,1-.91.36c-.6,0-.87-.38-.87-1V-4.86c0-.05-.01-.07-.07-.07H15.43c-.06,0-.08.01-.08.07v3.05c0,1.4.73,1.91,1.68,1.91a1.976,1.976,0,0,0,1.39-.51,2.169,2.169,0,0,0,.07.35c.01.04.03.06.1.06h.92c.06,0,.09-.02.08-.07a8.878,8.878,0,0,1-.06-1.03Zm1.28-.07c-.05,0-.06.01-.06.06.04.33.05.91.05,1.34V-.08c0,.05.02.08.09.08h1.04c.06,0,.09-.02.09-.08V-3.3a1.943,1.943,0,0,1,1.53-.53c.07,0,.09-.02.09-.07V-4.96c0-.06-.02-.07-.08-.07a2.083,2.083,0,0,0-1.6.78,2.26,2.26,0,0,0-.1-.6.1.1,0,0,0-.11-.08ZM26.77-.97a1.828,1.828,0,0,1-.71.12c-.72,0-.98-.32-.98-.69,0-.43.35-.69,1.14-.69a4.114,4.114,0,0,1,.55.03Zm1.17-2.08a1.815,1.815,0,0,0-1.99-1.98,3.715,3.715,0,0,0-1.52.3.1.1,0,0,0-.06.1v.87a.058.058,0,0,0,.08.06,2.975,2.975,0,0,1,1.31-.28c.88,0,1.01.52,1.01.75v.12c-.09-.01-.32-.02-.62-.02-1.3,0-2.25.53-2.25,1.59C23.9-.41,24.77.1,25.86.1a4.864,4.864,0,0,0,2.08-.45c.02-.01.02-.02.02-.04-.02-.21-.02-.41-.02-.63ZM29.2-1.19C29.2-.14,29.72.1,30.36.1a1.458,1.458,0,0,0,.57-.08c.05-.03.06-.04.06-.11V-.84c0-.05-.01-.07-.04-.06a1.275,1.275,0,0,1-.19.01c-.24,0-.35-.1-.35-.41V-7.04c0-.05-.03-.08-.09-.08H29.29c-.06,0-.09.03-.09.08ZM38.21,0c.05,0,.08-.01.09-.08l.17-.94c.01-.04-.01-.07-.07-.07H35.46V-6.5c0-.04-.02-.07-.06-.07H34.33c-.06,0-.08.04-.08.09V-.1c0,.07.02.1.1.1Zm3.68-.97a1.828,1.828,0,0,1-.71.12c-.72,0-.98-.32-.98-.69,0-.43.35-.69,1.14-.69a4.114,4.114,0,0,1,.55.03Zm1.17-2.08a1.815,1.815,0,0,0-1.99-1.98,3.715,3.715,0,0,0-1.52.3.1.1,0,0,0-.06.1v.87a.058.058,0,0,0,.08.06,2.975,2.975,0,0,1,1.31-.28c.88,0,1.01.52,1.01.75v.12c-.09-.01-.32-.02-.62-.02-1.3,0-2.25.53-2.25,1.59,0,1.13.87,1.64,1.96,1.64a4.864,4.864,0,0,0,2.08-.45c.02-.01.02-.02.02-.04-.02-.21-.02-.41-.02-.63ZM44.32-.08c0,.05.02.08.08.08h1.05a.074.074,0,0,0,.08-.08V-3.57a1.28,1.28,0,0,1,.97-.41c.58,0,.86.38.86,1.04V-.09a.08.08,0,0,0,.09.09h1.04c.05,0,.08-.02.08-.09V-3.05c0-1.6-.92-1.98-1.67-1.98a2.2,2.2,0,0,0-1.45.55,2.177,2.177,0,0,0-.07-.38c-.02-.05-.05-.07-.12-.07h-.91c-.06,0-.07.02-.07.07.02.2.04.74.04,1.08Zm7.62.05c.61.03,1.11.15,1.11.59,0,.38-.42.77-1.37.77-.83,0-1.31-.39-1.31-.74a1.1,1.1,0,0,1,.48-.67Zm-.48-4.13a.751.751,0,0,1,.8.84.726.726,0,0,1-.8.78.748.748,0,0,1-.81-.8A.754.754,0,0,1,51.46-4.16Zm-.28,3.07a.562.562,0,0,1-.13-.31.618.618,0,0,1,.03-.3,2.693,2.693,0,0,0,.4.03c1.08,0,1.93-.54,1.93-1.61a1.3,1.3,0,0,0-.22-.76,7.088,7.088,0,0,0,.77.05c.05,0,.06-.02.06-.06v-.82c0-.04-.01-.06-.06-.06H52.57a1.115,1.115,0,0,1-.23-.03,5.037,5.037,0,0,0-.88-.07,1.763,1.763,0,0,0-1.99,1.71,1.467,1.467,0,0,0,.69,1.3,1.249,1.249,0,0,0-.18.65,1.238,1.238,0,0,0,.21.75c-.66.57-.93.98-.93,1.3,0,.73.73,1.54,2.34,1.54,1.56,0,2.56-.82,2.56-1.84,0-.82-.59-1.36-1.96-1.43Zm7.71-3.77c0-.05-.01-.07-.07-.07H57.77c-.06,0-.08.02-.08.07v3.55a1.268,1.268,0,0,1-.91.36c-.6,0-.87-.38-.87-1V-4.86c0-.05-.01-.07-.07-.07H54.79c-.06,0-.08.01-.08.07v3.05c0,1.4.73,1.91,1.68,1.91a1.976,1.976,0,0,0,1.39-.51,2.169,2.169,0,0,0,.07.35c.01.04.03.06.1.06h.92c.06,0,.09-.02.08-.07a8.878,8.878,0,0,1-.06-1.03ZM62.73-.97a1.828,1.828,0,0,1-.71.12c-.72,0-.98-.32-.98-.69,0-.43.35-.69,1.14-.69a4.114,4.114,0,0,1,.55.03ZM63.9-3.05a1.815,1.815,0,0,0-1.99-1.98,3.715,3.715,0,0,0-1.52.3.1.1,0,0,0-.06.1v.87a.058.058,0,0,0,.08.06,2.975,2.975,0,0,1,1.31-.28c.88,0,1.01.52,1.01.75v.12c-.09-.01-.32-.02-.62-.02-1.3,0-2.25.53-2.25,1.59,0,1.13.87,1.64,1.96,1.64A4.864,4.864,0,0,0,63.9-.35c.02-.01.02-.02.02-.04-.02-.21-.02-.41-.02-.63ZM67.24-.03c.61.03,1.11.15,1.11.59,0,.38-.42.77-1.37.77-.83,0-1.31-.39-1.31-.74a1.1,1.1,0,0,1,.48-.67Zm-.48-4.13a.751.751,0,0,1,.8.84.726.726,0,0,1-.8.78.748.748,0,0,1-.81-.8A.754.754,0,0,1,66.76-4.16Zm-.28,3.07a.563.563,0,0,1-.13-.31.618.618,0,0,1,.03-.3,2.693,2.693,0,0,0,.4.03c1.08,0,1.93-.54,1.93-1.61a1.3,1.3,0,0,0-.22-.76,7.088,7.088,0,0,0,.77.05c.05,0,.06-.02.06-.06v-.82c0-.04-.01-.06-.06-.06H67.87a1.115,1.115,0,0,1-.23-.03,5.037,5.037,0,0,0-.88-.07,1.763,1.763,0,0,0-1.99,1.71,1.467,1.467,0,0,0,.69,1.3,1.249,1.249,0,0,0-.18.65,1.238,1.238,0,0,0,.21.75c-.66.57-.93.98-.93,1.3,0,.73.73,1.54,2.34,1.54,1.56,0,2.56-.82,2.56-1.84,0-.82-.59-1.36-1.96-1.43Zm6.48-1.1a7.617,7.617,0,0,0,1.03-.04.086.086,0,0,0,.08-.07,3.027,3.027,0,0,0,.04-.62,1.988,1.988,0,0,0-2.05-2.11,2.4,2.4,0,0,0-2.35,2.62A2.31,2.31,0,0,0,72.18.1a3.32,3.32,0,0,0,1.5-.29.106.106,0,0,0,.06-.11v-.83c0-.05-.03-.06-.06-.04a3.151,3.151,0,0,1-1.24.24c-1.02,0-1.48-.56-1.51-1.26Zm-2.03-.86a1.092,1.092,0,0,1,1.08-1.02.925.925,0,0,1,.96.93v.08a4.9,4.9,0,0,1-.55.01ZM77.44-.07c0,.05.03.07.08.07h1.05c.06,0,.08-.03.08-.08V-2.13h.63c1.51,0,2.74-.69,2.74-2.28,0-1.1-.72-2.18-2.66-2.18-.73,0-1.47.02-1.85.03-.05,0-.07.03-.07.08Zm1.21-5.45c.11-.01.39-.02.74-.02.92,0,1.44.43,1.44,1.16,0,.91-.71,1.19-1.55,1.19-.33,0-.46,0-.63-.01Zm4.25.59c-.05,0-.06.01-.06.06.04.33.05.91.05,1.34V-.08c0,.05.02.08.09.08h1.04c.06,0,.09-.02.09-.08V-3.3a1.943,1.943,0,0,1,1.53-.53c.07,0,.09-.02.09-.07V-4.96c0-.06-.02-.07-.08-.07a2.083,2.083,0,0,0-1.6.78,2.261,2.261,0,0,0-.1-.6.1.1,0,0,0-.11-.08Zm5.69-.1a2.406,2.406,0,0,0-2.43,2.57A2.363,2.363,0,0,0,88.57.1a2.38,2.38,0,0,0,2.4-2.59A2.346,2.346,0,0,0,88.59-5.03Zm-.06,1.01c.85,0,1.21.73,1.21,1.56,0,1.03-.53,1.54-1.15,1.54-.76,0-1.21-.64-1.21-1.56C87.38-3.43,87.86-4.02,88.53-4.02ZM95.4-1.03c0-.04-.02-.07-.07-.05a2.879,2.879,0,0,1-.87.1A1.435,1.435,0,0,1,92.9-2.49a1.42,1.42,0,0,1,1.55-1.5,2.351,2.351,0,0,1,.86.13c.04.01.08.01.08-.06l.01-.89c0-.06-.01-.09-.05-.11a2.872,2.872,0,0,0-.94-.11,2.558,2.558,0,0,0-2.75,2.58A2.432,2.432,0,0,0,94.24.1a3.046,3.046,0,0,0,1.11-.16c.04-.01.05-.03.05-.08Zm3.82-1.16a7.617,7.617,0,0,0,1.03-.04.086.086,0,0,0,.08-.07,3.027,3.027,0,0,0,.04-.62,1.988,1.988,0,0,0-2.05-2.11,2.4,2.4,0,0,0-2.35,2.62A2.31,2.31,0,0,0,98.44.1a3.32,3.32,0,0,0,1.5-.29A.106.106,0,0,0,100-.3v-.83c0-.05-.03-.06-.06-.04a3.151,3.151,0,0,1-1.24.24c-1.02,0-1.48-.56-1.51-1.26Zm-2.03-.86a1.092,1.092,0,0,1,1.08-1.02.925.925,0,0,1,.96.93v.08a4.9,4.9,0,0,1-.55.01Zm6.99-.72c.06.02.09-.01.09-.06v-.88a.122.122,0,0,0-.06-.12,3.083,3.083,0,0,0-1.26-.2c-1.25,0-1.87.71-1.87,1.47,0,.72.39,1.17,1.48,1.57.62.25.81.41.81.66s-.25.44-.77.44a2.722,2.722,0,0,1-1.43-.4.052.052,0,0,0-.08.05v.95c0,.06.02.08.07.11a3.076,3.076,0,0,0,1.41.28c1.23,0,1.97-.59,1.97-1.53,0-.71-.39-1.16-1.53-1.58-.64-.25-.79-.4-.79-.62s.18-.43.71-.43A2.844,2.844,0,0,1,104.18-3.77Zm4.14,0c.06.02.09-.01.09-.06v-.88a.122.122,0,0,0-.06-.12,3.083,3.083,0,0,0-1.26-.2c-1.25,0-1.87.71-1.87,1.47,0,.72.39,1.17,1.48,1.57.62.25.81.41.81.66s-.25.44-.77.44a2.722,2.722,0,0,1-1.43-.4.052.052,0,0,0-.08.05v.95c0,.06.02.08.07.11a3.076,3.076,0,0,0,1.41.28c1.23,0,1.97-.59,1.97-1.53,0-.71-.39-1.16-1.53-1.58-.64-.25-.79-.4-.79-.62s.18-.43.71-.43A2.844,2.844,0,0,1,108.32-3.77Zm1.25,3.68c0,.06.03.09.1.09h1.03c.07,0,.09-.02.09-.08V-4.86c0-.06-.02-.07-.08-.07h-1.06c-.05,0-.08.02-.08.07Zm.61-5.51a.651.651,0,0,0,.69-.69.643.643,0,0,0-.68-.69.662.662,0,0,0-.69.69A.648.648,0,0,0,110.18-5.6Zm1.84,5.52c0,.05.02.08.08.08h1.05a.074.074,0,0,0,.08-.08V-3.57a1.28,1.28,0,0,1,.97-.41c.58,0,.86.38.86,1.04V-.09a.08.08,0,0,0,.09.09h1.04c.05,0,.08-.02.08-.09V-3.05c0-1.6-.92-1.98-1.67-1.98a2.2,2.2,0,0,0-1.45.55,2.178,2.178,0,0,0-.07-.38c-.02-.05-.05-.07-.12-.07h-.91c-.06,0-.07.02-.07.07.02.2.04.74.04,1.08Zm7.62.05c.61.03,1.11.15,1.11.59,0,.38-.42.77-1.37.77-.83,0-1.31-.39-1.31-.74a1.1,1.1,0,0,1,.48-.67Zm-.48-4.13a.751.751,0,0,1,.8.84.726.726,0,0,1-.8.78.748.748,0,0,1-.81-.8A.754.754,0,0,1,119.16-4.16Zm-.28,3.07a.563.563,0,0,1-.13-.31.618.618,0,0,1,.03-.3,2.693,2.693,0,0,0,.4.03c1.08,0,1.93-.54,1.93-1.61a1.3,1.3,0,0,0-.22-.76,7.088,7.088,0,0,0,.77.05c.05,0,.06-.02.06-.06v-.82c0-.04-.01-.06-.06-.06h-1.39a1.115,1.115,0,0,1-.23-.03,5.037,5.037,0,0,0-.88-.07,1.763,1.763,0,0,0-1.99,1.71,1.467,1.467,0,0,0,.69,1.3,1.249,1.249,0,0,0-.18.65,1.238,1.238,0,0,0,.21.75c-.66.57-.93.98-.93,1.3,0,.73.73,1.54,2.34,1.54,1.56,0,2.56-.82,2.56-1.84,0-.82-.59-1.36-1.96-1.43Z" transform="translate(34.06 19.225)"/><g class="ac" transform="translate(11.352 7.806)"><circle class="ae" cx="1.064" cy="1.064" r="1.064" transform="translate(17.345 6.386) rotate(90)"/><circle class="ae" cx="1.064" cy="1.064" r="1.064" transform="translate(14.568 9.934) rotate(90)"/><circle class="ae" cx="1.064" cy="1.064" r="1.064" transform="translate(15.216 2.129) rotate(90)"/><path class="ag" d="M0,5.338V3.811L1.42,1.682V0" transform="translate(15.834 6.031) rotate(90)"/><path class="ag" d="M0,0,1.419,2.129V3.655" transform="translate(14.152 3.193) rotate(90)"/><path class="ag" d="M0,3.006V2.089L1.741,0H2.906" transform="translate(13.503 7.451) rotate(90)"/><path class="ae" d="M6.192,17.031h0V14.9H4.063c-1.053,0-2.129-.169-2.129-1.419V10.859L.394,10.569a.709.709,0,0,1-.318-.956L1.933,6.22V5.927A5.1,5.1,0,0,1,3.8,1.677,8.771,8.771,0,0,1,8.544.017C8.716.006,8.882,0,9.037,0a7.14,7.14,0,0,1,1.458.151V2.81A1.425,1.425,0,0,0,9.1,4.228H7.962a.355.355,0,1,0,0,.709H9.1v.71H7.253a.355.355,0,0,0,0,.709H9.1v.71H7.962a.355.355,0,1,0,0,.709H9.1a1.424,1.424,0,0,0,1.4,1.418v7.19l-4.3.645Z" transform="translate(0 0)"/></g></g></g><g transform="translate(33.351)"><g class="aj" transform="matrix(1, 0, 0, 1, -376.12, -9)"><rect class="c" width="63.153" height="31.931" rx="8" transform="translate(376.12 9)"/></g><path class="ab" d="M4.545-.909c.009-.045-.009-.072-.063-.072H1.755V-2.529H4.1c.036,0,.063-.009.063-.054v-.855c0-.054-.018-.063-.063-.063H1.755V-4.932H4.329c.054,0,.072-.036.063-.081l-.1-.837c-.009-.054-.027-.063-.081-.063H.738c-.054,0-.072.027-.072.072V-.072C.666-.027.684,0,.747,0H4.329c.054,0,.072-.009.081-.072ZM6.4,0c.045,0,.072-.018.072-.072v-2.2h.774c.1,0,.144.045.207.153.4.63,1.026,1.665,1.287,2.07A.15.15,0,0,0,8.865,0H9.99c.054,0,.045-.045.018-.1C9.747-.549,8.667-2.16,8.37-2.574A1.673,1.673,0,0,0,9.531-4.158c0-1.152-.846-1.773-2.286-1.773-.693,0-1.071.009-1.782.027-.054,0-.063.036-.063.081V-.072c0,.054.018.072.072.072Zm.072-3.195V-4.968c.144-.009.432-.018.738-.018.765,0,1.242.3,1.242.891,0,.576-.468.9-1.2.9ZM10.683-.063c0,.045.027.063.072.063H11.7c.054,0,.072-.027.072-.072V-1.917h.567c1.359,0,2.466-.621,2.466-2.052,0-.99-.648-1.962-2.394-1.962-.657,0-1.323.018-1.665.027-.045,0-.063.027-.063.072Zm1.089-4.9c.1-.009.351-.018.666-.018.828,0,1.3.387,1.3,1.044,0,.819-.639,1.071-1.4,1.071-.3,0-.414,0-.567-.009Z" transform="translate(34.06 18.225)"/><g class="ah" transform="translate(11.353 7.805)"><rect class="o" width="17.03" height="17.03"/><path class="ae" d="M15.611,7.1h-.873a6.346,6.346,0,0,0-.82-1.976l.619-.619a1.419,1.419,0,1,0-2.007-2.007l-.619.619a6.346,6.346,0,0,0-1.976-.82V1.419a1.419,1.419,0,1,0-2.838,0v.873a6.346,6.346,0,0,0-1.976.82L4.5,2.494A1.419,1.419,0,1,0,2.494,4.5l.619.619A6.346,6.346,0,0,0,2.293,7.1H1.419a1.419,1.419,0,1,0,0,2.838h.873a6.346,6.346,0,0,0,.82,1.976l-.619.619A1.419,1.419,0,1,0,4.5,14.536l.619-.619a6.346,6.346,0,0,0,1.976.82v.873a1.419,1.419,0,1,0,2.838,0v-.873a6.346,6.346,0,0,0,1.976-.82l.619.619a1.419,1.419,0,1,0,2.007-2.007l-.619-.619a6.346,6.346,0,0,0,.82-1.976h.873a1.419,1.419,0,1,0,0-2.838Zm-7.1,4.258a2.838,2.838,0,1,1,2.838-2.838A2.838,2.838,0,0,1,8.515,11.353Z"/></g><g transform="translate(70.959)"><g class="ai" transform="matrix(1, 0, 0, 1, -447.08, -9)"><rect class="c" width="172.429" height="31.931" rx="8" transform="translate(447.08 9)"/></g><path class="ab" d="M1.85,0c.05,0,.08-.02.08-.08V-2.52h.86c.11,0,.16.05.23.17.44.7,1.14,1.85,1.43,2.3A.167.167,0,0,0,4.59,0H5.84c.06,0,.05-.05.02-.11C5.57-.61,4.37-2.4,4.04-2.86A1.859,1.859,0,0,0,5.33-4.62c0-1.28-.94-1.97-2.54-1.97-.77,0-1.19.01-1.98.03-.06,0-.07.04-.07.09V-.08c0,.06.02.08.08.08Zm.08-3.55V-5.52c.16-.01.48-.02.82-.02.85,0,1.38.33,1.38.99,0,.64-.52,1-1.33,1ZM8.5-5.03A2.406,2.406,0,0,0,6.07-2.46,2.363,2.363,0,0,0,8.48.1a2.38,2.38,0,0,0,2.4-2.59A2.346,2.346,0,0,0,8.5-5.03ZM8.44-4.02c.85,0,1.21.73,1.21,1.56,0,1.03-.53,1.54-1.15,1.54-.76,0-1.21-.64-1.21-1.56C7.29-3.43,7.77-4.02,8.44-4.02Zm3.45-3.1a.063.063,0,0,0-.07.07V-.21a.107.107,0,0,0,.07.09,5,5,0,0,0,1.5.22,2.728,2.728,0,0,0,2.92-2.77,2.257,2.257,0,0,0-2.36-2.36,2.9,2.9,0,0,0-.91.14l-.01-2.15c0-.07-.02-.08-.09-.08Zm3.19,4.57A1.512,1.512,0,0,1,13.5-.92a1.665,1.665,0,0,1-.46-.05V-3.89a1.836,1.836,0,0,1,.7-.11A1.288,1.288,0,0,1,15.08-2.55Zm4.37-2.48a2.406,2.406,0,0,0-2.43,2.57A2.363,2.363,0,0,0,19.43.1a2.38,2.38,0,0,0,2.4-2.59A2.346,2.346,0,0,0,19.45-5.03Zm-.06,1.01c.85,0,1.21.73,1.21,1.56,0,1.03-.53,1.54-1.15,1.54-.76,0-1.21-.64-1.21-1.56C18.24-3.43,18.72-4.02,19.39-4.02ZM25.17-.88c0-.06-.03-.07-.06-.06a1.7,1.7,0,0,1-.38.04c-.43,0-.57-.21-.57-.65V-3.92h.98c.05,0,.07-.02.07-.07v-.87c0-.05-.02-.07-.07-.07h-.97c0-.49.02-1.08.05-1.41,0-.05-.02-.06-.07-.05l-1.01.14a.1.1,0,0,0-.08.09,10.554,10.554,0,0,0-.1,1.23h-.63c-.06,0-.08.02-.08.08v.84c0,.06.02.08.07.09h.63v2.63c0,.99.49,1.39,1.31,1.39a2.3,2.3,0,0,0,.85-.14c.05-.02.06-.06.06-.12Zm.88.79c0,.06.03.09.1.09h1.03c.07,0,.09-.02.09-.08V-4.86c0-.06-.02-.07-.08-.07H26.13c-.05,0-.08.02-.08.07Zm.61-5.51a.651.651,0,0,0,.69-.69.643.643,0,0,0-.68-.69.662.662,0,0,0-.69.69A.648.648,0,0,0,26.66-5.6Zm5.3,4.57c0-.04-.02-.07-.07-.05a2.879,2.879,0,0,1-.87.1,1.435,1.435,0,0,1-1.56-1.51,1.42,1.42,0,0,1,1.55-1.5,2.351,2.351,0,0,1,.86.13c.04.01.08.01.08-.06l.01-.89c0-.06-.01-.09-.05-.11a2.872,2.872,0,0,0-.94-.11,2.558,2.558,0,0,0-2.75,2.58A2.432,2.432,0,0,0,30.8.1a3.046,3.046,0,0,0,1.11-.16c.04-.01.05-.03.05-.08Zm3.28.96c0,.05.03.07.08.07h1.05c.06,0,.08-.03.08-.08V-2.13h.63c1.51,0,2.74-.69,2.74-2.28,0-1.1-.72-2.18-2.66-2.18-.73,0-1.47.02-1.85.03-.05,0-.07.03-.07.08Zm1.21-5.45c.11-.01.39-.02.74-.02.92,0,1.44.43,1.44,1.16,0,.91-.71,1.19-1.55,1.19-.33,0-.46,0-.63-.01Zm4.25.59c-.05,0-.06.01-.06.06.04.33.05.91.05,1.34V-.08c0,.05.02.08.09.08h1.04c.06,0,.09-.02.09-.08V-3.3a1.943,1.943,0,0,1,1.53-.53c.07,0,.09-.02.09-.07V-4.96c0-.06-.02-.07-.08-.07a2.083,2.083,0,0,0-1.6.78,2.26,2.26,0,0,0-.1-.6.1.1,0,0,0-.11-.08Zm5.69-.1a2.406,2.406,0,0,0-2.43,2.57A2.363,2.363,0,0,0,46.37.1a2.38,2.38,0,0,0,2.4-2.59A2.346,2.346,0,0,0,46.39-5.03Zm-.06,1.01c.85,0,1.21.73,1.21,1.56,0,1.03-.53,1.54-1.15,1.54-.76,0-1.21-.64-1.21-1.56C45.18-3.43,45.66-4.02,46.33-4.02ZM53.2-1.03c0-.04-.02-.07-.07-.05a2.879,2.879,0,0,1-.87.1A1.435,1.435,0,0,1,50.7-2.49a1.42,1.42,0,0,1,1.55-1.5,2.351,2.351,0,0,1,.86.13c.04.01.08.01.08-.06l.01-.89c0-.06-.01-.09-.05-.11a2.872,2.872,0,0,0-.94-.11,2.558,2.558,0,0,0-2.75,2.58A2.432,2.432,0,0,0,52.04.1a3.046,3.046,0,0,0,1.11-.16c.04-.01.05-.03.05-.08Zm3.82-1.16a7.617,7.617,0,0,0,1.03-.04.086.086,0,0,0,.08-.07,3.027,3.027,0,0,0,.04-.62,1.988,1.988,0,0,0-2.05-2.11,2.4,2.4,0,0,0-2.35,2.62A2.31,2.31,0,0,0,56.24.1a3.32,3.32,0,0,0,1.5-.29A.106.106,0,0,0,57.8-.3v-.83c0-.05-.03-.06-.06-.04a3.151,3.151,0,0,1-1.24.24c-1.02,0-1.48-.56-1.51-1.26Zm-2.03-.86a1.092,1.092,0,0,1,1.08-1.02.925.925,0,0,1,.96.93v.08a4.9,4.9,0,0,1-.55.01Zm6.99-.72c.06.02.09-.01.09-.06v-.88a.122.122,0,0,0-.06-.12,3.082,3.082,0,0,0-1.26-.2c-1.25,0-1.87.71-1.87,1.47,0,.72.39,1.17,1.48,1.57.62.25.81.41.81.66s-.25.44-.77.44a2.722,2.722,0,0,1-1.43-.4.052.052,0,0,0-.08.05v.95c0,.06.02.08.07.11A3.076,3.076,0,0,0,60.37.1c1.23,0,1.97-.59,1.97-1.53,0-.71-.39-1.16-1.53-1.58-.64-.25-.79-.4-.79-.62s.18-.43.71-.43A2.844,2.844,0,0,1,61.98-3.77Zm4.14,0c.06.02.09-.01.09-.06v-.88a.122.122,0,0,0-.06-.12,3.082,3.082,0,0,0-1.26-.2c-1.25,0-1.87.71-1.87,1.47,0,.72.39,1.17,1.48,1.57.62.25.81.41.81.66s-.25.44-.77.44a2.722,2.722,0,0,1-1.43-.4.052.052,0,0,0-.08.05v.95c0,.06.02.08.07.11A3.076,3.076,0,0,0,64.51.1c1.23,0,1.97-.59,1.97-1.53,0-.71-.39-1.16-1.53-1.58-.64-.25-.79-.4-.79-.62s.18-.43.71-.43A2.844,2.844,0,0,1,66.12-3.77Zm7.07,2.04.58,1.67a.1.1,0,0,0,.1.06h1.12c.06,0,.07-.03.06-.09L72.74-6.51c-.01-.05-.02-.06-.07-.06H71.28c-.04,0-.06.03-.06.07a1.529,1.529,0,0,1-.09.54L69.07-.1c-.01.07.01.1.07.1h1a.1.1,0,0,0,.11-.08l.55-1.65ZM71.12-2.82c.3-.91.7-2.08.86-2.75h.01c.2.7.67,2.09.88,2.75Zm8.61-2.04c0-.05-.01-.07-.07-.07H78.61c-.06,0-.08.02-.08.07v3.55a1.268,1.268,0,0,1-.91.36c-.6,0-.87-.38-.87-1V-4.86c0-.05-.01-.07-.07-.07H75.63c-.06,0-.08.01-.08.07v3.05c0,1.4.73,1.91,1.68,1.91a1.976,1.976,0,0,0,1.39-.51,2.169,2.169,0,0,0,.07.35c.01.04.03.06.1.06h.92c.06,0,.09-.02.08-.07a8.877,8.877,0,0,1-.06-1.03ZM83.44-.88c0-.06-.03-.07-.06-.06A1.7,1.7,0,0,1,83-.9c-.43,0-.57-.21-.57-.65V-3.92h.98c.05,0,.07-.02.07-.07v-.87c0-.05-.02-.07-.07-.07h-.97c0-.49.02-1.08.05-1.41,0-.05-.02-.06-.07-.05l-1.01.14a.1.1,0,0,0-.08.09,10.556,10.556,0,0,0-.1,1.23H80.6c-.06,0-.08.02-.08.08v.84c0,.06.02.08.07.09h.63v2.63c0,.99.49,1.39,1.31,1.39a2.3,2.3,0,0,0,.85-.14c.05-.02.06-.06.06-.12Zm2.94-4.15a2.406,2.406,0,0,0-2.43,2.57A2.363,2.363,0,0,0,86.36.1a2.38,2.38,0,0,0,2.4-2.59A2.346,2.346,0,0,0,86.38-5.03Zm-.06,1.01c.85,0,1.21.73,1.21,1.56,0,1.03-.53,1.54-1.15,1.54-.76,0-1.21-.64-1.21-1.56C85.17-3.43,85.65-4.02,86.32-4.02ZM90.83,0c.06,0,.08-.02.08-.08V-3.61a1.407,1.407,0,0,1,.95-.37c.54,0,.84.32.84.98V-.09c0,.07.03.09.09.09h1.04c.06,0,.07-.03.07-.08V-2.99a4.576,4.576,0,0,0-.03-.59,1.416,1.416,0,0,1,.98-.41c.61,0,.84.45.84,1.02V-.09c0,.06.02.09.09.09h1.03c.05,0,.09-.02.09-.08v-3c0-1.51-.86-1.95-1.69-1.95a2.464,2.464,0,0,0-1.64.66,1.4,1.4,0,0,0-1.29-.66,2.134,2.134,0,0,0-1.46.56,1.7,1.7,0,0,0-.06-.4.1.1,0,0,0-.1-.06h-.92c-.06,0-.09.02-.08.07.02.19.04.6.04.99V-.09c0,.06.02.09.08.09Zm9.86-.97a1.828,1.828,0,0,1-.71.12c-.72,0-.98-.32-.98-.69,0-.43.35-.69,1.14-.69a4.114,4.114,0,0,1,.55.03Zm1.17-2.08a1.815,1.815,0,0,0-1.99-1.98,3.715,3.715,0,0,0-1.52.3.1.1,0,0,0-.06.1v.87a.058.058,0,0,0,.08.06,2.975,2.975,0,0,1,1.31-.28c.88,0,1.01.52,1.01.75v.12c-.09-.01-.32-.02-.62-.02-1.3,0-2.25.53-2.25,1.59,0,1.13.87,1.64,1.96,1.64a4.864,4.864,0,0,0,2.08-.45c.02-.01.02-.02.02-.04-.02-.21-.02-.41-.02-.63ZM105.4-.88c0-.06-.03-.07-.06-.06a1.7,1.7,0,0,1-.38.04c-.43,0-.57-.21-.57-.65V-3.92h.98c.05,0,.07-.02.07-.07v-.87c0-.05-.02-.07-.07-.07h-.97c0-.49.02-1.08.05-1.41,0-.05-.02-.06-.07-.05l-1.01.14a.1.1,0,0,0-.08.09,10.556,10.556,0,0,0-.1,1.23h-.63c-.06,0-.08.02-.08.08v.84c0,.06.02.08.07.09h.63v2.63c0,.99.49,1.39,1.31,1.39a2.3,2.3,0,0,0,.85-.14c.05-.02.06-.06.06-.12Zm.88.79c0,.06.03.09.1.09h1.03c.07,0,.09-.02.09-.08V-4.86c0-.06-.02-.07-.08-.07h-1.06c-.05,0-.08.02-.08.07Zm.61-5.51a.651.651,0,0,0,.69-.69.643.643,0,0,0-.68-.69.662.662,0,0,0-.69.69A.648.648,0,0,0,106.89-5.6Zm3.99.57a2.406,2.406,0,0,0-2.43,2.57A2.363,2.363,0,0,0,110.86.1a2.38,2.38,0,0,0,2.4-2.59A2.346,2.346,0,0,0,110.88-5.03Zm-.06,1.01c.85,0,1.21.73,1.21,1.56,0,1.03-.53,1.54-1.15,1.54-.76,0-1.21-.64-1.21-1.56C109.67-3.43,110.15-4.02,110.82-4.02ZM114.2-.08c0,.05.02.08.08.08h1.05a.074.074,0,0,0,.08-.08V-3.57a1.28,1.28,0,0,1,.97-.41c.58,0,.86.38.86,1.04V-.09a.08.08,0,0,0,.09.09h1.04c.05,0,.08-.02.08-.09V-3.05c0-1.6-.92-1.98-1.67-1.98a2.2,2.2,0,0,0-1.45.55,2.178,2.178,0,0,0-.07-.38c-.02-.05-.05-.07-.12-.07h-.91c-.06,0-.07.02-.07.07.02.2.04.74.04,1.08Z" transform="translate(34.06 19.225)"/><g class="ac" transform="translate(8.515 7.096)"><rect class="af" width="17.03" height="17.03"/><rect class="ae" width="3.784" height="5.298" rx="0.5" transform="translate(0.946 5.677)"/><rect class="ae" width="2.838" height="2.838" rx="0.5" transform="translate(13.246 1.892)"/><rect class="ae" width="2.838" height="2.838" rx="0.5" transform="translate(13.246 6.623)"/><rect class="ae" width="2.838" height="2.838" rx="0.5" transform="translate(13.246 11.353)"/><path class="ae" d="M12.623,3.71V3.237A.237.237,0,0,0,12.386,3H9.075a.237.237,0,0,0-.237.237V7.731h-2.6A.237.237,0,0,0,6,7.967V8.44a.237.237,0,0,0,.237.237h2.6v4.494a.237.237,0,0,0,.237.237h3.311a.237.237,0,0,0,.237-.237V12.7a.237.237,0,0,0-.237-.237h-2.6V8.677h2.6a.237.237,0,0,0,.237-.237V7.967a.237.237,0,0,0-.237-.237h-2.6V3.946h2.6A.237.237,0,0,0,12.623,3.71Z" transform="translate(-0.323 -0.162)"/></g></g></g></g><path class="l" d="M-67.954-10.786q.01-.05.03-.06a.089.089,0,0,1,.04-.01q.32-.02.7-.025t.74,0a4.051,4.051,0,0,1,.955.11,2.355,2.355,0,0,1,.8.35,1.776,1.776,0,0,1,.55.615,1.84,1.84,0,0,1,.205.9,2.111,2.111,0,0,1-.24,1.035,2.123,2.123,0,0,1-.645.72,2.808,2.808,0,0,1-.945.42,4.643,4.643,0,0,1-1.13.135q-.2,0-.34-.005t-.28-.015l-.4,2.26q-.01.07-.07.07h-1.03q-.08,0-.06-.07Zm.62,3.15a4.575,4.575,0,0,0,.56.03,2.04,2.04,0,0,0,1.225-.325,1.048,1.048,0,0,0,.445-.9.923.923,0,0,0-.345-.8,1.6,1.6,0,0,0-.965-.255q-.14,0-.265.005t-.255.015Zm7.43,3a.1.1,0,0,1-.06.08,4.212,4.212,0,0,1-.835.275,4.259,4.259,0,0,1-.875.085,2.5,2.5,0,0,1-.8-.125,1.81,1.81,0,0,1-.655-.38,1.768,1.768,0,0,1-.44-.64,2.377,2.377,0,0,1-.16-.915A3,3,0,0,1-63.5-7.391a2.946,2.946,0,0,1,.655-.985,3.232,3.232,0,0,1,1.05-.69,3.59,3.59,0,0,1,1.4-.26,4.529,4.529,0,0,1,.73.05q.3.05.53.11a.081.081,0,0,1,.02.06Zm-.48-3.71q-.04,0-.1-.005t-.155-.005a1.859,1.859,0,0,0-.74.15,1.9,1.9,0,0,0-.615.42,2,2,0,0,0-.42.645,2.166,2.166,0,0,0-.155.835,1.223,1.223,0,0,0,.275.81,1.063,1.063,0,0,0,.865.33,1.355,1.355,0,0,0,.5-.08Zm3.44-.88q.08,0,.09.05a.774.774,0,0,1,.005.165q0,.115-.015.245t-.025.255q-.015.125-.025.2a2.621,2.621,0,0,1,.365-.405,2.653,2.653,0,0,1,.435-.32,2.22,2.22,0,0,1,.475-.21,1.619,1.619,0,0,1,.475-.075q.07,0,.06.09l-.22,1.09q-.02.06-.06.06a2.036,2.036,0,0,0-.9.255,1.8,1.8,0,0,0-.66.585.37.37,0,0,0-.1.22l-.48,2.68a.071.071,0,0,1-.07.05h-1q-.08,0-.06-.07l.64-3.62q.07-.35.1-.645t.055-.545q0-.05.08-.05Zm5.69,4.59a.1.1,0,0,1-.06.08,4.212,4.212,0,0,1-.835.275,4.259,4.259,0,0,1-.875.085,2.5,2.5,0,0,1-.8-.125,1.81,1.81,0,0,1-.655-.38,1.769,1.769,0,0,1-.44-.64,2.377,2.377,0,0,1-.16-.915,3,3,0,0,1,.225-1.135,2.946,2.946,0,0,1,.655-.985,3.232,3.232,0,0,1,1.05-.69,3.59,3.59,0,0,1,1.4-.26,4.529,4.529,0,0,1,.73.05q.3.05.53.11a.081.081,0,0,1,.02.06Zm-.48-3.71q-.04,0-.1-.005t-.155-.005a1.859,1.859,0,0,0-.74.15,1.9,1.9,0,0,0-.615.42,2,2,0,0,0-.42.645,2.166,2.166,0,0,0-.155.835,1.223,1.223,0,0,0,.275.81,1.063,1.063,0,0,0,.865.33,1.355,1.355,0,0,0,.5-.08Zm1.49,4.96q.01-.06.08-.04a2.661,2.661,0,0,0,.585.205,3,3,0,0,0,.645.065,1.622,1.622,0,0,0,1.06-.32,1.4,1.4,0,0,0,.33-.415,3.142,3.142,0,0,0,.24-.675,2.067,2.067,0,0,1-.87.17,2.05,2.05,0,0,1-.715-.12,1.546,1.546,0,0,1-.565-.36,1.657,1.657,0,0,1-.375-.6,2.356,2.356,0,0,1-.135-.83,3.051,3.051,0,0,1,.21-1.105,2.991,2.991,0,0,1,.605-.97,2.957,2.957,0,0,1,.98-.685,3.256,3.256,0,0,1,1.335-.26,4.275,4.275,0,0,1,.86.075,5.466,5.466,0,0,1,.6.155.065.065,0,0,1,.05.08q-.05.14-.085.275t-.065.3l-.57,3.25q-.06.32-.11.56t-.1.425q-.055.185-.11.33t-.115.275a2.424,2.424,0,0,1-.48.72,2.409,2.409,0,0,1-.615.45,2.513,2.513,0,0,1-.7.235,4.184,4.184,0,0,1-.735.065,3.142,3.142,0,0,1-1.41-.28.069.069,0,0,1-.03-.09Zm3.61-4.92a.454.454,0,0,0-.165-.045,1.982,1.982,0,0,0-.255-.015,1.605,1.605,0,0,0-.69.15A1.7,1.7,0,0,0-48.3-7.8a2.02,2.02,0,0,0-.37.61,2,2,0,0,0-.135.735,1.708,1.708,0,0,0,.05.425.9.9,0,0,0,.165.34.753.753,0,0,0,.305.225,1.214,1.214,0,0,0,.47.08,1.856,1.856,0,0,0,.33-.035,1.083,1.083,0,0,0,.37-.145Zm3.45-.92q.08,0,.09.05a.775.775,0,0,1,.005.165q-.005.115-.015.245t-.025.255q-.015.125-.025.2a2.621,2.621,0,0,1,.365-.405,2.653,2.653,0,0,1,.435-.32,2.22,2.22,0,0,1,.475-.21,1.619,1.619,0,0,1,.475-.075q.07,0,.06.09l-.22,1.09q-.02.06-.06.06a2.036,2.036,0,0,0-.9.255,1.8,1.8,0,0,0-.66.585.37.37,0,0,0-.1.22l-.48,2.68a.071.071,0,0,1-.07.05h-1q-.08,0-.06-.07l.64-3.62q.07-.35.105-.645t.055-.545q0-.05.08-.05Zm5.69,4.59a.1.1,0,0,1-.06.08,4.212,4.212,0,0,1-.835.275,4.259,4.259,0,0,1-.875.085,2.5,2.5,0,0,1-.8-.125,1.81,1.81,0,0,1-.655-.38,1.769,1.769,0,0,1-.44-.64,2.377,2.377,0,0,1-.16-.915,3,3,0,0,1,.225-1.135,2.946,2.946,0,0,1,.655-.985,3.232,3.232,0,0,1,1.05-.69,3.59,3.59,0,0,1,1.4-.26,4.529,4.529,0,0,1,.73.05q.3.05.53.11a.081.081,0,0,1,.02.06Zm-.48-3.71q-.04,0-.1-.005t-.155-.005a1.859,1.859,0,0,0-.74.15,1.9,1.9,0,0,0-.615.42,2,2,0,0,0-.42.645,2.166,2.166,0,0,0-.155.835,1.223,1.223,0,0,0,.275.81,1.063,1.063,0,0,0,.865.33,1.355,1.355,0,0,0,.5-.08Zm4.46-.98a2.134,2.134,0,0,1,.765.135,1.694,1.694,0,0,1,.615.4,1.832,1.832,0,0,1,.405.655,2.543,2.543,0,0,1,.145.89,2.991,2.991,0,0,1-.26,1.265,2.974,2.974,0,0,1-.69.96,3.094,3.094,0,0,1-.985.61,3.17,3.17,0,0,1-1.155.215,2.154,2.154,0,0,1-.47-.04l-.33,1.84a.086.086,0,0,1-.08.08q-.25.03-.51.045t-.49.035q-.06,0-.05-.07l1.14-6.56a.1.1,0,0,1,.08-.09q.37-.13.825-.25A4.113,4.113,0,0,1-33.514-9.326Zm-.24.98a1.727,1.727,0,0,0-.7.14l-.49,2.99a1.27,1.27,0,0,0,.36.05,1.778,1.778,0,0,0,.735-.15,1.782,1.782,0,0,0,.585-.42,1.942,1.942,0,0,0,.39-.64,2.242,2.242,0,0,0,.14-.8,1.431,1.431,0,0,0-.23-.845A.9.9,0,0,0-33.754-8.346Zm3.93-2.97a.083.083,0,0,1,.08-.07q.07-.01.23-.02l.32-.02.29-.02q.13-.01.16-.01.08,0,.07.06l-.48,2.68a2.447,2.447,0,0,1,.665-.445,1.957,1.957,0,0,1,.815-.165,1.553,1.553,0,0,1,.53.09.933.933,0,0,1,.425.315,1.33,1.33,0,0,1,.24.6,2.813,2.813,0,0,1-.025.92l-.55,3.04q-.01.07-.07.07h-1q-.07,0-.07-.08l.56-3.02a1.271,1.271,0,0,0-.03-.71.449.449,0,0,0-.46-.25,1.525,1.525,0,0,0-1.14.66.327.327,0,0,0-.075.115,1.022,1.022,0,0,0-.045.205l-.54,3.02A.078.078,0,0,1-30-4.3h-1q-.07,0-.05-.06Z" transform="translate(501.904 5098.225)"/></g></svg>