<svg xmlns="http://www.w3.org/2000/svg" xmlns:xlink="http://www.w3.org/1999/xlink" width="339.199" height="525.495" viewBox="0 0 339.199 525.495"><defs><style>.a{fill:#c7c7c7;}.b,.c{fill:#fff;}.b{opacity:0.5;}.d{fill:#e1e1e1;}.e{fill:rgba(20,115,230,0.2);stroke:#1473e6;}.ad,.e,.i,.k{stroke-width:2px;}.e,.i,.k{mix-blend-mode:multiply;isolation:isolate;}.f,.h{fill:#b3b3b3;}.f,.g{opacity:0.504;}.i{fill:rgba(61,167,78,0.15);stroke:#3da74e;}.j{fill:#d9d9d9;}.k{fill:rgba(206,39,131,0.15);stroke:#ce2783;}.l,.s{fill:#1473e6;}.ab,.l,.m,.n{stroke:rgba(0,0,0,0);}.aa,.m{fill:#3da74e;}.n,.w{fill:#ce2783;}.ad,.ag,.o{fill:none;}.p{fill:#043e84;}.q{fill:#cdddf2;}.r{fill:#a9c7ed;}.t{fill:#790b48;}.u{fill:#e5c9d8;}.v{fill:#d9abc4;}.x{fill:#1a6425;}.y{fill:#c7ddcb;}.z{fill:#a6c3ab;}.ab{fill:#535353;}.ac{opacity:0.8;}.ad,.ag{stroke:#7e9cc3;stroke-linecap:round;stroke-linejoin:round;}.ad{stroke-miterlimit:10;}.ae,.af{fill:#7e9cc3;}.af{opacity:0;}.ah{opacity:0.7;}.ai{filter:url(#s);}.aj{filter:url(#q);}.ak{filter:url(#o);}.al{filter:url(#m);}.am{filter:url(#k);}.an{filter:url(#i);}.ao{filter:url(#g);}.ap{filter:url(#e);}.aq{filter:url(#c);}.ar{filter:url(#a);}</style><filter id="a" x="93.083" y="13.292" width="135.707" height="169.708" filterUnits="userSpaceOnUse"><feOffset dy="3" input="SourceAlpha"/><feGaussianBlur stdDeviation="5" result="b"/><feFlood flood-opacity="0.122"/><feComposite operator="in" in2="b"/><feComposite in="SourceGraphic"/></filter><filter id="c" x="100.653" y="0" width="136.911" height="172.958" filterUnits="userSpaceOnUse"><feOffset dx="-4" dy="4" input="SourceAlpha"/><feGaussianBlur stdDeviation="5" result="d"/><feFlood flood-opacity="0.071"/><feComposite operator="in" in2="d"/><feComposite in="SourceGraphic"/></filter><filter id="e" x="27.713" y="463.655" width="210.425" height="61.84" filterUnits="userSpaceOnUse"><feOffset dy="6" input="SourceAlpha"/><feGaussianBlur stdDeviation="5" result="f"/><feFlood flood-opacity="0.039"/><feComposite operator="in" in2="f"/><feComposite in="SourceGraphic"/></filter><filter id="g" x="214.563" y="463.655" width="96.51" height="61.84" filterUnits="userSpaceOnUse"><feOffset dy="6" input="SourceAlpha"/><feGaussianBlur stdDeviation="5" result="h"/><feFlood flood-opacity="0.039"/><feComposite operator="in" in2="h"/><feComposite in="SourceGraphic"/></filter><filter id="i" x="0.708" y="377.334" width="190.614" height="61.84" filterUnits="userSpaceOnUse"><feOffset dy="6" input="SourceAlpha"/><feGaussianBlur stdDeviation="5" result="j"/><feFlood flood-opacity="0.039"/><feComposite operator="in" in2="j"/><feComposite in="SourceGraphic"/></filter><filter id="k" x="167.689" y="377.334" width="170.802" height="61.84" filterUnits="userSpaceOnUse"><feOffset dy="6" input="SourceAlpha"/><feGaussianBlur stdDeviation="5" result="l"/><feFlood flood-opacity="0.039"/><feComposite operator="in" in2="l"/><feComposite in="SourceGraphic"/></filter><filter id="m" x="0" y="420.495" width="158.066" height="61.84" filterUnits="userSpaceOnUse"><feOffset dy="6" input="SourceAlpha"/><feGaussianBlur stdDeviation="5" result="n"/><feFlood flood-opacity="0.039"/><feComposite operator="in" in2="n"/><feComposite in="SourceGraphic"/></filter><filter id="o" x="134.434" y="420.495" width="204.765" height="61.84" filterUnits="userSpaceOnUse"><feOffset dy="6" input="SourceAlpha"/><feGaussianBlur stdDeviation="5" result="p"/><feFlood flood-opacity="0.039"/><feComposite operator="in" in2="p"/><feComposite in="SourceGraphic"/></filter><filter id="q" x="33.255" y="334.173" width="92.972" height="61.84" filterUnits="userSpaceOnUse"><feOffset dy="6" input="SourceAlpha"/><feGaussianBlur stdDeviation="5" result="r"/><feFlood flood-opacity="0.039"/><feComposite operator="in" in2="r"/><feComposite in="SourceGraphic"/></filter><filter id="s" x="104.01" y="334.173" width="201.935" height="61.84" filterUnits="userSpaceOnUse"><feOffset dy="6" input="SourceAlpha"/><feGaussianBlur stdDeviation="5" result="t"/><feFlood flood-opacity="0.039"/><feComposite operator="in" in2="t"/><feComposite in="SourceGraphic"/></filter></defs><g transform="translate(-1579.51 -1458.744)"><path class="a" d="M1833.33,1529.966h-16.663a.978.978,0,0,0-.98.977h0v9.767a.978.978,0,0,0,.98.977h16.663v6.83a.49.49,0,0,0,.837.346l13.084-13.037-13.083-13.035a.492.492,0,0,0-.693,0,.484.484,0,0,0-.145.348Z" transform="translate(3284.139 -175.284) rotate(90)"/><path class="a" d="M1833.33,1529.966h-16.663a.978.978,0,0,0-.98.977h0v9.767a.978.978,0,0,0,.98.977h16.663v6.83a.49.49,0,0,0,.837.346l13.084-13.037-13.083-13.035a.492.492,0,0,0-.693,0,.484.484,0,0,0-.145.348Z" transform="translate(3284.139 -57.307) rotate(90)"/><g transform="translate(-8)"><g transform="translate(1695.594 1469.744)"><g class="ar" transform="matrix(1, 0, 0, 1, -108.08, -11)"><path class="b" d="M7.568,0H73.059c2.265,0,6.264-.3,8.9,2.487s16.545,17.507,19.85,21.01,3.9,5.634,3.9,7.679V131.626a7.831,7.831,0,0,1-7.568,8.069H7.568A7.831,7.831,0,0,1,0,131.626V8.066A7.831,7.831,0,0,1,7.568,0Z" transform="translate(108.08 25.3)"/></g><g class="aq" transform="matrix(1, 0, 0, 1, -108.08, -11)"><rect class="c" width="106.911" height="142.958" rx="10" transform="translate(119.65 11)"/></g><g transform="translate(24.329 47.08)"><g transform="translate(3.755 4.016)"><rect class="d" width="33.108" height="2.749" rx="1.375" transform="translate(0.038 9.386)"/><rect class="d" width="37.246" height="2.749" rx="1.375" transform="translate(0.038 14.885)"/><rect class="d" width="11.726" height="2.749" rx="1.375" transform="translate(0.038 25.882)"/><rect class="d" width="36.557" height="2.749" rx="1.375" transform="translate(0.038 20.383)"/><rect class="d" width="27.197" height="3.716" rx="1.858" transform="translate(0 0)"/></g><g transform="translate(54.835 13.402)"><rect class="d" width="3.449" height="2.749" rx="1.375" transform="translate(0 16.495)"/><rect class="d" width="3.449" height="2.749" rx="1.375" transform="translate(0 10.997)"/><rect class="d" width="3.449" height="2.749" rx="1.375" transform="translate(0 5.498)"/><rect class="d" width="3.449" height="2.749" rx="1.375" transform="translate(0 0)"/><rect class="d" width="8.277" height="2.749" rx="1.375" transform="translate(4.828 0)"/><rect class="d" width="15.864" height="2.749" rx="1.375" transform="translate(4.828 5.498)"/><rect class="d" width="11.036" height="2.749" rx="1.375" transform="translate(4.828 10.997)"/><rect class="d" width="11.036" height="2.749" rx="1.375" transform="translate(4.828 16.495)"/></g><rect class="e" width="80.701" height="37.114" rx="8"/></g><g transform="translate(24.329 91.067)"><g transform="translate(3.398 3.59)"><rect class="f" width="9.323" height="3.716" rx="1.858" transform="translate(61.404 21.239)"/><rect class="f" width="9.323" height="3.716" rx="1.858" transform="translate(61.404 14.736)"/><rect class="f" width="9.323" height="3.716" rx="1.858" transform="translate(45.555 21.239)"/><rect class="f" width="9.323" height="3.716" rx="1.858" transform="translate(45.555 14.736)"/><rect class="f" width="24.24" height="3.716" rx="1.858" transform="translate(12.925 21.239)"/><rect class="f" width="24.24" height="3.716" rx="1.858" transform="translate(12.925 14.736)"/><g class="g"><path class="h" d="M1686.774,1590.092h-6.6a2.259,2.259,0,0,1-2.464-1.962v-25.284h9.067Zm-6.526-2.022h3.984v-23.2h-3.984Z" transform="translate(-1677.707 -1556.344)"/><path class="h" d="M1722.448,1590.092h-37.037v-27.245h37.037Zm-34.5-2.022h31.954v-23.2h-31.954Z" transform="translate(-1678.885 -1556.344)"/><path class="h" d="M1760.772,1590.092h-15.924v-27.245h18.39v25.284A2.26,2.26,0,0,1,1760.772,1590.092Zm-13.383-2.022H1760.7v-23.2h-13.308Z" transform="translate(-1687.977 -1556.344)"/><path class="h" d="M1744.527,1590.092h-18.391v-27.245h18.391Zm-15.85-2.022h13.309v-23.2h-13.309Z" transform="translate(-1685.114 -1556.344)"/><path class="h" d="M1752.969,1564.178h-75.262V1557.6a2.462,2.462,0,0,1,2.464-2.455H1750.5a2.463,2.463,0,0,1,2.466,2.455Zm-72.721-2.532h70.179v-3.97h-70.179Z" transform="translate(-1677.707 -1555.143)"/></g></g><rect class="i" width="82.08" height="40.55" rx="8" transform="translate(0 0)"/></g><g transform="translate(24.329 15.464)"><rect class="d" width="35.177" height="4.124" rx="2.062" transform="translate(2.414 2.406)"/><rect class="e" width="40.005" height="8.935" rx="4.467"/></g><g transform="translate(76.493 15.121)"><path class="j" d="M18.761,18.557H4a4,4,0,0,1-4-4V4A4,4,0,0,1,4,0H18.761a4.005,4.005,0,0,1,4,4V14.557A4,4,0,0,1,18.761,18.557ZM7.262,9.386l-.041,0a.4.4,0,0,0-.3.178L3.668,14.431a.4.4,0,0,0-.021.416.407.407,0,0,0,.359.214H20.279a.4.4,0,0,0,.347-.615L15.744,6.339a.408.408,0,0,0-.326-.2h-.026a.4.4,0,0,0-.32.163l-4.6,6.112L7.548,9.5A.41.41,0,0,0,7.262,9.386ZM7.667,2.9A1.621,1.621,0,1,0,9.294,4.521,1.626,1.626,0,0,0,7.667,2.9Z" transform="translate(2.76 2.749)"/><rect class="k" width="28.524" height="24.055" rx="8"/></g></g><path class="l" d="M-25.36-9.647h-2.075q-.077,0-.055-.077l.331-1.034a.1.1,0,0,1,.1-.055h5.176q.077,0,.077.066v1.023a.068.068,0,0,1-.077.077h-2.2l-1.048,5.982q-.011.077-.1.077H-26.32q-.11,0-.088-.088Zm4.017.7q.011-.055.028-.06a.223.223,0,0,1,.061-.005h1.1q.077,0,.066.088l-.949,5.256a.1.1,0,0,1-.1.077h-1.082a.068.068,0,0,1-.077-.077Zm.828-.858a.658.658,0,0,1-.5-.192.615.615,0,0,1-.149-.511.8.8,0,0,1,.265-.511.809.809,0,0,1,.552-.192.614.614,0,0,1,.491.2.6.6,0,0,1,.116.517.7.7,0,0,1-.237.506A.787.787,0,0,1-20.515-9.8Zm3.454,6.026a.166.166,0,0,1-.1.132,1.608,1.608,0,0,1-.408.126,3.057,3.057,0,0,1-.519.038,1.2,1.2,0,0,1-.949-.374,1.5,1.5,0,0,1-.177-1.265l.519-2.826H-19.4a.217.217,0,0,1-.05-.022q-.017-.011-.006-.066l.188-.913q.011-.066.088-.066h.673q.055-.319.127-.66t.127-.627a.083.083,0,0,1,.077-.066,3.983,3.983,0,0,0,.6-.06,3.815,3.815,0,0,0,.574-.159q.066-.011.066.055-.077.352-.155.737t-.166.781h.96q.088,0,.077.077l-.166.9q0,.077-.088.088h-.971l-.5,2.738a.852.852,0,0,0,.022.484q.077.176.375.176a1.754,1.754,0,0,0,.287-.022,1.687,1.687,0,0,0,.287-.077.123.123,0,0,1,.055-.011q.033,0,.033.055Zm2.8.066a.135.135,0,0,1-.088.11,1.8,1.8,0,0,1-.717.121,1.634,1.634,0,0,1-.48-.066.71.71,0,0,1-.348-.225.845.845,0,0,1-.171-.429,2.3,2.3,0,0,1,.028-.676l1.137-6.444a.086.086,0,0,1,.077-.077q.121-.011.3-.022l.353-.022.3-.022q.132-.011.166-.011.066,0,.066.077l-1.137,6.444q-.055.275.033.352a.357.357,0,0,0,.243.077,1.226,1.226,0,0,0,.342-.055q.055-.011.055.055ZM-9.5-3.917a.137.137,0,0,1-.1.11,2.4,2.4,0,0,1-.618.247,3.728,3.728,0,0,1-.872.082,2.689,2.689,0,0,1-.894-.143,1.873,1.873,0,0,1-.7-.429,1.915,1.915,0,0,1-.452-.72,2.939,2.939,0,0,1-.16-1.017,3.68,3.68,0,0,1,.215-1.243,3.447,3.447,0,0,1,.6-1.067,2.99,2.99,0,0,1,.927-.742,2.55,2.55,0,0,1,1.192-.28A2.264,2.264,0,0,1-9.568-9a1.407,1.407,0,0,1,.519.324,1.219,1.219,0,0,1,.287.462,1.639,1.639,0,0,1,.088.533A1.56,1.56,0,0,1-9.48-6.26a4.97,4.97,0,0,1-2.593.484q0,.033-.006.088t-.006.088a1.466,1.466,0,0,0,.066.341.818.818,0,0,0,.2.324,1.112,1.112,0,0,0,.386.247,1.652,1.652,0,0,0,.618.1,3.258,3.258,0,0,0,.7-.077,2.369,2.369,0,0,0,.717-.3q.055-.022.055.055Zm-2.472-2.815a5.156,5.156,0,0,0,1.109-.06,2.211,2.211,0,0,0,.657-.214A.764.764,0,0,0-9.893-7.3a.658.658,0,0,0,.083-.3.747.747,0,0,0-.022-.17.374.374,0,0,0-.094-.17.529.529,0,0,0-.2-.126.945.945,0,0,0-.337-.049,1.181,1.181,0,0,0-.48.1,1.684,1.684,0,0,0-.441.286,1.858,1.858,0,0,0-.359.44A2.113,2.113,0,0,0-11.974-6.732Z" transform="translate(1692.242 1496.7)"/><path class="l" d="M-42.313-3.587q-.077,0-.066-.088l.53-3.024h-2.969l-.53,3.035q-.011.077-.077.077h-1.126a.147.147,0,0,1-.066-.016q-.033-.016-.011-.071l1.236-7.071a.071.071,0,0,1,.077-.066h1.137a.068.068,0,0,1,.077.077l-.508,2.881h2.969l.508-2.9a.078.078,0,0,1,.077-.055h1.137a.068.068,0,0,1,.077.077L-41.1-3.675q-.011.055-.017.071t-.061.016Zm6.533-.33a.137.137,0,0,1-.1.11,2.4,2.4,0,0,1-.618.247,3.728,3.728,0,0,1-.872.082,2.689,2.689,0,0,1-.894-.143,1.873,1.873,0,0,1-.7-.429,1.915,1.915,0,0,1-.452-.72,2.939,2.939,0,0,1-.16-1.017,3.68,3.68,0,0,1,.215-1.243,3.447,3.447,0,0,1,.6-1.067,2.99,2.99,0,0,1,.927-.742,2.55,2.55,0,0,1,1.192-.28A2.264,2.264,0,0,1-35.846-9a1.407,1.407,0,0,1,.519.324,1.219,1.219,0,0,1,.287.462,1.639,1.639,0,0,1,.088.533,1.56,1.56,0,0,1-.806,1.419,4.97,4.97,0,0,1-2.593.484q0,.033-.006.088t-.006.088a1.466,1.466,0,0,0,.066.341.818.818,0,0,0,.2.324,1.112,1.112,0,0,0,.386.247,1.652,1.652,0,0,0,.618.1,3.258,3.258,0,0,0,.7-.077,2.369,2.369,0,0,0,.717-.3q.055-.022.055.055Zm-2.472-2.815a5.156,5.156,0,0,0,1.109-.06,2.211,2.211,0,0,0,.657-.214.764.764,0,0,0,.315-.291.658.658,0,0,0,.083-.3.747.747,0,0,0-.022-.17.374.374,0,0,0-.094-.17.529.529,0,0,0-.2-.126.945.945,0,0,0-.337-.049,1.181,1.181,0,0,0-.48.1,1.684,1.684,0,0,0-.441.286,1.858,1.858,0,0,0-.359.44A2.113,2.113,0,0,0-38.252-6.732Zm8,2.771a.106.106,0,0,1-.066.088,4.66,4.66,0,0,1-.922.3,4.716,4.716,0,0,1-.966.093,2.765,2.765,0,0,1-.877-.137,2,2,0,0,1-.723-.418,1.945,1.945,0,0,1-.486-.7,2.605,2.605,0,0,1-.177-1.006,3.284,3.284,0,0,1,.248-1.248A3.239,3.239,0,0,1-33.5-8.074a3.568,3.568,0,0,1,1.159-.759,3.974,3.974,0,0,1,1.545-.286,5.015,5.015,0,0,1,.806.055q.331.055.585.121a.089.089,0,0,1,.022.066Zm-.53-4.08q-.044,0-.1-.005t-.171-.005a2.058,2.058,0,0,0-.817.165,2.1,2.1,0,0,0-.679.462,2.2,2.2,0,0,0-.464.709,2.375,2.375,0,0,0-.171.918,1.342,1.342,0,0,0,.3.891,1.175,1.175,0,0,0,.955.363,1.5,1.5,0,0,0,.552-.088Zm6.224,4.047a.137.137,0,0,1-.077.11,4.627,4.627,0,0,1-.955.319,4.651,4.651,0,0,1-.922.088,2.787,2.787,0,0,1-.9-.143,2.127,2.127,0,0,1-.739-.429,1.953,1.953,0,0,1-.5-.731,2.765,2.765,0,0,1-.182-1.05,3.217,3.217,0,0,1,.248-1.254,3.314,3.314,0,0,1,.7-1.05,3.269,3.269,0,0,1,1.065-.72,3.392,3.392,0,0,1,1.346-.264,2.964,2.964,0,0,1,.563.044l.4-2.243a.086.086,0,0,1,.077-.077q.11-.011.292-.022l.359-.022.315-.022q.138-.011.16-.011a.058.058,0,0,1,.066.066Zm-.563-4a.717.717,0,0,0-.232-.055q-.132-.011-.287-.011a1.691,1.691,0,0,0-.734.165,1.952,1.952,0,0,0-.612.456,2.171,2.171,0,0,0-.419.7,2.458,2.458,0,0,0-.155.88,1.66,1.66,0,0,0,.072.495,1.068,1.068,0,0,0,.232.407,1.149,1.149,0,0,0,.4.28,1.445,1.445,0,0,0,.574.1,2.183,2.183,0,0,0,.337-.022.856.856,0,0,0,.248-.077Zm5.86,4.08a.137.137,0,0,1-.1.11,2.4,2.4,0,0,1-.618.247,3.728,3.728,0,0,1-.872.082,2.689,2.689,0,0,1-.894-.143,1.873,1.873,0,0,1-.7-.429,1.915,1.915,0,0,1-.452-.72,2.939,2.939,0,0,1-.16-1.017,3.68,3.68,0,0,1,.215-1.243,3.447,3.447,0,0,1,.6-1.067,2.99,2.99,0,0,1,.927-.742,2.55,2.55,0,0,1,1.192-.28A2.264,2.264,0,0,1-19.325-9a1.407,1.407,0,0,1,.519.324,1.219,1.219,0,0,1,.287.462,1.639,1.639,0,0,1,.088.533,1.56,1.56,0,0,1-.806,1.419,4.97,4.97,0,0,1-2.593.484q0,.033-.006.088t-.006.088a1.466,1.466,0,0,0,.066.341.818.818,0,0,0,.2.324,1.112,1.112,0,0,0,.386.247,1.652,1.652,0,0,0,.618.1,3.258,3.258,0,0,0,.7-.077,2.369,2.369,0,0,0,.717-.3q.055-.022.055.055Zm-2.472-2.815a5.156,5.156,0,0,0,1.109-.06,2.211,2.211,0,0,0,.657-.214.764.764,0,0,0,.315-.291.658.658,0,0,0,.083-.3.747.747,0,0,0-.022-.17.374.374,0,0,0-.094-.17.529.529,0,0,0-.2-.126.945.945,0,0,0-.337-.049,1.181,1.181,0,0,0-.48.1,1.684,1.684,0,0,0-.441.286,1.858,1.858,0,0,0-.359.44A2.113,2.113,0,0,0-21.731-6.732Zm5.5-2.276q.088,0,.1.055a.849.849,0,0,1,.006.181q-.006.126-.017.269t-.028.28q-.017.137-.028.214a2.886,2.886,0,0,1,.4-.445,2.928,2.928,0,0,1,.48-.352,2.455,2.455,0,0,1,.524-.231,1.793,1.793,0,0,1,.524-.082q.077,0,.066.1l-.243,1.2q-.022.066-.066.066a2.253,2.253,0,0,0-.993.28,1.987,1.987,0,0,0-.728.643.406.406,0,0,0-.11.242l-.53,2.947a.078.078,0,0,1-.077.055h-1.1q-.088,0-.066-.077l.706-3.981q.077-.385.116-.709t.061-.6q0-.055.088-.055Z" transform="translate(1698.181 1529.69)"/><path class="l" d="M-21-4.622h3.123q.077,0,.044.088l-.331,1a.123.123,0,0,1-.1.066h-4.15q-.088,0-.066-.066l1.236-7.093a.071.071,0,0,1,.077-.066h1.159q.066,0,.055.088Zm4.812-4.2q.011-.055.028-.06a.223.223,0,0,1,.061-.005H-15q.077,0,.066.088l-.949,5.256a.1.1,0,0,1-.1.077h-1.082a.068.068,0,0,1-.077-.077Zm.828-.858a.658.658,0,0,1-.5-.192.615.615,0,0,1-.149-.511.8.8,0,0,1,.265-.511.809.809,0,0,1,.552-.192.614.614,0,0,1,.491.2.6.6,0,0,1,.116.517.7.7,0,0,1-.237.506A.787.787,0,0,1-15.364-9.68Zm4.47,1.99a2.33,2.33,0,0,0-.579-.209,2.729,2.729,0,0,0-.579-.066.95.95,0,0,0-.646.176.507.507,0,0,0-.193.374.6.6,0,0,0,.022.165.387.387,0,0,0,.094.154,1.067,1.067,0,0,0,.2.159,2.924,2.924,0,0,0,.337.181,3.857,3.857,0,0,1,1.026.7,1.3,1.3,0,0,1,.364.951,1.683,1.683,0,0,1-.16.753,1.529,1.529,0,0,1-.447.544,2.061,2.061,0,0,1-.679.335,3.015,3.015,0,0,1-.855.115,3.487,3.487,0,0,1-.927-.115,2.217,2.217,0,0,1-.673-.291.089.089,0,0,1-.044-.066.322.322,0,0,1,.011-.077l.21-.957q.022-.055.066-.022a2.586,2.586,0,0,0,1.457.473.93.93,0,0,0,.618-.165.489.489,0,0,0,.188-.374.52.52,0,0,0-.155-.363,2.354,2.354,0,0,0-.552-.385q-.243-.132-.475-.275a2.117,2.117,0,0,1-.408-.324,1.51,1.51,0,0,1-.287-.418,1.246,1.246,0,0,1-.11-.533A1.664,1.664,0,0,1-13.94-7.9a1.551,1.551,0,0,1,.4-.555,2.07,2.07,0,0,1,.673-.39A2.726,2.726,0,0,1-11.921-9a3.72,3.72,0,0,1,.739.071,1.6,1.6,0,0,1,.541.192.1.1,0,0,1,.044.11l-.21.9Q-10.817-7.657-10.894-7.69Zm3.278,4.036a.166.166,0,0,1-.1.132,1.608,1.608,0,0,1-.408.126,3.057,3.057,0,0,1-.519.038,1.2,1.2,0,0,1-.949-.374A1.5,1.5,0,0,1-9.769-5l.519-2.826h-.706a.217.217,0,0,1-.05-.022q-.017-.011-.006-.066l.188-.913q.011-.066.088-.066h.673q.055-.319.127-.66t.127-.627a.083.083,0,0,1,.077-.066,3.983,3.983,0,0,0,.6-.06,3.814,3.814,0,0,0,.574-.159q.066-.011.066.055-.077.352-.155.737t-.166.781h.96q.088,0,.077.077l-.166.9q0,.077-.088.088H-8l-.5,2.738a.852.852,0,0,0,.022.484q.077.176.375.176a1.754,1.754,0,0,0,.287-.022,1.687,1.687,0,0,0,.287-.077.123.123,0,0,1,.055-.011q.033,0,.033.055Z" transform="translate(1690.688 1557.062)"/><path class="m" d="M-32.128-9.647H-34.2q-.077,0-.055-.077l.331-1.034a.1.1,0,0,1,.1-.055h5.176q.077,0,.077.066v1.023a.068.068,0,0,1-.077.077h-2.2L-31.9-3.664a.086.086,0,0,1-.1.077h-1.093q-.11,0-.088-.088Zm6.655,5.685a.106.106,0,0,1-.066.088,4.66,4.66,0,0,1-.922.3,4.716,4.716,0,0,1-.966.093,2.765,2.765,0,0,1-.877-.137,2,2,0,0,1-.723-.418,1.945,1.945,0,0,1-.486-.7,2.605,2.605,0,0,1-.177-1.006,3.284,3.284,0,0,1,.248-1.248,3.239,3.239,0,0,1,.723-1.083,3.568,3.568,0,0,1,1.159-.759,3.974,3.974,0,0,1,1.545-.286,5.016,5.016,0,0,1,.806.055q.331.055.585.121a.089.089,0,0,1,.022.066ZM-26-8.041q-.044,0-.1-.005t-.171-.005a2.058,2.058,0,0,0-.817.165,2.1,2.1,0,0,0-.679.462,2.2,2.2,0,0,0-.464.709,2.375,2.375,0,0,0-.171.918,1.342,1.342,0,0,0,.3.891,1.175,1.175,0,0,0,.955.363,1.5,1.5,0,0,0,.552-.088Zm3.245-3.277a.113.113,0,0,1,.1-.088q.132-.011.315-.022L-22-11.45l.287-.016.143-.005q.077,0,.066.077l-.452,2.606a2.309,2.309,0,0,1,.6-.253,2.647,2.647,0,0,1,.662-.077,1.723,1.723,0,0,1,.745.154,1.553,1.553,0,0,1,.552.434,1.934,1.934,0,0,1,.342.665,2.969,2.969,0,0,1,.116.858,3.769,3.769,0,0,1-.248,1.369,3.344,3.344,0,0,1-.706,1.122,3.409,3.409,0,0,1-1.087.759,3.377,3.377,0,0,1-1.391.28,4.341,4.341,0,0,1-.861-.082,2.285,2.285,0,0,1-.761-.3.106.106,0,0,1-.055-.121Zm.088,6.686a.872.872,0,0,0,.243.071,1.8,1.8,0,0,0,.243.016,1.672,1.672,0,0,0,.745-.176,1.939,1.939,0,0,0,.629-.495,2.491,2.491,0,0,0,.43-.748,2.686,2.686,0,0,0,.16-.946,2.017,2.017,0,0,0-.044-.418.953.953,0,0,0-.155-.363.871.871,0,0,0-.287-.253.919.919,0,0,0-.452-.1,1.7,1.7,0,0,0-.982.319Zm6.313.924a.135.135,0,0,1-.088.11,1.8,1.8,0,0,1-.717.121,1.634,1.634,0,0,1-.48-.066.71.71,0,0,1-.348-.225.845.845,0,0,1-.171-.429,2.3,2.3,0,0,1,.028-.676L-17-11.318a.086.086,0,0,1,.077-.077q.121-.011.3-.022l.353-.022.3-.022q.132-.011.166-.011.066,0,.066.077l-1.137,6.444q-.055.275.033.352a.357.357,0,0,0,.243.077,1.226,1.226,0,0,0,.342-.055q.055-.011.055.055Zm4.757-.209a.137.137,0,0,1-.1.11,2.4,2.4,0,0,1-.618.247,3.728,3.728,0,0,1-.872.082,2.689,2.689,0,0,1-.894-.143,1.873,1.873,0,0,1-.7-.429,1.915,1.915,0,0,1-.452-.72,2.939,2.939,0,0,1-.16-1.017,3.68,3.68,0,0,1,.215-1.243,3.447,3.447,0,0,1,.6-1.067,2.99,2.99,0,0,1,.927-.742,2.55,2.55,0,0,1,1.192-.28A2.264,2.264,0,0,1-11.668-9a1.407,1.407,0,0,1,.519.324,1.219,1.219,0,0,1,.287.462,1.639,1.639,0,0,1,.088.533,1.56,1.56,0,0,1-.806,1.419,4.97,4.97,0,0,1-2.593.484q0,.033-.006.088t-.006.088a1.466,1.466,0,0,0,.066.341.818.818,0,0,0,.2.324,1.112,1.112,0,0,0,.386.247,1.652,1.652,0,0,0,.618.1,3.258,3.258,0,0,0,.7-.077,2.369,2.369,0,0,0,.717-.3q.055-.022.055.055Zm-2.472-2.815a5.156,5.156,0,0,0,1.109-.06,2.211,2.211,0,0,0,.657-.214.764.764,0,0,0,.315-.291.658.658,0,0,0,.083-.3.747.747,0,0,0-.022-.17.374.374,0,0,0-.094-.17.529.529,0,0,0-.2-.126.945.945,0,0,0-.337-.049,1.181,1.181,0,0,0-.48.1,1.684,1.684,0,0,0-.441.286,1.858,1.858,0,0,0-.359.44A2.113,2.113,0,0,0-14.073-6.732Z" transform="translate(1694.342 1589.484)"/><path class="n" d="M-38.923-3.364q-.011.077-.077.077h-1.126q-.077,0-.066-.088l1.236-7.071a.071.071,0,0,1,.077-.066h1.137q.077,0,.077.088Zm3.432-5.344q.066,0,.066.055a.978.978,0,0,1,.006.275q-.017.143-.039.275a2.819,2.819,0,0,1,.861-.555,2.374,2.374,0,0,1,.85-.159,1.267,1.267,0,0,1,.767.214,1.089,1.089,0,0,1,.4.6,3.03,3.03,0,0,1,.96-.638,2.6,2.6,0,0,1,.927-.176,1.638,1.638,0,0,1,.585.1,1.084,1.084,0,0,1,.469.346,1.378,1.378,0,0,1,.259.649,3.046,3.046,0,0,1-.044,1.012l-.6,3.332q-.011.088-.077.088h-1.093q-.1,0-.088-.088l.607-3.409a1.285,1.285,0,0,0-.028-.7q-.1-.247-.491-.247a1.3,1.3,0,0,0-.6.176,1.835,1.835,0,0,0-.618.583.478.478,0,0,0-.077.17q-.022.093-.044.2l-.585,3.233a.08.08,0,0,1-.088.077h-1.082q-.088,0-.066-.088l.6-3.354a1.31,1.31,0,0,0-.028-.748.473.473,0,0,0-.48-.253,1.27,1.27,0,0,0-.629.181,2.023,2.023,0,0,0-.607.566.742.742,0,0,0-.083.132.768.768,0,0,0-.061.22l-.585,3.255q-.022.055-.028.071t-.061.016h-1.059q-.1,0-.088-.088l.75-4.168q.055-.3.1-.616t.055-.473a.068.068,0,0,1,.077-.077Zm11.2,5.048a.106.106,0,0,1-.066.088,4.66,4.66,0,0,1-.922.3,4.716,4.716,0,0,1-.966.093,2.765,2.765,0,0,1-.877-.137,2,2,0,0,1-.723-.418,1.945,1.945,0,0,1-.486-.7,2.605,2.605,0,0,1-.177-1.006,3.284,3.284,0,0,1,.248-1.248,3.239,3.239,0,0,1,.723-1.083,3.568,3.568,0,0,1,1.159-.759,3.974,3.974,0,0,1,1.545-.286,5.015,5.015,0,0,1,.806.055q.331.055.585.121a.089.089,0,0,1,.022.066Zm-.53-4.08q-.044,0-.1-.005t-.171-.005a2.058,2.058,0,0,0-.817.165,2.1,2.1,0,0,0-.679.462,2.2,2.2,0,0,0-.464.709,2.375,2.375,0,0,0-.171.918,1.342,1.342,0,0,0,.3.891,1.175,1.175,0,0,0,.955.363,1.5,1.5,0,0,0,.552-.088Zm1.644,5.454q.011-.066.088-.044a2.943,2.943,0,0,0,.646.225,3.32,3.32,0,0,0,.712.071,1.794,1.794,0,0,0,1.17-.352,1.538,1.538,0,0,0,.364-.456,3.447,3.447,0,0,0,.265-.742,2.288,2.288,0,0,1-.96.187,2.27,2.27,0,0,1-.789-.132,1.707,1.707,0,0,1-.624-.4,1.822,1.822,0,0,1-.414-.66,2.582,2.582,0,0,1-.149-.913,3.344,3.344,0,0,1,.232-1.215,3.288,3.288,0,0,1,.668-1.067,3.264,3.264,0,0,1,1.082-.753,3.6,3.6,0,0,1,1.473-.286,4.734,4.734,0,0,1,.949.082,6.05,6.05,0,0,1,.662.17.072.072,0,0,1,.055.088q-.055.154-.094.3t-.072.324l-.629,3.574q-.066.352-.121.616t-.116.467q-.061.2-.121.363t-.127.3a2.665,2.665,0,0,1-.53.792,2.659,2.659,0,0,1-.679.495,2.78,2.78,0,0,1-.773.258,4.634,4.634,0,0,1-.811.071,3.479,3.479,0,0,1-1.556-.308.075.075,0,0,1-.033-.1Zm3.984-5.41a.5.5,0,0,0-.182-.049,2.195,2.195,0,0,0-.281-.016,1.777,1.777,0,0,0-.761.165,1.872,1.872,0,0,0-.612.456,2.22,2.22,0,0,0-.408.671,2.191,2.191,0,0,0-.149.808,1.872,1.872,0,0,0,.055.467.987.987,0,0,0,.182.374.831.831,0,0,0,.337.247,1.344,1.344,0,0,0,.519.088,2.056,2.056,0,0,0,.364-.038,1.2,1.2,0,0,0,.408-.159Zm5.75,4.08a.137.137,0,0,1-.1.11,2.4,2.4,0,0,1-.618.247,3.728,3.728,0,0,1-.872.082,2.689,2.689,0,0,1-.894-.143,1.873,1.873,0,0,1-.7-.429,1.915,1.915,0,0,1-.452-.72,2.939,2.939,0,0,1-.16-1.017,3.68,3.68,0,0,1,.215-1.243,3.447,3.447,0,0,1,.6-1.067,2.99,2.99,0,0,1,.927-.742,2.55,2.55,0,0,1,1.192-.28,2.264,2.264,0,0,1,.795.121,1.407,1.407,0,0,1,.519.324,1.219,1.219,0,0,1,.287.462,1.639,1.639,0,0,1,.088.533,1.56,1.56,0,0,1-.806,1.419,4.97,4.97,0,0,1-2.593.484q0,.033-.006.088t-.006.088a1.466,1.466,0,0,0,.066.341.818.818,0,0,0,.2.324,1.112,1.112,0,0,0,.386.247,1.652,1.652,0,0,0,.618.1,3.258,3.258,0,0,0,.7-.077,2.369,2.369,0,0,0,.717-.3q.055-.022.055.055Zm-2.472-2.815a5.156,5.156,0,0,0,1.109-.06,2.211,2.211,0,0,0,.657-.214A.764.764,0,0,0-13.833-7a.658.658,0,0,0,.083-.3.747.747,0,0,0-.022-.17.374.374,0,0,0-.094-.17.529.529,0,0,0-.2-.126.945.945,0,0,0-.337-.049,1.181,1.181,0,0,0-.48.1,1.684,1.684,0,0,0-.441.286,1.858,1.858,0,0,0-.359.44A2.113,2.113,0,0,0-15.913-6.432Z" transform="translate(1696.182 1510.145)"/><path class="l" d="M-67.842-10.719q.011-.055.033-.066a.1.1,0,0,1,.044-.011q.352-.022.77-.027t.814-.005a4.455,4.455,0,0,1,1.05.121,2.589,2.589,0,0,1,.88.385,1.953,1.953,0,0,1,.6.676,2.023,2.023,0,0,1,.225.984,2.321,2.321,0,0,1-.264,1.138,2.335,2.335,0,0,1-.709.792,3.088,3.088,0,0,1-1.039.462,5.105,5.105,0,0,1-1.243.148q-.22,0-.374-.005t-.308-.016l-.44,2.485q-.011.077-.077.077h-1.133q-.088,0-.066-.077Zm.682,3.464a5.031,5.031,0,0,0,.616.033A2.244,2.244,0,0,0-65.2-7.58a1.152,1.152,0,0,0,.489-.984,1.015,1.015,0,0,0-.379-.874,1.756,1.756,0,0,0-1.061-.28q-.154,0-.291.005t-.28.016Zm8.171,3.3a.106.106,0,0,1-.066.088,4.631,4.631,0,0,1-.918.3,4.683,4.683,0,0,1-.962.093,2.747,2.747,0,0,1-.874-.137,1.991,1.991,0,0,1-.72-.418,1.945,1.945,0,0,1-.484-.7,2.614,2.614,0,0,1-.176-1.006,3.294,3.294,0,0,1,.247-1.248,3.24,3.24,0,0,1,.72-1.083,3.554,3.554,0,0,1,1.155-.759,3.947,3.947,0,0,1,1.54-.286,4.98,4.98,0,0,1,.8.055q.33.055.583.121a.09.09,0,0,1,.022.066Zm-.528-4.08q-.044,0-.1-.005t-.17-.005a2.044,2.044,0,0,0-.814.165,2.094,2.094,0,0,0-.676.462,2.2,2.2,0,0,0-.462.709,2.382,2.382,0,0,0-.17.918,1.345,1.345,0,0,0,.3.891,1.169,1.169,0,0,0,.951.363,1.49,1.49,0,0,0,.55-.088ZM-55.735-9q.088,0,.1.055a.851.851,0,0,1,.005.181q-.005.126-.016.269t-.027.28q-.016.137-.027.214a2.882,2.882,0,0,1,.4-.445,2.918,2.918,0,0,1,.478-.352,2.442,2.442,0,0,1,.522-.231,1.781,1.781,0,0,1,.522-.082q.077,0,.066.1l-.242,1.2q-.022.066-.066.066a2.239,2.239,0,0,0-.99.28,1.982,1.982,0,0,0-.726.643.407.407,0,0,0-.11.242l-.528,2.947a.078.078,0,0,1-.077.055h-1.1q-.088,0-.066-.077l.7-3.981q.077-.385.115-.709t.06-.6q0-.055.088-.055Zm6.257,5.048a.106.106,0,0,1-.066.088,4.631,4.631,0,0,1-.918.3,4.683,4.683,0,0,1-.962.093A2.747,2.747,0,0,1-52.3-3.61a1.991,1.991,0,0,1-.72-.418,1.945,1.945,0,0,1-.484-.7,2.614,2.614,0,0,1-.176-1.006,3.294,3.294,0,0,1,.247-1.248,3.24,3.24,0,0,1,.72-1.083,3.554,3.554,0,0,1,1.155-.759,3.947,3.947,0,0,1,1.54-.286,4.98,4.98,0,0,1,.8.055q.33.055.583.121a.09.09,0,0,1,.022.066Zm-.528-4.08q-.044,0-.1-.005t-.17-.005a2.044,2.044,0,0,0-.814.165,2.094,2.094,0,0,0-.676.462,2.2,2.2,0,0,0-.462.709,2.382,2.382,0,0,0-.17.918,1.345,1.345,0,0,0,.3.891,1.169,1.169,0,0,0,.951.363,1.49,1.49,0,0,0,.55-.088Zm1.639,5.454q.011-.066.088-.044a2.926,2.926,0,0,0,.643.225,3.3,3.3,0,0,0,.709.071,1.784,1.784,0,0,0,1.166-.352,1.537,1.537,0,0,0,.363-.456,3.455,3.455,0,0,0,.264-.742,2.273,2.273,0,0,1-.957.187,2.254,2.254,0,0,1-.786-.132,1.7,1.7,0,0,1-.621-.4,1.822,1.822,0,0,1-.412-.66,2.59,2.59,0,0,1-.148-.913,3.355,3.355,0,0,1,.231-1.215,3.29,3.29,0,0,1,.665-1.067,3.252,3.252,0,0,1,1.078-.753,3.581,3.581,0,0,1,1.468-.286,4.7,4.7,0,0,1,.946.082,6.01,6.01,0,0,1,.66.17.072.072,0,0,1,.055.088q-.055.154-.093.3t-.071.324l-.627,3.574q-.066.352-.121.616t-.115.467q-.06.2-.121.363t-.126.3a2.665,2.665,0,0,1-.528.792,2.65,2.65,0,0,1-.676.495,2.763,2.763,0,0,1-.77.258,4.6,4.6,0,0,1-.808.071,3.456,3.456,0,0,1-1.551-.308.076.076,0,0,1-.033-.1Zm3.97-5.41a.5.5,0,0,0-.181-.049,2.179,2.179,0,0,0-.28-.016,1.765,1.765,0,0,0-.759.165,1.866,1.866,0,0,0-.61.456,2.221,2.221,0,0,0-.407.671,2.2,2.2,0,0,0-.148.808,1.878,1.878,0,0,0,.055.467.988.988,0,0,0,.181.374.828.828,0,0,0,.335.247,1.335,1.335,0,0,0,.517.088,2.041,2.041,0,0,0,.363-.038,1.191,1.191,0,0,0,.407-.159ZM-40.6-9q.088,0,.1.055a.852.852,0,0,1,.005.181q-.005.126-.016.269t-.027.28q-.016.137-.027.214a2.882,2.882,0,0,1,.4-.445,2.918,2.918,0,0,1,.478-.352,2.442,2.442,0,0,1,.522-.231,1.781,1.781,0,0,1,.522-.082q.077,0,.066.1l-.242,1.2q-.022.066-.066.066a2.239,2.239,0,0,0-.99.28,1.982,1.982,0,0,0-.726.643.407.407,0,0,0-.11.242l-.528,2.947a.078.078,0,0,1-.077.055h-1.1q-.088,0-.066-.077l.7-3.981q.077-.385.115-.709t.06-.6q0-.055.088-.055Zm6.257,5.048a.106.106,0,0,1-.066.088,4.631,4.631,0,0,1-.918.3,4.683,4.683,0,0,1-.962.093,2.747,2.747,0,0,1-.874-.137,1.991,1.991,0,0,1-.72-.418,1.945,1.945,0,0,1-.484-.7,2.614,2.614,0,0,1-.176-1.006A3.294,3.294,0,0,1-38.3-6.986a3.24,3.24,0,0,1,.72-1.083,3.554,3.554,0,0,1,1.155-.759,3.947,3.947,0,0,1,1.54-.286,4.98,4.98,0,0,1,.8.055q.33.055.583.121a.09.09,0,0,1,.022.066Zm-.528-4.08q-.044,0-.1-.005t-.17-.005a2.044,2.044,0,0,0-.814.165,2.094,2.094,0,0,0-.676.462,2.2,2.2,0,0,0-.462.709,2.382,2.382,0,0,0-.17.918,1.345,1.345,0,0,0,.3.891,1.169,1.169,0,0,0,.951.363,1.49,1.49,0,0,0,.55-.088Zm4.9-1.078a2.347,2.347,0,0,1,.841.148,1.863,1.863,0,0,1,.676.44,2.015,2.015,0,0,1,.445.72,2.8,2.8,0,0,1,.159.979,3.289,3.289,0,0,1-.286,1.391,3.271,3.271,0,0,1-.759,1.056,3.4,3.4,0,0,1-1.083.671,3.486,3.486,0,0,1-1.27.236,2.369,2.369,0,0,1-.517-.044l-.363,2.023a.1.1,0,0,1-.088.088q-.275.033-.561.049t-.539.038q-.066,0-.055-.077l1.254-7.214a.113.113,0,0,1,.088-.1q.407-.143.907-.275A4.523,4.523,0,0,1-29.97-9.114Zm-.264,1.078a1.9,1.9,0,0,0-.77.154l-.539,3.288a1.4,1.4,0,0,0,.4.055,1.955,1.955,0,0,0,.808-.165,1.959,1.959,0,0,0,.643-.462,2.135,2.135,0,0,0,.429-.7,2.466,2.466,0,0,0,.154-.88,1.574,1.574,0,0,0-.253-.929A.991.991,0,0,0-30.233-8.036Zm4.322-3.266a.091.091,0,0,1,.088-.077q.077-.011.253-.022l.352-.022.319-.022q.143-.011.176-.011.088,0,.077.066l-.528,2.947a2.691,2.691,0,0,1,.731-.489,2.152,2.152,0,0,1,.9-.181,1.707,1.707,0,0,1,.583.1,1.026,1.026,0,0,1,.467.346,1.462,1.462,0,0,1,.264.654A3.094,3.094,0,0,1-22.261-7l-.6,3.343q-.011.077-.077.077h-1.1q-.077,0-.077-.088l.616-3.321a1.4,1.4,0,0,0-.033-.781.494.494,0,0,0-.506-.275,1.677,1.677,0,0,0-1.254.726.36.36,0,0,0-.082.126,1.124,1.124,0,0,0-.049.225l-.594,3.321a.086.086,0,0,1-.088.066h-1.1q-.077,0-.055-.066Z" transform="translate(1705.59 1543.431)"/></g><g transform="translate(-164.555 210)"><g transform="translate(1893.038 1478.786)"><path class="a" d="M1876.517,1255.821a7.839,7.839,0,0,1-7.519-8.115c.007-.217.025-.432.052-.65l0-14.167a5.611,5.611,0,0,0-2.806-5.218.37.37,0,0,1-.21-.206.313.313,0,0,1,.012-.243.323.323,0,0,1,.15-.148,5.642,5.642,0,0,0,2.84-5.293c0-1.356,0-9.523-.045-13.951a7.762,7.762,0,0,1,6.759-8.713l.167-.02c.213-.02.393-.031.574-.036l1.4-.215a.511.511,0,0,1,.489.495v3.865a.5.5,0,0,1-.507.456l-2.713.212-.055,0a1.781,1.781,0,0,0-1.773,1.653l0,16.054a9.637,9.637,0,0,1-2.9,5.338l-.512.477.505.485a9.908,9.908,0,0,1,2.9,5.342v16.023a1.8,1.8,0,0,0,1.8,1.7l2.823,0a.517.517,0,0,1,.535.5v3.9a.508.508,0,0,1-.507.486Z" transform="translate(-1930.021 -1202.885)"/><path class="a" d="M1867.984,1255.821a7.839,7.839,0,0,0,7.519-8.115c-.007-.217-.025-.432-.052-.65l0-14.167a5.612,5.612,0,0,1,2.806-5.218.369.369,0,0,0,.21-.206.312.312,0,0,0-.012-.243.322.322,0,0,0-.15-.148,5.642,5.642,0,0,1-2.84-5.293c0-1.356,0-9.523.044-13.951a7.762,7.762,0,0,0-6.759-8.713l-.167-.02c-.213-.02-.393-.031-.574-.036l-1.4-.215a.511.511,0,0,0-.489.495v3.865a.5.5,0,0,0,.507.456l2.713.212.055,0a1.78,1.78,0,0,1,1.773,1.653l0,16.054a9.637,9.637,0,0,0,2.9,5.338l.512.477-.505.485a9.906,9.906,0,0,0-2.9,5.342v16.023a1.8,1.8,0,0,1-1.8,1.7l-2.823,0a.516.516,0,0,0-.535.5v3.9a.507.507,0,0,0,.507.486Z" transform="translate(-1774.322 -1202.885)"/></g><g transform="translate(1851.563 1486.927)"><rect class="o" width="33.108" height="32.99"/><g transform="translate(0.69 0.687)"><path class="p" d="M30.659,24.5H3.069L1,21.749,3.759,19h26.21l2.759,2.749Z" transform="translate(-1 -6.629)"/><path class="q" d="M29.831,32.616H6.379A1.377,1.377,0,0,1,5,31.241V2.375A1.377,1.377,0,0,1,6.379,1H22.933L31.21,9.248V31.241A1.377,1.377,0,0,1,29.831,32.616Z" transform="translate(-2.241 -1)"/><path class="r" d="M31,1V7.873a1.377,1.377,0,0,0,1.379,1.375h6.9Z" transform="translate(-10.308 -1)"/><path class="s" d="M1,23H32.728V34a1.377,1.377,0,0,1-1.379,1.375H2.379A1.377,1.377,0,0,1,1,34Z" transform="translate(-1 -7.879)"/><path class="c" d="M10.245,35.239a3.612,3.612,0,0,1-.759-.077V34.025l.252.05a1.42,1.42,0,0,0,.29.027.593.593,0,0,0,.518-.217,1.331,1.331,0,0,0,.155-.746V28.147h1.471v4.869a2.493,2.493,0,0,1-.483,1.659,1.8,1.8,0,0,1-1.445.563Z" transform="translate(-3.633 -9.489)"/><path class="c" d="M18.5,31.871a1.581,1.581,0,0,1-.256.893,1.668,1.668,0,0,1-.737.606,2.731,2.731,0,0,1-1.13.216,4.611,4.611,0,0,1-.908-.076,3.353,3.353,0,0,1-.763-.264v-1.3a4.408,4.408,0,0,0,.87.334,3.265,3.265,0,0,0,.828.12.814.814,0,0,0,.478-.112A.347.347,0,0,0,17.04,32a.319.319,0,0,0-.06-.2.734.734,0,0,0-.2-.168,7.718,7.718,0,0,0-.72-.344,3.445,3.445,0,0,1-.795-.465,1.429,1.429,0,0,1-.393-.517,1.7,1.7,0,0,1-.128-.687,1.379,1.379,0,0,1,.545-1.163,2.4,2.4,0,0,1,1.5-.417,4.214,4.214,0,0,1,1.715.388l-.448,1.125a3.262,3.262,0,0,0-1.311-.344.681.681,0,0,0-.414.1.3.3,0,0,0-.13.247.354.354,0,0,0,.165.285,6.374,6.374,0,0,0,.9.458,2.471,2.471,0,0,1,.973.674A1.46,1.46,0,0,1,18.5,31.871Z" transform="translate(-5.254 -9.455)"/><path class="c" d="M26.4,30.8a2.9,2.9,0,0,1-.67,2.072,2.577,2.577,0,0,1-1.964.709,2.573,2.573,0,0,1-1.954-.713,2.89,2.89,0,0,1-.679-2.074,2.871,2.871,0,0,1,.676-2.058,2.588,2.588,0,0,1,1.966-.711,2.57,2.57,0,0,1,1.96.706A2.907,2.907,0,0,1,26.4,30.8Zm-3.725,0q0,1.566,1.093,1.566a.94.94,0,0,0,.828-.38,2.074,2.074,0,0,0,.27-1.186,2.1,2.1,0,0,0-.272-1.194.932.932,0,0,0-.814-.386q-1.108,0-1.107,1.579Z" transform="translate(-7.244 -9.447)"/><path class="c" d="M35.346,33.543H33.428l-1.979-3.8h-.032q.068.9.069,1.37v2.432h-1.3v-5.4H32.1l1.971,3.748H34.1c-.035-.544-.053-.98-.053-1.311v-2.44h1.3Z" transform="translate(-10.056 -9.488)"/></g></g><g transform="translate(1896.563 1486.927)"><rect class="o" width="33.108" height="32.99"/><g transform="translate(0.69 0.687)"><path class="t" d="M30.659,24.5H3.069L1,21.749,3.759,19h26.21l2.759,2.749Z" transform="translate(-1 -6.629)"/><path class="u" d="M29.831,32.616H6.379A1.377,1.377,0,0,1,5,31.241V2.375A1.377,1.377,0,0,1,6.379,1H22.933L31.21,9.248V31.241A1.377,1.377,0,0,1,29.831,32.616Z" transform="translate(-2.241 -1)"/><path class="v" d="M31,1V7.873a1.377,1.377,0,0,0,1.379,1.375h6.9Z" transform="translate(-10.308 -1)"/><path class="w" d="M1,23H32.728V34a1.377,1.377,0,0,1-1.379,1.375H2.379A1.377,1.377,0,0,1,1,34Z" transform="translate(-1 -7.879)"/><path class="c" d="M16.646,29.864a1.805,1.805,0,0,1-.535,1.4,2.163,2.163,0,0,1-1.521.493h-.412v1.79H12.715v-5.4H14.59a2.3,2.3,0,0,1,1.541.446A1.6,1.6,0,0,1,16.646,29.864Zm-2.467.7h.267a.731.731,0,0,0,.525-.186.667.667,0,0,0,.194-.509q0-.546-.608-.546h-.378Z" transform="translate(-4.668 -9.537)"/><path class="c" d="M24.824,33.544H22.9l-1.978-3.8h-.034q.07.9.07,1.37v2.432h-1.3v-5.4h1.911L23.549,31.9h.021q-.052-.815-.051-1.311v-2.44h1.3v5.4Z" transform="translate(-6.824 -9.537)"/><path class="c" d="M30.924,30.349h2.338v2.909a6.448,6.448,0,0,1-2.093.325,2.533,2.533,0,0,1-1.935-.724,2.887,2.887,0,0,1-.684-2.063,2.7,2.7,0,0,1,.749-2.034,2.883,2.883,0,0,1,2.1-.727,4.671,4.671,0,0,1,.966.1,4.147,4.147,0,0,1,.79.244l-.464,1.144A2.877,2.877,0,0,0,31.4,29.23a1.225,1.225,0,0,0-.992.415,1.8,1.8,0,0,0-.35,1.187,1.821,1.821,0,0,0,.317,1.154,1.1,1.1,0,0,0,.913.4,2.7,2.7,0,0,0,.6-.063v-.845h-.967V30.349Z" transform="translate(-9.58 -9.502)"/></g></g><g transform="translate(1941.563 1486.927)"><rect class="o" width="33.108" height="32.99"/><g transform="translate(0.69 0.687)"><path class="x" d="M30.659,24.5H3.069L1,21.749,3.759,19h26.21l2.759,2.749Z" transform="translate(-1 -6.629)"/><path class="y" d="M29.831,32.616H6.379A1.377,1.377,0,0,1,5,31.241V2.375A1.377,1.377,0,0,1,6.379,1H22.933L31.21,9.248V31.241A1.377,1.377,0,0,1,29.831,32.616Z" transform="translate(-2.241 -1)"/><path class="z" d="M31,1V7.873a1.377,1.377,0,0,0,1.379,1.375h6.9Z" transform="translate(-10.308 -1)"/><path class="aa" d="M1,23H32.728V34a1.377,1.377,0,0,1-1.379,1.375H2.379A1.377,1.377,0,0,1,1,34Z" transform="translate(-1 -7.879)"/><path class="c" d="M16.611,29.231a.934.934,0,0,0-.815.426,2.05,2.05,0,0,0-.292,1.175q0,1.559,1.189,1.559a2.439,2.439,0,0,0,.7-.1,7.084,7.084,0,0,0,.678-.24v1.232a3.751,3.751,0,0,1-1.534.3,2.432,2.432,0,0,1-1.88-.709A2.918,2.918,0,0,1,14,30.826a3.265,3.265,0,0,1,.317-1.474,2.267,2.267,0,0,1,.911-.977,2.763,2.763,0,0,1,1.4-.341,3.86,3.86,0,0,1,1.678.38l-.448,1.148a5.167,5.167,0,0,0-.6-.236A2.1,2.1,0,0,0,16.611,29.231Z" transform="translate(-5.226 -9.503)"/><path class="c" d="M24.856,31.87a1.589,1.589,0,0,1-.256.891,1.671,1.671,0,0,1-.737.606,2.735,2.735,0,0,1-1.13.216,4.611,4.611,0,0,1-.908-.076,3.342,3.342,0,0,1-.763-.264v-1.3a4.341,4.341,0,0,0,.87.334,3.266,3.266,0,0,0,.83.12.811.811,0,0,0,.478-.112.345.345,0,0,0,.152-.29.324.324,0,0,0-.061-.194.721.721,0,0,0-.2-.168c-.09-.056-.33-.173-.72-.347a3.426,3.426,0,0,1-.795-.465,1.427,1.427,0,0,1-.392-.517,1.7,1.7,0,0,1-.128-.69,1.38,1.38,0,0,1,.545-1.163,2.411,2.411,0,0,1,1.5-.417,4.222,4.222,0,0,1,1.715.387l-.448,1.126A3.262,3.262,0,0,0,23.1,29.2a.685.685,0,0,0-.415.1.3.3,0,0,0-.13.247.358.358,0,0,0,.165.285,6.212,6.212,0,0,0,.895.458,2.483,2.483,0,0,1,.973.674A1.466,1.466,0,0,1,24.856,31.87Z" transform="translate(-7.417 -9.503)"/><path class="c" d="M30.554,28.147h1.637l-1.775,5.4H28.694l-1.767-5.4h1.645l.737,2.735a8.288,8.288,0,0,1,.252,1.27q.026-.258.1-.645c.052-.258.1-.462.137-.61Z" transform="translate(-9.237 -9.538)"/></g></g></g><g transform="translate(1594.51 1801.918)"><g transform="translate(27.713 129.482)"><g transform="translate(0 0)"><g class="ap" transform="matrix(1, 0, 0, 1, -42.71, -472.66)"><rect class="c" width="180.425" height="31.84" rx="8" transform="translate(42.71 472.66)"/></g><path class="ab" d="M.74-.09c0,.06.03.09.07.09.32.02,1.24.02,1.87.02A3.3,3.3,0,0,0,6.23-3.4c0-1.86-1.18-3.19-3.53-3.19-.92,0-1.6.02-1.89.03-.06.01-.07.03-.07.08ZM1.95-5.52c.24-.01.46-.02.74-.02a2.054,2.054,0,0,1,2.3,2.17A2.165,2.165,0,0,1,2.63-1.03c-.26,0-.48,0-.68-.01ZM9.76-.97a1.828,1.828,0,0,1-.71.12c-.72,0-.98-.32-.98-.69,0-.43.35-.69,1.14-.69a4.114,4.114,0,0,1,.55.03Zm1.17-2.08A1.815,1.815,0,0,0,8.94-5.03a3.715,3.715,0,0,0-1.52.3.1.1,0,0,0-.06.1v.87a.058.058,0,0,0,.08.06,2.975,2.975,0,0,1,1.31-.28c.88,0,1.01.52,1.01.75v.12c-.09-.01-.32-.02-.62-.02-1.3,0-2.25.53-2.25,1.59C6.89-.41,7.76.1,8.85.1a4.864,4.864,0,0,0,2.08-.45c.02-.01.02-.02.02-.04-.02-.21-.02-.41-.02-.63ZM14.47-.88c0-.06-.03-.07-.06-.06a1.7,1.7,0,0,1-.38.04c-.43,0-.57-.21-.57-.65V-3.92h.98c.05,0,.07-.02.07-.07v-.87c0-.05-.02-.07-.07-.07h-.97c0-.49.02-1.08.05-1.41,0-.05-.02-.06-.07-.05l-1.01.14a.1.1,0,0,0-.08.09,10.555,10.555,0,0,0-.1,1.23h-.63c-.06,0-.08.02-.08.08v.84c0,.06.02.08.07.09h.63v2.63c0,.99.49,1.39,1.31,1.39a2.3,2.3,0,0,0,.85-.14c.05-.02.06-.06.06-.12Zm3.42-.09a1.828,1.828,0,0,1-.71.12c-.72,0-.98-.32-.98-.69,0-.43.35-.69,1.14-.69a4.114,4.114,0,0,1,.55.03Zm1.17-2.08a1.815,1.815,0,0,0-1.99-1.98,3.715,3.715,0,0,0-1.52.3.1.1,0,0,0-.06.1v.87a.058.058,0,0,0,.08.06,2.975,2.975,0,0,1,1.31-.28c.88,0,1.01.52,1.01.75v.12c-.09-.01-.32-.02-.62-.02-1.3,0-2.25.53-2.25,1.59,0,1.13.87,1.64,1.96,1.64a4.864,4.864,0,0,0,2.08-.45c.02-.01.02-.02.02-.04-.02-.21-.02-.41-.02-.63Zm1.33-4.07a.063.063,0,0,0-.07.07V-.21a.107.107,0,0,0,.07.09,5,5,0,0,0,1.5.22,2.728,2.728,0,0,0,2.92-2.77,2.257,2.257,0,0,0-2.36-2.36,2.9,2.9,0,0,0-.91.14l-.01-2.15c0-.07-.02-.08-.09-.08Zm3.19,4.57A1.512,1.512,0,0,1,22-.92a1.665,1.665,0,0,1-.46-.05V-3.89a1.836,1.836,0,0,1,.7-.11A1.288,1.288,0,0,1,23.58-2.55ZM28.35-.97a1.828,1.828,0,0,1-.71.12c-.72,0-.98-.32-.98-.69,0-.43.35-.69,1.14-.69a4.114,4.114,0,0,1,.55.03Zm1.17-2.08a1.815,1.815,0,0,0-1.99-1.98,3.715,3.715,0,0,0-1.52.3.1.1,0,0,0-.06.1v.87a.058.058,0,0,0,.08.06,2.975,2.975,0,0,1,1.31-.28c.88,0,1.01.52,1.01.75v.12c-.09-.01-.32-.02-.62-.02-1.3,0-2.25.53-2.25,1.59,0,1.13.87,1.64,1.96,1.64a4.864,4.864,0,0,0,2.08-.45c.02-.01.02-.02.02-.04-.02-.21-.02-.41-.02-.63Zm4.05-.72c.06.02.09-.01.09-.06v-.88a.122.122,0,0,0-.06-.12,3.082,3.082,0,0,0-1.26-.2c-1.25,0-1.87.71-1.87,1.47,0,.72.39,1.17,1.48,1.57.62.25.81.41.81.66s-.25.44-.77.44a2.722,2.722,0,0,1-1.43-.4.052.052,0,0,0-.08.05v.95c0,.06.02.08.07.11A3.076,3.076,0,0,0,31.96.1c1.23,0,1.97-.59,1.97-1.53,0-.71-.39-1.16-1.53-1.58-.64-.25-.79-.4-.79-.62s.18-.43.71-.43A2.844,2.844,0,0,1,33.57-3.77Zm4.25,1.58a7.617,7.617,0,0,0,1.03-.04.086.086,0,0,0,.08-.07,3.027,3.027,0,0,0,.04-.62,1.988,1.988,0,0,0-2.05-2.11,2.4,2.4,0,0,0-2.35,2.62A2.31,2.31,0,0,0,37.04.1a3.32,3.32,0,0,0,1.5-.29A.106.106,0,0,0,38.6-.3v-.83c0-.05-.03-.06-.06-.04a3.151,3.151,0,0,1-1.24.24c-1.02,0-1.48-.56-1.51-1.26Zm-2.03-.86a1.092,1.092,0,0,1,1.08-1.02.925.925,0,0,1,.96.93v.08a4.9,4.9,0,0,1-.55.01Zm6.99-.72c.06.02.09-.01.09-.06v-.88a.122.122,0,0,0-.06-.12,3.082,3.082,0,0,0-1.26-.2c-1.25,0-1.87.71-1.87,1.47,0,.72.39,1.17,1.48,1.57.62.25.81.41.81.66s-.25.44-.77.44a2.722,2.722,0,0,1-1.43-.4.052.052,0,0,0-.08.05v.95c0,.06.02.08.07.11A3.076,3.076,0,0,0,41.17.1c1.23,0,1.97-.59,1.97-1.53,0-.71-.39-1.16-1.53-1.58-.64-.25-.79-.4-.79-.62s.18-.43.71-.43A2.844,2.844,0,0,1,42.78-3.77Zm6.07,2.8a1.828,1.828,0,0,1-.71.12c-.72,0-.98-.32-.98-.69,0-.43.35-.69,1.14-.69a4.114,4.114,0,0,1,.55.03Zm1.17-2.08a1.815,1.815,0,0,0-1.99-1.98,3.715,3.715,0,0,0-1.52.3.1.1,0,0,0-.06.1v.87a.058.058,0,0,0,.08.06,2.975,2.975,0,0,1,1.31-.28c.88,0,1.01.52,1.01.75v.12c-.09-.01-.32-.02-.62-.02-1.3,0-2.25.53-2.25,1.59,0,1.13.87,1.64,1.96,1.64a4.864,4.864,0,0,0,2.08-.45c.02-.01.02-.02.02-.04-.02-.21-.02-.41-.02-.63ZM51.28-.08c0,.05.02.08.08.08h1.05a.074.074,0,0,0,.08-.08V-3.57a1.28,1.28,0,0,1,.97-.41c.58,0,.86.38.86,1.04V-.09a.08.08,0,0,0,.09.09h1.04c.05,0,.08-.02.08-.09V-3.05c0-1.6-.92-1.98-1.67-1.98a2.2,2.2,0,0,0-1.45.55,2.177,2.177,0,0,0-.07-.38c-.02-.05-.05-.07-.12-.07h-.91c-.06,0-.07.02-.07.07.02.2.04.74.04,1.08ZM59.04.1a4.742,4.742,0,0,0,1.89-.39.078.078,0,0,0,.06-.09c-.02-.18-.04-.44-.04-.64V-7.06c0-.04,0-.06-.05-.06H59.81c-.04,0-.06.02-.06.07V-5a3.46,3.46,0,0,0-.43-.03,2.614,2.614,0,0,0-2.84,2.61A2.356,2.356,0,0,0,59.04.1Zm.71-1.12a1.849,1.849,0,0,1-.58.08,1.366,1.366,0,0,1-1.45-1.54,1.464,1.464,0,0,1,1.56-1.54,1.33,1.33,0,0,1,.47.07ZM66.06.1c1.51,0,2.43-.76,2.43-1.93,0-.79-.37-1.42-1.67-1.96l-.38-.16c-.79-.33-1.02-.58-1.02-.94s.27-.71,1.13-.71a3.124,3.124,0,0,1,1.51.33c.06.04.09,0,.09-.04v-.97c0-.07-.01-.1-.06-.13a3.666,3.666,0,0,0-1.53-.26c-1.51,0-2.32.82-2.32,1.89,0,.75.32,1.37,1.55,1.89l.48.2c.76.32,1,.6,1,.97,0,.43-.35.75-1.17.75a3.365,3.365,0,0,1-1.78-.52c-.04-.02-.08,0-.08.04V-.41a.149.149,0,0,0,.07.15A3.806,3.806,0,0,0,66.06.1Zm6.41-2.29a7.617,7.617,0,0,0,1.03-.04.086.086,0,0,0,.08-.07,3.027,3.027,0,0,0,.04-.62,1.988,1.988,0,0,0-2.05-2.11,2.4,2.4,0,0,0-2.35,2.62A2.31,2.31,0,0,0,71.69.1a3.32,3.32,0,0,0,1.5-.29.106.106,0,0,0,.06-.11v-.83c0-.05-.03-.06-.06-.04a3.151,3.151,0,0,1-1.24.24c-1.02,0-1.48-.56-1.51-1.26Zm-2.03-.86a1.092,1.092,0,0,1,1.08-1.02.925.925,0,0,1,.96.93v.08a4.9,4.9,0,0,1-.55.01ZM77.08-.97a1.828,1.828,0,0,1-.71.12c-.72,0-.98-.32-.98-.69,0-.43.35-.69,1.14-.69a4.114,4.114,0,0,1,.55.03Zm1.17-2.08a1.815,1.815,0,0,0-1.99-1.98,3.715,3.715,0,0,0-1.52.3.1.1,0,0,0-.06.1v.87a.058.058,0,0,0,.08.06,2.975,2.975,0,0,1,1.31-.28c.88,0,1.01.52,1.01.75v.12c-.09-.01-.32-.02-.62-.02-1.3,0-2.25.53-2.25,1.59,0,1.13.87,1.64,1.96,1.64a4.864,4.864,0,0,0,2.08-.45c.02-.01.02-.02.02-.04-.02-.21-.02-.41-.02-.63Zm1.27-1.88c-.05,0-.06.01-.06.06.04.33.05.91.05,1.34V-.08c0,.05.02.08.09.08h1.04c.06,0,.09-.02.09-.08V-3.3a1.943,1.943,0,0,1,1.53-.53c.07,0,.09-.02.09-.07V-4.96c0-.06-.02-.07-.08-.07a2.083,2.083,0,0,0-1.6.78,2.261,2.261,0,0,0-.1-.6.1.1,0,0,0-.11-.08Zm7,3.9c0-.04-.02-.07-.07-.05a2.879,2.879,0,0,1-.87.1,1.435,1.435,0,0,1-1.56-1.51,1.42,1.42,0,0,1,1.55-1.5,2.351,2.351,0,0,1,.86.13c.04.01.08.01.08-.06l.01-.89c0-.06-.01-.09-.05-.11a2.872,2.872,0,0,0-.94-.11,2.558,2.558,0,0,0-2.75,2.58A2.432,2.432,0,0,0,85.36.1a3.046,3.046,0,0,0,1.11-.16c.04-.01.05-.03.05-.08Zm2.14-2.6a1.419,1.419,0,0,1,.96-.35c.58,0,.87.38.87,1.05V-.09a.08.08,0,0,0,.09.09h1.04c.05,0,.08-.02.08-.09V-3.05c0-1.6-.91-1.98-1.67-1.98a2.193,2.193,0,0,0-1.37.46V-7.05c0-.05-.01-.07-.07-.07H87.53c-.06,0-.08.03-.08.07V-.08c0,.05.02.08.08.08h1.06c.06,0,.07-.02.07-.07Zm7.92-2.86c0-.06-.02-.08-.08-.08H95.45c-.05,0-.08.01-.08.08v6.4c0,.06.02.09.08.09H96.5c.06,0,.08-.02.08-.09ZM97.89-.08c0,.05.02.08.08.08h1.05a.074.074,0,0,0,.08-.08V-3.57a1.28,1.28,0,0,1,.97-.41c.58,0,.86.38.86,1.04V-.09a.08.08,0,0,0,.09.09h1.04c.05,0,.08-.02.08-.09V-3.05c0-1.6-.92-1.98-1.67-1.98a2.2,2.2,0,0,0-1.45.55,2.178,2.178,0,0,0-.07-.38c-.02-.05-.05-.07-.12-.07h-.91c-.06,0-.07.02-.07.07.02.2.04.74.04,1.08Zm7.76.18a4.742,4.742,0,0,0,1.89-.39.078.078,0,0,0,.06-.09c-.02-.18-.04-.44-.04-.64V-7.06c0-.04,0-.06-.05-.06h-1.09c-.04,0-.06.02-.06.07V-5a3.46,3.46,0,0,0-.43-.03,2.614,2.614,0,0,0-2.84,2.61A2.356,2.356,0,0,0,105.65.1Zm.71-1.12a1.849,1.849,0,0,1-.58.08,1.366,1.366,0,0,1-1.45-1.54,1.464,1.464,0,0,1,1.56-1.54,1.33,1.33,0,0,1,.47.07Zm5.41-1.17a7.617,7.617,0,0,0,1.03-.04.086.086,0,0,0,.08-.07,3.027,3.027,0,0,0,.04-.62,1.988,1.988,0,0,0-2.05-2.11,2.4,2.4,0,0,0-2.35,2.62A2.31,2.31,0,0,0,110.99.1a3.32,3.32,0,0,0,1.5-.29.106.106,0,0,0,.06-.11v-.83c0-.05-.03-.06-.06-.04a3.151,3.151,0,0,1-1.24.24c-1.02,0-1.48-.56-1.51-1.26Zm-2.03-.86a1.092,1.092,0,0,1,1.08-1.02.925.925,0,0,1,.96.93v.08a4.9,4.9,0,0,1-.55.01Zm5.05.6c-.43.63-1.12,1.73-1.54,2.36a.056.056,0,0,0,.05.09h1.07c.07,0,.09-.02.11-.06l1.03-1.76h.01l1,1.74a.144.144,0,0,0,.13.08h1.23c.07,0,.09-.04.05-.08-.35-.51-1.18-1.76-1.61-2.43.39-.55,1.16-1.78,1.51-2.34.03-.05.01-.08-.05-.08h-1.06c-.05,0-.06,0-.09.05l-1,1.75h-.02l-.95-1.73c-.03-.06-.05-.07-.12-.07h-1.2c-.07,0-.08.05-.05.09Zm6.64.26a7.617,7.617,0,0,0,1.03-.04.086.086,0,0,0,.08-.07,3.027,3.027,0,0,0,.04-.62,1.988,1.988,0,0,0-2.05-2.11,2.4,2.4,0,0,0-2.35,2.62A2.31,2.31,0,0,0,120.65.1a3.32,3.32,0,0,0,1.5-.29.106.106,0,0,0,.06-.11v-.83c0-.05-.03-.06-.06-.04a3.151,3.151,0,0,1-1.24.24c-1.02,0-1.48-.56-1.51-1.26Zm-2.03-.86a1.092,1.092,0,0,1,1.08-1.02.925.925,0,0,1,.96.93v.08a4.9,4.9,0,0,1-.55.01Zm6.99-.72c.06.02.09-.01.09-.06v-.88a.122.122,0,0,0-.06-.12,3.082,3.082,0,0,0-1.26-.2c-1.25,0-1.87.71-1.87,1.47,0,.72.39,1.17,1.48,1.57.62.25.81.41.81.66s-.25.44-.77.44a2.722,2.722,0,0,1-1.43-.4.052.052,0,0,0-.08.05v.95c0,.06.02.08.07.11a3.076,3.076,0,0,0,1.41.28c1.23,0,1.97-.59,1.97-1.53,0-.71-.39-1.16-1.53-1.58-.64-.25-.79-.4-.79-.62s.18-.43.71-.43A2.844,2.844,0,0,1,126.39-3.77Z" transform="translate(33.962 19.198)"/><g class="ac" transform="translate(11.321 7.783)"><rect class="o" width="16.981" height="16.981"/><g transform="translate(0.708 2.123)"><line class="ad" x1="2.952" y1="2.952" transform="translate(12.614 8.369)"/><line class="ad" x1="4.953" transform="translate(0 4.245)"/><line class="ad" x1="4.953" transform="translate(0 8.491)"/><line class="ad" x1="10.613" transform="translate(0 12.736)"/><line class="ad" x1="10.613"/><circle class="ad" cx="2.83" cy="2.83" r="2.83" transform="translate(7.783 3.538)"/></g></g></g><g transform="translate(186.85)"><g class="ao" transform="matrix(1, 0, 0, 1, -229.56, -472.66)"><rect class="c" width="66.51" height="31.84" rx="8" transform="translate(229.56 472.66)"/></g><path class="ab" d="M5.24-1.1c0-.06-.03-.07-.07-.05a3.554,3.554,0,0,1-1.23.17A2.187,2.187,0,0,1,1.61-3.3,2.155,2.155,0,0,1,3.92-5.6a3.2,3.2,0,0,1,1.3.22c.04.02.08.02.08-.06v-.95a.106.106,0,0,0-.06-.11,3.423,3.423,0,0,0-1.3-.17A3.3,3.3,0,0,0,.36-3.27,3.182,3.182,0,0,0,3.79.1,4.312,4.312,0,0,0,5.17-.08a.127.127,0,0,0,.07-.13ZM7.42,0c.05,0,.08-.02.08-.08V-2.52h.86c.11,0,.16.05.23.17.44.7,1.14,1.85,1.43,2.3a.167.167,0,0,0,.14.05h1.25c.06,0,.05-.05.02-.11-.29-.5-1.49-2.29-1.82-2.75A1.859,1.859,0,0,0,10.9-4.62c0-1.28-.94-1.97-2.54-1.97-.77,0-1.19.01-1.98.03-.06,0-.07.04-.07.09V-.08c0,.06.02.08.08.08ZM7.5-3.55V-5.52c.16-.01.48-.02.82-.02.85,0,1.38.33,1.38.99,0,.64-.52,1-1.33,1Zm4.89-2.96L12.01-.08c-.01.07.01.08.07.08h1c.06,0,.08-.01.08-.07.1-2.1.18-4.64.19-5.65h.02c.28,1.22,1.08,4.13,1.51,5.65.01.06.03.07.1.07h1a.079.079,0,0,0,.09-.08c.4-1.33,1.43-4.67,1.66-5.63h.01c-.01.63.01,3.51.06,5.64,0,.06.03.07.08.07h1.11c.05,0,.08-.02.07-.08l-.27-6.43c-.01-.05-.03-.06-.08-.06H17.15c-.06,0-.07.03-.09.07-.31,1.03-1.3,4.06-1.51,4.91h-.01c-.2-.93-1.07-3.9-1.37-4.91a.09.09,0,0,0-.1-.07h-1.6C12.42-6.57,12.4-6.57,12.39-6.51Z" transform="translate(33.962 19.198)"/><g class="ac" transform="translate(11.321 7.783)"><rect class="o" width="16.981" height="16.981"/><g transform="translate(0.708 0.708)"><rect class="ae" width="7.075" height="1.415" transform="translate(0 8.491)"/><rect class="ae" width="7.075" height="1.415" transform="translate(8.491 8.491)"/><rect class="ae" width="7.075" height="1.415" transform="translate(0 11.321)"/><rect class="ae" width="7.075" height="1.415" transform="translate(8.491 11.321)"/><rect class="ae" width="7.075" height="1.415" transform="translate(0 14.151)"/><rect class="ae" width="7.075" height="1.415" transform="translate(8.491 14.151)"/><path class="ae" d="M1,1.708v5.66a.708.708,0,0,0,.708.708H15.859a.708.708,0,0,0,.708-.708V1.708A.708.708,0,0,0,15.859,1H1.708A.708.708,0,0,0,1,1.708ZM8.075,5.953H3.123V3.123H8.075Zm6.368,0H9.491V3.123h4.953Z" transform="translate(-1 -1)"/></g></g></g></g><g transform="translate(0.708 43.161)"><g transform="translate(0)"><g class="an" transform="matrix(1, 0, 0, 1, -15.71, -386.33)"><rect class="c" width="160.614" height="31.84" rx="8" transform="translate(15.71 386.33)"/></g><path class="ab" d="M1.01-6.51.63-.08C.62-.01.64,0,.7,0h1c.06,0,.08-.01.08-.07.1-2.1.18-4.64.19-5.65h.02C2.27-4.5,3.07-1.59,3.5-.07c.01.06.03.07.1.07h1a.079.079,0,0,0,.09-.08c.4-1.33,1.43-4.67,1.66-5.63h.01c-.01.63.01,3.51.06,5.64,0,.06.03.07.08.07H7.61c.05,0,.08-.02.07-.08L7.41-6.51c-.01-.05-.03-.06-.08-.06H5.77c-.06,0-.07.03-.09.07-.31,1.03-1.3,4.06-1.51,4.91H4.16c-.2-.93-1.07-3.9-1.37-4.91a.09.09,0,0,0-.1-.07H1.09C1.04-6.57,1.02-6.57,1.01-6.51ZM11.44-.97a1.828,1.828,0,0,1-.71.12c-.72,0-.98-.32-.98-.69,0-.43.35-.69,1.14-.69a4.114,4.114,0,0,1,.55.03Zm1.17-2.08a1.815,1.815,0,0,0-1.99-1.98,3.715,3.715,0,0,0-1.52.3.1.1,0,0,0-.06.1v.87a.058.058,0,0,0,.08.06,2.975,2.975,0,0,1,1.31-.28c.88,0,1.01.52,1.01.75v.12c-.09-.01-.32-.02-.62-.02-1.3,0-2.25.53-2.25,1.59C8.57-.41,9.44.1,10.53.1a4.864,4.864,0,0,0,2.08-.45c.02-.01.02-.02.02-.04-.02-.21-.02-.41-.02-.63Zm4.65,2.02c0-.04-.02-.07-.07-.05a2.879,2.879,0,0,1-.87.1,1.435,1.435,0,0,1-1.56-1.51,1.42,1.42,0,0,1,1.55-1.5,2.351,2.351,0,0,1,.86.13c.04.01.08.01.08-.06l.01-.89c0-.06-.01-.09-.05-.11a2.872,2.872,0,0,0-.94-.11,2.558,2.558,0,0,0-2.75,2.58A2.432,2.432,0,0,0,16.1.1a3.046,3.046,0,0,0,1.11-.16c.04-.01.05-.03.05-.08Zm2.14-2.6a1.419,1.419,0,0,1,.96-.35c.58,0,.87.38.87,1.05V-.09a.08.08,0,0,0,.09.09h1.04c.05,0,.08-.02.08-.09V-3.05c0-1.6-.91-1.98-1.67-1.98a2.193,2.193,0,0,0-1.37.46V-7.05c0-.05-.01-.07-.07-.07H18.27c-.06,0-.08.03-.08.07V-.08c0,.05.02.08.08.08h1.06c.06,0,.07-.02.07-.07ZM23.71-.09c0,.06.03.09.1.09h1.03c.07,0,.09-.02.09-.08V-4.86c0-.06-.02-.07-.08-.07H23.79c-.05,0-.08.02-.08.07Zm.61-5.51a.651.651,0,0,0,.69-.69.643.643,0,0,0-.68-.69.662.662,0,0,0-.69.69A.648.648,0,0,0,24.32-5.6ZM26.16-.08c0,.05.02.08.08.08h1.05a.074.074,0,0,0,.08-.08V-3.57a1.28,1.28,0,0,1,.97-.41c.58,0,.86.38.86,1.04V-.09a.08.08,0,0,0,.09.09h1.04c.05,0,.08-.02.08-.09V-3.05c0-1.6-.92-1.98-1.67-1.98a2.2,2.2,0,0,0-1.45.55,2.177,2.177,0,0,0-.07-.38c-.02-.05-.05-.07-.12-.07h-.91c-.06,0-.07.02-.07.07.02.2.04.74.04,1.08Zm8.45-2.11a7.617,7.617,0,0,0,1.03-.04.086.086,0,0,0,.08-.07,3.027,3.027,0,0,0,.04-.62,1.988,1.988,0,0,0-2.05-2.11,2.4,2.4,0,0,0-2.35,2.62A2.31,2.31,0,0,0,33.83.1a3.32,3.32,0,0,0,1.5-.29.106.106,0,0,0,.06-.11v-.83c0-.05-.03-.06-.06-.04a3.151,3.151,0,0,1-1.24.24c-1.02,0-1.48-.56-1.51-1.26Zm-2.03-.86a1.092,1.092,0,0,1,1.08-1.02.925.925,0,0,1,.96.93v.08a4.9,4.9,0,0,1-.55.01ZM43.05,0c.05,0,.08-.01.09-.08l.17-.94c.01-.04-.01-.07-.07-.07H40.3V-6.5c0-.04-.02-.07-.06-.07H39.17c-.06,0-.08.04-.08.09V-.1c0,.07.02.1.1.1Zm3.94-2.19a7.617,7.617,0,0,0,1.03-.04.086.086,0,0,0,.08-.07,3.027,3.027,0,0,0,.04-.62,1.988,1.988,0,0,0-2.05-2.11,2.4,2.4,0,0,0-2.35,2.62A2.31,2.31,0,0,0,46.21.1a3.32,3.32,0,0,0,1.5-.29.106.106,0,0,0,.06-.11v-.83c0-.05-.03-.06-.06-.04a3.151,3.151,0,0,1-1.24.24c-1.02,0-1.48-.56-1.51-1.26Zm-2.03-.86a1.092,1.092,0,0,1,1.08-1.02.925.925,0,0,1,.96.93v.08a4.9,4.9,0,0,1-.55.01ZM51.6-.97a1.828,1.828,0,0,1-.71.12c-.72,0-.98-.32-.98-.69,0-.43.35-.69,1.14-.69a4.114,4.114,0,0,1,.55.03Zm1.17-2.08a1.815,1.815,0,0,0-1.99-1.98,3.715,3.715,0,0,0-1.52.3.1.1,0,0,0-.06.1v.87a.058.058,0,0,0,.08.06,2.975,2.975,0,0,1,1.31-.28c.88,0,1.01.52,1.01.75v.12c-.09-.01-.32-.02-.62-.02-1.3,0-2.25.53-2.25,1.59C48.73-.41,49.6.1,50.69.1a4.864,4.864,0,0,0,2.08-.45c.02-.01.02-.02.02-.04-.02-.21-.02-.41-.02-.63Zm1.27-1.88c-.05,0-.06.01-.06.06.04.33.05.91.05,1.34V-.08c0,.05.02.08.09.08h1.04c.06,0,.09-.02.09-.08V-3.3a1.943,1.943,0,0,1,1.53-.53c.07,0,.09-.02.09-.07V-4.96c0-.06-.02-.07-.08-.07a2.083,2.083,0,0,0-1.6.78,2.26,2.26,0,0,0-.1-.6.1.1,0,0,0-.11-.08ZM57.58-.08c0,.05.02.08.08.08h1.05a.074.074,0,0,0,.08-.08V-3.57a1.28,1.28,0,0,1,.97-.41c.58,0,.86.38.86,1.04V-.09a.08.08,0,0,0,.09.09h1.04c.05,0,.08-.02.08-.09V-3.05c0-1.6-.92-1.98-1.67-1.98a2.2,2.2,0,0,0-1.45.55,2.177,2.177,0,0,0-.07-.38c-.02-.05-.05-.07-.12-.07h-.91c-.06,0-.07.02-.07.07.02.2.04.74.04,1.08Zm5.51-.01c0,.06.03.09.1.09h1.03c.07,0,.09-.02.09-.08V-4.86c0-.06-.02-.07-.08-.07H63.17c-.05,0-.08.02-.08.07ZM63.7-5.6a.651.651,0,0,0,.69-.69.643.643,0,0,0-.68-.69.662.662,0,0,0-.69.69A.648.648,0,0,0,63.7-5.6ZM65.54-.08c0,.05.02.08.08.08h1.05a.074.074,0,0,0,.08-.08V-3.57a1.28,1.28,0,0,1,.97-.41c.58,0,.86.38.86,1.04V-.09a.08.08,0,0,0,.09.09h1.04c.05,0,.08-.02.08-.09V-3.05c0-1.6-.92-1.98-1.67-1.98a2.2,2.2,0,0,0-1.45.55,2.178,2.178,0,0,0-.07-.38c-.02-.05-.05-.07-.12-.07h-.91c-.06,0-.07.02-.07.07.02.2.04.74.04,1.08Zm7.62.05c.61.03,1.11.15,1.11.59,0,.38-.42.77-1.37.77-.83,0-1.31-.39-1.31-.74a1.1,1.1,0,0,1,.48-.67Zm-.48-4.13a.751.751,0,0,1,.8.84.726.726,0,0,1-.8.78.748.748,0,0,1-.81-.8A.754.754,0,0,1,72.68-4.16ZM72.4-1.09a.563.563,0,0,1-.13-.31.618.618,0,0,1,.03-.3,2.693,2.693,0,0,0,.4.03c1.08,0,1.93-.54,1.93-1.61a1.3,1.3,0,0,0-.22-.76,7.088,7.088,0,0,0,.77.05c.05,0,.06-.02.06-.06v-.82c0-.04-.01-.06-.06-.06H73.79a1.115,1.115,0,0,1-.23-.03,5.037,5.037,0,0,0-.88-.07,1.763,1.763,0,0,0-1.99,1.71,1.467,1.467,0,0,0,.69,1.3,1.249,1.249,0,0,0-.18.65,1.238,1.238,0,0,0,.21.75c-.66.57-.93.98-.93,1.3,0,.73.73,1.54,2.34,1.54,1.56,0,2.56-.82,2.56-1.84,0-.82-.59-1.36-1.96-1.43Zm6.29-5.42L78.31-.08c-.01.07.01.08.07.08h1c.06,0,.08-.01.08-.07.1-2.1.18-4.64.19-5.65h.02c.28,1.22,1.08,4.13,1.51,5.65.01.06.03.07.1.07h1a.079.079,0,0,0,.09-.08c.4-1.33,1.43-4.67,1.66-5.63h.01c-.01.63.01,3.51.06,5.64,0,.06.03.07.08.07h1.11c.05,0,.08-.02.07-.08l-.27-6.43c-.01-.05-.03-.06-.08-.06H83.45c-.06,0-.07.03-.09.07-.31,1.03-1.3,4.06-1.51,4.91h-.01c-.2-.93-1.07-3.9-1.37-4.91a.09.09,0,0,0-.1-.07h-1.6C78.72-6.57,78.7-6.57,78.69-6.51Zm9.97,1.48a2.406,2.406,0,0,0-2.43,2.57A2.363,2.363,0,0,0,88.64.1a2.38,2.38,0,0,0,2.4-2.59A2.346,2.346,0,0,0,88.66-5.03ZM88.6-4.02c.85,0,1.21.73,1.21,1.56,0,1.03-.53,1.54-1.15,1.54-.76,0-1.21-.64-1.21-1.56C87.45-3.43,87.93-4.02,88.6-4.02ZM94.29.1a4.742,4.742,0,0,0,1.89-.39.078.078,0,0,0,.06-.09c-.02-.18-.04-.44-.04-.64V-7.06c0-.04,0-.06-.05-.06H95.06c-.04,0-.06.02-.06.07V-5a3.46,3.46,0,0,0-.43-.03,2.614,2.614,0,0,0-2.84,2.61A2.356,2.356,0,0,0,94.29.1ZM95-1.02a1.849,1.849,0,0,1-.58.08,1.366,1.366,0,0,1-1.45-1.54,1.464,1.464,0,0,1,1.56-1.54,1.33,1.33,0,0,1,.47.07Zm5.41-1.17a7.617,7.617,0,0,0,1.03-.04.086.086,0,0,0,.08-.07,3.027,3.027,0,0,0,.04-.62,1.988,1.988,0,0,0-2.05-2.11,2.4,2.4,0,0,0-2.35,2.62A2.31,2.31,0,0,0,99.63.1a3.32,3.32,0,0,0,1.5-.29.106.106,0,0,0,.06-.11v-.83c0-.05-.03-.06-.06-.04a3.151,3.151,0,0,1-1.24.24c-1.02,0-1.48-.56-1.51-1.26Zm-2.03-.86a1.092,1.092,0,0,1,1.08-1.02.925.925,0,0,1,.96.93v.08a4.9,4.9,0,0,1-.55.01Zm4.08,1.86c0,1.05.52,1.29,1.16,1.29a1.458,1.458,0,0,0,.57-.08c.05-.03.06-.04.06-.11V-.84c0-.05-.01-.07-.04-.06a1.275,1.275,0,0,1-.19.01c-.24,0-.35-.1-.35-.41V-7.04c0-.05-.03-.08-.09-.08h-1.03c-.06,0-.09.03-.09.08Zm5.51-2.58c.06.02.09-.01.09-.06v-.88a.122.122,0,0,0-.06-.12,3.083,3.083,0,0,0-1.26-.2c-1.25,0-1.87.71-1.87,1.47,0,.72.39,1.17,1.48,1.57.62.25.81.41.81.66s-.25.44-.77.44a2.722,2.722,0,0,1-1.43-.4.052.052,0,0,0-.08.05v.95c0,.06.02.08.07.11a3.076,3.076,0,0,0,1.41.28c1.23,0,1.97-.59,1.97-1.53,0-.71-.39-1.16-1.53-1.58-.64-.25-.79-.4-.79-.62s.18-.43.71-.43A2.844,2.844,0,0,1,107.97-3.77Z" transform="translate(33.962 19.198)"/><g class="ac" transform="translate(11.321 7.783)"><rect class="o" width="16.981" height="16.981" transform="translate(0.01 0)"/><g transform="translate(0 0)"><path class="ae" d="M16.977,5.66a2.115,2.115,0,0,0-3.69-1.419L8.476,2.236c0-.038.011-.071.011-.113a2.123,2.123,0,0,0-4.246,0A2.1,2.1,0,0,0,4.67,3.388L2.636,6.439a2.078,2.078,0,0,0-.517-.071,2.123,2.123,0,1,0,2.1,2.382l8.213-1.825L7.354,11.577a2.092,2.092,0,0,0-.991-.256,2.123,2.123,0,1,0,1.953,1.292l5.532-5.071-.805,5.236a2.138,2.138,0,1,0,1.4.223l.809-5.256A2.123,2.123,0,0,0,16.977,5.66ZM7.931,3.542l4.589,1.91L3.912,7.363c-.031-.05-.065-.1-.1-.142L5.846,4.174a2.078,2.078,0,0,0,.517.071,2.111,2.111,0,0,0,1.567-.7Z" transform="translate(0.015 0)"/></g></g></g><g transform="translate(166.982)"><g class="am" transform="matrix(1, 0, 0, 1, -182.69, -386.33)"><rect class="c" width="140.802" height="31.84" rx="8" transform="translate(182.69 386.33)"/></g><path class="ab" d="M5.24-1.1c0-.06-.03-.07-.07-.05a3.554,3.554,0,0,1-1.23.17A2.187,2.187,0,0,1,1.61-3.3,2.155,2.155,0,0,1,3.92-5.6a3.2,3.2,0,0,1,1.3.22c.04.02.08.02.08-.06v-.95a.106.106,0,0,0-.06-.11,3.423,3.423,0,0,0-1.3-.17A3.3,3.3,0,0,0,.36-3.27,3.182,3.182,0,0,0,3.79.1,4.312,4.312,0,0,0,5.17-.08a.127.127,0,0,0,.07-.13ZM8.26-5.03A2.406,2.406,0,0,0,5.83-2.46,2.363,2.363,0,0,0,8.24.1a2.38,2.38,0,0,0,2.4-2.59A2.346,2.346,0,0,0,8.26-5.03ZM8.2-4.02c.85,0,1.21.73,1.21,1.56,0,1.03-.53,1.54-1.15,1.54-.76,0-1.21-.64-1.21-1.56C7.05-3.43,7.53-4.02,8.2-4.02ZM11.58-.08c0,.05.02.08.08.08h1.05a.074.074,0,0,0,.08-.08V-3.57a1.28,1.28,0,0,1,.97-.41c.58,0,.86.38.86,1.04V-.09a.08.08,0,0,0,.09.09h1.04c.05,0,.08-.02.08-.09V-3.05c0-1.6-.92-1.98-1.67-1.98a2.2,2.2,0,0,0-1.45.55,2.177,2.177,0,0,0-.07-.38c-.02-.05-.05-.07-.12-.07h-.91c-.06,0-.07.02-.07.07.02.2.04.74.04,1.08Zm7.84-.8c0-.06-.03-.07-.06-.06a1.7,1.7,0,0,1-.38.04c-.43,0-.57-.21-.57-.65V-3.92h.98c.05,0,.07-.02.07-.07v-.87c0-.05-.02-.07-.07-.07h-.97c0-.49.02-1.08.05-1.41,0-.05-.02-.06-.07-.05l-1.01.14a.1.1,0,0,0-.08.09,10.554,10.554,0,0,0-.1,1.23h-.63c-.06,0-.08.02-.08.08v.84c0,.06.02.08.07.09h.63v2.63C17.2-.3,17.69.1,18.51.1a2.3,2.3,0,0,0,.85-.14c.05-.02.06-.06.06-.12Zm3.76-1.31a7.617,7.617,0,0,0,1.03-.04.086.086,0,0,0,.08-.07,3.027,3.027,0,0,0,.04-.62,1.988,1.988,0,0,0-2.05-2.11,2.4,2.4,0,0,0-2.35,2.62A2.31,2.31,0,0,0,22.4.1a3.32,3.32,0,0,0,1.5-.29.106.106,0,0,0,.06-.11v-.83c0-.05-.03-.06-.06-.04a3.151,3.151,0,0,1-1.24.24c-1.02,0-1.48-.56-1.51-1.26Zm-2.03-.86a1.092,1.092,0,0,1,1.08-1.02.925.925,0,0,1,.96.93v.08a4.9,4.9,0,0,1-.55.01ZM25.26-.08c0,.05.02.08.08.08h1.05a.074.074,0,0,0,.08-.08V-3.57a1.28,1.28,0,0,1,.97-.41c.58,0,.86.38.86,1.04V-.09a.08.08,0,0,0,.09.09h1.04c.05,0,.08-.02.08-.09V-3.05c0-1.6-.92-1.98-1.67-1.98a2.2,2.2,0,0,0-1.45.55,2.177,2.177,0,0,0-.07-.38c-.02-.05-.05-.07-.12-.07h-.91c-.06,0-.07.02-.07.07.02.2.04.74.04,1.08Zm7.84-.8c0-.06-.03-.07-.06-.06a1.7,1.7,0,0,1-.38.04c-.43,0-.57-.21-.57-.65V-3.92h.98c.05,0,.07-.02.07-.07v-.87c0-.05-.02-.07-.07-.07H32.1c0-.49.02-1.08.05-1.41,0-.05-.02-.06-.07-.05l-1.01.14a.1.1,0,0,0-.08.09,10.554,10.554,0,0,0-.1,1.23h-.63c-.06,0-.08.02-.08.08v.84c0,.06.02.08.07.09h.63v2.63c0,.99.49,1.39,1.31,1.39a2.3,2.3,0,0,0,.85-.14c.05-.02.06-.06.06-.12ZM37.43,0c.05,0,.08-.02.08-.08V-2.52h.86c.11,0,.16.05.23.17.44.7,1.14,1.85,1.43,2.3a.167.167,0,0,0,.14.05h1.25c.06,0,.05-.05.02-.11-.29-.5-1.49-2.29-1.82-2.75a1.859,1.859,0,0,0,1.29-1.76c0-1.28-.94-1.97-2.54-1.97-.77,0-1.19.01-1.98.03-.06,0-.07.04-.07.09V-.08c0,.06.02.08.08.08Zm.08-3.55V-5.52c.16-.01.48-.02.82-.02.85,0,1.38.33,1.38.99,0,.64-.52,1-1.33,1ZM44.9-2.19a7.617,7.617,0,0,0,1.03-.04.086.086,0,0,0,.08-.07,3.027,3.027,0,0,0,.04-.62A1.988,1.988,0,0,0,44-5.03a2.4,2.4,0,0,0-2.35,2.62A2.31,2.31,0,0,0,44.12.1a3.32,3.32,0,0,0,1.5-.29.106.106,0,0,0,.06-.11v-.83c0-.05-.03-.06-.06-.04a3.151,3.151,0,0,1-1.24.24c-1.02,0-1.48-.56-1.51-1.26Zm-2.03-.86a1.092,1.092,0,0,1,1.08-1.02.925.925,0,0,1,.96.93v.08a4.9,4.9,0,0,1-.55.01Zm6.14-1.98a6.1,6.1,0,0,0-2.02.4.047.047,0,0,0-.04.05c.02.14.03.47.03.59V2c0,.05.01.06.07.06s.72-.06,1.07-.1c.06-.01.07-.04.07-.08V.08a2.661,2.661,0,0,0,.3.02,2.75,2.75,0,0,0,2.99-2.73A2.3,2.3,0,0,0,49.01-5.03ZM48.9-4a1.278,1.278,0,0,1,1.34,1.45A1.551,1.551,0,0,1,48.59-.92a1.711,1.711,0,0,1-.4-.03V-3.9A2.257,2.257,0,0,1,48.9-4Zm7.71-.86c0-.05-.01-.07-.07-.07H55.49c-.06,0-.08.02-.08.07v3.55a1.268,1.268,0,0,1-.91.36c-.6,0-.87-.38-.87-1V-4.86c0-.05-.01-.07-.07-.07H52.51c-.06,0-.08.01-.08.07v3.05c0,1.4.73,1.91,1.68,1.91A1.976,1.976,0,0,0,55.5-.41a2.169,2.169,0,0,0,.07.35c.01.04.03.06.1.06h.92c.06,0,.09-.02.08-.07a8.879,8.879,0,0,1-.06-1.03Zm1.34-2.26a.063.063,0,0,0-.07.07V-.21a.107.107,0,0,0,.07.09,5,5,0,0,0,1.5.22,2.728,2.728,0,0,0,2.92-2.77,2.257,2.257,0,0,0-2.36-2.36,2.9,2.9,0,0,0-.91.14l-.01-2.15c0-.07-.02-.08-.09-.08Zm3.19,4.57A1.512,1.512,0,0,1,59.56-.92a1.665,1.665,0,0,1-.46-.05V-3.89A1.836,1.836,0,0,1,59.8-4,1.288,1.288,0,0,1,61.14-2.55Zm2.19,1.36c0,1.05.52,1.29,1.16,1.29a1.458,1.458,0,0,0,.57-.08c.05-.03.06-.04.06-.11V-.84c0-.05-.01-.07-.04-.06a1.275,1.275,0,0,1-.19.01c-.24,0-.35-.1-.35-.41V-7.04c0-.05-.03-.08-.09-.08H63.42c-.06,0-.09.03-.09.08Zm2.62,1.1c0,.06.03.09.1.09h1.03c.07,0,.09-.02.09-.08V-4.86c0-.06-.02-.07-.08-.07H66.03c-.05,0-.08.02-.08.07Zm.61-5.51a.651.651,0,0,0,.69-.69.643.643,0,0,0-.68-.69.662.662,0,0,0-.69.69A.648.648,0,0,0,66.56-5.6Zm4.73,1.83c.06.02.09-.01.09-.06v-.88a.122.122,0,0,0-.06-.12,3.083,3.083,0,0,0-1.26-.2c-1.25,0-1.87.71-1.87,1.47,0,.72.39,1.17,1.48,1.57.62.25.81.41.81.66s-.25.44-.77.44a2.722,2.722,0,0,1-1.43-.4.052.052,0,0,0-.08.05v.95c0,.06.02.08.07.11A3.076,3.076,0,0,0,69.68.1c1.23,0,1.97-.59,1.97-1.53,0-.71-.39-1.16-1.53-1.58-.64-.25-.79-.4-.79-.62s.18-.43.71-.43A2.844,2.844,0,0,1,71.29-3.77Zm2.42.14a1.419,1.419,0,0,1,.96-.35c.58,0,.87.38.87,1.05V-.09a.08.08,0,0,0,.09.09h1.04c.05,0,.08-.02.08-.09V-3.05c0-1.6-.91-1.98-1.67-1.98a2.193,2.193,0,0,0-1.37.46V-7.05c0-.05-.01-.07-.07-.07H72.58c-.06,0-.08.03-.08.07V-.08c0,.05.02.08.08.08h1.06c.06,0,.07-.02.07-.07ZM78.02-.09c0,.06.03.09.1.09h1.03c.07,0,.09-.02.09-.08V-4.86c0-.06-.02-.07-.08-.07H78.1c-.05,0-.08.02-.08.07Zm.61-5.51a.651.651,0,0,0,.69-.69.643.643,0,0,0-.68-.69.662.662,0,0,0-.69.69A.648.648,0,0,0,78.63-5.6ZM80.47-.08c0,.05.02.08.08.08H81.6a.074.074,0,0,0,.08-.08V-3.57a1.28,1.28,0,0,1,.97-.41c.58,0,.86.38.86,1.04V-.09A.08.08,0,0,0,83.6,0h1.04c.05,0,.08-.02.08-.09V-3.05c0-1.6-.92-1.98-1.67-1.98a2.2,2.2,0,0,0-1.45.55,2.178,2.178,0,0,0-.07-.38c-.02-.05-.05-.07-.12-.07H80.5c-.06,0-.07.02-.07.07.02.2.04.74.04,1.08Zm7.62.05C88.7,0,89.2.12,89.2.56c0,.38-.42.77-1.37.77-.83,0-1.31-.39-1.31-.74A1.1,1.1,0,0,1,87-.08Zm-.48-4.13a.751.751,0,0,1,.8.84.726.726,0,0,1-.8.78.748.748,0,0,1-.81-.8A.754.754,0,0,1,87.61-4.16Zm-.28,3.07a.563.563,0,0,1-.13-.31.618.618,0,0,1,.03-.3,2.693,2.693,0,0,0,.4.03c1.08,0,1.93-.54,1.93-1.61a1.3,1.3,0,0,0-.22-.76,7.088,7.088,0,0,0,.77.05c.05,0,.06-.02.06-.06v-.82c0-.04-.01-.06-.06-.06H88.72a1.115,1.115,0,0,1-.23-.03,5.037,5.037,0,0,0-.88-.07,1.763,1.763,0,0,0-1.99,1.71,1.467,1.467,0,0,0,.69,1.3,1.249,1.249,0,0,0-.18.65,1.238,1.238,0,0,0,.21.75c-.66.57-.93.98-.93,1.3,0,.73.73,1.54,2.34,1.54,1.56,0,2.56-.82,2.56-1.84,0-.82-.59-1.36-1.96-1.43Z" transform="translate(33.962 19.198)"/><g class="ac" transform="translate(11.321 7.075)"><rect class="af" width="16.981" height="16.981"/><path class="ae" d="M3.427,6.64c-.493-1.786.78-2.555.655-4.082A7.581,7.581,0,0,0,1,8.635c0,4.3,3.747,6.859,6.393,7.42a3.233,3.233,0,0,0,.493.08C8.83,13.73,7.05,11.046,5.876,9.3,4.9,7.842,4.009,8.742,3.427,6.64Z" transform="translate(-0.057 -0.145)"/><path class="ae" d="M15.785,9.034c-.76-.289-1.411.7-1.469-1.964A2.718,2.718,0,0,1,15.1,5.183a1.454,1.454,0,0,1,.344-.165c-.09-.165-.189-.323-.292-.48-.017.009-.033.021-.051.029-.59.275-.671.357-.943,0a.743.743,0,0,1,.163-1.1,7.541,7.541,0,0,0-5.5-2.463c.957.013,2.1.722,1.516,1.853.088-.18-1.9-.608-2.17-.608-.364,0,.743-1.363.642-1.245a7.591,7.591,0,0,0-3.12.671c.515.334,1.089.217,1.671.361a1.422,1.422,0,0,1,.519.213,1.762,1.762,0,0,0-.519-.213c-.857-.1.415,2.254.367,1.941A1.087,1.087,0,0,1,9.884,3.91a1.765,1.765,0,0,1-.4,1.068c-.665.875-.8,2.431-1.132,2.033C5.248,5.738,5.59,7.422,6.611,8.548c1.634,1.8.8.184,2.944,1.128,1.721.758,3.792.938,3.287,1.509-1.529,1.731-1.208,2.877-3.912,4.906.225-.006.943-.078,1.09-.1A7.677,7.677,0,0,0,16.33,9.2a1.132,1.132,0,0,1-.545-.164Z" transform="translate(-0.322 -0.057)"/></g></g></g><g transform="translate(0 86.321)"><g class="al" transform="matrix(1, 0, 0, 1, -15, -429.49)"><rect class="c" width="128.066" height="31.84" rx="8" transform="translate(15 429.49)"/></g><path class="ab" d="M2.18.1C3.69.1,4.61-.66,4.61-1.83c0-.79-.37-1.42-1.67-1.96l-.38-.16c-.79-.33-1.02-.58-1.02-.94s.27-.71,1.13-.71a3.124,3.124,0,0,1,1.51.33c.06.04.09,0,.09-.04v-.97c0-.07-.01-.1-.06-.13a3.666,3.666,0,0,0-1.53-.26C1.17-6.67.36-5.85.36-4.78c0,.75.32,1.37,1.55,1.89l.48.2c.76.32,1,.6,1,.97,0,.43-.35.75-1.17.75A3.365,3.365,0,0,1,.44-1.49c-.04-.02-.08,0-.08.04V-.41a.149.149,0,0,0,.07.15A3.806,3.806,0,0,0,2.18.1ZM4.82-4.93c-.05,0-.08.03-.06.07C5.36-3.29,6.32-.91,6.59-.25a.219.219,0,0,1-.01.16c-.32.76-.64,1.47-.94,2.07-.02.06-.01.08.05.08l1.09-.08a.123.123,0,0,0,.13-.07C7.72.06,8.81-2.64,9.53-4.85c.01-.05,0-.08-.06-.08H8.44a.106.106,0,0,0-.11.06c-.45,1.4-.8,2.43-1.13,3.44C7.07-1.92,6.73-3,6.08-4.87a.084.084,0,0,0-.09-.06Zm8.32,1.16c.06.02.09-.01.09-.06v-.88a.122.122,0,0,0-.06-.12,3.082,3.082,0,0,0-1.26-.2c-1.25,0-1.87.71-1.87,1.47,0,.72.39,1.17,1.48,1.57.62.25.81.41.81.66s-.25.44-.77.44a2.722,2.722,0,0,1-1.43-.4.052.052,0,0,0-.08.05v.95c0,.06.02.08.07.11A3.076,3.076,0,0,0,11.53.1c1.23,0,1.97-.59,1.97-1.53,0-.71-.39-1.16-1.53-1.58-.64-.25-.79-.4-.79-.62s.18-.43.71-.43A2.844,2.844,0,0,1,13.14-3.77ZM16.81-.88c0-.06-.03-.07-.06-.06a1.7,1.7,0,0,1-.38.04c-.43,0-.57-.21-.57-.65V-3.92h.98c.05,0,.07-.02.07-.07v-.87c0-.05-.02-.07-.07-.07h-.97c0-.49.02-1.08.05-1.41,0-.05-.02-.06-.07-.05l-1.01.14a.1.1,0,0,0-.08.09,10.555,10.555,0,0,0-.1,1.23h-.63c-.06,0-.08.02-.08.08v.84c0,.06.02.08.07.09h.63v2.63C14.59-.3,15.08.1,15.9.1a2.3,2.3,0,0,0,.85-.14c.05-.02.06-.06.06-.12Zm3.76-1.31a7.617,7.617,0,0,0,1.03-.04.086.086,0,0,0,.08-.07,3.027,3.027,0,0,0,.04-.62,1.988,1.988,0,0,0-2.05-2.11,2.4,2.4,0,0,0-2.35,2.62A2.31,2.31,0,0,0,19.79.1a3.32,3.32,0,0,0,1.5-.29.106.106,0,0,0,.06-.11v-.83c0-.05-.03-.06-.06-.04a3.151,3.151,0,0,1-1.24.24c-1.02,0-1.48-.56-1.51-1.26Zm-2.03-.86a1.092,1.092,0,0,1,1.08-1.02.925.925,0,0,1,.96.93v.08a4.9,4.9,0,0,1-.55.01ZM23.78,0c.06,0,.08-.02.08-.08V-3.61a1.407,1.407,0,0,1,.95-.37c.54,0,.84.32.84.98V-.09c0,.07.03.09.09.09h1.04c.06,0,.07-.03.07-.08V-2.99a4.575,4.575,0,0,0-.03-.59,1.417,1.417,0,0,1,.98-.41c.61,0,.84.45.84,1.02V-.09c0,.06.02.09.09.09h1.03c.05,0,.09-.02.09-.08v-3c0-1.51-.86-1.95-1.69-1.95a2.464,2.464,0,0,0-1.64.66,1.4,1.4,0,0,0-1.29-.66,2.134,2.134,0,0,0-1.46.56,1.7,1.7,0,0,0-.06-.4.1.1,0,0,0-.1-.06h-.92c-.06,0-.09.02-.08.07.02.19.04.6.04.99V-.09c0,.06.02.09.08.09ZM33.92-3.77c.06.02.09-.01.09-.06v-.88a.122.122,0,0,0-.06-.12,3.082,3.082,0,0,0-1.26-.2c-1.25,0-1.87.71-1.87,1.47,0,.72.39,1.17,1.48,1.57.62.25.81.41.81.66s-.25.44-.77.44a2.722,2.722,0,0,1-1.43-.4.052.052,0,0,0-.08.05v.95c0,.06.02.08.07.11A3.076,3.076,0,0,0,32.31.1c1.23,0,1.97-.59,1.97-1.53,0-.71-.39-1.16-1.53-1.58-.64-.25-.79-.4-.79-.62s.18-.43.71-.43A2.844,2.844,0,0,1,33.92-3.77Zm5.66-1.26a2.406,2.406,0,0,0-2.43,2.57A2.363,2.363,0,0,0,39.56.1a2.38,2.38,0,0,0,2.4-2.59A2.346,2.346,0,0,0,39.58-5.03Zm-.06,1.01c.85,0,1.21.73,1.21,1.56,0,1.03-.53,1.54-1.15,1.54-.76,0-1.21-.64-1.21-1.56C38.37-3.43,38.85-4.02,39.52-4.02Zm3.51.1V-.08c0,.05.02.08.08.08h1.04c.08,0,.09-.03.09-.08V-3.92h.88c.06-.01.08-.02.08-.07v-.88c0-.04-.01-.06-.08-.06h-.88v-.33c0-.69.25-.91.66-.91a1.709,1.709,0,0,1,.31.03c.05.02.07-.01.07-.05v-.86c0-.05,0-.08-.06-.1a1.331,1.331,0,0,0-.49-.06,1.5,1.5,0,0,0-1.48.88,2.709,2.709,0,0,0-.22,1.17v.23h-.61c-.04,0-.06.01-.06.06v.88c0,.05.01.07.06.07ZM49.21,0c.05,0,.08-.02.08-.08V-2.52h.86c.11,0,.16.05.23.17.44.7,1.14,1.85,1.43,2.3a.167.167,0,0,0,.14.05H53.2c.06,0,.05-.05.02-.11-.29-.5-1.49-2.29-1.82-2.75a1.859,1.859,0,0,0,1.29-1.76c0-1.28-.94-1.97-2.54-1.97-.77,0-1.19.01-1.98.03-.06,0-.07.04-.07.09V-.08c0,.06.02.08.08.08Zm.08-3.55V-5.52c.16-.01.48-.02.82-.02.85,0,1.38.33,1.38.99,0,.64-.52,1-1.33,1Zm7.39,1.36a7.617,7.617,0,0,0,1.03-.04.086.086,0,0,0,.08-.07,3.027,3.027,0,0,0,.04-.62,1.988,1.988,0,0,0-2.05-2.11,2.4,2.4,0,0,0-2.35,2.62A2.31,2.31,0,0,0,55.9.1a3.32,3.32,0,0,0,1.5-.29.106.106,0,0,0,.06-.11v-.83c0-.05-.03-.06-.06-.04a3.151,3.151,0,0,1-1.24.24c-1.02,0-1.48-.56-1.51-1.26Zm-2.03-.86a1.092,1.092,0,0,1,1.08-1.02.925.925,0,0,1,.96.93v.08a4.9,4.9,0,0,1-.55.01Zm7.61,2.02c0-.04-.02-.07-.07-.05a2.88,2.88,0,0,1-.87.1,1.435,1.435,0,0,1-1.56-1.51,1.42,1.42,0,0,1,1.55-1.5,2.351,2.351,0,0,1,.86.13c.04.01.08.01.08-.06l.01-.89c0-.06-.01-.09-.05-.11a2.872,2.872,0,0,0-.94-.11,2.558,2.558,0,0,0-2.75,2.58A2.432,2.432,0,0,0,61.1.1a3.046,3.046,0,0,0,1.11-.16c.04-.01.05-.03.05-.08Zm3-4a2.406,2.406,0,0,0-2.43,2.57A2.363,2.363,0,0,0,65.24.1a2.38,2.38,0,0,0,2.4-2.59A2.346,2.346,0,0,0,65.26-5.03ZM65.2-4.02c.85,0,1.21.73,1.21,1.56,0,1.03-.53,1.54-1.15,1.54-.76,0-1.21-.64-1.21-1.56C64.05-3.43,64.53-4.02,65.2-4.02Zm3.39-.91c-.05,0-.06.01-.06.06.04.33.05.91.05,1.34V-.08c0,.05.02.08.09.08h1.04c.06,0,.09-.02.09-.08V-3.3a1.943,1.943,0,0,1,1.53-.53c.07,0,.09-.02.09-.07V-4.96c0-.06-.02-.07-.08-.07a2.083,2.083,0,0,0-1.6.78,2.261,2.261,0,0,0-.1-.6.1.1,0,0,0-.11-.08ZM74.41.1A4.742,4.742,0,0,0,76.3-.29a.078.078,0,0,0,.06-.09c-.02-.18-.04-.44-.04-.64V-7.06c0-.04,0-.06-.05-.06H75.18c-.04,0-.06.02-.06.07V-5a3.46,3.46,0,0,0-.43-.03,2.614,2.614,0,0,0-2.84,2.61A2.356,2.356,0,0,0,74.41.1Zm.71-1.12a1.849,1.849,0,0,1-.58.08,1.366,1.366,0,0,1-1.45-1.54,1.464,1.464,0,0,1,1.56-1.54,1.33,1.33,0,0,1,.47.07Z" transform="translate(33.962 19.198)"/><g class="ac" transform="translate(11.321 7.783)"><rect class="af" width="16.981" height="16.981"/><ellipse class="ae" cx="7.547" cy="2.358" rx="7.547" ry="2.358" transform="translate(0.943 0.943)"/><path class="ae" d="M8.547,12.024c-2.328,0-6.7-.551-7.547-1.887v4.116c0,1.3,3.379,2.358,7.547,2.358s7.547-1.056,7.547-2.358V10.135C14.94,11.595,10.876,12.024,8.547,12.024Z" transform="translate(-0.057 -0.574)"/><path class="ae" d="M8.547,7.024c-2.328,0-6.7-.551-7.547-1.889V8.31c0,1.3,3.379,2.358,7.547,2.358s7.547-1.056,7.547-2.358V5.135C14.94,6.595,10.876,7.024,8.547,7.024Z" transform="translate(-0.057 -0.291)"/></g><g transform="translate(134.434)"><g class="ak" transform="matrix(1, 0, 0, 1, -149.43, -429.49)"><rect class="c" width="174.765" height="31.84" rx="8" transform="translate(149.43 429.49)"/></g><path class="ab" d="M1.8,0c.06,0,.08-.03.08-.09V-3.43c0-.91-.01-1.35-.05-1.86h.01c.39.97,2.22,4.2,2.74,5.22A.127.127,0,0,0,4.71,0H5.98c.07,0,.1-.02.1-.09V-6.48c0-.06-.02-.09-.09-.09H5.03c-.06,0-.09.03-.09.08v3.33c0,.94.02,1.27.03,1.55H4.96C4.61-2.36,3.08-5.18,2.34-6.5a.106.106,0,0,0-.12-.07H.81c-.05,0-.07.02-.07.07V-.09c0,.08.03.09.09.09ZM9.86-.97a1.828,1.828,0,0,1-.71.12c-.72,0-.98-.32-.98-.69,0-.43.35-.69,1.14-.69a4.114,4.114,0,0,1,.55.03Zm1.17-2.08A1.815,1.815,0,0,0,9.04-5.03a3.715,3.715,0,0,0-1.52.3.1.1,0,0,0-.06.1v.87a.058.058,0,0,0,.08.06,2.975,2.975,0,0,1,1.31-.28c.88,0,1.01.52,1.01.75v.12c-.09-.01-.32-.02-.62-.02-1.3,0-2.25.53-2.25,1.59C6.99-.41,7.86.1,8.95.1a4.864,4.864,0,0,0,2.08-.45c.02-.01.02-.02.02-.04-.02-.21-.02-.41-.02-.63ZM14.57-.88c0-.06-.03-.07-.06-.06a1.7,1.7,0,0,1-.38.04c-.43,0-.57-.21-.57-.65V-3.92h.98c.05,0,.07-.02.07-.07v-.87c0-.05-.02-.07-.07-.07h-.97c0-.49.02-1.08.05-1.41,0-.05-.02-.06-.07-.05l-1.01.14a.1.1,0,0,0-.08.09,10.555,10.555,0,0,0-.1,1.23h-.63c-.06,0-.08.02-.08.08v.84c0,.06.02.08.07.09h.63v2.63c0,.99.49,1.39,1.31,1.39a2.3,2.3,0,0,0,.85-.14c.05-.02.06-.06.06-.12Zm4.96-3.98c0-.05-.01-.07-.07-.07H18.41c-.06,0-.08.02-.08.07v3.55a1.268,1.268,0,0,1-.91.36c-.6,0-.87-.38-.87-1V-4.86c0-.05-.01-.07-.07-.07H15.43c-.06,0-.08.01-.08.07v3.05c0,1.4.73,1.91,1.68,1.91a1.976,1.976,0,0,0,1.39-.51,2.169,2.169,0,0,0,.07.35c.01.04.03.06.1.06h.92c.06,0,.09-.02.08-.07a8.878,8.878,0,0,1-.06-1.03Zm1.28-.07c-.05,0-.06.01-.06.06.04.33.05.91.05,1.34V-.08c0,.05.02.08.09.08h1.04c.06,0,.09-.02.09-.08V-3.3a1.943,1.943,0,0,1,1.53-.53c.07,0,.09-.02.09-.07V-4.96c0-.06-.02-.07-.08-.07a2.083,2.083,0,0,0-1.6.78,2.26,2.26,0,0,0-.1-.6.1.1,0,0,0-.11-.08ZM26.77-.97a1.828,1.828,0,0,1-.71.12c-.72,0-.98-.32-.98-.69,0-.43.35-.69,1.14-.69a4.114,4.114,0,0,1,.55.03Zm1.17-2.08a1.815,1.815,0,0,0-1.99-1.98,3.715,3.715,0,0,0-1.52.3.1.1,0,0,0-.06.1v.87a.058.058,0,0,0,.08.06,2.975,2.975,0,0,1,1.31-.28c.88,0,1.01.52,1.01.75v.12c-.09-.01-.32-.02-.62-.02-1.3,0-2.25.53-2.25,1.59C23.9-.41,24.77.1,25.86.1a4.864,4.864,0,0,0,2.08-.45c.02-.01.02-.02.02-.04-.02-.21-.02-.41-.02-.63ZM29.2-1.19C29.2-.14,29.72.1,30.36.1a1.458,1.458,0,0,0,.57-.08c.05-.03.06-.04.06-.11V-.84c0-.05-.01-.07-.04-.06a1.275,1.275,0,0,1-.19.01c-.24,0-.35-.1-.35-.41V-7.04c0-.05-.03-.08-.09-.08H29.29c-.06,0-.09.03-.09.08ZM38.21,0c.05,0,.08-.01.09-.08l.17-.94c.01-.04-.01-.07-.07-.07H35.46V-6.5c0-.04-.02-.07-.06-.07H34.33c-.06,0-.08.04-.08.09V-.1c0,.07.02.1.1.1Zm3.68-.97a1.828,1.828,0,0,1-.71.12c-.72,0-.98-.32-.98-.69,0-.43.35-.69,1.14-.69a4.114,4.114,0,0,1,.55.03Zm1.17-2.08a1.815,1.815,0,0,0-1.99-1.98,3.715,3.715,0,0,0-1.52.3.1.1,0,0,0-.06.1v.87a.058.058,0,0,0,.08.06,2.975,2.975,0,0,1,1.31-.28c.88,0,1.01.52,1.01.75v.12c-.09-.01-.32-.02-.62-.02-1.3,0-2.25.53-2.25,1.59,0,1.13.87,1.64,1.96,1.64a4.864,4.864,0,0,0,2.08-.45c.02-.01.02-.02.02-.04-.02-.21-.02-.41-.02-.63ZM44.32-.08c0,.05.02.08.08.08h1.05a.074.074,0,0,0,.08-.08V-3.57a1.28,1.28,0,0,1,.97-.41c.58,0,.86.38.86,1.04V-.09a.08.08,0,0,0,.09.09h1.04c.05,0,.08-.02.08-.09V-3.05c0-1.6-.92-1.98-1.67-1.98a2.2,2.2,0,0,0-1.45.55,2.177,2.177,0,0,0-.07-.38c-.02-.05-.05-.07-.12-.07h-.91c-.06,0-.07.02-.07.07.02.2.04.74.04,1.08Zm7.62.05c.61.03,1.11.15,1.11.59,0,.38-.42.77-1.37.77-.83,0-1.31-.39-1.31-.74a1.1,1.1,0,0,1,.48-.67Zm-.48-4.13a.751.751,0,0,1,.8.84.726.726,0,0,1-.8.78.748.748,0,0,1-.81-.8A.754.754,0,0,1,51.46-4.16Zm-.28,3.07a.562.562,0,0,1-.13-.31.618.618,0,0,1,.03-.3,2.693,2.693,0,0,0,.4.03c1.08,0,1.93-.54,1.93-1.61a1.3,1.3,0,0,0-.22-.76,7.088,7.088,0,0,0,.77.05c.05,0,.06-.02.06-.06v-.82c0-.04-.01-.06-.06-.06H52.57a1.115,1.115,0,0,1-.23-.03,5.037,5.037,0,0,0-.88-.07,1.763,1.763,0,0,0-1.99,1.71,1.467,1.467,0,0,0,.69,1.3,1.249,1.249,0,0,0-.18.65,1.238,1.238,0,0,0,.21.75c-.66.57-.93.98-.93,1.3,0,.73.73,1.54,2.34,1.54,1.56,0,2.56-.82,2.56-1.84,0-.82-.59-1.36-1.96-1.43Zm7.71-3.77c0-.05-.01-.07-.07-.07H57.77c-.06,0-.08.02-.08.07v3.55a1.268,1.268,0,0,1-.91.36c-.6,0-.87-.38-.87-1V-4.86c0-.05-.01-.07-.07-.07H54.79c-.06,0-.08.01-.08.07v3.05c0,1.4.73,1.91,1.68,1.91a1.976,1.976,0,0,0,1.39-.51,2.169,2.169,0,0,0,.07.35c.01.04.03.06.1.06h.92c.06,0,.09-.02.08-.07a8.878,8.878,0,0,1-.06-1.03ZM62.73-.97a1.828,1.828,0,0,1-.71.12c-.72,0-.98-.32-.98-.69,0-.43.35-.69,1.14-.69a4.114,4.114,0,0,1,.55.03ZM63.9-3.05a1.815,1.815,0,0,0-1.99-1.98,3.715,3.715,0,0,0-1.52.3.1.1,0,0,0-.06.1v.87a.058.058,0,0,0,.08.06,2.975,2.975,0,0,1,1.31-.28c.88,0,1.01.52,1.01.75v.12c-.09-.01-.32-.02-.62-.02-1.3,0-2.25.53-2.25,1.59,0,1.13.87,1.64,1.96,1.64A4.864,4.864,0,0,0,63.9-.35c.02-.01.02-.02.02-.04-.02-.21-.02-.41-.02-.63ZM67.24-.03c.61.03,1.11.15,1.11.59,0,.38-.42.77-1.37.77-.83,0-1.31-.39-1.31-.74a1.1,1.1,0,0,1,.48-.67Zm-.48-4.13a.751.751,0,0,1,.8.84.726.726,0,0,1-.8.78.748.748,0,0,1-.81-.8A.754.754,0,0,1,66.76-4.16Zm-.28,3.07a.563.563,0,0,1-.13-.31.618.618,0,0,1,.03-.3,2.693,2.693,0,0,0,.4.03c1.08,0,1.93-.54,1.93-1.61a1.3,1.3,0,0,0-.22-.76,7.088,7.088,0,0,0,.77.05c.05,0,.06-.02.06-.06v-.82c0-.04-.01-.06-.06-.06H67.87a1.115,1.115,0,0,1-.23-.03,5.037,5.037,0,0,0-.88-.07,1.763,1.763,0,0,0-1.99,1.71,1.467,1.467,0,0,0,.69,1.3,1.249,1.249,0,0,0-.18.65,1.238,1.238,0,0,0,.21.75c-.66.57-.93.98-.93,1.3,0,.73.73,1.54,2.34,1.54,1.56,0,2.56-.82,2.56-1.84,0-.82-.59-1.36-1.96-1.43Zm6.48-1.1a7.617,7.617,0,0,0,1.03-.04.086.086,0,0,0,.08-.07,3.027,3.027,0,0,0,.04-.62,1.988,1.988,0,0,0-2.05-2.11,2.4,2.4,0,0,0-2.35,2.62A2.31,2.31,0,0,0,72.18.1a3.32,3.32,0,0,0,1.5-.29.106.106,0,0,0,.06-.11v-.83c0-.05-.03-.06-.06-.04a3.151,3.151,0,0,1-1.24.24c-1.02,0-1.48-.56-1.51-1.26Zm-2.03-.86a1.092,1.092,0,0,1,1.08-1.02.925.925,0,0,1,.96.93v.08a4.9,4.9,0,0,1-.55.01ZM77.44-.07c0,.05.03.07.08.07h1.05c.06,0,.08-.03.08-.08V-2.13h.63c1.51,0,2.74-.69,2.74-2.28,0-1.1-.72-2.18-2.66-2.18-.73,0-1.47.02-1.85.03-.05,0-.07.03-.07.08Zm1.21-5.45c.11-.01.39-.02.74-.02.92,0,1.44.43,1.44,1.16,0,.91-.71,1.19-1.55,1.19-.33,0-.46,0-.63-.01Zm4.25.59c-.05,0-.06.01-.06.06.04.33.05.91.05,1.34V-.08c0,.05.02.08.09.08h1.04c.06,0,.09-.02.09-.08V-3.3a1.943,1.943,0,0,1,1.53-.53c.07,0,.09-.02.09-.07V-4.96c0-.06-.02-.07-.08-.07a2.083,2.083,0,0,0-1.6.78,2.261,2.261,0,0,0-.1-.6.1.1,0,0,0-.11-.08Zm5.69-.1a2.406,2.406,0,0,0-2.43,2.57A2.363,2.363,0,0,0,88.57.1a2.38,2.38,0,0,0,2.4-2.59A2.346,2.346,0,0,0,88.59-5.03Zm-.06,1.01c.85,0,1.21.73,1.21,1.56,0,1.03-.53,1.54-1.15,1.54-.76,0-1.21-.64-1.21-1.56C87.38-3.43,87.86-4.02,88.53-4.02ZM95.4-1.03c0-.04-.02-.07-.07-.05a2.879,2.879,0,0,1-.87.1A1.435,1.435,0,0,1,92.9-2.49a1.42,1.42,0,0,1,1.55-1.5,2.351,2.351,0,0,1,.86.13c.04.01.08.01.08-.06l.01-.89c0-.06-.01-.09-.05-.11a2.872,2.872,0,0,0-.94-.11,2.558,2.558,0,0,0-2.75,2.58A2.432,2.432,0,0,0,94.24.1a3.046,3.046,0,0,0,1.11-.16c.04-.01.05-.03.05-.08Zm3.82-1.16a7.617,7.617,0,0,0,1.03-.04.086.086,0,0,0,.08-.07,3.027,3.027,0,0,0,.04-.62,1.988,1.988,0,0,0-2.05-2.11,2.4,2.4,0,0,0-2.35,2.62A2.31,2.31,0,0,0,98.44.1a3.32,3.32,0,0,0,1.5-.29A.106.106,0,0,0,100-.3v-.83c0-.05-.03-.06-.06-.04a3.151,3.151,0,0,1-1.24.24c-1.02,0-1.48-.56-1.51-1.26Zm-2.03-.86a1.092,1.092,0,0,1,1.08-1.02.925.925,0,0,1,.96.93v.08a4.9,4.9,0,0,1-.55.01Zm6.99-.72c.06.02.09-.01.09-.06v-.88a.122.122,0,0,0-.06-.12,3.083,3.083,0,0,0-1.26-.2c-1.25,0-1.87.71-1.87,1.47,0,.72.39,1.17,1.48,1.57.62.25.81.41.81.66s-.25.44-.77.44a2.722,2.722,0,0,1-1.43-.4.052.052,0,0,0-.08.05v.95c0,.06.02.08.07.11a3.076,3.076,0,0,0,1.41.28c1.23,0,1.97-.59,1.97-1.53,0-.71-.39-1.16-1.53-1.58-.64-.25-.79-.4-.79-.62s.18-.43.71-.43A2.844,2.844,0,0,1,104.18-3.77Zm4.14,0c.06.02.09-.01.09-.06v-.88a.122.122,0,0,0-.06-.12,3.083,3.083,0,0,0-1.26-.2c-1.25,0-1.87.71-1.87,1.47,0,.72.39,1.17,1.48,1.57.62.25.81.41.81.66s-.25.44-.77.44a2.722,2.722,0,0,1-1.43-.4.052.052,0,0,0-.08.05v.95c0,.06.02.08.07.11a3.076,3.076,0,0,0,1.41.28c1.23,0,1.97-.59,1.97-1.53,0-.71-.39-1.16-1.53-1.58-.64-.25-.79-.4-.79-.62s.18-.43.71-.43A2.844,2.844,0,0,1,108.32-3.77Zm1.25,3.68c0,.06.03.09.1.09h1.03c.07,0,.09-.02.09-.08V-4.86c0-.06-.02-.07-.08-.07h-1.06c-.05,0-.08.02-.08.07Zm.61-5.51a.651.651,0,0,0,.69-.69.643.643,0,0,0-.68-.69.662.662,0,0,0-.69.69A.648.648,0,0,0,110.18-5.6Zm1.84,5.52c0,.05.02.08.08.08h1.05a.074.074,0,0,0,.08-.08V-3.57a1.28,1.28,0,0,1,.97-.41c.58,0,.86.38.86,1.04V-.09a.08.08,0,0,0,.09.09h1.04c.05,0,.08-.02.08-.09V-3.05c0-1.6-.92-1.98-1.67-1.98a2.2,2.2,0,0,0-1.45.55,2.178,2.178,0,0,0-.07-.38c-.02-.05-.05-.07-.12-.07h-.91c-.06,0-.07.02-.07.07.02.2.04.74.04,1.08Zm7.62.05c.61.03,1.11.15,1.11.59,0,.38-.42.77-1.37.77-.83,0-1.31-.39-1.31-.74a1.1,1.1,0,0,1,.48-.67Zm-.48-4.13a.751.751,0,0,1,.8.84.726.726,0,0,1-.8.78.748.748,0,0,1-.81-.8A.754.754,0,0,1,119.16-4.16Zm-.28,3.07a.563.563,0,0,1-.13-.31.618.618,0,0,1,.03-.3,2.693,2.693,0,0,0,.4.03c1.08,0,1.93-.54,1.93-1.61a1.3,1.3,0,0,0-.22-.76,7.088,7.088,0,0,0,.77.05c.05,0,.06-.02.06-.06v-.82c0-.04-.01-.06-.06-.06h-1.39a1.115,1.115,0,0,1-.23-.03,5.037,5.037,0,0,0-.88-.07,1.763,1.763,0,0,0-1.99,1.71,1.467,1.467,0,0,0,.69,1.3,1.249,1.249,0,0,0-.18.65,1.238,1.238,0,0,0,.21.75c-.66.57-.93.98-.93,1.3,0,.73.73,1.54,2.34,1.54,1.56,0,2.56-.82,2.56-1.84,0-.82-.59-1.36-1.96-1.43Z" transform="translate(33.962 19.198)"/><g class="ac" transform="translate(11.32 7.783)"><circle class="ae" cx="1.061" cy="1.061" r="1.061" transform="translate(17.295 6.368) rotate(90)"/><circle class="ae" cx="1.061" cy="1.061" r="1.061" transform="translate(14.526 9.906) rotate(90)"/><circle class="ae" cx="1.061" cy="1.061" r="1.061" transform="translate(15.173 2.123) rotate(90)"/><path class="ag" d="M0,5.323V3.8L1.416,1.677V0" transform="translate(15.788 6.014) rotate(90)"/><path class="ag" d="M0,0,1.415,2.123V3.644" transform="translate(14.112 3.184) rotate(90)"/><path class="ag" d="M0,3V2.083L1.736,0H2.9" transform="translate(13.465 7.429) rotate(90)"/><path class="ae" d="M6.175,16.982h0V14.859H4.051c-1.05,0-2.123-.168-2.123-1.415V10.828l-1.535-.29a.706.706,0,0,1-.316-.952L1.928,6.2V5.911A5.086,5.086,0,0,1,3.792,1.672,8.754,8.754,0,0,1,8.519.017C8.691.006,8.857,0,9.012,0a7.105,7.105,0,0,1,1.453.151V2.8a1.42,1.42,0,0,0-1.4,1.415H7.94a.354.354,0,1,0,0,.707H9.07v.708H7.232a.354.354,0,1,0,0,.707H9.07v.707H7.94a.354.354,0,1,0,0,.707H9.07a1.42,1.42,0,0,0,1.4,1.415v7.169l-4.29.644Z" transform="translate(0 0)"/></g></g></g><g transform="translate(33.255)"><g class="aj" transform="matrix(1, 0, 0, 1, -48.25, -343.17)"><rect class="c" width="62.972" height="31.84" rx="8" transform="translate(48.25 343.17)"/></g><path class="ab" d="M4.545-.909c.009-.045-.009-.072-.063-.072H1.755V-2.529H4.1c.036,0,.063-.009.063-.054v-.855c0-.054-.018-.063-.063-.063H1.755V-4.932H4.329c.054,0,.072-.036.063-.081l-.1-.837c-.009-.054-.027-.063-.081-.063H.738c-.054,0-.072.027-.072.072V-.072C.666-.027.684,0,.747,0H4.329c.054,0,.072-.009.081-.072ZM6.4,0c.045,0,.072-.018.072-.072v-2.2h.774c.1,0,.144.045.207.153.4.63,1.026,1.665,1.287,2.07A.15.15,0,0,0,8.865,0H9.99c.054,0,.045-.045.018-.1C9.747-.549,8.667-2.16,8.37-2.574A1.673,1.673,0,0,0,9.531-4.158c0-1.152-.846-1.773-2.286-1.773-.693,0-1.071.009-1.782.027-.054,0-.063.036-.063.081V-.072c0,.054.018.072.072.072Zm.072-3.195V-4.968c.144-.009.432-.018.738-.018.765,0,1.242.3,1.242.891,0,.576-.468.9-1.2.9ZM10.683-.063c0,.045.027.063.072.063H11.7c.054,0,.072-.027.072-.072V-1.917h.567c1.359,0,2.466-.621,2.466-2.052,0-.99-.648-1.962-2.394-1.962-.657,0-1.323.018-1.665.027-.045,0-.063.027-.063.072Zm1.089-4.9c.1-.009.351-.018.666-.018.828,0,1.3.387,1.3,1.044,0,.819-.639,1.071-1.4,1.071-.3,0-.414,0-.567-.009Z" transform="translate(33.962 18.198)"/><g class="ah" transform="translate(11.321 7.783)"><rect class="o" width="16.981" height="16.981"/><path class="ae" d="M15.566,7.075H14.7A6.328,6.328,0,0,0,13.877,5.1l.617-.617a1.415,1.415,0,1,0-2-2l-.617.617a6.328,6.328,0,0,0-1.971-.818V1.415a1.415,1.415,0,1,0-2.83,0v.871A6.328,6.328,0,0,0,5.1,3.1l-.617-.617a1.415,1.415,0,1,0-2,2L3.1,5.1a6.328,6.328,0,0,0-.818,1.971H1.415a1.415,1.415,0,0,0,0,2.83h.871A6.328,6.328,0,0,0,3.1,11.876l-.617.617a1.415,1.415,0,1,0,2,2l.617-.617a6.328,6.328,0,0,0,1.971.818v.871a1.415,1.415,0,0,0,2.83,0V14.7a6.328,6.328,0,0,0,1.971-.818l.617.617a1.415,1.415,0,1,0,2-2l-.617-.617A6.328,6.328,0,0,0,14.7,9.906h.871a1.415,1.415,0,1,0,0-2.83ZM8.491,11.321a2.83,2.83,0,1,1,2.83-2.83A2.83,2.83,0,0,1,8.491,11.321Z"/></g><g transform="translate(70.755)"><g class="ai" transform="matrix(1, 0, 0, 1, -119.01, -343.17)"><rect class="c" width="171.935" height="31.84" rx="8" transform="translate(119.01 343.17)"/></g><path class="ab" d="M1.85,0c.05,0,.08-.02.08-.08V-2.52h.86c.11,0,.16.05.23.17.44.7,1.14,1.85,1.43,2.3A.167.167,0,0,0,4.59,0H5.84c.06,0,.05-.05.02-.11C5.57-.61,4.37-2.4,4.04-2.86A1.859,1.859,0,0,0,5.33-4.62c0-1.28-.94-1.97-2.54-1.97-.77,0-1.19.01-1.98.03-.06,0-.07.04-.07.09V-.08c0,.06.02.08.08.08Zm.08-3.55V-5.52c.16-.01.48-.02.82-.02.85,0,1.38.33,1.38.99,0,.64-.52,1-1.33,1ZM8.5-5.03A2.406,2.406,0,0,0,6.07-2.46,2.363,2.363,0,0,0,8.48.1a2.38,2.38,0,0,0,2.4-2.59A2.346,2.346,0,0,0,8.5-5.03ZM8.44-4.02c.85,0,1.21.73,1.21,1.56,0,1.03-.53,1.54-1.15,1.54-.76,0-1.21-.64-1.21-1.56C7.29-3.43,7.77-4.02,8.44-4.02Zm3.45-3.1a.063.063,0,0,0-.07.07V-.21a.107.107,0,0,0,.07.09,5,5,0,0,0,1.5.22,2.728,2.728,0,0,0,2.92-2.77,2.257,2.257,0,0,0-2.36-2.36,2.9,2.9,0,0,0-.91.14l-.01-2.15c0-.07-.02-.08-.09-.08Zm3.19,4.57A1.512,1.512,0,0,1,13.5-.92a1.665,1.665,0,0,1-.46-.05V-3.89a1.836,1.836,0,0,1,.7-.11A1.288,1.288,0,0,1,15.08-2.55Zm4.37-2.48a2.406,2.406,0,0,0-2.43,2.57A2.363,2.363,0,0,0,19.43.1a2.38,2.38,0,0,0,2.4-2.59A2.346,2.346,0,0,0,19.45-5.03Zm-.06,1.01c.85,0,1.21.73,1.21,1.56,0,1.03-.53,1.54-1.15,1.54-.76,0-1.21-.64-1.21-1.56C18.24-3.43,18.72-4.02,19.39-4.02ZM25.17-.88c0-.06-.03-.07-.06-.06a1.7,1.7,0,0,1-.38.04c-.43,0-.57-.21-.57-.65V-3.92h.98c.05,0,.07-.02.07-.07v-.87c0-.05-.02-.07-.07-.07h-.97c0-.49.02-1.08.05-1.41,0-.05-.02-.06-.07-.05l-1.01.14a.1.1,0,0,0-.08.09,10.554,10.554,0,0,0-.1,1.23h-.63c-.06,0-.08.02-.08.08v.84c0,.06.02.08.07.09h.63v2.63c0,.99.49,1.39,1.31,1.39a2.3,2.3,0,0,0,.85-.14c.05-.02.06-.06.06-.12Zm.88.79c0,.06.03.09.1.09h1.03c.07,0,.09-.02.09-.08V-4.86c0-.06-.02-.07-.08-.07H26.13c-.05,0-.08.02-.08.07Zm.61-5.51a.651.651,0,0,0,.69-.69.643.643,0,0,0-.68-.69.662.662,0,0,0-.69.69A.648.648,0,0,0,26.66-5.6Zm5.3,4.57c0-.04-.02-.07-.07-.05a2.879,2.879,0,0,1-.87.1,1.435,1.435,0,0,1-1.56-1.51,1.42,1.42,0,0,1,1.55-1.5,2.351,2.351,0,0,1,.86.13c.04.01.08.01.08-.06l.01-.89c0-.06-.01-.09-.05-.11a2.872,2.872,0,0,0-.94-.11,2.558,2.558,0,0,0-2.75,2.58A2.432,2.432,0,0,0,30.8.1a3.046,3.046,0,0,0,1.11-.16c.04-.01.05-.03.05-.08Zm3.28.96c0,.05.03.07.08.07h1.05c.06,0,.08-.03.08-.08V-2.13h.63c1.51,0,2.74-.69,2.74-2.28,0-1.1-.72-2.18-2.66-2.18-.73,0-1.47.02-1.85.03-.05,0-.07.03-.07.08Zm1.21-5.45c.11-.01.39-.02.74-.02.92,0,1.44.43,1.44,1.16,0,.91-.71,1.19-1.55,1.19-.33,0-.46,0-.63-.01Zm4.25.59c-.05,0-.06.01-.06.06.04.33.05.91.05,1.34V-.08c0,.05.02.08.09.08h1.04c.06,0,.09-.02.09-.08V-3.3a1.943,1.943,0,0,1,1.53-.53c.07,0,.09-.02.09-.07V-4.96c0-.06-.02-.07-.08-.07a2.083,2.083,0,0,0-1.6.78,2.26,2.26,0,0,0-.1-.6.1.1,0,0,0-.11-.08Zm5.69-.1a2.406,2.406,0,0,0-2.43,2.57A2.363,2.363,0,0,0,46.37.1a2.38,2.38,0,0,0,2.4-2.59A2.346,2.346,0,0,0,46.39-5.03Zm-.06,1.01c.85,0,1.21.73,1.21,1.56,0,1.03-.53,1.54-1.15,1.54-.76,0-1.21-.64-1.21-1.56C45.18-3.43,45.66-4.02,46.33-4.02ZM53.2-1.03c0-.04-.02-.07-.07-.05a2.879,2.879,0,0,1-.87.1A1.435,1.435,0,0,1,50.7-2.49a1.42,1.42,0,0,1,1.55-1.5,2.351,2.351,0,0,1,.86.13c.04.01.08.01.08-.06l.01-.89c0-.06-.01-.09-.05-.11a2.872,2.872,0,0,0-.94-.11,2.558,2.558,0,0,0-2.75,2.58A2.432,2.432,0,0,0,52.04.1a3.046,3.046,0,0,0,1.11-.16c.04-.01.05-.03.05-.08Zm3.82-1.16a7.617,7.617,0,0,0,1.03-.04.086.086,0,0,0,.08-.07,3.027,3.027,0,0,0,.04-.62,1.988,1.988,0,0,0-2.05-2.11,2.4,2.4,0,0,0-2.35,2.62A2.31,2.31,0,0,0,56.24.1a3.32,3.32,0,0,0,1.5-.29A.106.106,0,0,0,57.8-.3v-.83c0-.05-.03-.06-.06-.04a3.151,3.151,0,0,1-1.24.24c-1.02,0-1.48-.56-1.51-1.26Zm-2.03-.86a1.092,1.092,0,0,1,1.08-1.02.925.925,0,0,1,.96.93v.08a4.9,4.9,0,0,1-.55.01Zm6.99-.72c.06.02.09-.01.09-.06v-.88a.122.122,0,0,0-.06-.12,3.082,3.082,0,0,0-1.26-.2c-1.25,0-1.87.71-1.87,1.47,0,.72.39,1.17,1.48,1.57.62.25.81.41.81.66s-.25.44-.77.44a2.722,2.722,0,0,1-1.43-.4.052.052,0,0,0-.08.05v.95c0,.06.02.08.07.11A3.076,3.076,0,0,0,60.37.1c1.23,0,1.97-.59,1.97-1.53,0-.71-.39-1.16-1.53-1.58-.64-.25-.79-.4-.79-.62s.18-.43.71-.43A2.844,2.844,0,0,1,61.98-3.77Zm4.14,0c.06.02.09-.01.09-.06v-.88a.122.122,0,0,0-.06-.12,3.082,3.082,0,0,0-1.26-.2c-1.25,0-1.87.71-1.87,1.47,0,.72.39,1.17,1.48,1.57.62.25.81.41.81.66s-.25.44-.77.44a2.722,2.722,0,0,1-1.43-.4.052.052,0,0,0-.08.05v.95c0,.06.02.08.07.11A3.076,3.076,0,0,0,64.51.1c1.23,0,1.97-.59,1.97-1.53,0-.71-.39-1.16-1.53-1.58-.64-.25-.79-.4-.79-.62s.18-.43.71-.43A2.844,2.844,0,0,1,66.12-3.77Zm7.07,2.04.58,1.67a.1.1,0,0,0,.1.06h1.12c.06,0,.07-.03.06-.09L72.74-6.51c-.01-.05-.02-.06-.07-.06H71.28c-.04,0-.06.03-.06.07a1.529,1.529,0,0,1-.09.54L69.07-.1c-.01.07.01.1.07.1h1a.1.1,0,0,0,.11-.08l.55-1.65ZM71.12-2.82c.3-.91.7-2.08.86-2.75h.01c.2.7.67,2.09.88,2.75Zm8.61-2.04c0-.05-.01-.07-.07-.07H78.61c-.06,0-.08.02-.08.07v3.55a1.268,1.268,0,0,1-.91.36c-.6,0-.87-.38-.87-1V-4.86c0-.05-.01-.07-.07-.07H75.63c-.06,0-.08.01-.08.07v3.05c0,1.4.73,1.91,1.68,1.91a1.976,1.976,0,0,0,1.39-.51,2.169,2.169,0,0,0,.07.35c.01.04.03.06.1.06h.92c.06,0,.09-.02.08-.07a8.877,8.877,0,0,1-.06-1.03ZM83.44-.88c0-.06-.03-.07-.06-.06A1.7,1.7,0,0,1,83-.9c-.43,0-.57-.21-.57-.65V-3.92h.98c.05,0,.07-.02.07-.07v-.87c0-.05-.02-.07-.07-.07h-.97c0-.49.02-1.08.05-1.41,0-.05-.02-.06-.07-.05l-1.01.14a.1.1,0,0,0-.08.09,10.556,10.556,0,0,0-.1,1.23H80.6c-.06,0-.08.02-.08.08v.84c0,.06.02.08.07.09h.63v2.63c0,.99.49,1.39,1.31,1.39a2.3,2.3,0,0,0,.85-.14c.05-.02.06-.06.06-.12Zm2.94-4.15a2.406,2.406,0,0,0-2.43,2.57A2.363,2.363,0,0,0,86.36.1a2.38,2.38,0,0,0,2.4-2.59A2.346,2.346,0,0,0,86.38-5.03Zm-.06,1.01c.85,0,1.21.73,1.21,1.56,0,1.03-.53,1.54-1.15,1.54-.76,0-1.21-.64-1.21-1.56C85.17-3.43,85.65-4.02,86.32-4.02ZM90.83,0c.06,0,.08-.02.08-.08V-3.61a1.407,1.407,0,0,1,.95-.37c.54,0,.84.32.84.98V-.09c0,.07.03.09.09.09h1.04c.06,0,.07-.03.07-.08V-2.99a4.576,4.576,0,0,0-.03-.59,1.416,1.416,0,0,1,.98-.41c.61,0,.84.45.84,1.02V-.09c0,.06.02.09.09.09h1.03c.05,0,.09-.02.09-.08v-3c0-1.51-.86-1.95-1.69-1.95a2.464,2.464,0,0,0-1.64.66,1.4,1.4,0,0,0-1.29-.66,2.134,2.134,0,0,0-1.46.56,1.7,1.7,0,0,0-.06-.4.1.1,0,0,0-.1-.06h-.92c-.06,0-.09.02-.08.07.02.19.04.6.04.99V-.09c0,.06.02.09.08.09Zm9.86-.97a1.828,1.828,0,0,1-.71.12c-.72,0-.98-.32-.98-.69,0-.43.35-.69,1.14-.69a4.114,4.114,0,0,1,.55.03Zm1.17-2.08a1.815,1.815,0,0,0-1.99-1.98,3.715,3.715,0,0,0-1.52.3.1.1,0,0,0-.06.1v.87a.058.058,0,0,0,.08.06,2.975,2.975,0,0,1,1.31-.28c.88,0,1.01.52,1.01.75v.12c-.09-.01-.32-.02-.62-.02-1.3,0-2.25.53-2.25,1.59,0,1.13.87,1.64,1.96,1.64a4.864,4.864,0,0,0,2.08-.45c.02-.01.02-.02.02-.04-.02-.21-.02-.41-.02-.63ZM105.4-.88c0-.06-.03-.07-.06-.06a1.7,1.7,0,0,1-.38.04c-.43,0-.57-.21-.57-.65V-3.92h.98c.05,0,.07-.02.07-.07v-.87c0-.05-.02-.07-.07-.07h-.97c0-.49.02-1.08.05-1.41,0-.05-.02-.06-.07-.05l-1.01.14a.1.1,0,0,0-.08.09,10.556,10.556,0,0,0-.1,1.23h-.63c-.06,0-.08.02-.08.08v.84c0,.06.02.08.07.09h.63v2.63c0,.99.49,1.39,1.31,1.39a2.3,2.3,0,0,0,.85-.14c.05-.02.06-.06.06-.12Zm.88.79c0,.06.03.09.1.09h1.03c.07,0,.09-.02.09-.08V-4.86c0-.06-.02-.07-.08-.07h-1.06c-.05,0-.08.02-.08.07Zm.61-5.51a.651.651,0,0,0,.69-.69.643.643,0,0,0-.68-.69.662.662,0,0,0-.69.69A.648.648,0,0,0,106.89-5.6Zm3.99.57a2.406,2.406,0,0,0-2.43,2.57A2.363,2.363,0,0,0,110.86.1a2.38,2.38,0,0,0,2.4-2.59A2.346,2.346,0,0,0,110.88-5.03Zm-.06,1.01c.85,0,1.21.73,1.21,1.56,0,1.03-.53,1.54-1.15,1.54-.76,0-1.21-.64-1.21-1.56C109.67-3.43,110.15-4.02,110.82-4.02ZM114.2-.08c0,.05.02.08.08.08h1.05a.074.074,0,0,0,.08-.08V-3.57a1.28,1.28,0,0,1,.97-.41c.58,0,.86.38.86,1.04V-.09a.08.08,0,0,0,.09.09h1.04c.05,0,.08-.02.08-.09V-3.05c0-1.6-.92-1.98-1.67-1.98a2.2,2.2,0,0,0-1.45.55,2.178,2.178,0,0,0-.07-.38c-.02-.05-.05-.07-.12-.07h-.91c-.06,0-.07.02-.07.07.02.2.04.74.04,1.08Z" transform="translate(33.962 19.198)"/><g class="ac" transform="translate(8.491 7.075)"><rect class="af" width="16.981" height="16.981"/><rect class="ae" width="3.774" height="5.283" rx="0.5" transform="translate(0.943 5.66)"/><rect class="ae" width="2.83" height="2.83" rx="0.5" transform="translate(13.208 1.887)"/><rect class="ae" width="2.83" height="2.83" rx="0.5" transform="translate(13.208 6.604)"/><rect class="ae" width="2.83" height="2.83" rx="0.5" transform="translate(13.208 11.321)"/><path class="ae" d="M12.6,3.708V3.236A.236.236,0,0,0,12.368,3h-3.3a.236.236,0,0,0-.236.236V7.717H6.236A.236.236,0,0,0,6,7.953v.472a.236.236,0,0,0,.236.236H8.83v4.481a.236.236,0,0,0,.236.236h3.3a.236.236,0,0,0,.236-.236V12.67a.236.236,0,0,0-.236-.236H9.774V8.66h2.594a.236.236,0,0,0,.236-.236V7.953a.236.236,0,0,0-.236-.236H9.774V3.943h2.594A.236.236,0,0,0,12.6,3.708Z" transform="translate(-0.34 -0.17)"/></g></g></g></g></g></svg>