<svg xmlns="http://www.w3.org/2000/svg" xmlns:xlink="http://www.w3.org/1999/xlink" width="290" height="160" viewBox="0 0 290 160"><defs><style>.a{fill:#f7f7f7;}.b{clip-path:url(#a);}.c{fill:#a3a8ad;}.d{fill:#fff;}</style><clipPath id="a"><rect class="a" width="290" height="160" transform="translate(245.803 2543)"/></clipPath></defs><g transform="translate(-245.803 -2542.6)"><rect class="a" width="290" height="160" transform="translate(245.803 2542.6)"/><g class="b" transform="translate(0 -0.4)"><circle class="c" cx="109" cy="109" r="109" transform="translate(194.803 2514.399)"/></g><path class="d" d="M108.66,16.823c-7.459-7.746-27.829-4.59-32.707-4.017C68.781,5.921,63.9-2.4,62.182-5.268a83.429,83.429,0,0,0,4.59-23.813C66.773-36.254,63.9-44,55.87-44a8.336,8.336,0,0,0-6.886,4.017c-3.443,6.025-2.008,18.075,3.443,30.412A207.223,207.223,0,0,1,38.369,23.135c-8.32,3.443-25.821,11.476-27.256,20.083a7.667,7.667,0,0,0,2.3,7.173,11.018,11.018,0,0,0,7.173,2.582C31.2,52.973,41.525,38.341,48.7,26a190.5,190.5,0,0,1,24.96-6.6C84.847,29.16,94.6,30.594,99.766,30.594c6.886,0,9.468-2.869,10.328-5.451A7.462,7.462,0,0,0,108.66,16.823ZM101.488,21.7c-.287,2.008-2.869,4.017-7.459,2.869A39.348,39.348,0,0,1,79.4,17.11c3.73-.574,12.05-1.434,18.075-.287C99.766,17.4,102.062,18.831,101.488,21.7ZM53.575-37.4a2.926,2.926,0,0,1,2.3-1.435c2.582,0,3.156,3.156,3.156,5.738A63.049,63.049,0,0,1,55.583-15.31C51.28-26.786,52.141-34.819,53.575-37.4ZM53,18.258A160.2,160.2,0,0,0,59.6,2.191a73.139,73.139,0,0,0,9.181,11.763C68.781,14.241,59.887,15.962,53,18.258ZM36.074,29.734c-6.6,10.9-13.484,17.788-17.214,17.788a4.078,4.078,0,0,1-1.721-.574,2.178,2.178,0,0,1-.861-2.582C17.139,40.349,24.6,34.9,36.074,29.734Z" transform="translate(264.421 2618.369)"/></g></svg>