<svg xmlns="http://www.w3.org/2000/svg" width="68.27" height="68.376" viewBox="0 0 68.27 68.376"><defs><style>.a,.c{fill:#b3b3b3;}.b{fill:#f00c00;}.c{fill-rule:evenodd;}</style></defs><g transform="translate(-979.698 -435.374)"><path class="a" d="M1038.8,445.674l-9.2-9.1a3.947,3.947,0,0,0-2.8-1.2h-34a4.8,4.8,0,0,0-4.8,4.8v30.264a17.5,17.5,0,0,1,2-.8V440.574a3.222,3.222,0,0,1,3.2-3.2H1027v9.6a2.37,2.37,0,0,0,2.338,2.4h8.762c0,.065-.042,22.938-.071,35.131H1040V448.474A3.783,3.783,0,0,0,1038.8,445.674Zm-8.9,1.7a.86.86,0,0,1-.8-.8v-7.9l8.5,8.7Z"/><path class="a" d="M993.125,503.06a1.5,1.5,0,0,1-.21-.015A15.685,15.685,0,0,1,979.7,487.518h0a15.731,15.731,0,0,1,1.53-6.75l.128-.215a1.473,1.473,0,0,1,2.061-.33L994,487.913a1.464,1.464,0,0,1,.6,1.17l-.014,12.7A1.478,1.478,0,0,1,993.125,503.06Zm-10.358-20.837a13.7,13.7,0,0,0-1.069,5.3h0A13.684,13.684,0,0,0,992.6,500.953l-.005-11.584Zm-.528-.384,0,0Zm15.513,21.221a1.475,1.475,0,0,1-1.469-1.468l.014-28.342a1.469,1.469,0,0,1,1.674-1.26,15.73,15.73,0,0,1,.014,31.052l-.227.018Zm.531-28.978v26.879a13.735,13.735,0,0,0,0-26.879Zm-5.149,9.977a1.449,1.449,0,0,1-.855-.279l-7.663-5.591a1.476,1.476,0,0,1,.016-2.087,15.653,15.653,0,0,1,8.262-4.108l.227-.018h.006a1.475,1.475,0,0,1,1.471,1.467V482.6a1.462,1.462,0,0,1-1.232,1.442A1.4,1.4,0,0,1,993.134,484.059Zm-6.641-6.946,6.105,4.428v-7.466A13.643,13.643,0,0,0,986.493,477.113Z"/><path class="b" d="M1042.968,498.253h-21.22V500h21.22v-1.747m2-1.042v3.831a.93.93,0,0,1-.9.958h-24.32v-5.747h24.32a.931.931,0,0,1,.9.958Z"/><path class="b" d="M1045.968,489.505h-24.221v1.748h24.221v-1.748m2-1.042V492.3c0,.529-.7.958-1.568.958h-26.653v-5.748H1046.4c.866,0,1.568.429,1.568.958Z"/><path class="b" d="M1030.9,480.758h-9.15v1.747h9.15v-1.747m2-1.042v3.831c0,.529-.589.958-1.315.958h-11.835v-5.747h11.835c.726,0,1.315.429,1.315.958Z"/><path class="b" d="M1025.638,472.01h-3.89v1.748h3.89V472.01m2-1.042V474.8c0,.529-.589.958-1.315.958h-6.575V470.01h6.575c.726,0,1.315.429,1.315.958Z"/><path class="a" d="M1015,503.75a.75.75,0,0,1-.75-.75V470a.75.75,0,0,1,1.5,0v33A.75.75,0,0,1,1015,503.75Z"/><path class="c" d="M1008.866,458.665c-1.379,2.221-2.736,3.625-3.527,3.625a.5.5,0,0,1-.353-.126.519.519,0,0,1-.182-.508c.151-.8,1.723-1.943,4.066-2.991Zm6.629-3.177c-.588.125-1.2.269-1.825.433-.446.119-.9.247-1.351.385.24-.489.462-.979.654-1.443.253-.612.489-1.224.71-1.823.2.3.392.6.6.877a17.517,17.517,0,0,0,1.265,1.561Zm-3.062-10.571a.567.567,0,0,1,.476-.308c.522,0,.636.629.636,1.156a14.459,14.459,0,0,1-.686,3.658c-.877-2.321-.754-3.948-.428-4.506Zm9.815,12.135a.963.963,0,0,1-1.044.651,1.981,1.981,0,0,1-.473-.058,7.7,7.7,0,0,1-2.989-1.52,14.767,14.767,0,0,1,2.213-.17,8.014,8.014,0,0,1,1.476.113c.444.092.944.337.82.98Zm1.486-1.047c-.653-.7-1.9-1.058-3.716-1.058a19.587,19.587,0,0,0-3,.26,14.813,14.813,0,0,1-1.73-2.021,18.03,18.03,0,0,1-1.078-1.681,17.093,17.093,0,0,0,.962-4.849c0-1.484-.588-3.072-2.238-3.072a1.659,1.659,0,0,0-1.381.816c-.7,1.209-.422,3.7.7,6.229-.392,1.163-.817,2.3-1.341,3.552a31.719,31.719,0,0,1-1.519,3.146c-1.683.678-5.261,2.322-5.6,4.139a1.543,1.543,0,0,0,.49,1.447,2.129,2.129,0,0,0,1.458.52c2.155,0,4.3-2.985,5.75-5.553.822-.281,1.666-.534,2.5-.755.916-.243,1.8-.442,2.636-.587a8.183,8.183,0,0,0,5.326,2.293c1.4,0,1.919-.606,2.109-1.115a1.707,1.707,0,0,0-.325-1.709Z"/></g></svg>