<svg xmlns="http://www.w3.org/2000/svg" width="17.005" height="17.005" viewBox="0 0 17.005 17.005"><defs><style>.a{fill:#1b959a;isolation:isolate;}</style></defs><g transform="translate(-710.391 -614.282)"><path class="a" d="M726.865,618.533h-3.189a.532.532,0,0,0-.531.532v1.063a.531.531,0,0,0,.531.531h1.595v8.5H712.517v-8.5h1.594a.531.531,0,0,0,.531-.531v-1.063a.532.532,0,0,0-.531-.532h-3.189a.532.532,0,0,0-.531.532v11.691a.531.531,0,0,0,.531.531h15.943a.531.531,0,0,0,.531-.531V619.065A.532.532,0,0,0,726.865,618.533Z"/><path class="a" d="M714.748,622.429l3.957,4a.266.266,0,0,0,.372,0l3.962-4a.424.424,0,0,0-.319-.705h-2.764v-6.911a.531.531,0,0,0-.531-.531h-1.063a.531.531,0,0,0-.531.531v6.909h-2.764a.425.425,0,0,0-.425.425A.417.417,0,0,0,714.748,622.429Z"/></g></svg>