<svg xmlns="http://www.w3.org/2000/svg" width="40" height="40" viewBox="0 0 40 40"><defs><style>.a{fill:rgba(255,255,255,0);}.b{fill:#fff;}.c{fill:none;}.c,.d{stroke:#fff;stroke-linecap:round;}.d{fill:rgba(255,255,255,0.1);stroke-linejoin:round;stroke-miterlimit:10;}</style></defs><rect class="a" width="40" height="40"/><g transform="translate(2 2)"><path class="b" d="M17344,11966h-20a3,3,0,0,1-3-3v-26a3,3,0,0,1,3-3h.5v1h-.5a2,2,0,0,0-2,2v26a2,2,0,0,0,2,2h20a2,2,0,0,0,2-2v-21.4a1.5,1.5,0,0,0-.439-1.058l-5.121-5.1a1.485,1.485,0,0,0-1.057-.439h-2.883v-1h2.883a2.491,2.491,0,0,1,1.758.731l5.119,5.1a2.49,2.49,0,0,1,.74,1.768v21.4A3,3,0,0,1,17344,11966Z" transform="translate(-17316 -11932)"/><line class="c" x2="15" transform="translate(10.5 27.5)"/><line class="c" x2="12" transform="translate(10.5 23.5)"/><path class="d" d="M16.5,14.5l-4-3-4,3V2.5h8Z" transform="translate(2 -1)"/></g></svg>