<svg xmlns="http://www.w3.org/2000/svg" width="40" height="40" viewBox="0 0 40 40"><defs><style>.a{fill:rgba(255,255,255,0);}.b,.c{fill:#fff;}.b{opacity:0.1;}.d{fill:#ff13dc;opacity:0;}</style></defs><g transform="translate(-230 -242)"><rect class="a" width="40" height="40" transform="translate(230 242)"/><g transform="translate(230 244)"><path class="b" d="M27.955,21.515v-.03l-.91.03Z"/><path class="b" d="M13163.728,2453.073H13151a2,2,0,0,1-2-2v-26a2,2,0,0,1,2-2h15.379a1.513,1.513,0,0,1,1.062.44l5.119,5.1a1.493,1.493,0,0,1,.439,1.062v7.97a10.5,10.5,0,0,0-9.272,15.427Z" transform="translate(-13145 -2422.073)"/><path class="b" d="M24.94,18.47h-.56a.87.87,0,0,0-.32.06h.82Z"/><path class="c" d="M18.733,31H6a2,2,0,0,1-2-2V3A2,2,0,0,1,6,1H21V6.5A1.54,1.54,0,0,0,22.5,8H28v7.6h1V8.1a2.87,2.87,0,0,0-.7-1.8L22.81.7a3.12,3.12,0,0,0-1.8-.7H6A3,3,0,0,0,3,3V29a3,3,0,0,0,3,3H18.823ZM22,1.42,27.49,7h-5a.47.47,0,0,1-.5-.5Z"/><g transform="translate(19 17.073)"><rect class="d" width="18" height="18"/><path class="c" d="M9,.925A8.146,8.146,0,0,0,.925,9,8.146,8.146,0,0,0,9,17.075,8.15,8.15,0,0,0,17.075,9,8.15,8.15,0,0,0,9,.925Zm6.861,9.544a6.937,6.937,0,0,1-.333,1.071c-.033.083-.056.17-.091.25a7.041,7.041,0,0,1-.611,1.125c-.017.026-.039.047-.057.073A7.072,7.072,0,0,1,14,13.92c-.046.05-.1.089-.15.136a7.049,7.049,0,0,1-.922.761l-.013.009A6.984,6.984,0,0,1,9.178,16c2.469-1.86,2.167-2.95,3.566-4.506.468-.624-1.4-.78-2.964-1.4C7.752,9.154,8.53,10.714,6.972,9c-.936-1.092-1.25-2.65,1.56-1.4C8.844,7.906,9,6.5,9.624,5.722c.311-.312.311-.623.468-1.092a1.026,1.026,0,0,0-2.028.156c0,.312-1.092-1.872-.312-1.872A5.54,5.54,0,0,1,6.192,2.6c.146-.075.3-.134.45-.2A6.92,6.92,0,0,1,8.919,1.98.73.73,0,0,1,9,1.98c.156-.156-.936,1.092-.624,1.092S10.56,3.54,10.4,3.7c.536-.937-.194-1.526-1-1.675a6.945,6.945,0,0,1,3.115.936c.169.1.35.187.51.306.059.042.109.1.168.138a6.421,6.421,0,0,1,.956.92c-.312.156-.312.623-.156.935.311.311.314.311.929,0,.1.157.179.326.266.491-.094.036-.13.13-.259.13A2.506,2.506,0,0,0,14.15,7.6c0,2.5.624,1.56,1.4,1.872a.568.568,0,0,0,.406.15,7.14,7.14,0,0,1-.073.722C15.875,10.383,15.87,10.427,15.861,10.469ZM6.475,15.533A7.554,7.554,0,0,1,1.98,9a6.945,6.945,0,0,1,.111-1.147c.025-.146.045-.293.079-.437a6.974,6.974,0,0,1,.267-.872c.074-.2.159-.391.25-.58.064-.135.138-.262.211-.392a7.016,7.016,0,0,1,.56-.85c.093-.121.193-.244.293-.36.132-.15.265-.3.41-.441a6.973,6.973,0,0,1,.628-.52C4.934,4.795,3.7,5.575,4.164,7.13c.624,2.028,1.4,1.092,2.34,2.5,1.082,1.545,2.769,4.162,1.889,6.334A6.953,6.953,0,0,1,6.475,15.533Z"/></g></g></g></svg>