<svg xmlns="http://www.w3.org/2000/svg" width="87.383" height="88.914" viewBox="0 0 87.383 88.914">
  <g id="_2_Icon_protect" data-name="2_Icon_protect" transform="translate(-1)">
    <path id="Path_185156" data-name="Path 185156" d="M34.745,0l.7.472A77.586,77.586,0,0,0,64.512,12.388l1.453.25.287.062a2.891,2.891,0,0,1,2.157,2.716V44.128a18.456,18.456,0,0,0-2.5.512V15.417a.439.439,0,0,0-.345-.31l-1.468-.25A79.985,79.985,0,0,1,35.953,3.785V84.532l1.019-.442a74.533,74.533,0,0,0,11.465-6.376v3a76.759,76.759,0,0,1-12.166,6.4l-1.565.627-1.565-.627A75.019,75.019,0,0,1,15.413,76.7C6.333,69.442,1,60.918,1,51.181V15.417a2.9,2.9,0,0,1,2.442-2.774A77.207,77.207,0,0,0,34.048.474ZM33.456,3.845A79.776,79.776,0,0,1,3.841,15.107a.439.439,0,0,0-.345.31V51.181c0,8.866,4.933,16.728,13.467,23.573a72.551,72.551,0,0,0,16.493,9.779Z" transform="translate(0)" fill="#b3b3b3"/>
    <path id="Path_185157" data-name="Path 185157" d="M31.96,83.444C26.322,81.044,2,70.376,2,49.454V13.69a1.615,1.615,0,0,1,1.286-1.54,71.9,71.9,0,0,0,28.674-11Z" transform="translate(1.497 1.727)" fill="#b3b3b3" fill-rule="evenodd" opacity="0.1"/>
    <path id="Path_185158" data-name="Path 185158" d="M52.584,34.432h-.2a12.181,12.181,0,0,0,.2-2.1,13.117,13.117,0,0,0-26.215,0,12.182,12.182,0,0,0,.2,2.1h-.2A4.289,4.289,0,0,0,22,38.639v16.55a4.289,4.289,0,0,0,4.369,4.2H52.584a4.289,4.289,0,0,0,4.369-4.207V38.639a4.289,4.289,0,0,0-4.369-4.207ZM41.661,48.291V51.4a1.715,1.715,0,0,1-1.748,1.683H39.04A1.715,1.715,0,0,1,37.292,51.4V48.291a4.149,4.149,0,0,1-2.185-3.615,4.372,4.372,0,0,1,8.738,0A4.149,4.149,0,0,1,41.661,48.291Zm6.7-13.859H30.593a8.431,8.431,0,0,1-.292-2.1,9.183,9.183,0,0,1,18.35,0A8.431,8.431,0,0,1,48.36,34.432Z" transform="translate(31.43 29.52)" fill="#fa0f00"/>
  </g>
</svg>
