<svg xmlns="http://www.w3.org/2000/svg" width="36" height="36" viewBox="0 0 36 36">
  <g fill="none" fill-rule="evenodd">
    <path fill="#D7373F" fill-rule="nonzero" d="M23,9.9475983e-14 C23.6,9.9475983e-14 24.3,0.3 24.8,0.7 L24.8,0.7 L30.2935067,6.3 C30.6935067,6.8 30.9935067,7.4 30.9935067,8.1 L30.9935067,8.1 L30.996,18.267 L30.9067742,18.3897399 L30.7090646,18.6744036 L29.9970867,19.5781815 C29.9955654,14.6581384 29.994529,11.306141 29.9939774,9.52218935 L29.9935067,8 L24.5,8 C23.7,8 23,7.3 23,6.5 L23,6.5 L23,1 L23,1 L8,1 C6.9,1 6,1.9 6,3 L6,3 L6,29 C6,30.1 6.9,31 8,31 L8,31 L18.2575053,31.0005474 C18.1542937,31.3218132 18.0803865,31.6563192 18.0389317,32.000839 L8,32 C6.3,32 5,30.7 5,29 L5,29 L5,3 C5,1.3 6.3,9.9475983e-14 8,9.9475983e-14 L8,9.9475983e-14 Z M24,1.41937648 L24,6.5 C24,6.8 24.2,7 24.5,7 L24.5,7 L29.4935067,7 L24,1.41937648 Z"/>
    <path fill="#D7373F" fill-rule="nonzero" d="M23.38,1 C23.7769087,1 24.1576384,1.1573488 24.43879,1.43751 L29.55879,6.53951 C29.8412293,6.8209559 30,7.20327234 30,7.602 L30,19.574 L28.0099719,22.103452 L25.3635989,18.6173139 L25.1708263,18.3525695 C24.233185,17.1183296 22.898667,16.4890755 21.2843913,17.389109 L21.2843913,17.389109 L21.1521153,17.462859 L21.0324531,17.5556865 L20.8699929,17.6885648 C19.6725873,18.7220384 19.577126,20.0879719 20.2468856,21.3346348 L20.2468856,21.3346348 L20.3613211,21.5375468 L20.6695832,22.0492271 C20.9108079,22.4427064 21.1929686,22.8705313 21.5227511,23.346698 L21.5227511,23.346698 L21.9417766,23.9421979 L23.9404715,26.6833098 L23.7701567,26.99756 L23.5974484,27.3039522 C23.5041822,27.2990152 23.4105611,27.2965382 23.3166667,27.2965382 C20.9475298,27.2965382 18.9475595,28.852623 18.2575053,31.0005474 L8,31 C6.8954305,31 6,30.1045695 6,29 L6,3 C6,1.8954305 6.8954305,1 8,1 L23.38,1 Z" opacity=".1"/>
    <path fill="#D7373F" fill-rule="nonzero" d="M26.9916667,24.0686813 L23.825,19.9032597 C23.5166667,19.4900904 23.075,18.6806157 22.2583333,19.1359452 C21.5083333,19.7177551 21.925,20.2489728 22.25,20.7970546 C23.2083333,22.4160039 24.9583333,24.6251951 25.8,25.847839 C26.1166667,26.3116005 26.1,27.0367549 25.775,27.4920844 C25.4,28.2088067 24.95,28.9761212 24.55,29.541067 C24.1666667,29.3808585 23.75,29.2965382 23.3166667,29.2965382 C21.4833333,29.2965382 20,30.7974391 20,32.6524851 C20,34.4990991 21.4833333,36 23.3166667,36 C25.1416667,36 26.625,34.4990991 26.625,32.6524851 C26.625,32.0200831 26.4583333,31.4382732 26.1583333,30.9323515 C26.3833333,30.0301246 26.675,29.4736108 27.0166667,28.7906166 C27.5309322,27.6354288 28.4666667,27.6354288 28.9833333,28.7906166 C29.325,29.4736108 29.4833333,30.0048285 29.8416667,30.9323515 C29.5416667,31.4382732 29.375,32.0200831 29.375,32.6524851 C29.375,34.4990991 30.8583333,36 32.6833333,36 C34.5166667,36 36,34.4990991 36,32.6524851 C36,30.7974391 34.5166667,29.2965382 32.6833333,29.2965382 C32.25,29.2965382 31.8333333,29.3808585 31.45,29.541067 C31.075,28.8159127 30.7083333,28.2678309 30.3666667,27.5511085 C30.125,27.0451869 29.8833333,26.3116005 30.2,25.847839 C31.0416667,24.6251951 32.9166667,22.3991398 33.875,20.7801906 C34.2,20.2321088 34.5333333,19.7177551 33.7833333,19.1359452 C32.9666667,18.6806157 32.6083333,19.4816584 32.3,19.8863957 L29.0083333,24.0686813 C28.025,25.4431017 27.925,25.3925096 26.9916667,24.0686813 Z M23.3166667,30.8395992 C24.3,30.8395992 25.0083333,31.5394575 25.0083333,32.5344367 C25.0083333,33.529416 24.3,34.465371 23.3166667,34.465371 C22.325,34.465371 21.525,33.6474644 21.525,32.6524851 C21.525,31.6575059 22.325,30.8395992 23.3166667,30.8395992 Z M32.6833333,30.8395992 C33.675,30.8395992 34.475,31.6575059 34.475,32.6524851 C34.475,33.6474644 33.675,34.465371 32.6833333,34.465371 C31.7,34.465371 30.9916667,33.529416 30.9916667,32.5344367 C30.9916667,31.5394575 31.7,30.8395992 32.6833333,30.8395992 Z"/>
  </g>
</svg>
