<svg xmlns="http://www.w3.org/2000/svg" width="25" height="24.107" viewBox="0 0 25 24.107"><defs><style>.a{fill:#fa0f00;}.b{fill:#fff;}</style></defs><g transform="translate(0 54)"><path class="a" d="M4.42-54H20.58A4.4,4.4,0,0,1,25-49.58v15.268a4.4,4.4,0,0,1-4.42,4.42H4.42A4.4,4.4,0,0,1,0-34.312V-49.58A4.4,4.4,0,0,1,4.42-54Z"/><path class="b" d="M26.145-34.536c-1.161-1.205-4.33-.714-5.089-.625a13.5,13.5,0,0,1-2.143-2.812,12.982,12.982,0,0,0,.714-3.705c0-1.116-.446-2.321-1.7-2.321a1.3,1.3,0,0,0-1.071.625c-.536.938-.312,2.813.536,4.732a32.245,32.245,0,0,1-2.188,5.089c-1.295.536-4.018,1.786-4.241,3.125a1.193,1.193,0,0,0,.357,1.116,1.715,1.715,0,0,0,1.116.4c1.652,0,3.259-2.277,4.375-4.2A29.641,29.641,0,0,1,20.7-34.134a6.175,6.175,0,0,0,4.063,1.741c1.071,0,1.473-.446,1.607-.848A1.161,1.161,0,0,0,26.145-34.536Zm-1.116.759c-.045.313-.446.625-1.161.446a6.123,6.123,0,0,1-2.277-1.161,9.61,9.61,0,0,1,2.813-.045C24.761-34.446,25.118-34.223,25.029-33.777Zm-7.455-9.2a.455.455,0,0,1,.357-.223c.4,0,.491.491.491.893a9.811,9.811,0,0,1-.536,2.768A4.85,4.85,0,0,1,17.573-42.973Zm-.089,8.661a24.927,24.927,0,0,0,1.027-2.5,11.381,11.381,0,0,0,1.429,1.83C19.94-34.937,18.556-34.67,17.484-34.312ZM14.85-32.527c-1.027,1.7-2.1,2.768-2.679,2.768a.635.635,0,0,1-.268-.089.339.339,0,0,1-.134-.4C11.9-30.875,13.065-31.723,14.85-32.527Z" transform="translate(-6.056 -5.536)"/></g></svg>