<svg xmlns="http://www.w3.org/2000/svg" width="70.951" height="64.771" viewBox="0 0 70.951 64.771">
  <g id="Group_292614" data-name="Group 292614" transform="translate(-1262 -944.999)">
    <path id="Path_578175" data-name="Path 578175" d="M472.967,14338.271h-34.2a5,5,0,0,1-4.9-5.092V14309h1.7v24.178a3.41,3.41,0,0,0,3.39,3.394H472.87a3.411,3.411,0,0,0,3.393-3.393v-.911h1.7v1.094a5,5,0,0,1-4.995,4.909Zm-37.4-46.272h-1.7v-2.911a1.508,1.508,0,0,1,0-.18,4.99,4.99,0,0,1,4.991-4.908h7.006v1.694h-6.913a3.4,3.4,0,0,0-3.39,3.394v2.91Z" transform="translate(839 -13329)" fill="#b3b3b3" stroke="rgba(0,0,0,0)" stroke-width="1"/>
    <rect id="Rectangle_215465" data-name="Rectangle 215465" width="16" height="2" transform="translate(1262 965)" fill="#b3b3b3"/>
    <rect id="Rectangle_215466" data-name="Rectangle 215466" width="10" height="2" transform="translate(1268 970)" fill="#b3b3b3"/>
    <rect id="Rectangle_215467" data-name="Rectangle 215467" width="8" height="2" transform="translate(1270 975)" fill="#b3b3b3"/>
    <g id="Group_292594" data-name="Group 292594" transform="translate(-4)">
      <path id="Path_578176" data-name="Path 578176" d="M244.144,248.837l-8.649-8.649A5.281,5.281,0,0,0,232.442,239H206.325a5,5,0,0,0-5.087,4.9c0,.061,0,.122,0,.182v27.275a3.034,3.034,0,0,1,1.5.818l.2.2V244.088a3.4,3.4,0,0,1,3.392-3.392h26.117a3.559,3.559,0,0,1,1.866.679l8.648,8.649a3.549,3.549,0,0,1,.678,1.866v36.291a3.4,3.4,0,0,1-3.392,3.392H206.325a3.4,3.4,0,0,1-3.392-3.392V266.117l-.2.2a3.023,3.023,0,0,1-1.5.818v21.048a5,5,0,0,0,4.9,5.088h34.1a5,5,0,0,0,5.088-4.9q0-.092,0-.183v-36.3a4.876,4.876,0,0,0-1.177-3.053Z" transform="translate(1091.63 706)" fill="#fa0f00"/>
      <rect id="Rectangle_215468" data-name="Rectangle 215468" width="25" height="1" rx="0.5" transform="translate(1302 974)" fill="#b3b3b3"/>
      <rect id="Rectangle_215469" data-name="Rectangle 215469" width="23" height="1" rx="0.5" transform="translate(1302 979)" fill="#b3b3b3"/>
      <rect id="Rectangle_215470" data-name="Rectangle 215470" width="23" height="1" rx="0.5" transform="translate(1302 984)" fill="#b3b3b3"/>
      <rect id="Rectangle_215471" data-name="Rectangle 215471" width="14" height="1" rx="0.5" transform="translate(1302 989)" fill="#b3b3b3"/>
      <path id="Path_578177" data-name="Path 578177" d="M215.569,259.8c-.942,1.517-1.868,2.476-2.408,2.476a.341.341,0,0,1-.242-.087.354.354,0,0,1-.124-.347c.1-.543,1.176-1.327,2.776-2.042Zm4.528-2.169c-.4.085-.823.183-1.246.3-.3.081-.614.168-.923.263.164-.335.315-.669.446-.985.173-.418.335-.836.485-1.245.134.206.268.406.407.6a11.834,11.834,0,0,0,.864,1.065Zm-2.091-7.219a.389.389,0,0,1,.325-.211c.357,0,.434.43.434.79a9.863,9.863,0,0,1-.468,2.5,4.249,4.249,0,0,1-.292-3.077Zm6.7,8.287c-.052.268-.335.445-.713.445a1.306,1.306,0,0,1-.322-.04,5.245,5.245,0,0,1-2.042-1.037,10.17,10.17,0,0,1,1.512-.117,5.439,5.439,0,0,1,1.008.078c.3.063.645.23.56.669Zm1.015-.715a3.45,3.45,0,0,0-2.538-.723,13.467,13.467,0,0,0-2.049.178,10.12,10.12,0,0,1-1.181-1.38,12.667,12.667,0,0,1-.736-1.148,11.666,11.666,0,0,0,.657-3.312c0-1.013-.4-2.1-1.528-2.1a1.133,1.133,0,0,0-.943.558c-.48.825-.289,2.525.479,4.254-.268.794-.558,1.568-.916,2.425a21.638,21.638,0,0,1-1.037,2.149c-1.149.463-3.592,1.586-3.825,2.827a1.052,1.052,0,0,0,.335.988,1.458,1.458,0,0,0,1,.356c1.472,0,2.939-2.039,3.927-3.793.561-.191,1.138-.365,1.7-.515.625-.166,1.229-.3,1.8-.4a5.587,5.587,0,0,0,3.637,1.566c.954,0,1.31-.414,1.44-.762a1.167,1.167,0,0,0-.222-1.167Z" transform="translate(1089.914 703.946)" fill="#fa0f00" fill-rule="evenodd"/>
    </g>
  </g>
</svg>
