<svg xmlns="http://www.w3.org/2000/svg" xmlns:xlink="http://www.w3.org/1999/xlink" width="130.161" height="90" viewBox="0 0 130.161 90">
  <defs>
    <clipPath id="clip-path">
      <rect id="Rectangle_216994" data-name="Rectangle 216994" width="130.161" height="90" fill="none"/>
    </clipPath>
  </defs>
  <g id="_3_Highly_Accurate_Content_Tagging_Icon" data-name="3_Highly Accurate Content Tagging Icon" transform="translate(0 0)">
    <g id="Group_187338" data-name="Group 187338" transform="translate(0 0)" clip-path="url(#clip-path)">
      <path id="Path_357921" data-name="Path 357921" d="M41.94,90a5.063,5.063,0,0,1-3.6-1.486L1.489,51.689a5.091,5.091,0,0,1,0-7.194L44.479,1.5A5.145,5.145,0,0,1,48.074,0H84.933A5.089,5.089,0,0,1,90,5.1V41.955a5.19,5.19,0,0,1-1.432,3.561l-.037.038-6.244,6.24-2.436-2.437,6.222-6.218a1.74,1.74,0,0,0,.481-1.184V5.1a1.659,1.659,0,0,0-1.621-1.653H48.074a1.672,1.672,0,0,0-1.162.5L3.925,46.931a1.645,1.645,0,0,0,0,2.319L40.776,86.075a1.638,1.638,0,0,0,1.164.479,1.62,1.62,0,0,0,1.156-.477l28.05-28.384,2.435,2.438L45.533,88.513A5.04,5.04,0,0,1,41.94,90Z" transform="translate(0.001 0)" fill="#b3b4b4"/>
      <path id="Path_357922" data-name="Path 357922" d="M30.453,45.04h0a3.218,3.218,0,0,1-2.284-.952L18.716,34.6a3.226,3.226,0,1,1,4.575-4.549l7.169,7.2L62.519,5.182a3.228,3.228,0,0,1,4.565,4.565L32.734,44.095a3.212,3.212,0,0,1-2.281.945" transform="translate(52.603 19.3)" fill="#eb1000"/>
      <path id="Path_357923" data-name="Path 357923" d="M25.8,2.494a9.832,9.832,0,1,1-9.832,9.832A9.844,9.844,0,0,1,25.8,2.494Zm0,16.219a6.386,6.386,0,1,0-6.386-6.386A6.394,6.394,0,0,0,25.8,18.713Z" transform="translate(46.349 7.238)" fill="#b3b4b4"/>
    </g>
  </g>
</svg>
